G04 EAGLE Gerber RS-274X export*
G75*
%MOMM*%
%FSLAX34Y34*%
%LPD*%
%INSoldermask Top*%
%IPPOS*%
%AMOC8*
5,1,8,0,0,1.08239X$1,22.5*%
G01*
%ADD10C,0.225588*%
%ADD11C,0.225369*%
%ADD12C,0.225400*%
%ADD13C,1.127000*%
%ADD14C,0.222250*%
%ADD15C,2.006600*%
%ADD16C,0.428259*%
%ADD17C,0.223409*%
%ADD18C,0.224509*%
%ADD19C,0.223519*%
%ADD20C,0.224709*%
%ADD21C,3.175000*%
%ADD22C,0.230578*%
%ADD23C,0.777000*%
%ADD24C,0.228600*%
%ADD25C,1.270000*%
%ADD26C,1.627000*%

G36*
X781044Y42883D02*
X781044Y42883D01*
X781050Y42889D01*
X781055Y42885D01*
X782285Y43250D01*
X782290Y43257D01*
X782295Y43255D01*
X783414Y43885D01*
X783417Y43892D01*
X783423Y43891D01*
X784373Y44754D01*
X784374Y44762D01*
X784380Y44762D01*
X785114Y45815D01*
X785114Y45823D01*
X785119Y45825D01*
X785601Y47015D01*
X785599Y47020D01*
X785603Y47023D01*
X785602Y47024D01*
X785604Y47025D01*
X785809Y48292D01*
X785806Y48297D01*
X785809Y48300D01*
X785809Y60300D01*
X785806Y60304D01*
X785809Y60307D01*
X785654Y61429D01*
X785649Y61434D01*
X785652Y61438D01*
X785281Y62509D01*
X785275Y62513D01*
X785277Y62518D01*
X784704Y63495D01*
X784698Y63498D01*
X784699Y63503D01*
X783946Y64350D01*
X783939Y64352D01*
X783939Y64357D01*
X783036Y65041D01*
X783029Y65041D01*
X783028Y65046D01*
X782009Y65541D01*
X782002Y65539D01*
X782000Y65544D01*
X780903Y65831D01*
X780897Y65828D01*
X780894Y65832D01*
X779763Y65899D01*
X779757Y65899D01*
X778626Y65832D01*
X778621Y65827D01*
X778617Y65831D01*
X777520Y65544D01*
X777516Y65538D01*
X777511Y65541D01*
X776492Y65046D01*
X776489Y65040D01*
X776484Y65041D01*
X775581Y64357D01*
X775579Y64350D01*
X775574Y64350D01*
X774821Y63503D01*
X774821Y63496D01*
X774816Y63495D01*
X774243Y62518D01*
X774244Y62515D01*
X774243Y62514D01*
X774244Y62513D01*
X774244Y62511D01*
X774239Y62509D01*
X773868Y61438D01*
X773870Y61433D01*
X773867Y61431D01*
X773867Y61430D01*
X773866Y61429D01*
X773711Y60307D01*
X773714Y60302D01*
X773711Y60300D01*
X773711Y48300D01*
X773714Y48295D01*
X773711Y48292D01*
X773916Y47025D01*
X773922Y47019D01*
X773919Y47015D01*
X774401Y45825D01*
X774408Y45821D01*
X774406Y45815D01*
X775140Y44762D01*
X775148Y44760D01*
X775147Y44754D01*
X776097Y43891D01*
X776106Y43890D01*
X776106Y43885D01*
X777225Y43255D01*
X777233Y43256D01*
X777235Y43250D01*
X778465Y42885D01*
X778473Y42888D01*
X778476Y42883D01*
X779757Y42801D01*
X779761Y42804D01*
X779763Y42801D01*
X781044Y42883D01*
G37*
G36*
X506764Y42883D02*
X506764Y42883D01*
X506770Y42889D01*
X506775Y42885D01*
X508005Y43250D01*
X508010Y43257D01*
X508015Y43255D01*
X509134Y43885D01*
X509137Y43892D01*
X509143Y43891D01*
X510093Y44754D01*
X510094Y44762D01*
X510100Y44762D01*
X510834Y45815D01*
X510834Y45823D01*
X510839Y45825D01*
X511321Y47015D01*
X511319Y47020D01*
X511323Y47023D01*
X511322Y47024D01*
X511324Y47025D01*
X511529Y48292D01*
X511526Y48297D01*
X511529Y48300D01*
X511529Y60300D01*
X511526Y60304D01*
X511529Y60307D01*
X511374Y61429D01*
X511369Y61434D01*
X511372Y61438D01*
X511001Y62509D01*
X510995Y62513D01*
X510997Y62518D01*
X510424Y63495D01*
X510418Y63498D01*
X510419Y63503D01*
X509666Y64350D01*
X509659Y64352D01*
X509659Y64357D01*
X508756Y65041D01*
X508749Y65041D01*
X508748Y65046D01*
X507729Y65541D01*
X507722Y65539D01*
X507720Y65544D01*
X506623Y65831D01*
X506617Y65828D01*
X506614Y65832D01*
X505483Y65899D01*
X505477Y65899D01*
X504346Y65832D01*
X504341Y65827D01*
X504337Y65831D01*
X503240Y65544D01*
X503236Y65538D01*
X503231Y65541D01*
X502212Y65046D01*
X502209Y65040D01*
X502204Y65041D01*
X501301Y64357D01*
X501299Y64350D01*
X501294Y64350D01*
X500541Y63503D01*
X500541Y63496D01*
X500536Y63495D01*
X499963Y62518D01*
X499964Y62515D01*
X499963Y62514D01*
X499964Y62513D01*
X499964Y62511D01*
X499959Y62509D01*
X499588Y61438D01*
X499590Y61433D01*
X499587Y61431D01*
X499587Y61430D01*
X499586Y61429D01*
X499431Y60307D01*
X499434Y60302D01*
X499431Y60300D01*
X499431Y48300D01*
X499434Y48295D01*
X499431Y48292D01*
X499636Y47025D01*
X499642Y47019D01*
X499639Y47015D01*
X500121Y45825D01*
X500128Y45821D01*
X500126Y45815D01*
X500860Y44762D01*
X500868Y44760D01*
X500867Y44754D01*
X501817Y43891D01*
X501826Y43890D01*
X501826Y43885D01*
X502945Y43255D01*
X502953Y43256D01*
X502955Y43250D01*
X504185Y42885D01*
X504193Y42888D01*
X504196Y42883D01*
X505477Y42801D01*
X505481Y42804D01*
X505483Y42801D01*
X506764Y42883D01*
G37*
G36*
X1228124Y42883D02*
X1228124Y42883D01*
X1228130Y42889D01*
X1228135Y42885D01*
X1229365Y43250D01*
X1229370Y43257D01*
X1229375Y43255D01*
X1230494Y43885D01*
X1230497Y43892D01*
X1230503Y43891D01*
X1231453Y44754D01*
X1231454Y44762D01*
X1231460Y44762D01*
X1232194Y45815D01*
X1232194Y45823D01*
X1232199Y45825D01*
X1232681Y47015D01*
X1232679Y47020D01*
X1232683Y47023D01*
X1232682Y47024D01*
X1232684Y47025D01*
X1232889Y48292D01*
X1232886Y48297D01*
X1232889Y48300D01*
X1232889Y60300D01*
X1232886Y60304D01*
X1232889Y60307D01*
X1232734Y61429D01*
X1232729Y61434D01*
X1232732Y61438D01*
X1232361Y62509D01*
X1232355Y62513D01*
X1232357Y62518D01*
X1231784Y63495D01*
X1231778Y63498D01*
X1231779Y63503D01*
X1231026Y64350D01*
X1231019Y64352D01*
X1231019Y64357D01*
X1230116Y65041D01*
X1230109Y65041D01*
X1230108Y65046D01*
X1229089Y65541D01*
X1229082Y65539D01*
X1229080Y65544D01*
X1227983Y65831D01*
X1227977Y65828D01*
X1227974Y65832D01*
X1226843Y65899D01*
X1226837Y65899D01*
X1225706Y65832D01*
X1225701Y65827D01*
X1225697Y65831D01*
X1224600Y65544D01*
X1224596Y65538D01*
X1224591Y65541D01*
X1223572Y65046D01*
X1223569Y65040D01*
X1223564Y65041D01*
X1222661Y64357D01*
X1222659Y64350D01*
X1222654Y64350D01*
X1221901Y63503D01*
X1221901Y63496D01*
X1221896Y63495D01*
X1221323Y62518D01*
X1221324Y62515D01*
X1221323Y62514D01*
X1221324Y62513D01*
X1221324Y62511D01*
X1221319Y62509D01*
X1220948Y61438D01*
X1220950Y61433D01*
X1220947Y61431D01*
X1220947Y61430D01*
X1220946Y61429D01*
X1220791Y60307D01*
X1220794Y60302D01*
X1220791Y60300D01*
X1220791Y48300D01*
X1220794Y48295D01*
X1220791Y48292D01*
X1220996Y47025D01*
X1221002Y47019D01*
X1220999Y47015D01*
X1221481Y45825D01*
X1221488Y45821D01*
X1221486Y45815D01*
X1222220Y44762D01*
X1222228Y44760D01*
X1222227Y44754D01*
X1223177Y43891D01*
X1223186Y43890D01*
X1223186Y43885D01*
X1224305Y43255D01*
X1224313Y43256D01*
X1224315Y43250D01*
X1225545Y42885D01*
X1225553Y42888D01*
X1225556Y42883D01*
X1226837Y42801D01*
X1226841Y42804D01*
X1226843Y42801D01*
X1228124Y42883D01*
G37*
G36*
X1141724Y42883D02*
X1141724Y42883D01*
X1141730Y42889D01*
X1141735Y42885D01*
X1142965Y43250D01*
X1142970Y43257D01*
X1142975Y43255D01*
X1144094Y43885D01*
X1144097Y43892D01*
X1144103Y43891D01*
X1145053Y44754D01*
X1145054Y44762D01*
X1145060Y44762D01*
X1145794Y45815D01*
X1145794Y45823D01*
X1145799Y45825D01*
X1146281Y47015D01*
X1146279Y47020D01*
X1146283Y47023D01*
X1146282Y47024D01*
X1146284Y47025D01*
X1146489Y48292D01*
X1146486Y48297D01*
X1146489Y48300D01*
X1146489Y60300D01*
X1146486Y60304D01*
X1146489Y60307D01*
X1146334Y61429D01*
X1146329Y61434D01*
X1146332Y61438D01*
X1145961Y62509D01*
X1145955Y62513D01*
X1145957Y62518D01*
X1145384Y63495D01*
X1145378Y63498D01*
X1145379Y63503D01*
X1144626Y64350D01*
X1144619Y64352D01*
X1144619Y64357D01*
X1143716Y65041D01*
X1143709Y65041D01*
X1143708Y65046D01*
X1142689Y65541D01*
X1142682Y65539D01*
X1142680Y65544D01*
X1141583Y65831D01*
X1141577Y65828D01*
X1141574Y65832D01*
X1140443Y65899D01*
X1140437Y65899D01*
X1139306Y65832D01*
X1139301Y65827D01*
X1139297Y65831D01*
X1138200Y65544D01*
X1138196Y65538D01*
X1138191Y65541D01*
X1137172Y65046D01*
X1137169Y65040D01*
X1137164Y65041D01*
X1136261Y64357D01*
X1136259Y64350D01*
X1136254Y64350D01*
X1135501Y63503D01*
X1135501Y63496D01*
X1135496Y63495D01*
X1134923Y62518D01*
X1134924Y62515D01*
X1134923Y62514D01*
X1134924Y62513D01*
X1134924Y62511D01*
X1134919Y62509D01*
X1134548Y61438D01*
X1134550Y61433D01*
X1134547Y61431D01*
X1134547Y61430D01*
X1134546Y61429D01*
X1134391Y60307D01*
X1134394Y60302D01*
X1134391Y60300D01*
X1134391Y48300D01*
X1134394Y48295D01*
X1134391Y48292D01*
X1134596Y47025D01*
X1134602Y47019D01*
X1134599Y47015D01*
X1135081Y45825D01*
X1135088Y45821D01*
X1135086Y45815D01*
X1135820Y44762D01*
X1135828Y44760D01*
X1135827Y44754D01*
X1136777Y43891D01*
X1136786Y43890D01*
X1136786Y43885D01*
X1137905Y43255D01*
X1137913Y43256D01*
X1137915Y43250D01*
X1139145Y42885D01*
X1139153Y42888D01*
X1139156Y42883D01*
X1140437Y42801D01*
X1140441Y42804D01*
X1140443Y42801D01*
X1141724Y42883D01*
G37*
G36*
X867444Y42883D02*
X867444Y42883D01*
X867450Y42889D01*
X867455Y42885D01*
X868685Y43250D01*
X868690Y43257D01*
X868695Y43255D01*
X869814Y43885D01*
X869817Y43892D01*
X869823Y43891D01*
X870773Y44754D01*
X870774Y44762D01*
X870780Y44762D01*
X871514Y45815D01*
X871514Y45823D01*
X871519Y45825D01*
X872001Y47015D01*
X871999Y47020D01*
X872003Y47023D01*
X872002Y47024D01*
X872004Y47025D01*
X872209Y48292D01*
X872206Y48297D01*
X872209Y48300D01*
X872209Y60300D01*
X872206Y60304D01*
X872209Y60307D01*
X872054Y61429D01*
X872049Y61434D01*
X872052Y61438D01*
X871681Y62509D01*
X871675Y62513D01*
X871677Y62518D01*
X871104Y63495D01*
X871098Y63498D01*
X871099Y63503D01*
X870346Y64350D01*
X870339Y64352D01*
X870339Y64357D01*
X869436Y65041D01*
X869429Y65041D01*
X869428Y65046D01*
X868409Y65541D01*
X868402Y65539D01*
X868400Y65544D01*
X867303Y65831D01*
X867297Y65828D01*
X867294Y65832D01*
X866163Y65899D01*
X866157Y65899D01*
X865026Y65832D01*
X865021Y65827D01*
X865017Y65831D01*
X863920Y65544D01*
X863916Y65538D01*
X863911Y65541D01*
X862892Y65046D01*
X862889Y65040D01*
X862884Y65041D01*
X861981Y64357D01*
X861979Y64350D01*
X861974Y64350D01*
X861221Y63503D01*
X861221Y63496D01*
X861216Y63495D01*
X860643Y62518D01*
X860644Y62515D01*
X860643Y62514D01*
X860644Y62513D01*
X860644Y62511D01*
X860639Y62509D01*
X860268Y61438D01*
X860270Y61433D01*
X860267Y61431D01*
X860267Y61430D01*
X860266Y61429D01*
X860111Y60307D01*
X860114Y60302D01*
X860111Y60300D01*
X860111Y48300D01*
X860114Y48295D01*
X860111Y48292D01*
X860316Y47025D01*
X860322Y47019D01*
X860319Y47015D01*
X860801Y45825D01*
X860808Y45821D01*
X860806Y45815D01*
X861540Y44762D01*
X861548Y44760D01*
X861547Y44754D01*
X862497Y43891D01*
X862506Y43890D01*
X862506Y43885D01*
X863625Y43255D01*
X863633Y43256D01*
X863635Y43250D01*
X864865Y42885D01*
X864873Y42888D01*
X864876Y42883D01*
X866157Y42801D01*
X866161Y42804D01*
X866163Y42801D01*
X867444Y42883D01*
G37*
G36*
X420364Y42883D02*
X420364Y42883D01*
X420370Y42889D01*
X420375Y42885D01*
X421605Y43250D01*
X421610Y43257D01*
X421615Y43255D01*
X422734Y43885D01*
X422737Y43892D01*
X422743Y43891D01*
X423693Y44754D01*
X423694Y44762D01*
X423700Y44762D01*
X424434Y45815D01*
X424434Y45823D01*
X424439Y45825D01*
X424921Y47015D01*
X424919Y47020D01*
X424923Y47023D01*
X424922Y47024D01*
X424924Y47025D01*
X425129Y48292D01*
X425126Y48297D01*
X425129Y48300D01*
X425129Y60300D01*
X425126Y60304D01*
X425129Y60307D01*
X424974Y61429D01*
X424969Y61434D01*
X424972Y61438D01*
X424601Y62509D01*
X424595Y62513D01*
X424597Y62518D01*
X424024Y63495D01*
X424018Y63498D01*
X424019Y63503D01*
X423266Y64350D01*
X423259Y64352D01*
X423259Y64357D01*
X422356Y65041D01*
X422349Y65041D01*
X422348Y65046D01*
X421329Y65541D01*
X421322Y65539D01*
X421320Y65544D01*
X420223Y65831D01*
X420217Y65828D01*
X420214Y65832D01*
X419083Y65899D01*
X419077Y65899D01*
X417946Y65832D01*
X417941Y65827D01*
X417937Y65831D01*
X416840Y65544D01*
X416836Y65538D01*
X416831Y65541D01*
X415812Y65046D01*
X415809Y65040D01*
X415804Y65041D01*
X414901Y64357D01*
X414899Y64350D01*
X414894Y64350D01*
X414141Y63503D01*
X414141Y63496D01*
X414136Y63495D01*
X413563Y62518D01*
X413564Y62515D01*
X413563Y62514D01*
X413564Y62513D01*
X413564Y62511D01*
X413559Y62509D01*
X413188Y61438D01*
X413190Y61433D01*
X413187Y61431D01*
X413187Y61430D01*
X413186Y61429D01*
X413031Y60307D01*
X413034Y60302D01*
X413031Y60300D01*
X413031Y48300D01*
X413034Y48295D01*
X413031Y48292D01*
X413236Y47025D01*
X413242Y47019D01*
X413239Y47015D01*
X413721Y45825D01*
X413728Y45821D01*
X413726Y45815D01*
X414460Y44762D01*
X414468Y44760D01*
X414467Y44754D01*
X415417Y43891D01*
X415426Y43890D01*
X415426Y43885D01*
X416545Y43255D01*
X416553Y43256D01*
X416555Y43250D01*
X417785Y42885D01*
X417793Y42888D01*
X417796Y42883D01*
X419077Y42801D01*
X419081Y42804D01*
X419083Y42801D01*
X420364Y42883D01*
G37*
G36*
X146084Y42883D02*
X146084Y42883D01*
X146090Y42889D01*
X146095Y42885D01*
X147325Y43250D01*
X147330Y43257D01*
X147335Y43255D01*
X148454Y43885D01*
X148457Y43892D01*
X148463Y43891D01*
X149413Y44754D01*
X149414Y44762D01*
X149420Y44762D01*
X150154Y45815D01*
X150154Y45823D01*
X150159Y45825D01*
X150641Y47015D01*
X150639Y47020D01*
X150643Y47023D01*
X150642Y47024D01*
X150644Y47025D01*
X150849Y48292D01*
X150846Y48297D01*
X150849Y48300D01*
X150849Y60300D01*
X150846Y60304D01*
X150849Y60307D01*
X150694Y61429D01*
X150689Y61434D01*
X150692Y61438D01*
X150321Y62509D01*
X150315Y62513D01*
X150317Y62518D01*
X149744Y63495D01*
X149738Y63498D01*
X149739Y63503D01*
X148986Y64350D01*
X148979Y64352D01*
X148979Y64357D01*
X148076Y65041D01*
X148069Y65041D01*
X148068Y65046D01*
X147049Y65541D01*
X147042Y65539D01*
X147040Y65544D01*
X145943Y65831D01*
X145937Y65828D01*
X145934Y65832D01*
X144803Y65899D01*
X144797Y65899D01*
X143666Y65832D01*
X143661Y65827D01*
X143657Y65831D01*
X142560Y65544D01*
X142556Y65538D01*
X142551Y65541D01*
X141532Y65046D01*
X141529Y65040D01*
X141524Y65041D01*
X140621Y64357D01*
X140619Y64350D01*
X140614Y64350D01*
X139861Y63503D01*
X139861Y63496D01*
X139856Y63495D01*
X139283Y62518D01*
X139284Y62515D01*
X139283Y62514D01*
X139284Y62513D01*
X139284Y62511D01*
X139279Y62509D01*
X138908Y61438D01*
X138910Y61433D01*
X138907Y61431D01*
X138907Y61430D01*
X138906Y61429D01*
X138751Y60307D01*
X138754Y60302D01*
X138751Y60300D01*
X138751Y48300D01*
X138754Y48295D01*
X138751Y48292D01*
X138956Y47025D01*
X138962Y47019D01*
X138959Y47015D01*
X139441Y45825D01*
X139448Y45821D01*
X139446Y45815D01*
X140180Y44762D01*
X140188Y44760D01*
X140187Y44754D01*
X141137Y43891D01*
X141146Y43890D01*
X141146Y43885D01*
X142265Y43255D01*
X142273Y43256D01*
X142275Y43250D01*
X143505Y42885D01*
X143513Y42888D01*
X143516Y42883D01*
X144797Y42801D01*
X144801Y42804D01*
X144803Y42801D01*
X146084Y42883D01*
G37*
G36*
X59684Y42883D02*
X59684Y42883D01*
X59690Y42889D01*
X59695Y42885D01*
X60925Y43250D01*
X60930Y43257D01*
X60935Y43255D01*
X62054Y43885D01*
X62057Y43892D01*
X62063Y43891D01*
X63013Y44754D01*
X63014Y44762D01*
X63020Y44762D01*
X63754Y45815D01*
X63754Y45823D01*
X63759Y45825D01*
X64241Y47015D01*
X64239Y47020D01*
X64243Y47023D01*
X64242Y47024D01*
X64244Y47025D01*
X64449Y48292D01*
X64446Y48297D01*
X64449Y48300D01*
X64449Y60300D01*
X64446Y60304D01*
X64449Y60307D01*
X64294Y61429D01*
X64289Y61434D01*
X64292Y61438D01*
X63921Y62509D01*
X63915Y62513D01*
X63917Y62518D01*
X63344Y63495D01*
X63338Y63498D01*
X63339Y63503D01*
X62586Y64350D01*
X62579Y64352D01*
X62579Y64357D01*
X61676Y65041D01*
X61669Y65041D01*
X61668Y65046D01*
X60649Y65541D01*
X60642Y65539D01*
X60640Y65544D01*
X59543Y65831D01*
X59537Y65828D01*
X59534Y65832D01*
X58403Y65899D01*
X58397Y65899D01*
X57266Y65832D01*
X57261Y65827D01*
X57257Y65831D01*
X56160Y65544D01*
X56156Y65538D01*
X56151Y65541D01*
X55132Y65046D01*
X55129Y65040D01*
X55124Y65041D01*
X54221Y64357D01*
X54219Y64350D01*
X54214Y64350D01*
X53461Y63503D01*
X53461Y63496D01*
X53456Y63495D01*
X52883Y62518D01*
X52884Y62515D01*
X52883Y62514D01*
X52884Y62513D01*
X52884Y62511D01*
X52879Y62509D01*
X52508Y61438D01*
X52510Y61433D01*
X52507Y61431D01*
X52507Y61430D01*
X52506Y61429D01*
X52351Y60307D01*
X52354Y60302D01*
X52351Y60300D01*
X52351Y48300D01*
X52354Y48295D01*
X52351Y48292D01*
X52556Y47025D01*
X52562Y47019D01*
X52559Y47015D01*
X53041Y45825D01*
X53048Y45821D01*
X53046Y45815D01*
X53780Y44762D01*
X53788Y44760D01*
X53787Y44754D01*
X54737Y43891D01*
X54746Y43890D01*
X54746Y43885D01*
X55865Y43255D01*
X55873Y43256D01*
X55875Y43250D01*
X57105Y42885D01*
X57113Y42888D01*
X57116Y42883D01*
X58397Y42801D01*
X58401Y42804D01*
X58403Y42801D01*
X59684Y42883D01*
G37*
G36*
X780931Y3611D02*
X780931Y3611D01*
X780936Y3616D01*
X780940Y3613D01*
X782063Y3948D01*
X782067Y3954D01*
X782071Y3952D01*
X783107Y4500D01*
X783110Y4506D01*
X783115Y4505D01*
X784023Y5244D01*
X784025Y5251D01*
X784030Y5251D01*
X784777Y6153D01*
X784777Y6161D01*
X784783Y6161D01*
X785339Y7192D01*
X785338Y7199D01*
X785343Y7201D01*
X785687Y8320D01*
X785685Y8327D01*
X785689Y8330D01*
X785809Y9495D01*
X785807Y9498D01*
X785809Y9500D01*
X785809Y15500D01*
X785807Y15503D01*
X785809Y15505D01*
X785698Y16681D01*
X785693Y16686D01*
X785696Y16690D01*
X785358Y17822D01*
X785352Y17826D01*
X785354Y17831D01*
X784802Y18875D01*
X784795Y18878D01*
X784797Y18883D01*
X784051Y19799D01*
X784044Y19800D01*
X784044Y19806D01*
X783135Y20559D01*
X783127Y20559D01*
X783127Y20564D01*
X782087Y21125D01*
X782080Y21124D01*
X782078Y21129D01*
X780949Y21476D01*
X780943Y21474D01*
X780940Y21478D01*
X779765Y21599D01*
X779758Y21595D01*
X779754Y21599D01*
X778414Y21442D01*
X778408Y21437D01*
X778403Y21440D01*
X777132Y20989D01*
X777127Y20982D01*
X777122Y20984D01*
X775983Y20262D01*
X775980Y20254D01*
X775974Y20255D01*
X775024Y19297D01*
X775023Y19289D01*
X775017Y19288D01*
X774304Y18143D01*
X774305Y18135D01*
X774299Y18133D01*
X773859Y16857D01*
X773861Y16850D01*
X773857Y16847D01*
X773711Y15505D01*
X773713Y15502D01*
X773711Y15500D01*
X773711Y9500D01*
X773713Y9497D01*
X773711Y9494D01*
X773866Y8165D01*
X773872Y8159D01*
X773869Y8155D01*
X774316Y6894D01*
X774323Y6889D01*
X774321Y6884D01*
X775038Y5754D01*
X775045Y5751D01*
X775044Y5745D01*
X775995Y4803D01*
X776003Y4802D01*
X776003Y4796D01*
X777139Y4089D01*
X777147Y4090D01*
X777149Y4084D01*
X778414Y3648D01*
X778419Y3649D01*
X778420Y3649D01*
X778423Y3649D01*
X778425Y3645D01*
X779755Y3501D01*
X779761Y3505D01*
X779765Y3501D01*
X780931Y3611D01*
G37*
G36*
X1141611Y3611D02*
X1141611Y3611D01*
X1141616Y3616D01*
X1141620Y3613D01*
X1142743Y3948D01*
X1142747Y3954D01*
X1142751Y3952D01*
X1143787Y4500D01*
X1143790Y4506D01*
X1143795Y4505D01*
X1144703Y5244D01*
X1144705Y5251D01*
X1144710Y5251D01*
X1145457Y6153D01*
X1145457Y6161D01*
X1145463Y6161D01*
X1146019Y7192D01*
X1146018Y7199D01*
X1146023Y7201D01*
X1146367Y8320D01*
X1146365Y8327D01*
X1146369Y8330D01*
X1146489Y9495D01*
X1146487Y9498D01*
X1146489Y9500D01*
X1146489Y15500D01*
X1146487Y15503D01*
X1146489Y15505D01*
X1146378Y16681D01*
X1146373Y16686D01*
X1146376Y16690D01*
X1146038Y17822D01*
X1146032Y17826D01*
X1146034Y17831D01*
X1145482Y18875D01*
X1145475Y18878D01*
X1145477Y18883D01*
X1144731Y19799D01*
X1144724Y19800D01*
X1144724Y19806D01*
X1143815Y20559D01*
X1143807Y20559D01*
X1143807Y20564D01*
X1142767Y21125D01*
X1142760Y21124D01*
X1142758Y21129D01*
X1141629Y21476D01*
X1141623Y21474D01*
X1141620Y21478D01*
X1140445Y21599D01*
X1140438Y21595D01*
X1140434Y21599D01*
X1139094Y21442D01*
X1139088Y21437D01*
X1139083Y21440D01*
X1137812Y20989D01*
X1137807Y20982D01*
X1137802Y20984D01*
X1136663Y20262D01*
X1136660Y20254D01*
X1136654Y20255D01*
X1135704Y19297D01*
X1135703Y19289D01*
X1135697Y19288D01*
X1134984Y18143D01*
X1134985Y18135D01*
X1134979Y18133D01*
X1134539Y16857D01*
X1134541Y16850D01*
X1134537Y16847D01*
X1134391Y15505D01*
X1134393Y15502D01*
X1134391Y15500D01*
X1134391Y9500D01*
X1134393Y9497D01*
X1134391Y9494D01*
X1134546Y8165D01*
X1134552Y8159D01*
X1134549Y8155D01*
X1134996Y6894D01*
X1135003Y6889D01*
X1135001Y6884D01*
X1135718Y5754D01*
X1135725Y5751D01*
X1135724Y5745D01*
X1136675Y4803D01*
X1136683Y4802D01*
X1136683Y4796D01*
X1137819Y4089D01*
X1137827Y4090D01*
X1137829Y4084D01*
X1139094Y3648D01*
X1139099Y3649D01*
X1139100Y3649D01*
X1139103Y3649D01*
X1139105Y3645D01*
X1140435Y3501D01*
X1140441Y3505D01*
X1140445Y3501D01*
X1141611Y3611D01*
G37*
G36*
X1228011Y3611D02*
X1228011Y3611D01*
X1228016Y3616D01*
X1228020Y3613D01*
X1229143Y3948D01*
X1229147Y3954D01*
X1229151Y3952D01*
X1230187Y4500D01*
X1230190Y4506D01*
X1230195Y4505D01*
X1231103Y5244D01*
X1231105Y5251D01*
X1231110Y5251D01*
X1231857Y6153D01*
X1231857Y6161D01*
X1231863Y6161D01*
X1232419Y7192D01*
X1232418Y7199D01*
X1232423Y7201D01*
X1232767Y8320D01*
X1232765Y8327D01*
X1232769Y8330D01*
X1232889Y9495D01*
X1232887Y9498D01*
X1232889Y9500D01*
X1232889Y15500D01*
X1232887Y15503D01*
X1232889Y15505D01*
X1232778Y16681D01*
X1232773Y16686D01*
X1232776Y16690D01*
X1232438Y17822D01*
X1232432Y17826D01*
X1232434Y17831D01*
X1231882Y18875D01*
X1231875Y18878D01*
X1231877Y18883D01*
X1231131Y19799D01*
X1231124Y19800D01*
X1231124Y19806D01*
X1230215Y20559D01*
X1230207Y20559D01*
X1230207Y20564D01*
X1229167Y21125D01*
X1229160Y21124D01*
X1229158Y21129D01*
X1228029Y21476D01*
X1228023Y21474D01*
X1228020Y21478D01*
X1226845Y21599D01*
X1226838Y21595D01*
X1226834Y21599D01*
X1225494Y21442D01*
X1225488Y21437D01*
X1225483Y21440D01*
X1224212Y20989D01*
X1224207Y20982D01*
X1224202Y20984D01*
X1223063Y20262D01*
X1223060Y20254D01*
X1223054Y20255D01*
X1222104Y19297D01*
X1222103Y19289D01*
X1222097Y19288D01*
X1221384Y18143D01*
X1221385Y18135D01*
X1221379Y18133D01*
X1220939Y16857D01*
X1220941Y16850D01*
X1220937Y16847D01*
X1220791Y15505D01*
X1220793Y15502D01*
X1220791Y15500D01*
X1220791Y9500D01*
X1220793Y9497D01*
X1220791Y9494D01*
X1220946Y8165D01*
X1220952Y8159D01*
X1220949Y8155D01*
X1221396Y6894D01*
X1221403Y6889D01*
X1221401Y6884D01*
X1222118Y5754D01*
X1222125Y5751D01*
X1222124Y5745D01*
X1223075Y4803D01*
X1223083Y4802D01*
X1223083Y4796D01*
X1224219Y4089D01*
X1224227Y4090D01*
X1224229Y4084D01*
X1225494Y3648D01*
X1225499Y3649D01*
X1225500Y3649D01*
X1225503Y3649D01*
X1225505Y3645D01*
X1226835Y3501D01*
X1226841Y3505D01*
X1226845Y3501D01*
X1228011Y3611D01*
G37*
G36*
X506651Y3611D02*
X506651Y3611D01*
X506656Y3616D01*
X506660Y3613D01*
X507783Y3948D01*
X507787Y3954D01*
X507791Y3952D01*
X508827Y4500D01*
X508830Y4506D01*
X508835Y4505D01*
X509743Y5244D01*
X509745Y5251D01*
X509750Y5251D01*
X510497Y6153D01*
X510497Y6161D01*
X510503Y6161D01*
X511059Y7192D01*
X511058Y7199D01*
X511063Y7201D01*
X511407Y8320D01*
X511405Y8327D01*
X511409Y8330D01*
X511529Y9495D01*
X511527Y9498D01*
X511529Y9500D01*
X511529Y15500D01*
X511527Y15503D01*
X511529Y15505D01*
X511418Y16681D01*
X511413Y16686D01*
X511416Y16690D01*
X511078Y17822D01*
X511072Y17826D01*
X511074Y17831D01*
X510522Y18875D01*
X510515Y18878D01*
X510517Y18883D01*
X509771Y19799D01*
X509764Y19800D01*
X509764Y19806D01*
X508855Y20559D01*
X508847Y20559D01*
X508847Y20564D01*
X507807Y21125D01*
X507800Y21124D01*
X507798Y21129D01*
X506669Y21476D01*
X506663Y21474D01*
X506660Y21478D01*
X505485Y21599D01*
X505478Y21595D01*
X505474Y21599D01*
X504134Y21442D01*
X504128Y21437D01*
X504123Y21440D01*
X502852Y20989D01*
X502847Y20982D01*
X502842Y20984D01*
X501703Y20262D01*
X501700Y20254D01*
X501694Y20255D01*
X500744Y19297D01*
X500743Y19289D01*
X500737Y19288D01*
X500024Y18143D01*
X500025Y18135D01*
X500019Y18133D01*
X499579Y16857D01*
X499581Y16850D01*
X499577Y16847D01*
X499431Y15505D01*
X499433Y15502D01*
X499431Y15500D01*
X499431Y9500D01*
X499433Y9497D01*
X499431Y9494D01*
X499586Y8165D01*
X499592Y8159D01*
X499589Y8155D01*
X500036Y6894D01*
X500043Y6889D01*
X500041Y6884D01*
X500758Y5754D01*
X500765Y5751D01*
X500764Y5745D01*
X501715Y4803D01*
X501723Y4802D01*
X501723Y4796D01*
X502859Y4089D01*
X502867Y4090D01*
X502869Y4084D01*
X504134Y3648D01*
X504139Y3649D01*
X504140Y3649D01*
X504143Y3649D01*
X504145Y3645D01*
X505475Y3501D01*
X505481Y3505D01*
X505485Y3501D01*
X506651Y3611D01*
G37*
G36*
X867331Y3611D02*
X867331Y3611D01*
X867336Y3616D01*
X867340Y3613D01*
X868463Y3948D01*
X868467Y3954D01*
X868471Y3952D01*
X869507Y4500D01*
X869510Y4506D01*
X869515Y4505D01*
X870423Y5244D01*
X870425Y5251D01*
X870430Y5251D01*
X871177Y6153D01*
X871177Y6161D01*
X871183Y6161D01*
X871739Y7192D01*
X871738Y7199D01*
X871743Y7201D01*
X872087Y8320D01*
X872085Y8327D01*
X872089Y8330D01*
X872209Y9495D01*
X872207Y9498D01*
X872209Y9500D01*
X872209Y15500D01*
X872207Y15503D01*
X872209Y15505D01*
X872098Y16681D01*
X872093Y16686D01*
X872096Y16690D01*
X871758Y17822D01*
X871752Y17826D01*
X871754Y17831D01*
X871202Y18875D01*
X871195Y18878D01*
X871197Y18883D01*
X870451Y19799D01*
X870444Y19800D01*
X870444Y19806D01*
X869535Y20559D01*
X869527Y20559D01*
X869527Y20564D01*
X868487Y21125D01*
X868480Y21124D01*
X868478Y21129D01*
X867349Y21476D01*
X867343Y21474D01*
X867340Y21478D01*
X866165Y21599D01*
X866158Y21595D01*
X866154Y21599D01*
X864814Y21442D01*
X864808Y21437D01*
X864803Y21440D01*
X863532Y20989D01*
X863527Y20982D01*
X863522Y20984D01*
X862383Y20262D01*
X862380Y20254D01*
X862374Y20255D01*
X861424Y19297D01*
X861423Y19289D01*
X861417Y19288D01*
X860704Y18143D01*
X860705Y18135D01*
X860699Y18133D01*
X860259Y16857D01*
X860261Y16850D01*
X860257Y16847D01*
X860111Y15505D01*
X860113Y15502D01*
X860111Y15500D01*
X860111Y9500D01*
X860113Y9497D01*
X860111Y9494D01*
X860266Y8165D01*
X860272Y8159D01*
X860269Y8155D01*
X860716Y6894D01*
X860723Y6889D01*
X860721Y6884D01*
X861438Y5754D01*
X861445Y5751D01*
X861444Y5745D01*
X862395Y4803D01*
X862403Y4802D01*
X862403Y4796D01*
X863539Y4089D01*
X863547Y4090D01*
X863549Y4084D01*
X864814Y3648D01*
X864819Y3649D01*
X864820Y3649D01*
X864823Y3649D01*
X864825Y3645D01*
X866155Y3501D01*
X866161Y3505D01*
X866165Y3501D01*
X867331Y3611D01*
G37*
G36*
X145971Y3611D02*
X145971Y3611D01*
X145976Y3616D01*
X145980Y3613D01*
X147103Y3948D01*
X147107Y3954D01*
X147111Y3952D01*
X148147Y4500D01*
X148150Y4506D01*
X148155Y4505D01*
X149063Y5244D01*
X149065Y5251D01*
X149070Y5251D01*
X149817Y6153D01*
X149817Y6161D01*
X149823Y6161D01*
X150379Y7192D01*
X150378Y7199D01*
X150383Y7201D01*
X150727Y8320D01*
X150725Y8327D01*
X150729Y8330D01*
X150849Y9495D01*
X150847Y9498D01*
X150849Y9500D01*
X150849Y15500D01*
X150847Y15503D01*
X150849Y15505D01*
X150738Y16681D01*
X150733Y16686D01*
X150736Y16690D01*
X150398Y17822D01*
X150392Y17826D01*
X150394Y17831D01*
X149842Y18875D01*
X149835Y18878D01*
X149837Y18883D01*
X149091Y19799D01*
X149084Y19800D01*
X149084Y19806D01*
X148175Y20559D01*
X148167Y20559D01*
X148167Y20564D01*
X147127Y21125D01*
X147120Y21124D01*
X147118Y21129D01*
X145989Y21476D01*
X145983Y21474D01*
X145980Y21478D01*
X144805Y21599D01*
X144798Y21595D01*
X144794Y21599D01*
X143454Y21442D01*
X143448Y21437D01*
X143443Y21440D01*
X142172Y20989D01*
X142167Y20982D01*
X142162Y20984D01*
X141023Y20262D01*
X141020Y20254D01*
X141014Y20255D01*
X140064Y19297D01*
X140063Y19289D01*
X140057Y19288D01*
X139344Y18143D01*
X139345Y18135D01*
X139339Y18133D01*
X138899Y16857D01*
X138901Y16850D01*
X138897Y16847D01*
X138751Y15505D01*
X138753Y15502D01*
X138751Y15500D01*
X138751Y9500D01*
X138753Y9497D01*
X138751Y9494D01*
X138906Y8165D01*
X138912Y8159D01*
X138909Y8155D01*
X139356Y6894D01*
X139363Y6889D01*
X139361Y6884D01*
X140078Y5754D01*
X140085Y5751D01*
X140084Y5745D01*
X141035Y4803D01*
X141043Y4802D01*
X141043Y4796D01*
X142179Y4089D01*
X142187Y4090D01*
X142189Y4084D01*
X143454Y3648D01*
X143459Y3649D01*
X143460Y3649D01*
X143463Y3649D01*
X143465Y3645D01*
X144795Y3501D01*
X144801Y3505D01*
X144805Y3501D01*
X145971Y3611D01*
G37*
G36*
X59571Y3611D02*
X59571Y3611D01*
X59576Y3616D01*
X59580Y3613D01*
X60703Y3948D01*
X60707Y3954D01*
X60711Y3952D01*
X61747Y4500D01*
X61750Y4506D01*
X61755Y4505D01*
X62663Y5244D01*
X62665Y5251D01*
X62670Y5251D01*
X63417Y6153D01*
X63417Y6161D01*
X63423Y6161D01*
X63979Y7192D01*
X63978Y7199D01*
X63983Y7201D01*
X64327Y8320D01*
X64325Y8327D01*
X64329Y8330D01*
X64449Y9495D01*
X64447Y9498D01*
X64449Y9500D01*
X64449Y15500D01*
X64447Y15503D01*
X64449Y15505D01*
X64338Y16681D01*
X64333Y16686D01*
X64336Y16690D01*
X63998Y17822D01*
X63992Y17826D01*
X63994Y17831D01*
X63442Y18875D01*
X63435Y18878D01*
X63437Y18883D01*
X62691Y19799D01*
X62684Y19800D01*
X62684Y19806D01*
X61775Y20559D01*
X61767Y20559D01*
X61767Y20564D01*
X60727Y21125D01*
X60720Y21124D01*
X60718Y21129D01*
X59589Y21476D01*
X59583Y21474D01*
X59580Y21478D01*
X58405Y21599D01*
X58398Y21595D01*
X58394Y21599D01*
X57054Y21442D01*
X57048Y21437D01*
X57043Y21440D01*
X55772Y20989D01*
X55767Y20982D01*
X55762Y20984D01*
X54623Y20262D01*
X54620Y20254D01*
X54614Y20255D01*
X53664Y19297D01*
X53663Y19289D01*
X53657Y19288D01*
X52944Y18143D01*
X52945Y18135D01*
X52939Y18133D01*
X52499Y16857D01*
X52501Y16850D01*
X52497Y16847D01*
X52351Y15505D01*
X52353Y15502D01*
X52351Y15500D01*
X52351Y9500D01*
X52353Y9497D01*
X52351Y9494D01*
X52506Y8165D01*
X52512Y8159D01*
X52509Y8155D01*
X52956Y6894D01*
X52963Y6889D01*
X52961Y6884D01*
X53678Y5754D01*
X53685Y5751D01*
X53684Y5745D01*
X54635Y4803D01*
X54643Y4802D01*
X54643Y4796D01*
X55779Y4089D01*
X55787Y4090D01*
X55789Y4084D01*
X57054Y3648D01*
X57059Y3649D01*
X57060Y3649D01*
X57063Y3649D01*
X57065Y3645D01*
X58395Y3501D01*
X58401Y3505D01*
X58405Y3501D01*
X59571Y3611D01*
G37*
G36*
X420251Y3611D02*
X420251Y3611D01*
X420256Y3616D01*
X420260Y3613D01*
X421383Y3948D01*
X421387Y3954D01*
X421391Y3952D01*
X422427Y4500D01*
X422430Y4506D01*
X422435Y4505D01*
X423343Y5244D01*
X423345Y5251D01*
X423350Y5251D01*
X424097Y6153D01*
X424097Y6161D01*
X424103Y6161D01*
X424659Y7192D01*
X424658Y7199D01*
X424663Y7201D01*
X425007Y8320D01*
X425005Y8327D01*
X425009Y8330D01*
X425129Y9495D01*
X425127Y9498D01*
X425129Y9500D01*
X425129Y15500D01*
X425127Y15503D01*
X425129Y15505D01*
X425018Y16681D01*
X425013Y16686D01*
X425016Y16690D01*
X424678Y17822D01*
X424672Y17826D01*
X424674Y17831D01*
X424122Y18875D01*
X424115Y18878D01*
X424117Y18883D01*
X423371Y19799D01*
X423364Y19800D01*
X423364Y19806D01*
X422455Y20559D01*
X422447Y20559D01*
X422447Y20564D01*
X421407Y21125D01*
X421400Y21124D01*
X421398Y21129D01*
X420269Y21476D01*
X420263Y21474D01*
X420260Y21478D01*
X419085Y21599D01*
X419078Y21595D01*
X419074Y21599D01*
X417734Y21442D01*
X417728Y21437D01*
X417723Y21440D01*
X416452Y20989D01*
X416447Y20982D01*
X416442Y20984D01*
X415303Y20262D01*
X415300Y20254D01*
X415294Y20255D01*
X414344Y19297D01*
X414343Y19289D01*
X414337Y19288D01*
X413624Y18143D01*
X413625Y18135D01*
X413619Y18133D01*
X413179Y16857D01*
X413181Y16850D01*
X413177Y16847D01*
X413031Y15505D01*
X413033Y15502D01*
X413031Y15500D01*
X413031Y9500D01*
X413033Y9497D01*
X413031Y9494D01*
X413186Y8165D01*
X413192Y8159D01*
X413189Y8155D01*
X413636Y6894D01*
X413643Y6889D01*
X413641Y6884D01*
X414358Y5754D01*
X414365Y5751D01*
X414364Y5745D01*
X415315Y4803D01*
X415323Y4802D01*
X415323Y4796D01*
X416459Y4089D01*
X416467Y4090D01*
X416469Y4084D01*
X417734Y3648D01*
X417739Y3649D01*
X417740Y3649D01*
X417743Y3649D01*
X417745Y3645D01*
X419075Y3501D01*
X419081Y3505D01*
X419085Y3501D01*
X420251Y3611D01*
G37*
D10*
X244207Y4543D02*
X233193Y4543D01*
X233193Y23557D01*
X244207Y23557D01*
X244207Y4543D01*
X244207Y6686D02*
X233193Y6686D01*
X233193Y8829D02*
X244207Y8829D01*
X244207Y10972D02*
X233193Y10972D01*
X233193Y13115D02*
X244207Y13115D01*
X244207Y15258D02*
X233193Y15258D01*
X233193Y17401D02*
X244207Y17401D01*
X244207Y19544D02*
X233193Y19544D01*
X233193Y21687D02*
X244207Y21687D01*
X289193Y4543D02*
X300207Y4543D01*
X289193Y4543D02*
X289193Y23557D01*
X300207Y23557D01*
X300207Y4543D01*
X300207Y6686D02*
X289193Y6686D01*
X289193Y8829D02*
X300207Y8829D01*
X300207Y10972D02*
X289193Y10972D01*
X289193Y13115D02*
X300207Y13115D01*
X300207Y15258D02*
X289193Y15258D01*
X289193Y17401D02*
X300207Y17401D01*
X300207Y19544D02*
X289193Y19544D01*
X289193Y21687D02*
X300207Y21687D01*
D11*
X254208Y44542D02*
X249192Y44542D01*
X249192Y57058D01*
X254208Y57058D01*
X254208Y44542D01*
X254208Y46683D02*
X249192Y46683D01*
X249192Y48824D02*
X254208Y48824D01*
X254208Y50965D02*
X249192Y50965D01*
X249192Y53106D02*
X254208Y53106D01*
X254208Y55247D02*
X249192Y55247D01*
X259192Y44542D02*
X264208Y44542D01*
X259192Y44542D02*
X259192Y57058D01*
X264208Y57058D01*
X264208Y44542D01*
X264208Y46683D02*
X259192Y46683D01*
X259192Y48824D02*
X264208Y48824D01*
X264208Y50965D02*
X259192Y50965D01*
X259192Y53106D02*
X264208Y53106D01*
X264208Y55247D02*
X259192Y55247D01*
X269192Y44542D02*
X274208Y44542D01*
X269192Y44542D02*
X269192Y57058D01*
X274208Y57058D01*
X274208Y44542D01*
X274208Y46683D02*
X269192Y46683D01*
X269192Y48824D02*
X274208Y48824D01*
X274208Y50965D02*
X269192Y50965D01*
X269192Y53106D02*
X274208Y53106D01*
X274208Y55247D02*
X269192Y55247D01*
X279192Y44542D02*
X284208Y44542D01*
X279192Y44542D02*
X279192Y57058D01*
X284208Y57058D01*
X284208Y44542D01*
X284208Y46683D02*
X279192Y46683D01*
X279192Y48824D02*
X284208Y48824D01*
X284208Y50965D02*
X279192Y50965D01*
X279192Y53106D02*
X284208Y53106D01*
X284208Y55247D02*
X279192Y55247D01*
D12*
X266764Y93662D02*
X266764Y103678D01*
X275780Y103678D01*
X275780Y93662D01*
X266764Y93662D01*
X266764Y95803D02*
X275780Y95803D01*
X275780Y97944D02*
X266764Y97944D01*
X266764Y100085D02*
X275780Y100085D01*
X275780Y102226D02*
X266764Y102226D01*
X266764Y86678D02*
X266764Y76662D01*
X266764Y86678D02*
X275780Y86678D01*
X275780Y76662D01*
X266764Y76662D01*
X266764Y78803D02*
X275780Y78803D01*
X275780Y80944D02*
X266764Y80944D01*
X266764Y83085D02*
X275780Y83085D01*
X275780Y85226D02*
X266764Y85226D01*
X283782Y93662D02*
X283782Y103678D01*
X292798Y103678D01*
X292798Y93662D01*
X283782Y93662D01*
X283782Y95803D02*
X292798Y95803D01*
X292798Y97944D02*
X283782Y97944D01*
X283782Y100085D02*
X292798Y100085D01*
X292798Y102226D02*
X283782Y102226D01*
X283782Y86678D02*
X283782Y76662D01*
X283782Y86678D02*
X292798Y86678D01*
X292798Y76662D01*
X283782Y76662D01*
X283782Y78803D02*
X292798Y78803D01*
X292798Y80944D02*
X283782Y80944D01*
X283782Y83085D02*
X292798Y83085D01*
X292798Y85226D02*
X283782Y85226D01*
D13*
X12700Y439420D03*
X342900Y63500D03*
D14*
X17304Y93504D02*
X10636Y93504D01*
X17304Y93504D02*
X17304Y79216D01*
X10636Y79216D01*
X10636Y93504D01*
X10636Y81328D02*
X17304Y81328D01*
X17304Y83440D02*
X10636Y83440D01*
X10636Y85552D02*
X17304Y85552D01*
X17304Y87664D02*
X10636Y87664D01*
X10636Y89776D02*
X17304Y89776D01*
X17304Y91888D02*
X10636Y91888D01*
X10636Y149384D02*
X17304Y149384D01*
X17304Y135096D01*
X10636Y135096D01*
X10636Y149384D01*
X10636Y137208D02*
X17304Y137208D01*
X17304Y139320D02*
X10636Y139320D01*
X10636Y141432D02*
X17304Y141432D01*
X17304Y143544D02*
X10636Y143544D01*
X10636Y145656D02*
X17304Y145656D01*
X17304Y147768D02*
X10636Y147768D01*
X48736Y93504D02*
X55404Y93504D01*
X55404Y79216D01*
X48736Y79216D01*
X48736Y93504D01*
X48736Y81328D02*
X55404Y81328D01*
X55404Y83440D02*
X48736Y83440D01*
X48736Y85552D02*
X55404Y85552D01*
X55404Y87664D02*
X48736Y87664D01*
X48736Y89776D02*
X55404Y89776D01*
X55404Y91888D02*
X48736Y91888D01*
X48736Y149384D02*
X55404Y149384D01*
X55404Y135096D01*
X48736Y135096D01*
X48736Y149384D01*
X48736Y137208D02*
X55404Y137208D01*
X55404Y139320D02*
X48736Y139320D01*
X48736Y141432D02*
X55404Y141432D01*
X55404Y143544D02*
X48736Y143544D01*
X48736Y145656D02*
X55404Y145656D01*
X55404Y147768D02*
X48736Y147768D01*
X339566Y135096D02*
X346234Y135096D01*
X339566Y135096D02*
X339566Y149384D01*
X346234Y149384D01*
X346234Y135096D01*
X346234Y137208D02*
X339566Y137208D01*
X339566Y139320D02*
X346234Y139320D01*
X346234Y141432D02*
X339566Y141432D01*
X339566Y143544D02*
X346234Y143544D01*
X346234Y145656D02*
X339566Y145656D01*
X339566Y147768D02*
X346234Y147768D01*
X346234Y79216D02*
X339566Y79216D01*
X339566Y93504D01*
X346234Y93504D01*
X346234Y79216D01*
X346234Y81328D02*
X339566Y81328D01*
X339566Y83440D02*
X346234Y83440D01*
X346234Y85552D02*
X339566Y85552D01*
X339566Y87664D02*
X346234Y87664D01*
X346234Y89776D02*
X339566Y89776D01*
X339566Y91888D02*
X346234Y91888D01*
X308134Y135096D02*
X301466Y135096D01*
X301466Y149384D01*
X308134Y149384D01*
X308134Y135096D01*
X308134Y137208D02*
X301466Y137208D01*
X301466Y139320D02*
X308134Y139320D01*
X308134Y141432D02*
X301466Y141432D01*
X301466Y143544D02*
X308134Y143544D01*
X308134Y145656D02*
X301466Y145656D01*
X301466Y147768D02*
X308134Y147768D01*
X308134Y79216D02*
X301466Y79216D01*
X301466Y93504D01*
X308134Y93504D01*
X308134Y79216D01*
X308134Y81328D02*
X301466Y81328D01*
X301466Y83440D02*
X308134Y83440D01*
X308134Y85552D02*
X301466Y85552D01*
X301466Y87664D02*
X308134Y87664D01*
X308134Y89776D02*
X301466Y89776D01*
X301466Y91888D02*
X308134Y91888D01*
D15*
X241300Y406400D03*
X241300Y381000D03*
X241300Y355600D03*
X241300Y330200D03*
X241300Y304800D03*
X241300Y279400D03*
X241300Y254000D03*
X241300Y228600D03*
X241300Y203200D03*
X241300Y177800D03*
X114300Y406400D03*
X114300Y381000D03*
X114300Y355600D03*
X114300Y330200D03*
X114300Y304800D03*
X114300Y279400D03*
X114300Y254000D03*
X114300Y228600D03*
X114300Y203200D03*
X114300Y177800D03*
D12*
X218758Y72944D02*
X218758Y62928D01*
X218758Y72944D02*
X227774Y72944D01*
X227774Y62928D01*
X218758Y62928D01*
X218758Y65069D02*
X227774Y65069D01*
X227774Y67210D02*
X218758Y67210D01*
X218758Y69351D02*
X227774Y69351D01*
X227774Y71492D02*
X218758Y71492D01*
X218758Y55944D02*
X218758Y45928D01*
X218758Y55944D02*
X227774Y55944D01*
X227774Y45928D01*
X218758Y45928D01*
X218758Y48069D02*
X227774Y48069D01*
X227774Y50210D02*
X218758Y50210D01*
X218758Y52351D02*
X227774Y52351D01*
X227774Y54492D02*
X218758Y54492D01*
D16*
X198566Y19108D02*
X191578Y19108D01*
X198566Y19108D02*
X198566Y12120D01*
X191578Y12120D01*
X191578Y19108D01*
X191578Y16189D02*
X198566Y16189D01*
X198566Y36648D02*
X191578Y36648D01*
X198566Y36648D02*
X198566Y29660D01*
X191578Y29660D01*
X191578Y36648D01*
X191578Y33729D02*
X198566Y33729D01*
X216978Y19108D02*
X223966Y19108D01*
X223966Y12120D01*
X216978Y12120D01*
X216978Y19108D01*
X216978Y16189D02*
X223966Y16189D01*
X223966Y36648D02*
X216978Y36648D01*
X223966Y36648D02*
X223966Y29660D01*
X216978Y29660D01*
X216978Y36648D01*
X216978Y33729D02*
X223966Y33729D01*
D12*
X249746Y93662D02*
X249746Y103678D01*
X258762Y103678D01*
X258762Y93662D01*
X249746Y93662D01*
X249746Y95803D02*
X258762Y95803D01*
X258762Y97944D02*
X249746Y97944D01*
X249746Y100085D02*
X258762Y100085D01*
X258762Y102226D02*
X249746Y102226D01*
X249746Y86678D02*
X249746Y76662D01*
X249746Y86678D02*
X258762Y86678D01*
X258762Y76662D01*
X249746Y76662D01*
X249746Y78803D02*
X258762Y78803D01*
X258762Y80944D02*
X249746Y80944D01*
X249746Y83085D02*
X258762Y83085D01*
X258762Y85226D02*
X249746Y85226D01*
D17*
X157868Y183181D02*
X153332Y183181D01*
X153332Y195717D01*
X157868Y195717D01*
X157868Y183181D01*
X157868Y185303D02*
X153332Y185303D01*
X153332Y187425D02*
X157868Y187425D01*
X157868Y189547D02*
X153332Y189547D01*
X153332Y191669D02*
X157868Y191669D01*
X157868Y193791D02*
X153332Y193791D01*
X162832Y183181D02*
X167368Y183181D01*
X162832Y183181D02*
X162832Y195717D01*
X167368Y195717D01*
X167368Y183181D01*
X167368Y185303D02*
X162832Y185303D01*
X162832Y187425D02*
X167368Y187425D01*
X167368Y189547D02*
X162832Y189547D01*
X162832Y191669D02*
X167368Y191669D01*
X167368Y193791D02*
X162832Y193791D01*
X172332Y183181D02*
X176868Y183181D01*
X172332Y183181D02*
X172332Y195717D01*
X176868Y195717D01*
X176868Y183181D01*
X176868Y185303D02*
X172332Y185303D01*
X172332Y187425D02*
X176868Y187425D01*
X176868Y189547D02*
X172332Y189547D01*
X172332Y191669D02*
X176868Y191669D01*
X176868Y193791D02*
X172332Y193791D01*
X172332Y210683D02*
X176868Y210683D01*
X172332Y210683D02*
X172332Y223219D01*
X176868Y223219D01*
X176868Y210683D01*
X176868Y212805D02*
X172332Y212805D01*
X172332Y214927D02*
X176868Y214927D01*
X176868Y217049D02*
X172332Y217049D01*
X172332Y219171D02*
X176868Y219171D01*
X176868Y221293D02*
X172332Y221293D01*
X167368Y210683D02*
X162832Y210683D01*
X162832Y223219D01*
X167368Y223219D01*
X167368Y210683D01*
X167368Y212805D02*
X162832Y212805D01*
X162832Y214927D02*
X167368Y214927D01*
X167368Y217049D02*
X162832Y217049D01*
X162832Y219171D02*
X167368Y219171D01*
X167368Y221293D02*
X162832Y221293D01*
X157868Y210683D02*
X153332Y210683D01*
X153332Y223219D01*
X157868Y223219D01*
X157868Y210683D01*
X157868Y212805D02*
X153332Y212805D01*
X153332Y214927D02*
X157868Y214927D01*
X157868Y217049D02*
X153332Y217049D01*
X153332Y219171D02*
X157868Y219171D01*
X157868Y221293D02*
X153332Y221293D01*
D18*
X150667Y231567D02*
X189693Y231567D01*
X150667Y231567D02*
X150667Y246593D01*
X189693Y246593D01*
X189693Y231567D01*
X189693Y233700D02*
X150667Y233700D01*
X150667Y235833D02*
X189693Y235833D01*
X189693Y237966D02*
X150667Y237966D01*
X150667Y240099D02*
X189693Y240099D01*
X189693Y242232D02*
X150667Y242232D01*
X150667Y244365D02*
X189693Y244365D01*
X189693Y246498D02*
X150667Y246498D01*
X150667Y270567D02*
X189693Y270567D01*
X150667Y270567D02*
X150667Y285593D01*
X189693Y285593D01*
X189693Y270567D01*
X189693Y272700D02*
X150667Y272700D01*
X150667Y274833D02*
X189693Y274833D01*
X189693Y276966D02*
X150667Y276966D01*
X150667Y279099D02*
X189693Y279099D01*
X189693Y281232D02*
X150667Y281232D01*
X150667Y283365D02*
X189693Y283365D01*
X189693Y285498D02*
X150667Y285498D01*
D12*
X139128Y228918D02*
X139128Y218902D01*
X130112Y218902D01*
X130112Y228918D01*
X139128Y228918D01*
X139128Y221043D02*
X130112Y221043D01*
X130112Y223184D02*
X139128Y223184D01*
X139128Y225325D02*
X130112Y225325D01*
X130112Y227466D02*
X139128Y227466D01*
X139128Y235902D02*
X139128Y245918D01*
X139128Y235902D02*
X130112Y235902D01*
X130112Y245918D01*
X139128Y245918D01*
X139128Y238043D02*
X130112Y238043D01*
X130112Y240184D02*
X139128Y240184D01*
X139128Y242325D02*
X130112Y242325D01*
X130112Y244466D02*
X139128Y244466D01*
X216472Y271462D02*
X216472Y281478D01*
X225488Y281478D01*
X225488Y271462D01*
X216472Y271462D01*
X216472Y273603D02*
X225488Y273603D01*
X225488Y275744D02*
X216472Y275744D01*
X216472Y277885D02*
X225488Y277885D01*
X225488Y280026D02*
X216472Y280026D01*
X216472Y264478D02*
X216472Y254462D01*
X216472Y264478D02*
X225488Y264478D01*
X225488Y254462D01*
X216472Y254462D01*
X216472Y256603D02*
X225488Y256603D01*
X225488Y258744D02*
X216472Y258744D01*
X216472Y260885D02*
X225488Y260885D01*
X225488Y263026D02*
X216472Y263026D01*
X201232Y271462D02*
X201232Y281478D01*
X210248Y281478D01*
X210248Y271462D01*
X201232Y271462D01*
X201232Y273603D02*
X210248Y273603D01*
X210248Y275744D02*
X201232Y275744D01*
X201232Y277885D02*
X210248Y277885D01*
X210248Y280026D02*
X201232Y280026D01*
X201232Y264478D02*
X201232Y254462D01*
X201232Y264478D02*
X210248Y264478D01*
X210248Y254462D01*
X201232Y254462D01*
X201232Y256603D02*
X210248Y256603D01*
X210248Y258744D02*
X201232Y258744D01*
X201232Y260885D02*
X210248Y260885D01*
X210248Y263026D02*
X201232Y263026D01*
D19*
X214288Y186438D02*
X214288Y174702D01*
X194652Y174702D01*
X194652Y186438D01*
X214288Y186438D01*
X214288Y176825D02*
X194652Y176825D01*
X194652Y178948D02*
X214288Y178948D01*
X214288Y181071D02*
X194652Y181071D01*
X194652Y183194D02*
X214288Y183194D01*
X214288Y185317D02*
X194652Y185317D01*
X214288Y209802D02*
X214288Y221538D01*
X214288Y209802D02*
X194652Y209802D01*
X194652Y221538D01*
X214288Y221538D01*
X214288Y211925D02*
X194652Y211925D01*
X194652Y214048D02*
X214288Y214048D01*
X214288Y216171D02*
X194652Y216171D01*
X194652Y218294D02*
X214288Y218294D01*
X214288Y220417D02*
X194652Y220417D01*
D12*
X161608Y168212D02*
X151592Y168212D01*
X151592Y177228D01*
X161608Y177228D01*
X161608Y168212D01*
X161608Y170353D02*
X151592Y170353D01*
X151592Y172494D02*
X161608Y172494D01*
X161608Y174635D02*
X151592Y174635D01*
X151592Y176776D02*
X161608Y176776D01*
X168592Y168212D02*
X178608Y168212D01*
X168592Y168212D02*
X168592Y177228D01*
X178608Y177228D01*
X178608Y168212D01*
X178608Y170353D02*
X168592Y170353D01*
X168592Y172494D02*
X178608Y172494D01*
X178608Y174635D02*
X168592Y174635D01*
X168592Y176776D02*
X178608Y176776D01*
D20*
X60812Y399438D02*
X60812Y406962D01*
X60812Y399438D02*
X44788Y399438D01*
X44788Y406962D01*
X60812Y406962D01*
X60812Y401573D02*
X44788Y401573D01*
X44788Y403708D02*
X60812Y403708D01*
X60812Y405843D02*
X44788Y405843D01*
X90812Y386962D02*
X90812Y379438D01*
X74788Y379438D01*
X74788Y386962D01*
X90812Y386962D01*
X90812Y381573D02*
X74788Y381573D01*
X74788Y383708D02*
X90812Y383708D01*
X90812Y385843D02*
X74788Y385843D01*
X60812Y366962D02*
X60812Y359438D01*
X44788Y359438D01*
X44788Y366962D01*
X60812Y366962D01*
X60812Y361573D02*
X44788Y361573D01*
X44788Y363708D02*
X60812Y363708D01*
X60812Y365843D02*
X44788Y365843D01*
X90812Y346962D02*
X90812Y339438D01*
X74788Y339438D01*
X74788Y346962D01*
X90812Y346962D01*
X90812Y341573D02*
X74788Y341573D01*
X74788Y343708D02*
X90812Y343708D01*
X90812Y345843D02*
X74788Y345843D01*
X60812Y326962D02*
X60812Y319438D01*
X44788Y319438D01*
X44788Y326962D01*
X60812Y326962D01*
X60812Y321573D02*
X44788Y321573D01*
X44788Y323708D02*
X60812Y323708D01*
X60812Y325843D02*
X44788Y325843D01*
X90812Y306962D02*
X90812Y299438D01*
X74788Y299438D01*
X74788Y306962D01*
X90812Y306962D01*
X90812Y301573D02*
X74788Y301573D01*
X74788Y303708D02*
X90812Y303708D01*
X90812Y305843D02*
X74788Y305843D01*
X60812Y286962D02*
X60812Y279438D01*
X44788Y279438D01*
X44788Y286962D01*
X60812Y286962D01*
X60812Y281573D02*
X44788Y281573D01*
X44788Y283708D02*
X60812Y283708D01*
X60812Y285843D02*
X44788Y285843D01*
X90812Y266962D02*
X90812Y259438D01*
X74788Y259438D01*
X74788Y266962D01*
X90812Y266962D01*
X90812Y261573D02*
X74788Y261573D01*
X74788Y263708D02*
X90812Y263708D01*
X90812Y265843D02*
X74788Y265843D01*
X60812Y246962D02*
X60812Y239438D01*
X44788Y239438D01*
X44788Y246962D01*
X60812Y246962D01*
X60812Y241573D02*
X44788Y241573D01*
X44788Y243708D02*
X60812Y243708D01*
X60812Y245843D02*
X44788Y245843D01*
X90812Y226962D02*
X90812Y219438D01*
X74788Y219438D01*
X74788Y226962D01*
X90812Y226962D01*
X90812Y221573D02*
X74788Y221573D01*
X74788Y223708D02*
X90812Y223708D01*
X90812Y225843D02*
X74788Y225843D01*
X310812Y226962D02*
X310812Y219438D01*
X294788Y219438D01*
X294788Y226962D01*
X310812Y226962D01*
X310812Y221573D02*
X294788Y221573D01*
X294788Y223708D02*
X310812Y223708D01*
X310812Y225843D02*
X294788Y225843D01*
X280812Y239438D02*
X280812Y246962D01*
X280812Y239438D02*
X264788Y239438D01*
X264788Y246962D01*
X280812Y246962D01*
X280812Y241573D02*
X264788Y241573D01*
X264788Y243708D02*
X280812Y243708D01*
X280812Y245843D02*
X264788Y245843D01*
X310812Y259438D02*
X310812Y266962D01*
X310812Y259438D02*
X294788Y259438D01*
X294788Y266962D01*
X310812Y266962D01*
X310812Y261573D02*
X294788Y261573D01*
X294788Y263708D02*
X310812Y263708D01*
X310812Y265843D02*
X294788Y265843D01*
X280812Y279438D02*
X280812Y286962D01*
X280812Y279438D02*
X264788Y279438D01*
X264788Y286962D01*
X280812Y286962D01*
X280812Y281573D02*
X264788Y281573D01*
X264788Y283708D02*
X280812Y283708D01*
X280812Y285843D02*
X264788Y285843D01*
X310812Y299438D02*
X310812Y306962D01*
X310812Y299438D02*
X294788Y299438D01*
X294788Y306962D01*
X310812Y306962D01*
X310812Y301573D02*
X294788Y301573D01*
X294788Y303708D02*
X310812Y303708D01*
X310812Y305843D02*
X294788Y305843D01*
X280812Y319438D02*
X280812Y326962D01*
X280812Y319438D02*
X264788Y319438D01*
X264788Y326962D01*
X280812Y326962D01*
X280812Y321573D02*
X264788Y321573D01*
X264788Y323708D02*
X280812Y323708D01*
X280812Y325843D02*
X264788Y325843D01*
X310812Y339438D02*
X310812Y346962D01*
X310812Y339438D02*
X294788Y339438D01*
X294788Y346962D01*
X310812Y346962D01*
X310812Y341573D02*
X294788Y341573D01*
X294788Y343708D02*
X310812Y343708D01*
X310812Y345843D02*
X294788Y345843D01*
X280812Y359438D02*
X280812Y366962D01*
X280812Y359438D02*
X264788Y359438D01*
X264788Y366962D01*
X280812Y366962D01*
X280812Y361573D02*
X264788Y361573D01*
X264788Y363708D02*
X280812Y363708D01*
X280812Y365843D02*
X264788Y365843D01*
X310812Y379438D02*
X310812Y386962D01*
X310812Y379438D02*
X294788Y379438D01*
X294788Y386962D01*
X310812Y386962D01*
X310812Y381573D02*
X294788Y381573D01*
X294788Y383708D02*
X310812Y383708D01*
X310812Y385843D02*
X294788Y385843D01*
X280812Y399438D02*
X280812Y406962D01*
X280812Y399438D02*
X264788Y399438D01*
X264788Y406962D01*
X280812Y406962D01*
X280812Y401573D02*
X264788Y401573D01*
X264788Y403708D02*
X280812Y403708D01*
X280812Y405843D02*
X264788Y405843D01*
D12*
X38908Y330898D02*
X28892Y330898D01*
X38908Y330898D02*
X38908Y321882D01*
X28892Y321882D01*
X28892Y330898D01*
X28892Y324023D02*
X38908Y324023D01*
X38908Y326164D02*
X28892Y326164D01*
X28892Y328305D02*
X38908Y328305D01*
X38908Y330446D02*
X28892Y330446D01*
X21908Y330898D02*
X11892Y330898D01*
X21908Y330898D02*
X21908Y321882D01*
X11892Y321882D01*
X11892Y330898D01*
X11892Y324023D02*
X21908Y324023D01*
X21908Y326164D02*
X11892Y326164D01*
X11892Y328305D02*
X21908Y328305D01*
X21908Y330446D02*
X11892Y330446D01*
X28892Y376618D02*
X38908Y376618D01*
X38908Y367602D01*
X28892Y367602D01*
X28892Y376618D01*
X28892Y369743D02*
X38908Y369743D01*
X38908Y371884D02*
X28892Y371884D01*
X28892Y374025D02*
X38908Y374025D01*
X38908Y376166D02*
X28892Y376166D01*
X21908Y376618D02*
X11892Y376618D01*
X21908Y376618D02*
X21908Y367602D01*
X11892Y367602D01*
X11892Y376618D01*
X11892Y369743D02*
X21908Y369743D01*
X21908Y371884D02*
X11892Y371884D01*
X11892Y374025D02*
X21908Y374025D01*
X21908Y376166D02*
X11892Y376166D01*
X28892Y361378D02*
X38908Y361378D01*
X38908Y352362D01*
X28892Y352362D01*
X28892Y361378D01*
X28892Y354503D02*
X38908Y354503D01*
X38908Y356644D02*
X28892Y356644D01*
X28892Y358785D02*
X38908Y358785D01*
X38908Y360926D02*
X28892Y360926D01*
X21908Y361378D02*
X11892Y361378D01*
X21908Y361378D02*
X21908Y352362D01*
X11892Y352362D01*
X11892Y361378D01*
X11892Y354503D02*
X21908Y354503D01*
X21908Y356644D02*
X11892Y356644D01*
X11892Y358785D02*
X21908Y358785D01*
X21908Y360926D02*
X11892Y360926D01*
X28892Y346138D02*
X38908Y346138D01*
X38908Y337122D01*
X28892Y337122D01*
X28892Y346138D01*
X28892Y339263D02*
X38908Y339263D01*
X38908Y341404D02*
X28892Y341404D01*
X28892Y343545D02*
X38908Y343545D01*
X38908Y345686D02*
X28892Y345686D01*
X21908Y346138D02*
X11892Y346138D01*
X21908Y346138D02*
X21908Y337122D01*
X11892Y337122D01*
X11892Y346138D01*
X11892Y339263D02*
X21908Y339263D01*
X21908Y341404D02*
X11892Y341404D01*
X11892Y343545D02*
X21908Y343545D01*
X21908Y345686D02*
X11892Y345686D01*
D21*
X330200Y571500D03*
X330200Y25400D03*
X25400Y571500D03*
X25400Y25400D03*
D16*
X167448Y19108D02*
X174436Y19108D01*
X174436Y12120D01*
X167448Y12120D01*
X167448Y19108D01*
X167448Y16189D02*
X174436Y16189D01*
X174436Y36648D02*
X167448Y36648D01*
X174436Y36648D02*
X174436Y29660D01*
X167448Y29660D01*
X167448Y36648D01*
X167448Y33729D02*
X174436Y33729D01*
D12*
X165672Y63182D02*
X165672Y73198D01*
X174688Y73198D01*
X174688Y63182D01*
X165672Y63182D01*
X165672Y65323D02*
X174688Y65323D01*
X174688Y67464D02*
X165672Y67464D01*
X165672Y69605D02*
X174688Y69605D01*
X174688Y71746D02*
X165672Y71746D01*
X165672Y56198D02*
X165672Y46182D01*
X165672Y56198D02*
X174688Y56198D01*
X174688Y46182D01*
X165672Y46182D01*
X165672Y48323D02*
X174688Y48323D01*
X174688Y50464D02*
X165672Y50464D01*
X165672Y52605D02*
X174688Y52605D01*
X174688Y54746D02*
X165672Y54746D01*
D22*
X110082Y55618D02*
X108118Y55618D01*
X108118Y64582D01*
X110082Y64582D01*
X110082Y55618D01*
X110082Y57809D02*
X108118Y57809D01*
X108118Y60000D02*
X110082Y60000D01*
X110082Y62191D02*
X108118Y62191D01*
X108118Y64382D02*
X110082Y64382D01*
X105082Y55618D02*
X103118Y55618D01*
X103118Y64582D01*
X105082Y64582D01*
X105082Y55618D01*
X105082Y57809D02*
X103118Y57809D01*
X103118Y60000D02*
X105082Y60000D01*
X105082Y62191D02*
X103118Y62191D01*
X103118Y64382D02*
X105082Y64382D01*
D11*
X131342Y55592D02*
X136358Y55592D01*
X131342Y55592D02*
X131342Y64608D01*
X136358Y64608D01*
X136358Y55592D01*
X136358Y57733D02*
X131342Y57733D01*
X131342Y59874D02*
X136358Y59874D01*
X136358Y62015D02*
X131342Y62015D01*
X131342Y64156D02*
X136358Y64156D01*
X128608Y55592D02*
X123592Y55592D01*
X123592Y64608D01*
X128608Y64608D01*
X128608Y55592D01*
X128608Y57733D02*
X123592Y57733D01*
X123592Y59874D02*
X128608Y59874D01*
X128608Y62015D02*
X123592Y62015D01*
X123592Y64156D02*
X128608Y64156D01*
D22*
X120082Y55618D02*
X118118Y55618D01*
X118118Y64582D01*
X120082Y64582D01*
X120082Y55618D01*
X120082Y57809D02*
X118118Y57809D01*
X118118Y60000D02*
X120082Y60000D01*
X120082Y62191D02*
X118118Y62191D01*
X118118Y64382D02*
X120082Y64382D01*
X115082Y55618D02*
X113118Y55618D01*
X113118Y64582D01*
X115082Y64582D01*
X115082Y55618D01*
X115082Y57809D02*
X113118Y57809D01*
X113118Y60000D02*
X115082Y60000D01*
X115082Y62191D02*
X113118Y62191D01*
X113118Y64382D02*
X115082Y64382D01*
X95082Y64582D02*
X93118Y64582D01*
X95082Y64582D02*
X95082Y55618D01*
X93118Y55618D01*
X93118Y64582D01*
X93118Y57809D02*
X95082Y57809D01*
X95082Y60000D02*
X93118Y60000D01*
X93118Y62191D02*
X95082Y62191D01*
X95082Y64382D02*
X93118Y64382D01*
X98118Y64582D02*
X100082Y64582D01*
X100082Y55618D01*
X98118Y55618D01*
X98118Y64582D01*
X98118Y57809D02*
X100082Y57809D01*
X100082Y60000D02*
X98118Y60000D01*
X98118Y62191D02*
X100082Y62191D01*
X100082Y64382D02*
X98118Y64382D01*
D11*
X71858Y64608D02*
X66842Y64608D01*
X71858Y64608D02*
X71858Y55592D01*
X66842Y55592D01*
X66842Y64608D01*
X66842Y57733D02*
X71858Y57733D01*
X71858Y59874D02*
X66842Y59874D01*
X66842Y62015D02*
X71858Y62015D01*
X71858Y64156D02*
X66842Y64156D01*
X74592Y64608D02*
X79608Y64608D01*
X79608Y55592D01*
X74592Y55592D01*
X74592Y64608D01*
X74592Y57733D02*
X79608Y57733D01*
X79608Y59874D02*
X74592Y59874D01*
X74592Y62015D02*
X79608Y62015D01*
X79608Y64156D02*
X74592Y64156D01*
D22*
X83118Y64582D02*
X85082Y64582D01*
X85082Y55618D01*
X83118Y55618D01*
X83118Y64582D01*
X83118Y57809D02*
X85082Y57809D01*
X85082Y60000D02*
X83118Y60000D01*
X83118Y62191D02*
X85082Y62191D01*
X85082Y64382D02*
X83118Y64382D01*
X88118Y64582D02*
X90082Y64582D01*
X90082Y55618D01*
X88118Y55618D01*
X88118Y64582D01*
X88118Y57809D02*
X90082Y57809D01*
X90082Y60000D02*
X88118Y60000D01*
X88118Y62191D02*
X90082Y62191D01*
X90082Y64382D02*
X88118Y64382D01*
D23*
X72700Y49050D03*
X130500Y49050D03*
D12*
X65342Y106362D02*
X65342Y116378D01*
X74358Y116378D01*
X74358Y106362D01*
X65342Y106362D01*
X65342Y108503D02*
X74358Y108503D01*
X74358Y110644D02*
X65342Y110644D01*
X65342Y112785D02*
X74358Y112785D01*
X74358Y114926D02*
X65342Y114926D01*
X65342Y99378D02*
X65342Y89362D01*
X65342Y99378D02*
X74358Y99378D01*
X74358Y89362D01*
X65342Y89362D01*
X65342Y91503D02*
X74358Y91503D01*
X74358Y93644D02*
X65342Y93644D01*
X65342Y95785D02*
X74358Y95785D01*
X74358Y97926D02*
X65342Y97926D01*
X80582Y106362D02*
X80582Y116378D01*
X89598Y116378D01*
X89598Y106362D01*
X80582Y106362D01*
X80582Y108503D02*
X89598Y108503D01*
X89598Y110644D02*
X80582Y110644D01*
X80582Y112785D02*
X89598Y112785D01*
X89598Y114926D02*
X80582Y114926D01*
X80582Y99378D02*
X80582Y89362D01*
X80582Y99378D02*
X89598Y99378D01*
X89598Y89362D01*
X80582Y89362D01*
X80582Y91503D02*
X89598Y91503D01*
X89598Y93644D02*
X80582Y93644D01*
X80582Y95785D02*
X89598Y95785D01*
X89598Y97926D02*
X80582Y97926D01*
D17*
X121532Y121619D02*
X126068Y121619D01*
X126068Y109083D01*
X121532Y109083D01*
X121532Y121619D01*
X121532Y111205D02*
X126068Y111205D01*
X126068Y113327D02*
X121532Y113327D01*
X121532Y115449D02*
X126068Y115449D01*
X126068Y117571D02*
X121532Y117571D01*
X121532Y119693D02*
X126068Y119693D01*
X116568Y121619D02*
X112032Y121619D01*
X116568Y121619D02*
X116568Y109083D01*
X112032Y109083D01*
X112032Y121619D01*
X112032Y111205D02*
X116568Y111205D01*
X116568Y113327D02*
X112032Y113327D01*
X112032Y115449D02*
X116568Y115449D01*
X116568Y117571D02*
X112032Y117571D01*
X112032Y119693D02*
X116568Y119693D01*
X107068Y121619D02*
X102532Y121619D01*
X107068Y121619D02*
X107068Y109083D01*
X102532Y109083D01*
X102532Y121619D01*
X102532Y111205D02*
X107068Y111205D01*
X107068Y113327D02*
X102532Y113327D01*
X102532Y115449D02*
X107068Y115449D01*
X107068Y117571D02*
X102532Y117571D01*
X102532Y119693D02*
X107068Y119693D01*
X107068Y94117D02*
X102532Y94117D01*
X107068Y94117D02*
X107068Y81581D01*
X102532Y81581D01*
X102532Y94117D01*
X102532Y83703D02*
X107068Y83703D01*
X107068Y85825D02*
X102532Y85825D01*
X102532Y87947D02*
X107068Y87947D01*
X107068Y90069D02*
X102532Y90069D01*
X102532Y92191D02*
X107068Y92191D01*
X112032Y94117D02*
X116568Y94117D01*
X116568Y81581D01*
X112032Y81581D01*
X112032Y94117D01*
X112032Y83703D02*
X116568Y83703D01*
X116568Y85825D02*
X112032Y85825D01*
X112032Y87947D02*
X116568Y87947D01*
X116568Y90069D02*
X112032Y90069D01*
X112032Y92191D02*
X116568Y92191D01*
X121532Y94117D02*
X126068Y94117D01*
X126068Y81581D01*
X121532Y81581D01*
X121532Y94117D01*
X121532Y83703D02*
X126068Y83703D01*
X126068Y85825D02*
X121532Y85825D01*
X121532Y87947D02*
X126068Y87947D01*
X126068Y90069D02*
X121532Y90069D01*
X121532Y92191D02*
X126068Y92191D01*
D24*
X202438Y88900D02*
X205232Y88900D01*
X205232Y78486D01*
X202438Y78486D01*
X202438Y88900D01*
X202438Y80658D02*
X205232Y80658D01*
X205232Y82830D02*
X202438Y82830D01*
X202438Y85002D02*
X205232Y85002D01*
X205232Y87174D02*
X202438Y87174D01*
X198882Y88900D02*
X196088Y88900D01*
X198882Y88900D02*
X198882Y78486D01*
X196088Y78486D01*
X196088Y88900D01*
X196088Y80658D02*
X198882Y80658D01*
X198882Y82830D02*
X196088Y82830D01*
X196088Y85002D02*
X198882Y85002D01*
X198882Y87174D02*
X196088Y87174D01*
X192532Y88900D02*
X189738Y88900D01*
X192532Y88900D02*
X192532Y78486D01*
X189738Y78486D01*
X189738Y88900D01*
X189738Y80658D02*
X192532Y80658D01*
X192532Y82830D02*
X189738Y82830D01*
X189738Y85002D02*
X192532Y85002D01*
X192532Y87174D02*
X189738Y87174D01*
X186182Y88900D02*
X183388Y88900D01*
X186182Y88900D02*
X186182Y78486D01*
X183388Y78486D01*
X183388Y88900D01*
X183388Y80658D02*
X186182Y80658D01*
X186182Y82830D02*
X183388Y82830D01*
X183388Y85002D02*
X186182Y85002D01*
X186182Y87174D02*
X183388Y87174D01*
X179832Y88900D02*
X177038Y88900D01*
X179832Y88900D02*
X179832Y78486D01*
X177038Y78486D01*
X177038Y88900D01*
X177038Y80658D02*
X179832Y80658D01*
X179832Y82830D02*
X177038Y82830D01*
X177038Y85002D02*
X179832Y85002D01*
X179832Y87174D02*
X177038Y87174D01*
X173482Y88900D02*
X170688Y88900D01*
X173482Y88900D02*
X173482Y78486D01*
X170688Y78486D01*
X170688Y88900D01*
X170688Y80658D02*
X173482Y80658D01*
X173482Y82830D02*
X170688Y82830D01*
X170688Y85002D02*
X173482Y85002D01*
X173482Y87174D02*
X170688Y87174D01*
X208788Y88900D02*
X211582Y88900D01*
X211582Y78486D01*
X208788Y78486D01*
X208788Y88900D01*
X208788Y80658D02*
X211582Y80658D01*
X211582Y82830D02*
X208788Y82830D01*
X208788Y85002D02*
X211582Y85002D01*
X211582Y87174D02*
X208788Y87174D01*
X215138Y88900D02*
X217932Y88900D01*
X217932Y78486D01*
X215138Y78486D01*
X215138Y88900D01*
X215138Y80658D02*
X217932Y80658D01*
X217932Y82830D02*
X215138Y82830D01*
X215138Y85002D02*
X217932Y85002D01*
X217932Y87174D02*
X215138Y87174D01*
X221488Y88900D02*
X224282Y88900D01*
X224282Y78486D01*
X221488Y78486D01*
X221488Y88900D01*
X221488Y80658D02*
X224282Y80658D01*
X224282Y82830D02*
X221488Y82830D01*
X221488Y85002D02*
X224282Y85002D01*
X224282Y87174D02*
X221488Y87174D01*
X227838Y88900D02*
X230632Y88900D01*
X230632Y78486D01*
X227838Y78486D01*
X227838Y88900D01*
X227838Y80658D02*
X230632Y80658D01*
X230632Y82830D02*
X227838Y82830D01*
X227838Y85002D02*
X230632Y85002D01*
X230632Y87174D02*
X227838Y87174D01*
X198882Y132080D02*
X196088Y132080D01*
X196088Y142494D01*
X198882Y142494D01*
X198882Y132080D01*
X198882Y134252D02*
X196088Y134252D01*
X196088Y136424D02*
X198882Y136424D01*
X198882Y138596D02*
X196088Y138596D01*
X196088Y140768D02*
X198882Y140768D01*
X202438Y132080D02*
X205232Y132080D01*
X202438Y132080D02*
X202438Y142494D01*
X205232Y142494D01*
X205232Y132080D01*
X205232Y134252D02*
X202438Y134252D01*
X202438Y136424D02*
X205232Y136424D01*
X205232Y138596D02*
X202438Y138596D01*
X202438Y140768D02*
X205232Y140768D01*
X208788Y132080D02*
X211582Y132080D01*
X208788Y132080D02*
X208788Y142494D01*
X211582Y142494D01*
X211582Y132080D01*
X211582Y134252D02*
X208788Y134252D01*
X208788Y136424D02*
X211582Y136424D01*
X211582Y138596D02*
X208788Y138596D01*
X208788Y140768D02*
X211582Y140768D01*
X215138Y132080D02*
X217932Y132080D01*
X215138Y132080D02*
X215138Y142494D01*
X217932Y142494D01*
X217932Y132080D01*
X217932Y134252D02*
X215138Y134252D01*
X215138Y136424D02*
X217932Y136424D01*
X217932Y138596D02*
X215138Y138596D01*
X215138Y140768D02*
X217932Y140768D01*
X221488Y132080D02*
X224282Y132080D01*
X221488Y132080D02*
X221488Y142494D01*
X224282Y142494D01*
X224282Y132080D01*
X224282Y134252D02*
X221488Y134252D01*
X221488Y136424D02*
X224282Y136424D01*
X224282Y138596D02*
X221488Y138596D01*
X221488Y140768D02*
X224282Y140768D01*
X227838Y132080D02*
X230632Y132080D01*
X227838Y132080D02*
X227838Y142494D01*
X230632Y142494D01*
X230632Y132080D01*
X230632Y134252D02*
X227838Y134252D01*
X227838Y136424D02*
X230632Y136424D01*
X230632Y138596D02*
X227838Y138596D01*
X227838Y140768D02*
X230632Y140768D01*
X192532Y132080D02*
X189738Y132080D01*
X189738Y142494D01*
X192532Y142494D01*
X192532Y132080D01*
X192532Y134252D02*
X189738Y134252D01*
X189738Y136424D02*
X192532Y136424D01*
X192532Y138596D02*
X189738Y138596D01*
X189738Y140768D02*
X192532Y140768D01*
X186182Y132080D02*
X183388Y132080D01*
X183388Y142494D01*
X186182Y142494D01*
X186182Y132080D01*
X186182Y134252D02*
X183388Y134252D01*
X183388Y136424D02*
X186182Y136424D01*
X186182Y138596D02*
X183388Y138596D01*
X183388Y140768D02*
X186182Y140768D01*
X179832Y132080D02*
X177038Y132080D01*
X177038Y142494D01*
X179832Y142494D01*
X179832Y132080D01*
X179832Y134252D02*
X177038Y134252D01*
X177038Y136424D02*
X179832Y136424D01*
X179832Y138596D02*
X177038Y138596D01*
X177038Y140768D02*
X179832Y140768D01*
X173482Y132080D02*
X170688Y132080D01*
X170688Y142494D01*
X173482Y142494D01*
X173482Y132080D01*
X173482Y134252D02*
X170688Y134252D01*
X170688Y136424D02*
X173482Y136424D01*
X173482Y138596D02*
X170688Y138596D01*
X170688Y140768D02*
X173482Y140768D01*
D12*
X211772Y156908D02*
X221788Y156908D01*
X221788Y147892D01*
X211772Y147892D01*
X211772Y156908D01*
X211772Y150033D02*
X221788Y150033D01*
X221788Y152174D02*
X211772Y152174D01*
X211772Y154315D02*
X221788Y154315D01*
X221788Y156456D02*
X211772Y156456D01*
X204788Y156908D02*
X194772Y156908D01*
X204788Y156908D02*
X204788Y147892D01*
X194772Y147892D01*
X194772Y156908D01*
X194772Y150033D02*
X204788Y150033D01*
X204788Y152174D02*
X194772Y152174D01*
X194772Y154315D02*
X204788Y154315D01*
X204788Y156456D02*
X194772Y156456D01*
X195136Y64580D02*
X185120Y64580D01*
X185120Y73596D01*
X195136Y73596D01*
X195136Y64580D01*
X195136Y66721D02*
X185120Y66721D01*
X185120Y68862D02*
X195136Y68862D01*
X195136Y71003D02*
X185120Y71003D01*
X185120Y73144D02*
X195136Y73144D01*
X202120Y64580D02*
X212136Y64580D01*
X202120Y64580D02*
X202120Y73596D01*
X212136Y73596D01*
X212136Y64580D01*
X212136Y66721D02*
X202120Y66721D01*
X202120Y68862D02*
X212136Y68862D01*
X212136Y71003D02*
X202120Y71003D01*
X202120Y73144D02*
X212136Y73144D01*
X38908Y391858D02*
X28892Y391858D01*
X38908Y391858D02*
X38908Y382842D01*
X28892Y382842D01*
X28892Y391858D01*
X28892Y384983D02*
X38908Y384983D01*
X38908Y387124D02*
X28892Y387124D01*
X28892Y389265D02*
X38908Y389265D01*
X38908Y391406D02*
X28892Y391406D01*
X21908Y391858D02*
X11892Y391858D01*
X21908Y391858D02*
X21908Y382842D01*
X11892Y382842D01*
X11892Y391858D01*
X11892Y384983D02*
X21908Y384983D01*
X21908Y387124D02*
X11892Y387124D01*
X11892Y389265D02*
X21908Y389265D01*
X21908Y391406D02*
X11892Y391406D01*
X28892Y407098D02*
X38908Y407098D01*
X38908Y398082D01*
X28892Y398082D01*
X28892Y407098D01*
X28892Y400223D02*
X38908Y400223D01*
X38908Y402364D02*
X28892Y402364D01*
X28892Y404505D02*
X38908Y404505D01*
X38908Y406646D02*
X28892Y406646D01*
X21908Y407098D02*
X11892Y407098D01*
X21908Y407098D02*
X21908Y398082D01*
X11892Y398082D01*
X11892Y407098D01*
X11892Y400223D02*
X21908Y400223D01*
X21908Y402364D02*
X11892Y402364D01*
X11892Y404505D02*
X21908Y404505D01*
X21908Y406646D02*
X11892Y406646D01*
D15*
X114300Y152400D03*
X241300Y152400D03*
D12*
X195136Y49340D02*
X185120Y49340D01*
X185120Y58356D01*
X195136Y58356D01*
X195136Y49340D01*
X195136Y51481D02*
X185120Y51481D01*
X185120Y53622D02*
X195136Y53622D01*
X195136Y55763D02*
X185120Y55763D01*
X185120Y57904D02*
X195136Y57904D01*
X202120Y49340D02*
X212136Y49340D01*
X202120Y49340D02*
X202120Y58356D01*
X212136Y58356D01*
X212136Y49340D01*
X212136Y51481D02*
X202120Y51481D01*
X202120Y53622D02*
X212136Y53622D01*
X212136Y55763D02*
X202120Y55763D01*
X202120Y57904D02*
X212136Y57904D01*
D10*
X593873Y4543D02*
X604887Y4543D01*
X593873Y4543D02*
X593873Y23557D01*
X604887Y23557D01*
X604887Y4543D01*
X604887Y6686D02*
X593873Y6686D01*
X593873Y8829D02*
X604887Y8829D01*
X604887Y10972D02*
X593873Y10972D01*
X593873Y13115D02*
X604887Y13115D01*
X604887Y15258D02*
X593873Y15258D01*
X593873Y17401D02*
X604887Y17401D01*
X604887Y19544D02*
X593873Y19544D01*
X593873Y21687D02*
X604887Y21687D01*
X649873Y4543D02*
X660887Y4543D01*
X649873Y4543D02*
X649873Y23557D01*
X660887Y23557D01*
X660887Y4543D01*
X660887Y6686D02*
X649873Y6686D01*
X649873Y8829D02*
X660887Y8829D01*
X660887Y10972D02*
X649873Y10972D01*
X649873Y13115D02*
X660887Y13115D01*
X660887Y15258D02*
X649873Y15258D01*
X649873Y17401D02*
X660887Y17401D01*
X660887Y19544D02*
X649873Y19544D01*
X649873Y21687D02*
X660887Y21687D01*
D11*
X614888Y44542D02*
X609872Y44542D01*
X609872Y57058D01*
X614888Y57058D01*
X614888Y44542D01*
X614888Y46683D02*
X609872Y46683D01*
X609872Y48824D02*
X614888Y48824D01*
X614888Y50965D02*
X609872Y50965D01*
X609872Y53106D02*
X614888Y53106D01*
X614888Y55247D02*
X609872Y55247D01*
X619872Y44542D02*
X624888Y44542D01*
X619872Y44542D02*
X619872Y57058D01*
X624888Y57058D01*
X624888Y44542D01*
X624888Y46683D02*
X619872Y46683D01*
X619872Y48824D02*
X624888Y48824D01*
X624888Y50965D02*
X619872Y50965D01*
X619872Y53106D02*
X624888Y53106D01*
X624888Y55247D02*
X619872Y55247D01*
X629872Y44542D02*
X634888Y44542D01*
X629872Y44542D02*
X629872Y57058D01*
X634888Y57058D01*
X634888Y44542D01*
X634888Y46683D02*
X629872Y46683D01*
X629872Y48824D02*
X634888Y48824D01*
X634888Y50965D02*
X629872Y50965D01*
X629872Y53106D02*
X634888Y53106D01*
X634888Y55247D02*
X629872Y55247D01*
X639872Y44542D02*
X644888Y44542D01*
X639872Y44542D02*
X639872Y57058D01*
X644888Y57058D01*
X644888Y44542D01*
X644888Y46683D02*
X639872Y46683D01*
X639872Y48824D02*
X644888Y48824D01*
X644888Y50965D02*
X639872Y50965D01*
X639872Y53106D02*
X644888Y53106D01*
X644888Y55247D02*
X639872Y55247D01*
D12*
X627444Y93662D02*
X627444Y103678D01*
X636460Y103678D01*
X636460Y93662D01*
X627444Y93662D01*
X627444Y95803D02*
X636460Y95803D01*
X636460Y97944D02*
X627444Y97944D01*
X627444Y100085D02*
X636460Y100085D01*
X636460Y102226D02*
X627444Y102226D01*
X627444Y86678D02*
X627444Y76662D01*
X627444Y86678D02*
X636460Y86678D01*
X636460Y76662D01*
X627444Y76662D01*
X627444Y78803D02*
X636460Y78803D01*
X636460Y80944D02*
X627444Y80944D01*
X627444Y83085D02*
X636460Y83085D01*
X636460Y85226D02*
X627444Y85226D01*
X644462Y93662D02*
X644462Y103678D01*
X653478Y103678D01*
X653478Y93662D01*
X644462Y93662D01*
X644462Y95803D02*
X653478Y95803D01*
X653478Y97944D02*
X644462Y97944D01*
X644462Y100085D02*
X653478Y100085D01*
X653478Y102226D02*
X644462Y102226D01*
X644462Y86678D02*
X644462Y76662D01*
X644462Y86678D02*
X653478Y86678D01*
X653478Y76662D01*
X644462Y76662D01*
X644462Y78803D02*
X653478Y78803D01*
X653478Y80944D02*
X644462Y80944D01*
X644462Y83085D02*
X653478Y83085D01*
X653478Y85226D02*
X644462Y85226D01*
D13*
X373380Y439420D03*
X703580Y63500D03*
D14*
X377984Y93504D02*
X371316Y93504D01*
X377984Y93504D02*
X377984Y79216D01*
X371316Y79216D01*
X371316Y93504D01*
X371316Y81328D02*
X377984Y81328D01*
X377984Y83440D02*
X371316Y83440D01*
X371316Y85552D02*
X377984Y85552D01*
X377984Y87664D02*
X371316Y87664D01*
X371316Y89776D02*
X377984Y89776D01*
X377984Y91888D02*
X371316Y91888D01*
X371316Y149384D02*
X377984Y149384D01*
X377984Y135096D01*
X371316Y135096D01*
X371316Y149384D01*
X371316Y137208D02*
X377984Y137208D01*
X377984Y139320D02*
X371316Y139320D01*
X371316Y141432D02*
X377984Y141432D01*
X377984Y143544D02*
X371316Y143544D01*
X371316Y145656D02*
X377984Y145656D01*
X377984Y147768D02*
X371316Y147768D01*
X409416Y93504D02*
X416084Y93504D01*
X416084Y79216D01*
X409416Y79216D01*
X409416Y93504D01*
X409416Y81328D02*
X416084Y81328D01*
X416084Y83440D02*
X409416Y83440D01*
X409416Y85552D02*
X416084Y85552D01*
X416084Y87664D02*
X409416Y87664D01*
X409416Y89776D02*
X416084Y89776D01*
X416084Y91888D02*
X409416Y91888D01*
X409416Y149384D02*
X416084Y149384D01*
X416084Y135096D01*
X409416Y135096D01*
X409416Y149384D01*
X409416Y137208D02*
X416084Y137208D01*
X416084Y139320D02*
X409416Y139320D01*
X409416Y141432D02*
X416084Y141432D01*
X416084Y143544D02*
X409416Y143544D01*
X409416Y145656D02*
X416084Y145656D01*
X416084Y147768D02*
X409416Y147768D01*
X700246Y135096D02*
X706914Y135096D01*
X700246Y135096D02*
X700246Y149384D01*
X706914Y149384D01*
X706914Y135096D01*
X706914Y137208D02*
X700246Y137208D01*
X700246Y139320D02*
X706914Y139320D01*
X706914Y141432D02*
X700246Y141432D01*
X700246Y143544D02*
X706914Y143544D01*
X706914Y145656D02*
X700246Y145656D01*
X700246Y147768D02*
X706914Y147768D01*
X706914Y79216D02*
X700246Y79216D01*
X700246Y93504D01*
X706914Y93504D01*
X706914Y79216D01*
X706914Y81328D02*
X700246Y81328D01*
X700246Y83440D02*
X706914Y83440D01*
X706914Y85552D02*
X700246Y85552D01*
X700246Y87664D02*
X706914Y87664D01*
X706914Y89776D02*
X700246Y89776D01*
X700246Y91888D02*
X706914Y91888D01*
X668814Y135096D02*
X662146Y135096D01*
X662146Y149384D01*
X668814Y149384D01*
X668814Y135096D01*
X668814Y137208D02*
X662146Y137208D01*
X662146Y139320D02*
X668814Y139320D01*
X668814Y141432D02*
X662146Y141432D01*
X662146Y143544D02*
X668814Y143544D01*
X668814Y145656D02*
X662146Y145656D01*
X662146Y147768D02*
X668814Y147768D01*
X668814Y79216D02*
X662146Y79216D01*
X662146Y93504D01*
X668814Y93504D01*
X668814Y79216D01*
X668814Y81328D02*
X662146Y81328D01*
X662146Y83440D02*
X668814Y83440D01*
X668814Y85552D02*
X662146Y85552D01*
X662146Y87664D02*
X668814Y87664D01*
X668814Y89776D02*
X662146Y89776D01*
X662146Y91888D02*
X668814Y91888D01*
D15*
X601980Y406400D03*
X601980Y381000D03*
X601980Y355600D03*
X601980Y330200D03*
X601980Y304800D03*
X601980Y279400D03*
X601980Y254000D03*
X601980Y228600D03*
X601980Y203200D03*
X601980Y177800D03*
X474980Y406400D03*
X474980Y381000D03*
X474980Y355600D03*
X474980Y330200D03*
X474980Y304800D03*
X474980Y279400D03*
X474980Y254000D03*
X474980Y228600D03*
X474980Y203200D03*
X474980Y177800D03*
D12*
X579438Y72944D02*
X579438Y62928D01*
X579438Y72944D02*
X588454Y72944D01*
X588454Y62928D01*
X579438Y62928D01*
X579438Y65069D02*
X588454Y65069D01*
X588454Y67210D02*
X579438Y67210D01*
X579438Y69351D02*
X588454Y69351D01*
X588454Y71492D02*
X579438Y71492D01*
X579438Y55944D02*
X579438Y45928D01*
X579438Y55944D02*
X588454Y55944D01*
X588454Y45928D01*
X579438Y45928D01*
X579438Y48069D02*
X588454Y48069D01*
X588454Y50210D02*
X579438Y50210D01*
X579438Y52351D02*
X588454Y52351D01*
X588454Y54492D02*
X579438Y54492D01*
D16*
X559246Y19108D02*
X552258Y19108D01*
X559246Y19108D02*
X559246Y12120D01*
X552258Y12120D01*
X552258Y19108D01*
X552258Y16189D02*
X559246Y16189D01*
X559246Y36648D02*
X552258Y36648D01*
X559246Y36648D02*
X559246Y29660D01*
X552258Y29660D01*
X552258Y36648D01*
X552258Y33729D02*
X559246Y33729D01*
X577658Y19108D02*
X584646Y19108D01*
X584646Y12120D01*
X577658Y12120D01*
X577658Y19108D01*
X577658Y16189D02*
X584646Y16189D01*
X584646Y36648D02*
X577658Y36648D01*
X584646Y36648D02*
X584646Y29660D01*
X577658Y29660D01*
X577658Y36648D01*
X577658Y33729D02*
X584646Y33729D01*
D12*
X610426Y93662D02*
X610426Y103678D01*
X619442Y103678D01*
X619442Y93662D01*
X610426Y93662D01*
X610426Y95803D02*
X619442Y95803D01*
X619442Y97944D02*
X610426Y97944D01*
X610426Y100085D02*
X619442Y100085D01*
X619442Y102226D02*
X610426Y102226D01*
X610426Y86678D02*
X610426Y76662D01*
X610426Y86678D02*
X619442Y86678D01*
X619442Y76662D01*
X610426Y76662D01*
X610426Y78803D02*
X619442Y78803D01*
X619442Y80944D02*
X610426Y80944D01*
X610426Y83085D02*
X619442Y83085D01*
X619442Y85226D02*
X610426Y85226D01*
D17*
X518548Y183181D02*
X514012Y183181D01*
X514012Y195717D01*
X518548Y195717D01*
X518548Y183181D01*
X518548Y185303D02*
X514012Y185303D01*
X514012Y187425D02*
X518548Y187425D01*
X518548Y189547D02*
X514012Y189547D01*
X514012Y191669D02*
X518548Y191669D01*
X518548Y193791D02*
X514012Y193791D01*
X523512Y183181D02*
X528048Y183181D01*
X523512Y183181D02*
X523512Y195717D01*
X528048Y195717D01*
X528048Y183181D01*
X528048Y185303D02*
X523512Y185303D01*
X523512Y187425D02*
X528048Y187425D01*
X528048Y189547D02*
X523512Y189547D01*
X523512Y191669D02*
X528048Y191669D01*
X528048Y193791D02*
X523512Y193791D01*
X533012Y183181D02*
X537548Y183181D01*
X533012Y183181D02*
X533012Y195717D01*
X537548Y195717D01*
X537548Y183181D01*
X537548Y185303D02*
X533012Y185303D01*
X533012Y187425D02*
X537548Y187425D01*
X537548Y189547D02*
X533012Y189547D01*
X533012Y191669D02*
X537548Y191669D01*
X537548Y193791D02*
X533012Y193791D01*
X533012Y210683D02*
X537548Y210683D01*
X533012Y210683D02*
X533012Y223219D01*
X537548Y223219D01*
X537548Y210683D01*
X537548Y212805D02*
X533012Y212805D01*
X533012Y214927D02*
X537548Y214927D01*
X537548Y217049D02*
X533012Y217049D01*
X533012Y219171D02*
X537548Y219171D01*
X537548Y221293D02*
X533012Y221293D01*
X528048Y210683D02*
X523512Y210683D01*
X523512Y223219D01*
X528048Y223219D01*
X528048Y210683D01*
X528048Y212805D02*
X523512Y212805D01*
X523512Y214927D02*
X528048Y214927D01*
X528048Y217049D02*
X523512Y217049D01*
X523512Y219171D02*
X528048Y219171D01*
X528048Y221293D02*
X523512Y221293D01*
X518548Y210683D02*
X514012Y210683D01*
X514012Y223219D01*
X518548Y223219D01*
X518548Y210683D01*
X518548Y212805D02*
X514012Y212805D01*
X514012Y214927D02*
X518548Y214927D01*
X518548Y217049D02*
X514012Y217049D01*
X514012Y219171D02*
X518548Y219171D01*
X518548Y221293D02*
X514012Y221293D01*
D18*
X511347Y231567D02*
X550373Y231567D01*
X511347Y231567D02*
X511347Y246593D01*
X550373Y246593D01*
X550373Y231567D01*
X550373Y233700D02*
X511347Y233700D01*
X511347Y235833D02*
X550373Y235833D01*
X550373Y237966D02*
X511347Y237966D01*
X511347Y240099D02*
X550373Y240099D01*
X550373Y242232D02*
X511347Y242232D01*
X511347Y244365D02*
X550373Y244365D01*
X550373Y246498D02*
X511347Y246498D01*
X511347Y270567D02*
X550373Y270567D01*
X511347Y270567D02*
X511347Y285593D01*
X550373Y285593D01*
X550373Y270567D01*
X550373Y272700D02*
X511347Y272700D01*
X511347Y274833D02*
X550373Y274833D01*
X550373Y276966D02*
X511347Y276966D01*
X511347Y279099D02*
X550373Y279099D01*
X550373Y281232D02*
X511347Y281232D01*
X511347Y283365D02*
X550373Y283365D01*
X550373Y285498D02*
X511347Y285498D01*
D12*
X499808Y228918D02*
X499808Y218902D01*
X490792Y218902D01*
X490792Y228918D01*
X499808Y228918D01*
X499808Y221043D02*
X490792Y221043D01*
X490792Y223184D02*
X499808Y223184D01*
X499808Y225325D02*
X490792Y225325D01*
X490792Y227466D02*
X499808Y227466D01*
X499808Y235902D02*
X499808Y245918D01*
X499808Y235902D02*
X490792Y235902D01*
X490792Y245918D01*
X499808Y245918D01*
X499808Y238043D02*
X490792Y238043D01*
X490792Y240184D02*
X499808Y240184D01*
X499808Y242325D02*
X490792Y242325D01*
X490792Y244466D02*
X499808Y244466D01*
X577152Y271462D02*
X577152Y281478D01*
X586168Y281478D01*
X586168Y271462D01*
X577152Y271462D01*
X577152Y273603D02*
X586168Y273603D01*
X586168Y275744D02*
X577152Y275744D01*
X577152Y277885D02*
X586168Y277885D01*
X586168Y280026D02*
X577152Y280026D01*
X577152Y264478D02*
X577152Y254462D01*
X577152Y264478D02*
X586168Y264478D01*
X586168Y254462D01*
X577152Y254462D01*
X577152Y256603D02*
X586168Y256603D01*
X586168Y258744D02*
X577152Y258744D01*
X577152Y260885D02*
X586168Y260885D01*
X586168Y263026D02*
X577152Y263026D01*
X561912Y271462D02*
X561912Y281478D01*
X570928Y281478D01*
X570928Y271462D01*
X561912Y271462D01*
X561912Y273603D02*
X570928Y273603D01*
X570928Y275744D02*
X561912Y275744D01*
X561912Y277885D02*
X570928Y277885D01*
X570928Y280026D02*
X561912Y280026D01*
X561912Y264478D02*
X561912Y254462D01*
X561912Y264478D02*
X570928Y264478D01*
X570928Y254462D01*
X561912Y254462D01*
X561912Y256603D02*
X570928Y256603D01*
X570928Y258744D02*
X561912Y258744D01*
X561912Y260885D02*
X570928Y260885D01*
X570928Y263026D02*
X561912Y263026D01*
D19*
X574968Y186438D02*
X574968Y174702D01*
X555332Y174702D01*
X555332Y186438D01*
X574968Y186438D01*
X574968Y176825D02*
X555332Y176825D01*
X555332Y178948D02*
X574968Y178948D01*
X574968Y181071D02*
X555332Y181071D01*
X555332Y183194D02*
X574968Y183194D01*
X574968Y185317D02*
X555332Y185317D01*
X574968Y209802D02*
X574968Y221538D01*
X574968Y209802D02*
X555332Y209802D01*
X555332Y221538D01*
X574968Y221538D01*
X574968Y211925D02*
X555332Y211925D01*
X555332Y214048D02*
X574968Y214048D01*
X574968Y216171D02*
X555332Y216171D01*
X555332Y218294D02*
X574968Y218294D01*
X574968Y220417D02*
X555332Y220417D01*
D12*
X522288Y168212D02*
X512272Y168212D01*
X512272Y177228D01*
X522288Y177228D01*
X522288Y168212D01*
X522288Y170353D02*
X512272Y170353D01*
X512272Y172494D02*
X522288Y172494D01*
X522288Y174635D02*
X512272Y174635D01*
X512272Y176776D02*
X522288Y176776D01*
X529272Y168212D02*
X539288Y168212D01*
X529272Y168212D02*
X529272Y177228D01*
X539288Y177228D01*
X539288Y168212D01*
X539288Y170353D02*
X529272Y170353D01*
X529272Y172494D02*
X539288Y172494D01*
X539288Y174635D02*
X529272Y174635D01*
X529272Y176776D02*
X539288Y176776D01*
D20*
X421492Y399438D02*
X421492Y406962D01*
X421492Y399438D02*
X405468Y399438D01*
X405468Y406962D01*
X421492Y406962D01*
X421492Y401573D02*
X405468Y401573D01*
X405468Y403708D02*
X421492Y403708D01*
X421492Y405843D02*
X405468Y405843D01*
X451492Y386962D02*
X451492Y379438D01*
X435468Y379438D01*
X435468Y386962D01*
X451492Y386962D01*
X451492Y381573D02*
X435468Y381573D01*
X435468Y383708D02*
X451492Y383708D01*
X451492Y385843D02*
X435468Y385843D01*
X421492Y366962D02*
X421492Y359438D01*
X405468Y359438D01*
X405468Y366962D01*
X421492Y366962D01*
X421492Y361573D02*
X405468Y361573D01*
X405468Y363708D02*
X421492Y363708D01*
X421492Y365843D02*
X405468Y365843D01*
X451492Y346962D02*
X451492Y339438D01*
X435468Y339438D01*
X435468Y346962D01*
X451492Y346962D01*
X451492Y341573D02*
X435468Y341573D01*
X435468Y343708D02*
X451492Y343708D01*
X451492Y345843D02*
X435468Y345843D01*
X421492Y326962D02*
X421492Y319438D01*
X405468Y319438D01*
X405468Y326962D01*
X421492Y326962D01*
X421492Y321573D02*
X405468Y321573D01*
X405468Y323708D02*
X421492Y323708D01*
X421492Y325843D02*
X405468Y325843D01*
X451492Y306962D02*
X451492Y299438D01*
X435468Y299438D01*
X435468Y306962D01*
X451492Y306962D01*
X451492Y301573D02*
X435468Y301573D01*
X435468Y303708D02*
X451492Y303708D01*
X451492Y305843D02*
X435468Y305843D01*
X421492Y286962D02*
X421492Y279438D01*
X405468Y279438D01*
X405468Y286962D01*
X421492Y286962D01*
X421492Y281573D02*
X405468Y281573D01*
X405468Y283708D02*
X421492Y283708D01*
X421492Y285843D02*
X405468Y285843D01*
X451492Y266962D02*
X451492Y259438D01*
X435468Y259438D01*
X435468Y266962D01*
X451492Y266962D01*
X451492Y261573D02*
X435468Y261573D01*
X435468Y263708D02*
X451492Y263708D01*
X451492Y265843D02*
X435468Y265843D01*
X421492Y246962D02*
X421492Y239438D01*
X405468Y239438D01*
X405468Y246962D01*
X421492Y246962D01*
X421492Y241573D02*
X405468Y241573D01*
X405468Y243708D02*
X421492Y243708D01*
X421492Y245843D02*
X405468Y245843D01*
X451492Y226962D02*
X451492Y219438D01*
X435468Y219438D01*
X435468Y226962D01*
X451492Y226962D01*
X451492Y221573D02*
X435468Y221573D01*
X435468Y223708D02*
X451492Y223708D01*
X451492Y225843D02*
X435468Y225843D01*
X671492Y226962D02*
X671492Y219438D01*
X655468Y219438D01*
X655468Y226962D01*
X671492Y226962D01*
X671492Y221573D02*
X655468Y221573D01*
X655468Y223708D02*
X671492Y223708D01*
X671492Y225843D02*
X655468Y225843D01*
X641492Y239438D02*
X641492Y246962D01*
X641492Y239438D02*
X625468Y239438D01*
X625468Y246962D01*
X641492Y246962D01*
X641492Y241573D02*
X625468Y241573D01*
X625468Y243708D02*
X641492Y243708D01*
X641492Y245843D02*
X625468Y245843D01*
X671492Y259438D02*
X671492Y266962D01*
X671492Y259438D02*
X655468Y259438D01*
X655468Y266962D01*
X671492Y266962D01*
X671492Y261573D02*
X655468Y261573D01*
X655468Y263708D02*
X671492Y263708D01*
X671492Y265843D02*
X655468Y265843D01*
X641492Y279438D02*
X641492Y286962D01*
X641492Y279438D02*
X625468Y279438D01*
X625468Y286962D01*
X641492Y286962D01*
X641492Y281573D02*
X625468Y281573D01*
X625468Y283708D02*
X641492Y283708D01*
X641492Y285843D02*
X625468Y285843D01*
X671492Y299438D02*
X671492Y306962D01*
X671492Y299438D02*
X655468Y299438D01*
X655468Y306962D01*
X671492Y306962D01*
X671492Y301573D02*
X655468Y301573D01*
X655468Y303708D02*
X671492Y303708D01*
X671492Y305843D02*
X655468Y305843D01*
X641492Y319438D02*
X641492Y326962D01*
X641492Y319438D02*
X625468Y319438D01*
X625468Y326962D01*
X641492Y326962D01*
X641492Y321573D02*
X625468Y321573D01*
X625468Y323708D02*
X641492Y323708D01*
X641492Y325843D02*
X625468Y325843D01*
X671492Y339438D02*
X671492Y346962D01*
X671492Y339438D02*
X655468Y339438D01*
X655468Y346962D01*
X671492Y346962D01*
X671492Y341573D02*
X655468Y341573D01*
X655468Y343708D02*
X671492Y343708D01*
X671492Y345843D02*
X655468Y345843D01*
X641492Y359438D02*
X641492Y366962D01*
X641492Y359438D02*
X625468Y359438D01*
X625468Y366962D01*
X641492Y366962D01*
X641492Y361573D02*
X625468Y361573D01*
X625468Y363708D02*
X641492Y363708D01*
X641492Y365843D02*
X625468Y365843D01*
X671492Y379438D02*
X671492Y386962D01*
X671492Y379438D02*
X655468Y379438D01*
X655468Y386962D01*
X671492Y386962D01*
X671492Y381573D02*
X655468Y381573D01*
X655468Y383708D02*
X671492Y383708D01*
X671492Y385843D02*
X655468Y385843D01*
X641492Y399438D02*
X641492Y406962D01*
X641492Y399438D02*
X625468Y399438D01*
X625468Y406962D01*
X641492Y406962D01*
X641492Y401573D02*
X625468Y401573D01*
X625468Y403708D02*
X641492Y403708D01*
X641492Y405843D02*
X625468Y405843D01*
D12*
X399588Y330898D02*
X389572Y330898D01*
X399588Y330898D02*
X399588Y321882D01*
X389572Y321882D01*
X389572Y330898D01*
X389572Y324023D02*
X399588Y324023D01*
X399588Y326164D02*
X389572Y326164D01*
X389572Y328305D02*
X399588Y328305D01*
X399588Y330446D02*
X389572Y330446D01*
X382588Y330898D02*
X372572Y330898D01*
X382588Y330898D02*
X382588Y321882D01*
X372572Y321882D01*
X372572Y330898D01*
X372572Y324023D02*
X382588Y324023D01*
X382588Y326164D02*
X372572Y326164D01*
X372572Y328305D02*
X382588Y328305D01*
X382588Y330446D02*
X372572Y330446D01*
X389572Y376618D02*
X399588Y376618D01*
X399588Y367602D01*
X389572Y367602D01*
X389572Y376618D01*
X389572Y369743D02*
X399588Y369743D01*
X399588Y371884D02*
X389572Y371884D01*
X389572Y374025D02*
X399588Y374025D01*
X399588Y376166D02*
X389572Y376166D01*
X382588Y376618D02*
X372572Y376618D01*
X382588Y376618D02*
X382588Y367602D01*
X372572Y367602D01*
X372572Y376618D01*
X372572Y369743D02*
X382588Y369743D01*
X382588Y371884D02*
X372572Y371884D01*
X372572Y374025D02*
X382588Y374025D01*
X382588Y376166D02*
X372572Y376166D01*
X389572Y361378D02*
X399588Y361378D01*
X399588Y352362D01*
X389572Y352362D01*
X389572Y361378D01*
X389572Y354503D02*
X399588Y354503D01*
X399588Y356644D02*
X389572Y356644D01*
X389572Y358785D02*
X399588Y358785D01*
X399588Y360926D02*
X389572Y360926D01*
X382588Y361378D02*
X372572Y361378D01*
X382588Y361378D02*
X382588Y352362D01*
X372572Y352362D01*
X372572Y361378D01*
X372572Y354503D02*
X382588Y354503D01*
X382588Y356644D02*
X372572Y356644D01*
X372572Y358785D02*
X382588Y358785D01*
X382588Y360926D02*
X372572Y360926D01*
X389572Y346138D02*
X399588Y346138D01*
X399588Y337122D01*
X389572Y337122D01*
X389572Y346138D01*
X389572Y339263D02*
X399588Y339263D01*
X399588Y341404D02*
X389572Y341404D01*
X389572Y343545D02*
X399588Y343545D01*
X399588Y345686D02*
X389572Y345686D01*
X382588Y346138D02*
X372572Y346138D01*
X382588Y346138D02*
X382588Y337122D01*
X372572Y337122D01*
X372572Y346138D01*
X372572Y339263D02*
X382588Y339263D01*
X382588Y341404D02*
X372572Y341404D01*
X372572Y343545D02*
X382588Y343545D01*
X382588Y345686D02*
X372572Y345686D01*
D21*
X690880Y571500D03*
X690880Y25400D03*
X386080Y571500D03*
X386080Y25400D03*
D16*
X528128Y19108D02*
X535116Y19108D01*
X535116Y12120D01*
X528128Y12120D01*
X528128Y19108D01*
X528128Y16189D02*
X535116Y16189D01*
X535116Y36648D02*
X528128Y36648D01*
X535116Y36648D02*
X535116Y29660D01*
X528128Y29660D01*
X528128Y36648D01*
X528128Y33729D02*
X535116Y33729D01*
D12*
X526352Y63182D02*
X526352Y73198D01*
X535368Y73198D01*
X535368Y63182D01*
X526352Y63182D01*
X526352Y65323D02*
X535368Y65323D01*
X535368Y67464D02*
X526352Y67464D01*
X526352Y69605D02*
X535368Y69605D01*
X535368Y71746D02*
X526352Y71746D01*
X526352Y56198D02*
X526352Y46182D01*
X526352Y56198D02*
X535368Y56198D01*
X535368Y46182D01*
X526352Y46182D01*
X526352Y48323D02*
X535368Y48323D01*
X535368Y50464D02*
X526352Y50464D01*
X526352Y52605D02*
X535368Y52605D01*
X535368Y54746D02*
X526352Y54746D01*
D22*
X470762Y55618D02*
X468798Y55618D01*
X468798Y64582D01*
X470762Y64582D01*
X470762Y55618D01*
X470762Y57809D02*
X468798Y57809D01*
X468798Y60000D02*
X470762Y60000D01*
X470762Y62191D02*
X468798Y62191D01*
X468798Y64382D02*
X470762Y64382D01*
X465762Y55618D02*
X463798Y55618D01*
X463798Y64582D01*
X465762Y64582D01*
X465762Y55618D01*
X465762Y57809D02*
X463798Y57809D01*
X463798Y60000D02*
X465762Y60000D01*
X465762Y62191D02*
X463798Y62191D01*
X463798Y64382D02*
X465762Y64382D01*
D11*
X492022Y55592D02*
X497038Y55592D01*
X492022Y55592D02*
X492022Y64608D01*
X497038Y64608D01*
X497038Y55592D01*
X497038Y57733D02*
X492022Y57733D01*
X492022Y59874D02*
X497038Y59874D01*
X497038Y62015D02*
X492022Y62015D01*
X492022Y64156D02*
X497038Y64156D01*
X489288Y55592D02*
X484272Y55592D01*
X484272Y64608D01*
X489288Y64608D01*
X489288Y55592D01*
X489288Y57733D02*
X484272Y57733D01*
X484272Y59874D02*
X489288Y59874D01*
X489288Y62015D02*
X484272Y62015D01*
X484272Y64156D02*
X489288Y64156D01*
D22*
X480762Y55618D02*
X478798Y55618D01*
X478798Y64582D01*
X480762Y64582D01*
X480762Y55618D01*
X480762Y57809D02*
X478798Y57809D01*
X478798Y60000D02*
X480762Y60000D01*
X480762Y62191D02*
X478798Y62191D01*
X478798Y64382D02*
X480762Y64382D01*
X475762Y55618D02*
X473798Y55618D01*
X473798Y64582D01*
X475762Y64582D01*
X475762Y55618D01*
X475762Y57809D02*
X473798Y57809D01*
X473798Y60000D02*
X475762Y60000D01*
X475762Y62191D02*
X473798Y62191D01*
X473798Y64382D02*
X475762Y64382D01*
X455762Y64582D02*
X453798Y64582D01*
X455762Y64582D02*
X455762Y55618D01*
X453798Y55618D01*
X453798Y64582D01*
X453798Y57809D02*
X455762Y57809D01*
X455762Y60000D02*
X453798Y60000D01*
X453798Y62191D02*
X455762Y62191D01*
X455762Y64382D02*
X453798Y64382D01*
X458798Y64582D02*
X460762Y64582D01*
X460762Y55618D01*
X458798Y55618D01*
X458798Y64582D01*
X458798Y57809D02*
X460762Y57809D01*
X460762Y60000D02*
X458798Y60000D01*
X458798Y62191D02*
X460762Y62191D01*
X460762Y64382D02*
X458798Y64382D01*
D11*
X432538Y64608D02*
X427522Y64608D01*
X432538Y64608D02*
X432538Y55592D01*
X427522Y55592D01*
X427522Y64608D01*
X427522Y57733D02*
X432538Y57733D01*
X432538Y59874D02*
X427522Y59874D01*
X427522Y62015D02*
X432538Y62015D01*
X432538Y64156D02*
X427522Y64156D01*
X435272Y64608D02*
X440288Y64608D01*
X440288Y55592D01*
X435272Y55592D01*
X435272Y64608D01*
X435272Y57733D02*
X440288Y57733D01*
X440288Y59874D02*
X435272Y59874D01*
X435272Y62015D02*
X440288Y62015D01*
X440288Y64156D02*
X435272Y64156D01*
D22*
X443798Y64582D02*
X445762Y64582D01*
X445762Y55618D01*
X443798Y55618D01*
X443798Y64582D01*
X443798Y57809D02*
X445762Y57809D01*
X445762Y60000D02*
X443798Y60000D01*
X443798Y62191D02*
X445762Y62191D01*
X445762Y64382D02*
X443798Y64382D01*
X448798Y64582D02*
X450762Y64582D01*
X450762Y55618D01*
X448798Y55618D01*
X448798Y64582D01*
X448798Y57809D02*
X450762Y57809D01*
X450762Y60000D02*
X448798Y60000D01*
X448798Y62191D02*
X450762Y62191D01*
X450762Y64382D02*
X448798Y64382D01*
D23*
X433380Y49050D03*
X491180Y49050D03*
D12*
X426022Y106362D02*
X426022Y116378D01*
X435038Y116378D01*
X435038Y106362D01*
X426022Y106362D01*
X426022Y108503D02*
X435038Y108503D01*
X435038Y110644D02*
X426022Y110644D01*
X426022Y112785D02*
X435038Y112785D01*
X435038Y114926D02*
X426022Y114926D01*
X426022Y99378D02*
X426022Y89362D01*
X426022Y99378D02*
X435038Y99378D01*
X435038Y89362D01*
X426022Y89362D01*
X426022Y91503D02*
X435038Y91503D01*
X435038Y93644D02*
X426022Y93644D01*
X426022Y95785D02*
X435038Y95785D01*
X435038Y97926D02*
X426022Y97926D01*
X441262Y106362D02*
X441262Y116378D01*
X450278Y116378D01*
X450278Y106362D01*
X441262Y106362D01*
X441262Y108503D02*
X450278Y108503D01*
X450278Y110644D02*
X441262Y110644D01*
X441262Y112785D02*
X450278Y112785D01*
X450278Y114926D02*
X441262Y114926D01*
X441262Y99378D02*
X441262Y89362D01*
X441262Y99378D02*
X450278Y99378D01*
X450278Y89362D01*
X441262Y89362D01*
X441262Y91503D02*
X450278Y91503D01*
X450278Y93644D02*
X441262Y93644D01*
X441262Y95785D02*
X450278Y95785D01*
X450278Y97926D02*
X441262Y97926D01*
D17*
X482212Y121619D02*
X486748Y121619D01*
X486748Y109083D01*
X482212Y109083D01*
X482212Y121619D01*
X482212Y111205D02*
X486748Y111205D01*
X486748Y113327D02*
X482212Y113327D01*
X482212Y115449D02*
X486748Y115449D01*
X486748Y117571D02*
X482212Y117571D01*
X482212Y119693D02*
X486748Y119693D01*
X477248Y121619D02*
X472712Y121619D01*
X477248Y121619D02*
X477248Y109083D01*
X472712Y109083D01*
X472712Y121619D01*
X472712Y111205D02*
X477248Y111205D01*
X477248Y113327D02*
X472712Y113327D01*
X472712Y115449D02*
X477248Y115449D01*
X477248Y117571D02*
X472712Y117571D01*
X472712Y119693D02*
X477248Y119693D01*
X467748Y121619D02*
X463212Y121619D01*
X467748Y121619D02*
X467748Y109083D01*
X463212Y109083D01*
X463212Y121619D01*
X463212Y111205D02*
X467748Y111205D01*
X467748Y113327D02*
X463212Y113327D01*
X463212Y115449D02*
X467748Y115449D01*
X467748Y117571D02*
X463212Y117571D01*
X463212Y119693D02*
X467748Y119693D01*
X467748Y94117D02*
X463212Y94117D01*
X467748Y94117D02*
X467748Y81581D01*
X463212Y81581D01*
X463212Y94117D01*
X463212Y83703D02*
X467748Y83703D01*
X467748Y85825D02*
X463212Y85825D01*
X463212Y87947D02*
X467748Y87947D01*
X467748Y90069D02*
X463212Y90069D01*
X463212Y92191D02*
X467748Y92191D01*
X472712Y94117D02*
X477248Y94117D01*
X477248Y81581D01*
X472712Y81581D01*
X472712Y94117D01*
X472712Y83703D02*
X477248Y83703D01*
X477248Y85825D02*
X472712Y85825D01*
X472712Y87947D02*
X477248Y87947D01*
X477248Y90069D02*
X472712Y90069D01*
X472712Y92191D02*
X477248Y92191D01*
X482212Y94117D02*
X486748Y94117D01*
X486748Y81581D01*
X482212Y81581D01*
X482212Y94117D01*
X482212Y83703D02*
X486748Y83703D01*
X486748Y85825D02*
X482212Y85825D01*
X482212Y87947D02*
X486748Y87947D01*
X486748Y90069D02*
X482212Y90069D01*
X482212Y92191D02*
X486748Y92191D01*
D24*
X563118Y88900D02*
X565912Y88900D01*
X565912Y78486D01*
X563118Y78486D01*
X563118Y88900D01*
X563118Y80658D02*
X565912Y80658D01*
X565912Y82830D02*
X563118Y82830D01*
X563118Y85002D02*
X565912Y85002D01*
X565912Y87174D02*
X563118Y87174D01*
X559562Y88900D02*
X556768Y88900D01*
X559562Y88900D02*
X559562Y78486D01*
X556768Y78486D01*
X556768Y88900D01*
X556768Y80658D02*
X559562Y80658D01*
X559562Y82830D02*
X556768Y82830D01*
X556768Y85002D02*
X559562Y85002D01*
X559562Y87174D02*
X556768Y87174D01*
X553212Y88900D02*
X550418Y88900D01*
X553212Y88900D02*
X553212Y78486D01*
X550418Y78486D01*
X550418Y88900D01*
X550418Y80658D02*
X553212Y80658D01*
X553212Y82830D02*
X550418Y82830D01*
X550418Y85002D02*
X553212Y85002D01*
X553212Y87174D02*
X550418Y87174D01*
X546862Y88900D02*
X544068Y88900D01*
X546862Y88900D02*
X546862Y78486D01*
X544068Y78486D01*
X544068Y88900D01*
X544068Y80658D02*
X546862Y80658D01*
X546862Y82830D02*
X544068Y82830D01*
X544068Y85002D02*
X546862Y85002D01*
X546862Y87174D02*
X544068Y87174D01*
X540512Y88900D02*
X537718Y88900D01*
X540512Y88900D02*
X540512Y78486D01*
X537718Y78486D01*
X537718Y88900D01*
X537718Y80658D02*
X540512Y80658D01*
X540512Y82830D02*
X537718Y82830D01*
X537718Y85002D02*
X540512Y85002D01*
X540512Y87174D02*
X537718Y87174D01*
X534162Y88900D02*
X531368Y88900D01*
X534162Y88900D02*
X534162Y78486D01*
X531368Y78486D01*
X531368Y88900D01*
X531368Y80658D02*
X534162Y80658D01*
X534162Y82830D02*
X531368Y82830D01*
X531368Y85002D02*
X534162Y85002D01*
X534162Y87174D02*
X531368Y87174D01*
X569468Y88900D02*
X572262Y88900D01*
X572262Y78486D01*
X569468Y78486D01*
X569468Y88900D01*
X569468Y80658D02*
X572262Y80658D01*
X572262Y82830D02*
X569468Y82830D01*
X569468Y85002D02*
X572262Y85002D01*
X572262Y87174D02*
X569468Y87174D01*
X575818Y88900D02*
X578612Y88900D01*
X578612Y78486D01*
X575818Y78486D01*
X575818Y88900D01*
X575818Y80658D02*
X578612Y80658D01*
X578612Y82830D02*
X575818Y82830D01*
X575818Y85002D02*
X578612Y85002D01*
X578612Y87174D02*
X575818Y87174D01*
X582168Y88900D02*
X584962Y88900D01*
X584962Y78486D01*
X582168Y78486D01*
X582168Y88900D01*
X582168Y80658D02*
X584962Y80658D01*
X584962Y82830D02*
X582168Y82830D01*
X582168Y85002D02*
X584962Y85002D01*
X584962Y87174D02*
X582168Y87174D01*
X588518Y88900D02*
X591312Y88900D01*
X591312Y78486D01*
X588518Y78486D01*
X588518Y88900D01*
X588518Y80658D02*
X591312Y80658D01*
X591312Y82830D02*
X588518Y82830D01*
X588518Y85002D02*
X591312Y85002D01*
X591312Y87174D02*
X588518Y87174D01*
X559562Y132080D02*
X556768Y132080D01*
X556768Y142494D01*
X559562Y142494D01*
X559562Y132080D01*
X559562Y134252D02*
X556768Y134252D01*
X556768Y136424D02*
X559562Y136424D01*
X559562Y138596D02*
X556768Y138596D01*
X556768Y140768D02*
X559562Y140768D01*
X563118Y132080D02*
X565912Y132080D01*
X563118Y132080D02*
X563118Y142494D01*
X565912Y142494D01*
X565912Y132080D01*
X565912Y134252D02*
X563118Y134252D01*
X563118Y136424D02*
X565912Y136424D01*
X565912Y138596D02*
X563118Y138596D01*
X563118Y140768D02*
X565912Y140768D01*
X569468Y132080D02*
X572262Y132080D01*
X569468Y132080D02*
X569468Y142494D01*
X572262Y142494D01*
X572262Y132080D01*
X572262Y134252D02*
X569468Y134252D01*
X569468Y136424D02*
X572262Y136424D01*
X572262Y138596D02*
X569468Y138596D01*
X569468Y140768D02*
X572262Y140768D01*
X575818Y132080D02*
X578612Y132080D01*
X575818Y132080D02*
X575818Y142494D01*
X578612Y142494D01*
X578612Y132080D01*
X578612Y134252D02*
X575818Y134252D01*
X575818Y136424D02*
X578612Y136424D01*
X578612Y138596D02*
X575818Y138596D01*
X575818Y140768D02*
X578612Y140768D01*
X582168Y132080D02*
X584962Y132080D01*
X582168Y132080D02*
X582168Y142494D01*
X584962Y142494D01*
X584962Y132080D01*
X584962Y134252D02*
X582168Y134252D01*
X582168Y136424D02*
X584962Y136424D01*
X584962Y138596D02*
X582168Y138596D01*
X582168Y140768D02*
X584962Y140768D01*
X588518Y132080D02*
X591312Y132080D01*
X588518Y132080D02*
X588518Y142494D01*
X591312Y142494D01*
X591312Y132080D01*
X591312Y134252D02*
X588518Y134252D01*
X588518Y136424D02*
X591312Y136424D01*
X591312Y138596D02*
X588518Y138596D01*
X588518Y140768D02*
X591312Y140768D01*
X553212Y132080D02*
X550418Y132080D01*
X550418Y142494D01*
X553212Y142494D01*
X553212Y132080D01*
X553212Y134252D02*
X550418Y134252D01*
X550418Y136424D02*
X553212Y136424D01*
X553212Y138596D02*
X550418Y138596D01*
X550418Y140768D02*
X553212Y140768D01*
X546862Y132080D02*
X544068Y132080D01*
X544068Y142494D01*
X546862Y142494D01*
X546862Y132080D01*
X546862Y134252D02*
X544068Y134252D01*
X544068Y136424D02*
X546862Y136424D01*
X546862Y138596D02*
X544068Y138596D01*
X544068Y140768D02*
X546862Y140768D01*
X540512Y132080D02*
X537718Y132080D01*
X537718Y142494D01*
X540512Y142494D01*
X540512Y132080D01*
X540512Y134252D02*
X537718Y134252D01*
X537718Y136424D02*
X540512Y136424D01*
X540512Y138596D02*
X537718Y138596D01*
X537718Y140768D02*
X540512Y140768D01*
X534162Y132080D02*
X531368Y132080D01*
X531368Y142494D01*
X534162Y142494D01*
X534162Y132080D01*
X534162Y134252D02*
X531368Y134252D01*
X531368Y136424D02*
X534162Y136424D01*
X534162Y138596D02*
X531368Y138596D01*
X531368Y140768D02*
X534162Y140768D01*
D12*
X572452Y156908D02*
X582468Y156908D01*
X582468Y147892D01*
X572452Y147892D01*
X572452Y156908D01*
X572452Y150033D02*
X582468Y150033D01*
X582468Y152174D02*
X572452Y152174D01*
X572452Y154315D02*
X582468Y154315D01*
X582468Y156456D02*
X572452Y156456D01*
X565468Y156908D02*
X555452Y156908D01*
X565468Y156908D02*
X565468Y147892D01*
X555452Y147892D01*
X555452Y156908D01*
X555452Y150033D02*
X565468Y150033D01*
X565468Y152174D02*
X555452Y152174D01*
X555452Y154315D02*
X565468Y154315D01*
X565468Y156456D02*
X555452Y156456D01*
X555816Y64580D02*
X545800Y64580D01*
X545800Y73596D01*
X555816Y73596D01*
X555816Y64580D01*
X555816Y66721D02*
X545800Y66721D01*
X545800Y68862D02*
X555816Y68862D01*
X555816Y71003D02*
X545800Y71003D01*
X545800Y73144D02*
X555816Y73144D01*
X562800Y64580D02*
X572816Y64580D01*
X562800Y64580D02*
X562800Y73596D01*
X572816Y73596D01*
X572816Y64580D01*
X572816Y66721D02*
X562800Y66721D01*
X562800Y68862D02*
X572816Y68862D01*
X572816Y71003D02*
X562800Y71003D01*
X562800Y73144D02*
X572816Y73144D01*
X399588Y391858D02*
X389572Y391858D01*
X399588Y391858D02*
X399588Y382842D01*
X389572Y382842D01*
X389572Y391858D01*
X389572Y384983D02*
X399588Y384983D01*
X399588Y387124D02*
X389572Y387124D01*
X389572Y389265D02*
X399588Y389265D01*
X399588Y391406D02*
X389572Y391406D01*
X382588Y391858D02*
X372572Y391858D01*
X382588Y391858D02*
X382588Y382842D01*
X372572Y382842D01*
X372572Y391858D01*
X372572Y384983D02*
X382588Y384983D01*
X382588Y387124D02*
X372572Y387124D01*
X372572Y389265D02*
X382588Y389265D01*
X382588Y391406D02*
X372572Y391406D01*
X389572Y407098D02*
X399588Y407098D01*
X399588Y398082D01*
X389572Y398082D01*
X389572Y407098D01*
X389572Y400223D02*
X399588Y400223D01*
X399588Y402364D02*
X389572Y402364D01*
X389572Y404505D02*
X399588Y404505D01*
X399588Y406646D02*
X389572Y406646D01*
X382588Y407098D02*
X372572Y407098D01*
X382588Y407098D02*
X382588Y398082D01*
X372572Y398082D01*
X372572Y407098D01*
X372572Y400223D02*
X382588Y400223D01*
X382588Y402364D02*
X372572Y402364D01*
X372572Y404505D02*
X382588Y404505D01*
X382588Y406646D02*
X372572Y406646D01*
D15*
X474980Y152400D03*
X601980Y152400D03*
D12*
X555816Y49340D02*
X545800Y49340D01*
X545800Y58356D01*
X555816Y58356D01*
X555816Y49340D01*
X555816Y51481D02*
X545800Y51481D01*
X545800Y53622D02*
X555816Y53622D01*
X555816Y55763D02*
X545800Y55763D01*
X545800Y57904D02*
X555816Y57904D01*
X562800Y49340D02*
X572816Y49340D01*
X562800Y49340D02*
X562800Y58356D01*
X572816Y58356D01*
X572816Y49340D01*
X572816Y51481D02*
X562800Y51481D01*
X562800Y53622D02*
X572816Y53622D01*
X572816Y55763D02*
X562800Y55763D01*
X562800Y57904D02*
X572816Y57904D01*
D10*
X954553Y4543D02*
X965567Y4543D01*
X954553Y4543D02*
X954553Y23557D01*
X965567Y23557D01*
X965567Y4543D01*
X965567Y6686D02*
X954553Y6686D01*
X954553Y8829D02*
X965567Y8829D01*
X965567Y10972D02*
X954553Y10972D01*
X954553Y13115D02*
X965567Y13115D01*
X965567Y15258D02*
X954553Y15258D01*
X954553Y17401D02*
X965567Y17401D01*
X965567Y19544D02*
X954553Y19544D01*
X954553Y21687D02*
X965567Y21687D01*
X1010553Y4543D02*
X1021567Y4543D01*
X1010553Y4543D02*
X1010553Y23557D01*
X1021567Y23557D01*
X1021567Y4543D01*
X1021567Y6686D02*
X1010553Y6686D01*
X1010553Y8829D02*
X1021567Y8829D01*
X1021567Y10972D02*
X1010553Y10972D01*
X1010553Y13115D02*
X1021567Y13115D01*
X1021567Y15258D02*
X1010553Y15258D01*
X1010553Y17401D02*
X1021567Y17401D01*
X1021567Y19544D02*
X1010553Y19544D01*
X1010553Y21687D02*
X1021567Y21687D01*
D11*
X975568Y44542D02*
X970552Y44542D01*
X970552Y57058D01*
X975568Y57058D01*
X975568Y44542D01*
X975568Y46683D02*
X970552Y46683D01*
X970552Y48824D02*
X975568Y48824D01*
X975568Y50965D02*
X970552Y50965D01*
X970552Y53106D02*
X975568Y53106D01*
X975568Y55247D02*
X970552Y55247D01*
X980552Y44542D02*
X985568Y44542D01*
X980552Y44542D02*
X980552Y57058D01*
X985568Y57058D01*
X985568Y44542D01*
X985568Y46683D02*
X980552Y46683D01*
X980552Y48824D02*
X985568Y48824D01*
X985568Y50965D02*
X980552Y50965D01*
X980552Y53106D02*
X985568Y53106D01*
X985568Y55247D02*
X980552Y55247D01*
X990552Y44542D02*
X995568Y44542D01*
X990552Y44542D02*
X990552Y57058D01*
X995568Y57058D01*
X995568Y44542D01*
X995568Y46683D02*
X990552Y46683D01*
X990552Y48824D02*
X995568Y48824D01*
X995568Y50965D02*
X990552Y50965D01*
X990552Y53106D02*
X995568Y53106D01*
X995568Y55247D02*
X990552Y55247D01*
X1000552Y44542D02*
X1005568Y44542D01*
X1000552Y44542D02*
X1000552Y57058D01*
X1005568Y57058D01*
X1005568Y44542D01*
X1005568Y46683D02*
X1000552Y46683D01*
X1000552Y48824D02*
X1005568Y48824D01*
X1005568Y50965D02*
X1000552Y50965D01*
X1000552Y53106D02*
X1005568Y53106D01*
X1005568Y55247D02*
X1000552Y55247D01*
D12*
X988124Y93662D02*
X988124Y103678D01*
X997140Y103678D01*
X997140Y93662D01*
X988124Y93662D01*
X988124Y95803D02*
X997140Y95803D01*
X997140Y97944D02*
X988124Y97944D01*
X988124Y100085D02*
X997140Y100085D01*
X997140Y102226D02*
X988124Y102226D01*
X988124Y86678D02*
X988124Y76662D01*
X988124Y86678D02*
X997140Y86678D01*
X997140Y76662D01*
X988124Y76662D01*
X988124Y78803D02*
X997140Y78803D01*
X997140Y80944D02*
X988124Y80944D01*
X988124Y83085D02*
X997140Y83085D01*
X997140Y85226D02*
X988124Y85226D01*
X1005142Y93662D02*
X1005142Y103678D01*
X1014158Y103678D01*
X1014158Y93662D01*
X1005142Y93662D01*
X1005142Y95803D02*
X1014158Y95803D01*
X1014158Y97944D02*
X1005142Y97944D01*
X1005142Y100085D02*
X1014158Y100085D01*
X1014158Y102226D02*
X1005142Y102226D01*
X1005142Y86678D02*
X1005142Y76662D01*
X1005142Y86678D02*
X1014158Y86678D01*
X1014158Y76662D01*
X1005142Y76662D01*
X1005142Y78803D02*
X1014158Y78803D01*
X1014158Y80944D02*
X1005142Y80944D01*
X1005142Y83085D02*
X1014158Y83085D01*
X1014158Y85226D02*
X1005142Y85226D01*
D13*
X734060Y439420D03*
X1064260Y63500D03*
D14*
X738664Y93504D02*
X731996Y93504D01*
X738664Y93504D02*
X738664Y79216D01*
X731996Y79216D01*
X731996Y93504D01*
X731996Y81328D02*
X738664Y81328D01*
X738664Y83440D02*
X731996Y83440D01*
X731996Y85552D02*
X738664Y85552D01*
X738664Y87664D02*
X731996Y87664D01*
X731996Y89776D02*
X738664Y89776D01*
X738664Y91888D02*
X731996Y91888D01*
X731996Y149384D02*
X738664Y149384D01*
X738664Y135096D01*
X731996Y135096D01*
X731996Y149384D01*
X731996Y137208D02*
X738664Y137208D01*
X738664Y139320D02*
X731996Y139320D01*
X731996Y141432D02*
X738664Y141432D01*
X738664Y143544D02*
X731996Y143544D01*
X731996Y145656D02*
X738664Y145656D01*
X738664Y147768D02*
X731996Y147768D01*
X770096Y93504D02*
X776764Y93504D01*
X776764Y79216D01*
X770096Y79216D01*
X770096Y93504D01*
X770096Y81328D02*
X776764Y81328D01*
X776764Y83440D02*
X770096Y83440D01*
X770096Y85552D02*
X776764Y85552D01*
X776764Y87664D02*
X770096Y87664D01*
X770096Y89776D02*
X776764Y89776D01*
X776764Y91888D02*
X770096Y91888D01*
X770096Y149384D02*
X776764Y149384D01*
X776764Y135096D01*
X770096Y135096D01*
X770096Y149384D01*
X770096Y137208D02*
X776764Y137208D01*
X776764Y139320D02*
X770096Y139320D01*
X770096Y141432D02*
X776764Y141432D01*
X776764Y143544D02*
X770096Y143544D01*
X770096Y145656D02*
X776764Y145656D01*
X776764Y147768D02*
X770096Y147768D01*
X1060926Y135096D02*
X1067594Y135096D01*
X1060926Y135096D02*
X1060926Y149384D01*
X1067594Y149384D01*
X1067594Y135096D01*
X1067594Y137208D02*
X1060926Y137208D01*
X1060926Y139320D02*
X1067594Y139320D01*
X1067594Y141432D02*
X1060926Y141432D01*
X1060926Y143544D02*
X1067594Y143544D01*
X1067594Y145656D02*
X1060926Y145656D01*
X1060926Y147768D02*
X1067594Y147768D01*
X1067594Y79216D02*
X1060926Y79216D01*
X1060926Y93504D01*
X1067594Y93504D01*
X1067594Y79216D01*
X1067594Y81328D02*
X1060926Y81328D01*
X1060926Y83440D02*
X1067594Y83440D01*
X1067594Y85552D02*
X1060926Y85552D01*
X1060926Y87664D02*
X1067594Y87664D01*
X1067594Y89776D02*
X1060926Y89776D01*
X1060926Y91888D02*
X1067594Y91888D01*
X1029494Y135096D02*
X1022826Y135096D01*
X1022826Y149384D01*
X1029494Y149384D01*
X1029494Y135096D01*
X1029494Y137208D02*
X1022826Y137208D01*
X1022826Y139320D02*
X1029494Y139320D01*
X1029494Y141432D02*
X1022826Y141432D01*
X1022826Y143544D02*
X1029494Y143544D01*
X1029494Y145656D02*
X1022826Y145656D01*
X1022826Y147768D02*
X1029494Y147768D01*
X1029494Y79216D02*
X1022826Y79216D01*
X1022826Y93504D01*
X1029494Y93504D01*
X1029494Y79216D01*
X1029494Y81328D02*
X1022826Y81328D01*
X1022826Y83440D02*
X1029494Y83440D01*
X1029494Y85552D02*
X1022826Y85552D01*
X1022826Y87664D02*
X1029494Y87664D01*
X1029494Y89776D02*
X1022826Y89776D01*
X1022826Y91888D02*
X1029494Y91888D01*
D15*
X962660Y406400D03*
X962660Y381000D03*
X962660Y355600D03*
X962660Y330200D03*
X962660Y304800D03*
X962660Y279400D03*
X962660Y254000D03*
X962660Y228600D03*
X962660Y203200D03*
X962660Y177800D03*
X835660Y406400D03*
X835660Y381000D03*
X835660Y355600D03*
X835660Y330200D03*
X835660Y304800D03*
X835660Y279400D03*
X835660Y254000D03*
X835660Y228600D03*
X835660Y203200D03*
X835660Y177800D03*
D12*
X940118Y72944D02*
X940118Y62928D01*
X940118Y72944D02*
X949134Y72944D01*
X949134Y62928D01*
X940118Y62928D01*
X940118Y65069D02*
X949134Y65069D01*
X949134Y67210D02*
X940118Y67210D01*
X940118Y69351D02*
X949134Y69351D01*
X949134Y71492D02*
X940118Y71492D01*
X940118Y55944D02*
X940118Y45928D01*
X940118Y55944D02*
X949134Y55944D01*
X949134Y45928D01*
X940118Y45928D01*
X940118Y48069D02*
X949134Y48069D01*
X949134Y50210D02*
X940118Y50210D01*
X940118Y52351D02*
X949134Y52351D01*
X949134Y54492D02*
X940118Y54492D01*
D16*
X919926Y19108D02*
X912938Y19108D01*
X919926Y19108D02*
X919926Y12120D01*
X912938Y12120D01*
X912938Y19108D01*
X912938Y16189D02*
X919926Y16189D01*
X919926Y36648D02*
X912938Y36648D01*
X919926Y36648D02*
X919926Y29660D01*
X912938Y29660D01*
X912938Y36648D01*
X912938Y33729D02*
X919926Y33729D01*
X938338Y19108D02*
X945326Y19108D01*
X945326Y12120D01*
X938338Y12120D01*
X938338Y19108D01*
X938338Y16189D02*
X945326Y16189D01*
X945326Y36648D02*
X938338Y36648D01*
X945326Y36648D02*
X945326Y29660D01*
X938338Y29660D01*
X938338Y36648D01*
X938338Y33729D02*
X945326Y33729D01*
D12*
X971106Y93662D02*
X971106Y103678D01*
X980122Y103678D01*
X980122Y93662D01*
X971106Y93662D01*
X971106Y95803D02*
X980122Y95803D01*
X980122Y97944D02*
X971106Y97944D01*
X971106Y100085D02*
X980122Y100085D01*
X980122Y102226D02*
X971106Y102226D01*
X971106Y86678D02*
X971106Y76662D01*
X971106Y86678D02*
X980122Y86678D01*
X980122Y76662D01*
X971106Y76662D01*
X971106Y78803D02*
X980122Y78803D01*
X980122Y80944D02*
X971106Y80944D01*
X971106Y83085D02*
X980122Y83085D01*
X980122Y85226D02*
X971106Y85226D01*
D17*
X879228Y183181D02*
X874692Y183181D01*
X874692Y195717D01*
X879228Y195717D01*
X879228Y183181D01*
X879228Y185303D02*
X874692Y185303D01*
X874692Y187425D02*
X879228Y187425D01*
X879228Y189547D02*
X874692Y189547D01*
X874692Y191669D02*
X879228Y191669D01*
X879228Y193791D02*
X874692Y193791D01*
X884192Y183181D02*
X888728Y183181D01*
X884192Y183181D02*
X884192Y195717D01*
X888728Y195717D01*
X888728Y183181D01*
X888728Y185303D02*
X884192Y185303D01*
X884192Y187425D02*
X888728Y187425D01*
X888728Y189547D02*
X884192Y189547D01*
X884192Y191669D02*
X888728Y191669D01*
X888728Y193791D02*
X884192Y193791D01*
X893692Y183181D02*
X898228Y183181D01*
X893692Y183181D02*
X893692Y195717D01*
X898228Y195717D01*
X898228Y183181D01*
X898228Y185303D02*
X893692Y185303D01*
X893692Y187425D02*
X898228Y187425D01*
X898228Y189547D02*
X893692Y189547D01*
X893692Y191669D02*
X898228Y191669D01*
X898228Y193791D02*
X893692Y193791D01*
X893692Y210683D02*
X898228Y210683D01*
X893692Y210683D02*
X893692Y223219D01*
X898228Y223219D01*
X898228Y210683D01*
X898228Y212805D02*
X893692Y212805D01*
X893692Y214927D02*
X898228Y214927D01*
X898228Y217049D02*
X893692Y217049D01*
X893692Y219171D02*
X898228Y219171D01*
X898228Y221293D02*
X893692Y221293D01*
X888728Y210683D02*
X884192Y210683D01*
X884192Y223219D01*
X888728Y223219D01*
X888728Y210683D01*
X888728Y212805D02*
X884192Y212805D01*
X884192Y214927D02*
X888728Y214927D01*
X888728Y217049D02*
X884192Y217049D01*
X884192Y219171D02*
X888728Y219171D01*
X888728Y221293D02*
X884192Y221293D01*
X879228Y210683D02*
X874692Y210683D01*
X874692Y223219D01*
X879228Y223219D01*
X879228Y210683D01*
X879228Y212805D02*
X874692Y212805D01*
X874692Y214927D02*
X879228Y214927D01*
X879228Y217049D02*
X874692Y217049D01*
X874692Y219171D02*
X879228Y219171D01*
X879228Y221293D02*
X874692Y221293D01*
D18*
X872027Y231567D02*
X911053Y231567D01*
X872027Y231567D02*
X872027Y246593D01*
X911053Y246593D01*
X911053Y231567D01*
X911053Y233700D02*
X872027Y233700D01*
X872027Y235833D02*
X911053Y235833D01*
X911053Y237966D02*
X872027Y237966D01*
X872027Y240099D02*
X911053Y240099D01*
X911053Y242232D02*
X872027Y242232D01*
X872027Y244365D02*
X911053Y244365D01*
X911053Y246498D02*
X872027Y246498D01*
X872027Y270567D02*
X911053Y270567D01*
X872027Y270567D02*
X872027Y285593D01*
X911053Y285593D01*
X911053Y270567D01*
X911053Y272700D02*
X872027Y272700D01*
X872027Y274833D02*
X911053Y274833D01*
X911053Y276966D02*
X872027Y276966D01*
X872027Y279099D02*
X911053Y279099D01*
X911053Y281232D02*
X872027Y281232D01*
X872027Y283365D02*
X911053Y283365D01*
X911053Y285498D02*
X872027Y285498D01*
D12*
X860488Y228918D02*
X860488Y218902D01*
X851472Y218902D01*
X851472Y228918D01*
X860488Y228918D01*
X860488Y221043D02*
X851472Y221043D01*
X851472Y223184D02*
X860488Y223184D01*
X860488Y225325D02*
X851472Y225325D01*
X851472Y227466D02*
X860488Y227466D01*
X860488Y235902D02*
X860488Y245918D01*
X860488Y235902D02*
X851472Y235902D01*
X851472Y245918D01*
X860488Y245918D01*
X860488Y238043D02*
X851472Y238043D01*
X851472Y240184D02*
X860488Y240184D01*
X860488Y242325D02*
X851472Y242325D01*
X851472Y244466D02*
X860488Y244466D01*
X937832Y271462D02*
X937832Y281478D01*
X946848Y281478D01*
X946848Y271462D01*
X937832Y271462D01*
X937832Y273603D02*
X946848Y273603D01*
X946848Y275744D02*
X937832Y275744D01*
X937832Y277885D02*
X946848Y277885D01*
X946848Y280026D02*
X937832Y280026D01*
X937832Y264478D02*
X937832Y254462D01*
X937832Y264478D02*
X946848Y264478D01*
X946848Y254462D01*
X937832Y254462D01*
X937832Y256603D02*
X946848Y256603D01*
X946848Y258744D02*
X937832Y258744D01*
X937832Y260885D02*
X946848Y260885D01*
X946848Y263026D02*
X937832Y263026D01*
X922592Y271462D02*
X922592Y281478D01*
X931608Y281478D01*
X931608Y271462D01*
X922592Y271462D01*
X922592Y273603D02*
X931608Y273603D01*
X931608Y275744D02*
X922592Y275744D01*
X922592Y277885D02*
X931608Y277885D01*
X931608Y280026D02*
X922592Y280026D01*
X922592Y264478D02*
X922592Y254462D01*
X922592Y264478D02*
X931608Y264478D01*
X931608Y254462D01*
X922592Y254462D01*
X922592Y256603D02*
X931608Y256603D01*
X931608Y258744D02*
X922592Y258744D01*
X922592Y260885D02*
X931608Y260885D01*
X931608Y263026D02*
X922592Y263026D01*
D19*
X935648Y186438D02*
X935648Y174702D01*
X916012Y174702D01*
X916012Y186438D01*
X935648Y186438D01*
X935648Y176825D02*
X916012Y176825D01*
X916012Y178948D02*
X935648Y178948D01*
X935648Y181071D02*
X916012Y181071D01*
X916012Y183194D02*
X935648Y183194D01*
X935648Y185317D02*
X916012Y185317D01*
X935648Y209802D02*
X935648Y221538D01*
X935648Y209802D02*
X916012Y209802D01*
X916012Y221538D01*
X935648Y221538D01*
X935648Y211925D02*
X916012Y211925D01*
X916012Y214048D02*
X935648Y214048D01*
X935648Y216171D02*
X916012Y216171D01*
X916012Y218294D02*
X935648Y218294D01*
X935648Y220417D02*
X916012Y220417D01*
D12*
X882968Y168212D02*
X872952Y168212D01*
X872952Y177228D01*
X882968Y177228D01*
X882968Y168212D01*
X882968Y170353D02*
X872952Y170353D01*
X872952Y172494D02*
X882968Y172494D01*
X882968Y174635D02*
X872952Y174635D01*
X872952Y176776D02*
X882968Y176776D01*
X889952Y168212D02*
X899968Y168212D01*
X889952Y168212D02*
X889952Y177228D01*
X899968Y177228D01*
X899968Y168212D01*
X899968Y170353D02*
X889952Y170353D01*
X889952Y172494D02*
X899968Y172494D01*
X899968Y174635D02*
X889952Y174635D01*
X889952Y176776D02*
X899968Y176776D01*
D20*
X782172Y399438D02*
X782172Y406962D01*
X782172Y399438D02*
X766148Y399438D01*
X766148Y406962D01*
X782172Y406962D01*
X782172Y401573D02*
X766148Y401573D01*
X766148Y403708D02*
X782172Y403708D01*
X782172Y405843D02*
X766148Y405843D01*
X812172Y386962D02*
X812172Y379438D01*
X796148Y379438D01*
X796148Y386962D01*
X812172Y386962D01*
X812172Y381573D02*
X796148Y381573D01*
X796148Y383708D02*
X812172Y383708D01*
X812172Y385843D02*
X796148Y385843D01*
X782172Y366962D02*
X782172Y359438D01*
X766148Y359438D01*
X766148Y366962D01*
X782172Y366962D01*
X782172Y361573D02*
X766148Y361573D01*
X766148Y363708D02*
X782172Y363708D01*
X782172Y365843D02*
X766148Y365843D01*
X812172Y346962D02*
X812172Y339438D01*
X796148Y339438D01*
X796148Y346962D01*
X812172Y346962D01*
X812172Y341573D02*
X796148Y341573D01*
X796148Y343708D02*
X812172Y343708D01*
X812172Y345843D02*
X796148Y345843D01*
X782172Y326962D02*
X782172Y319438D01*
X766148Y319438D01*
X766148Y326962D01*
X782172Y326962D01*
X782172Y321573D02*
X766148Y321573D01*
X766148Y323708D02*
X782172Y323708D01*
X782172Y325843D02*
X766148Y325843D01*
X812172Y306962D02*
X812172Y299438D01*
X796148Y299438D01*
X796148Y306962D01*
X812172Y306962D01*
X812172Y301573D02*
X796148Y301573D01*
X796148Y303708D02*
X812172Y303708D01*
X812172Y305843D02*
X796148Y305843D01*
X782172Y286962D02*
X782172Y279438D01*
X766148Y279438D01*
X766148Y286962D01*
X782172Y286962D01*
X782172Y281573D02*
X766148Y281573D01*
X766148Y283708D02*
X782172Y283708D01*
X782172Y285843D02*
X766148Y285843D01*
X812172Y266962D02*
X812172Y259438D01*
X796148Y259438D01*
X796148Y266962D01*
X812172Y266962D01*
X812172Y261573D02*
X796148Y261573D01*
X796148Y263708D02*
X812172Y263708D01*
X812172Y265843D02*
X796148Y265843D01*
X782172Y246962D02*
X782172Y239438D01*
X766148Y239438D01*
X766148Y246962D01*
X782172Y246962D01*
X782172Y241573D02*
X766148Y241573D01*
X766148Y243708D02*
X782172Y243708D01*
X782172Y245843D02*
X766148Y245843D01*
X812172Y226962D02*
X812172Y219438D01*
X796148Y219438D01*
X796148Y226962D01*
X812172Y226962D01*
X812172Y221573D02*
X796148Y221573D01*
X796148Y223708D02*
X812172Y223708D01*
X812172Y225843D02*
X796148Y225843D01*
X1032172Y226962D02*
X1032172Y219438D01*
X1016148Y219438D01*
X1016148Y226962D01*
X1032172Y226962D01*
X1032172Y221573D02*
X1016148Y221573D01*
X1016148Y223708D02*
X1032172Y223708D01*
X1032172Y225843D02*
X1016148Y225843D01*
X1002172Y239438D02*
X1002172Y246962D01*
X1002172Y239438D02*
X986148Y239438D01*
X986148Y246962D01*
X1002172Y246962D01*
X1002172Y241573D02*
X986148Y241573D01*
X986148Y243708D02*
X1002172Y243708D01*
X1002172Y245843D02*
X986148Y245843D01*
X1032172Y259438D02*
X1032172Y266962D01*
X1032172Y259438D02*
X1016148Y259438D01*
X1016148Y266962D01*
X1032172Y266962D01*
X1032172Y261573D02*
X1016148Y261573D01*
X1016148Y263708D02*
X1032172Y263708D01*
X1032172Y265843D02*
X1016148Y265843D01*
X1002172Y279438D02*
X1002172Y286962D01*
X1002172Y279438D02*
X986148Y279438D01*
X986148Y286962D01*
X1002172Y286962D01*
X1002172Y281573D02*
X986148Y281573D01*
X986148Y283708D02*
X1002172Y283708D01*
X1002172Y285843D02*
X986148Y285843D01*
X1032172Y299438D02*
X1032172Y306962D01*
X1032172Y299438D02*
X1016148Y299438D01*
X1016148Y306962D01*
X1032172Y306962D01*
X1032172Y301573D02*
X1016148Y301573D01*
X1016148Y303708D02*
X1032172Y303708D01*
X1032172Y305843D02*
X1016148Y305843D01*
X1002172Y319438D02*
X1002172Y326962D01*
X1002172Y319438D02*
X986148Y319438D01*
X986148Y326962D01*
X1002172Y326962D01*
X1002172Y321573D02*
X986148Y321573D01*
X986148Y323708D02*
X1002172Y323708D01*
X1002172Y325843D02*
X986148Y325843D01*
X1032172Y339438D02*
X1032172Y346962D01*
X1032172Y339438D02*
X1016148Y339438D01*
X1016148Y346962D01*
X1032172Y346962D01*
X1032172Y341573D02*
X1016148Y341573D01*
X1016148Y343708D02*
X1032172Y343708D01*
X1032172Y345843D02*
X1016148Y345843D01*
X1002172Y359438D02*
X1002172Y366962D01*
X1002172Y359438D02*
X986148Y359438D01*
X986148Y366962D01*
X1002172Y366962D01*
X1002172Y361573D02*
X986148Y361573D01*
X986148Y363708D02*
X1002172Y363708D01*
X1002172Y365843D02*
X986148Y365843D01*
X1032172Y379438D02*
X1032172Y386962D01*
X1032172Y379438D02*
X1016148Y379438D01*
X1016148Y386962D01*
X1032172Y386962D01*
X1032172Y381573D02*
X1016148Y381573D01*
X1016148Y383708D02*
X1032172Y383708D01*
X1032172Y385843D02*
X1016148Y385843D01*
X1002172Y399438D02*
X1002172Y406962D01*
X1002172Y399438D02*
X986148Y399438D01*
X986148Y406962D01*
X1002172Y406962D01*
X1002172Y401573D02*
X986148Y401573D01*
X986148Y403708D02*
X1002172Y403708D01*
X1002172Y405843D02*
X986148Y405843D01*
D12*
X760268Y330898D02*
X750252Y330898D01*
X760268Y330898D02*
X760268Y321882D01*
X750252Y321882D01*
X750252Y330898D01*
X750252Y324023D02*
X760268Y324023D01*
X760268Y326164D02*
X750252Y326164D01*
X750252Y328305D02*
X760268Y328305D01*
X760268Y330446D02*
X750252Y330446D01*
X743268Y330898D02*
X733252Y330898D01*
X743268Y330898D02*
X743268Y321882D01*
X733252Y321882D01*
X733252Y330898D01*
X733252Y324023D02*
X743268Y324023D01*
X743268Y326164D02*
X733252Y326164D01*
X733252Y328305D02*
X743268Y328305D01*
X743268Y330446D02*
X733252Y330446D01*
X750252Y376618D02*
X760268Y376618D01*
X760268Y367602D01*
X750252Y367602D01*
X750252Y376618D01*
X750252Y369743D02*
X760268Y369743D01*
X760268Y371884D02*
X750252Y371884D01*
X750252Y374025D02*
X760268Y374025D01*
X760268Y376166D02*
X750252Y376166D01*
X743268Y376618D02*
X733252Y376618D01*
X743268Y376618D02*
X743268Y367602D01*
X733252Y367602D01*
X733252Y376618D01*
X733252Y369743D02*
X743268Y369743D01*
X743268Y371884D02*
X733252Y371884D01*
X733252Y374025D02*
X743268Y374025D01*
X743268Y376166D02*
X733252Y376166D01*
X750252Y361378D02*
X760268Y361378D01*
X760268Y352362D01*
X750252Y352362D01*
X750252Y361378D01*
X750252Y354503D02*
X760268Y354503D01*
X760268Y356644D02*
X750252Y356644D01*
X750252Y358785D02*
X760268Y358785D01*
X760268Y360926D02*
X750252Y360926D01*
X743268Y361378D02*
X733252Y361378D01*
X743268Y361378D02*
X743268Y352362D01*
X733252Y352362D01*
X733252Y361378D01*
X733252Y354503D02*
X743268Y354503D01*
X743268Y356644D02*
X733252Y356644D01*
X733252Y358785D02*
X743268Y358785D01*
X743268Y360926D02*
X733252Y360926D01*
X750252Y346138D02*
X760268Y346138D01*
X760268Y337122D01*
X750252Y337122D01*
X750252Y346138D01*
X750252Y339263D02*
X760268Y339263D01*
X760268Y341404D02*
X750252Y341404D01*
X750252Y343545D02*
X760268Y343545D01*
X760268Y345686D02*
X750252Y345686D01*
X743268Y346138D02*
X733252Y346138D01*
X743268Y346138D02*
X743268Y337122D01*
X733252Y337122D01*
X733252Y346138D01*
X733252Y339263D02*
X743268Y339263D01*
X743268Y341404D02*
X733252Y341404D01*
X733252Y343545D02*
X743268Y343545D01*
X743268Y345686D02*
X733252Y345686D01*
D21*
X1051560Y571500D03*
X1051560Y25400D03*
X746760Y571500D03*
X746760Y25400D03*
D16*
X888808Y19108D02*
X895796Y19108D01*
X895796Y12120D01*
X888808Y12120D01*
X888808Y19108D01*
X888808Y16189D02*
X895796Y16189D01*
X895796Y36648D02*
X888808Y36648D01*
X895796Y36648D02*
X895796Y29660D01*
X888808Y29660D01*
X888808Y36648D01*
X888808Y33729D02*
X895796Y33729D01*
D12*
X887032Y63182D02*
X887032Y73198D01*
X896048Y73198D01*
X896048Y63182D01*
X887032Y63182D01*
X887032Y65323D02*
X896048Y65323D01*
X896048Y67464D02*
X887032Y67464D01*
X887032Y69605D02*
X896048Y69605D01*
X896048Y71746D02*
X887032Y71746D01*
X887032Y56198D02*
X887032Y46182D01*
X887032Y56198D02*
X896048Y56198D01*
X896048Y46182D01*
X887032Y46182D01*
X887032Y48323D02*
X896048Y48323D01*
X896048Y50464D02*
X887032Y50464D01*
X887032Y52605D02*
X896048Y52605D01*
X896048Y54746D02*
X887032Y54746D01*
D22*
X831442Y55618D02*
X829478Y55618D01*
X829478Y64582D01*
X831442Y64582D01*
X831442Y55618D01*
X831442Y57809D02*
X829478Y57809D01*
X829478Y60000D02*
X831442Y60000D01*
X831442Y62191D02*
X829478Y62191D01*
X829478Y64382D02*
X831442Y64382D01*
X826442Y55618D02*
X824478Y55618D01*
X824478Y64582D01*
X826442Y64582D01*
X826442Y55618D01*
X826442Y57809D02*
X824478Y57809D01*
X824478Y60000D02*
X826442Y60000D01*
X826442Y62191D02*
X824478Y62191D01*
X824478Y64382D02*
X826442Y64382D01*
D11*
X852702Y55592D02*
X857718Y55592D01*
X852702Y55592D02*
X852702Y64608D01*
X857718Y64608D01*
X857718Y55592D01*
X857718Y57733D02*
X852702Y57733D01*
X852702Y59874D02*
X857718Y59874D01*
X857718Y62015D02*
X852702Y62015D01*
X852702Y64156D02*
X857718Y64156D01*
X849968Y55592D02*
X844952Y55592D01*
X844952Y64608D01*
X849968Y64608D01*
X849968Y55592D01*
X849968Y57733D02*
X844952Y57733D01*
X844952Y59874D02*
X849968Y59874D01*
X849968Y62015D02*
X844952Y62015D01*
X844952Y64156D02*
X849968Y64156D01*
D22*
X841442Y55618D02*
X839478Y55618D01*
X839478Y64582D01*
X841442Y64582D01*
X841442Y55618D01*
X841442Y57809D02*
X839478Y57809D01*
X839478Y60000D02*
X841442Y60000D01*
X841442Y62191D02*
X839478Y62191D01*
X839478Y64382D02*
X841442Y64382D01*
X836442Y55618D02*
X834478Y55618D01*
X834478Y64582D01*
X836442Y64582D01*
X836442Y55618D01*
X836442Y57809D02*
X834478Y57809D01*
X834478Y60000D02*
X836442Y60000D01*
X836442Y62191D02*
X834478Y62191D01*
X834478Y64382D02*
X836442Y64382D01*
X816442Y64582D02*
X814478Y64582D01*
X816442Y64582D02*
X816442Y55618D01*
X814478Y55618D01*
X814478Y64582D01*
X814478Y57809D02*
X816442Y57809D01*
X816442Y60000D02*
X814478Y60000D01*
X814478Y62191D02*
X816442Y62191D01*
X816442Y64382D02*
X814478Y64382D01*
X819478Y64582D02*
X821442Y64582D01*
X821442Y55618D01*
X819478Y55618D01*
X819478Y64582D01*
X819478Y57809D02*
X821442Y57809D01*
X821442Y60000D02*
X819478Y60000D01*
X819478Y62191D02*
X821442Y62191D01*
X821442Y64382D02*
X819478Y64382D01*
D11*
X793218Y64608D02*
X788202Y64608D01*
X793218Y64608D02*
X793218Y55592D01*
X788202Y55592D01*
X788202Y64608D01*
X788202Y57733D02*
X793218Y57733D01*
X793218Y59874D02*
X788202Y59874D01*
X788202Y62015D02*
X793218Y62015D01*
X793218Y64156D02*
X788202Y64156D01*
X795952Y64608D02*
X800968Y64608D01*
X800968Y55592D01*
X795952Y55592D01*
X795952Y64608D01*
X795952Y57733D02*
X800968Y57733D01*
X800968Y59874D02*
X795952Y59874D01*
X795952Y62015D02*
X800968Y62015D01*
X800968Y64156D02*
X795952Y64156D01*
D22*
X804478Y64582D02*
X806442Y64582D01*
X806442Y55618D01*
X804478Y55618D01*
X804478Y64582D01*
X804478Y57809D02*
X806442Y57809D01*
X806442Y60000D02*
X804478Y60000D01*
X804478Y62191D02*
X806442Y62191D01*
X806442Y64382D02*
X804478Y64382D01*
X809478Y64582D02*
X811442Y64582D01*
X811442Y55618D01*
X809478Y55618D01*
X809478Y64582D01*
X809478Y57809D02*
X811442Y57809D01*
X811442Y60000D02*
X809478Y60000D01*
X809478Y62191D02*
X811442Y62191D01*
X811442Y64382D02*
X809478Y64382D01*
D23*
X794060Y49050D03*
X851860Y49050D03*
D12*
X786702Y106362D02*
X786702Y116378D01*
X795718Y116378D01*
X795718Y106362D01*
X786702Y106362D01*
X786702Y108503D02*
X795718Y108503D01*
X795718Y110644D02*
X786702Y110644D01*
X786702Y112785D02*
X795718Y112785D01*
X795718Y114926D02*
X786702Y114926D01*
X786702Y99378D02*
X786702Y89362D01*
X786702Y99378D02*
X795718Y99378D01*
X795718Y89362D01*
X786702Y89362D01*
X786702Y91503D02*
X795718Y91503D01*
X795718Y93644D02*
X786702Y93644D01*
X786702Y95785D02*
X795718Y95785D01*
X795718Y97926D02*
X786702Y97926D01*
X801942Y106362D02*
X801942Y116378D01*
X810958Y116378D01*
X810958Y106362D01*
X801942Y106362D01*
X801942Y108503D02*
X810958Y108503D01*
X810958Y110644D02*
X801942Y110644D01*
X801942Y112785D02*
X810958Y112785D01*
X810958Y114926D02*
X801942Y114926D01*
X801942Y99378D02*
X801942Y89362D01*
X801942Y99378D02*
X810958Y99378D01*
X810958Y89362D01*
X801942Y89362D01*
X801942Y91503D02*
X810958Y91503D01*
X810958Y93644D02*
X801942Y93644D01*
X801942Y95785D02*
X810958Y95785D01*
X810958Y97926D02*
X801942Y97926D01*
D17*
X842892Y121619D02*
X847428Y121619D01*
X847428Y109083D01*
X842892Y109083D01*
X842892Y121619D01*
X842892Y111205D02*
X847428Y111205D01*
X847428Y113327D02*
X842892Y113327D01*
X842892Y115449D02*
X847428Y115449D01*
X847428Y117571D02*
X842892Y117571D01*
X842892Y119693D02*
X847428Y119693D01*
X837928Y121619D02*
X833392Y121619D01*
X837928Y121619D02*
X837928Y109083D01*
X833392Y109083D01*
X833392Y121619D01*
X833392Y111205D02*
X837928Y111205D01*
X837928Y113327D02*
X833392Y113327D01*
X833392Y115449D02*
X837928Y115449D01*
X837928Y117571D02*
X833392Y117571D01*
X833392Y119693D02*
X837928Y119693D01*
X828428Y121619D02*
X823892Y121619D01*
X828428Y121619D02*
X828428Y109083D01*
X823892Y109083D01*
X823892Y121619D01*
X823892Y111205D02*
X828428Y111205D01*
X828428Y113327D02*
X823892Y113327D01*
X823892Y115449D02*
X828428Y115449D01*
X828428Y117571D02*
X823892Y117571D01*
X823892Y119693D02*
X828428Y119693D01*
X828428Y94117D02*
X823892Y94117D01*
X828428Y94117D02*
X828428Y81581D01*
X823892Y81581D01*
X823892Y94117D01*
X823892Y83703D02*
X828428Y83703D01*
X828428Y85825D02*
X823892Y85825D01*
X823892Y87947D02*
X828428Y87947D01*
X828428Y90069D02*
X823892Y90069D01*
X823892Y92191D02*
X828428Y92191D01*
X833392Y94117D02*
X837928Y94117D01*
X837928Y81581D01*
X833392Y81581D01*
X833392Y94117D01*
X833392Y83703D02*
X837928Y83703D01*
X837928Y85825D02*
X833392Y85825D01*
X833392Y87947D02*
X837928Y87947D01*
X837928Y90069D02*
X833392Y90069D01*
X833392Y92191D02*
X837928Y92191D01*
X842892Y94117D02*
X847428Y94117D01*
X847428Y81581D01*
X842892Y81581D01*
X842892Y94117D01*
X842892Y83703D02*
X847428Y83703D01*
X847428Y85825D02*
X842892Y85825D01*
X842892Y87947D02*
X847428Y87947D01*
X847428Y90069D02*
X842892Y90069D01*
X842892Y92191D02*
X847428Y92191D01*
D24*
X923798Y88900D02*
X926592Y88900D01*
X926592Y78486D01*
X923798Y78486D01*
X923798Y88900D01*
X923798Y80658D02*
X926592Y80658D01*
X926592Y82830D02*
X923798Y82830D01*
X923798Y85002D02*
X926592Y85002D01*
X926592Y87174D02*
X923798Y87174D01*
X920242Y88900D02*
X917448Y88900D01*
X920242Y88900D02*
X920242Y78486D01*
X917448Y78486D01*
X917448Y88900D01*
X917448Y80658D02*
X920242Y80658D01*
X920242Y82830D02*
X917448Y82830D01*
X917448Y85002D02*
X920242Y85002D01*
X920242Y87174D02*
X917448Y87174D01*
X913892Y88900D02*
X911098Y88900D01*
X913892Y88900D02*
X913892Y78486D01*
X911098Y78486D01*
X911098Y88900D01*
X911098Y80658D02*
X913892Y80658D01*
X913892Y82830D02*
X911098Y82830D01*
X911098Y85002D02*
X913892Y85002D01*
X913892Y87174D02*
X911098Y87174D01*
X907542Y88900D02*
X904748Y88900D01*
X907542Y88900D02*
X907542Y78486D01*
X904748Y78486D01*
X904748Y88900D01*
X904748Y80658D02*
X907542Y80658D01*
X907542Y82830D02*
X904748Y82830D01*
X904748Y85002D02*
X907542Y85002D01*
X907542Y87174D02*
X904748Y87174D01*
X901192Y88900D02*
X898398Y88900D01*
X901192Y88900D02*
X901192Y78486D01*
X898398Y78486D01*
X898398Y88900D01*
X898398Y80658D02*
X901192Y80658D01*
X901192Y82830D02*
X898398Y82830D01*
X898398Y85002D02*
X901192Y85002D01*
X901192Y87174D02*
X898398Y87174D01*
X894842Y88900D02*
X892048Y88900D01*
X894842Y88900D02*
X894842Y78486D01*
X892048Y78486D01*
X892048Y88900D01*
X892048Y80658D02*
X894842Y80658D01*
X894842Y82830D02*
X892048Y82830D01*
X892048Y85002D02*
X894842Y85002D01*
X894842Y87174D02*
X892048Y87174D01*
X930148Y88900D02*
X932942Y88900D01*
X932942Y78486D01*
X930148Y78486D01*
X930148Y88900D01*
X930148Y80658D02*
X932942Y80658D01*
X932942Y82830D02*
X930148Y82830D01*
X930148Y85002D02*
X932942Y85002D01*
X932942Y87174D02*
X930148Y87174D01*
X936498Y88900D02*
X939292Y88900D01*
X939292Y78486D01*
X936498Y78486D01*
X936498Y88900D01*
X936498Y80658D02*
X939292Y80658D01*
X939292Y82830D02*
X936498Y82830D01*
X936498Y85002D02*
X939292Y85002D01*
X939292Y87174D02*
X936498Y87174D01*
X942848Y88900D02*
X945642Y88900D01*
X945642Y78486D01*
X942848Y78486D01*
X942848Y88900D01*
X942848Y80658D02*
X945642Y80658D01*
X945642Y82830D02*
X942848Y82830D01*
X942848Y85002D02*
X945642Y85002D01*
X945642Y87174D02*
X942848Y87174D01*
X949198Y88900D02*
X951992Y88900D01*
X951992Y78486D01*
X949198Y78486D01*
X949198Y88900D01*
X949198Y80658D02*
X951992Y80658D01*
X951992Y82830D02*
X949198Y82830D01*
X949198Y85002D02*
X951992Y85002D01*
X951992Y87174D02*
X949198Y87174D01*
X920242Y132080D02*
X917448Y132080D01*
X917448Y142494D01*
X920242Y142494D01*
X920242Y132080D01*
X920242Y134252D02*
X917448Y134252D01*
X917448Y136424D02*
X920242Y136424D01*
X920242Y138596D02*
X917448Y138596D01*
X917448Y140768D02*
X920242Y140768D01*
X923798Y132080D02*
X926592Y132080D01*
X923798Y132080D02*
X923798Y142494D01*
X926592Y142494D01*
X926592Y132080D01*
X926592Y134252D02*
X923798Y134252D01*
X923798Y136424D02*
X926592Y136424D01*
X926592Y138596D02*
X923798Y138596D01*
X923798Y140768D02*
X926592Y140768D01*
X930148Y132080D02*
X932942Y132080D01*
X930148Y132080D02*
X930148Y142494D01*
X932942Y142494D01*
X932942Y132080D01*
X932942Y134252D02*
X930148Y134252D01*
X930148Y136424D02*
X932942Y136424D01*
X932942Y138596D02*
X930148Y138596D01*
X930148Y140768D02*
X932942Y140768D01*
X936498Y132080D02*
X939292Y132080D01*
X936498Y132080D02*
X936498Y142494D01*
X939292Y142494D01*
X939292Y132080D01*
X939292Y134252D02*
X936498Y134252D01*
X936498Y136424D02*
X939292Y136424D01*
X939292Y138596D02*
X936498Y138596D01*
X936498Y140768D02*
X939292Y140768D01*
X942848Y132080D02*
X945642Y132080D01*
X942848Y132080D02*
X942848Y142494D01*
X945642Y142494D01*
X945642Y132080D01*
X945642Y134252D02*
X942848Y134252D01*
X942848Y136424D02*
X945642Y136424D01*
X945642Y138596D02*
X942848Y138596D01*
X942848Y140768D02*
X945642Y140768D01*
X949198Y132080D02*
X951992Y132080D01*
X949198Y132080D02*
X949198Y142494D01*
X951992Y142494D01*
X951992Y132080D01*
X951992Y134252D02*
X949198Y134252D01*
X949198Y136424D02*
X951992Y136424D01*
X951992Y138596D02*
X949198Y138596D01*
X949198Y140768D02*
X951992Y140768D01*
X913892Y132080D02*
X911098Y132080D01*
X911098Y142494D01*
X913892Y142494D01*
X913892Y132080D01*
X913892Y134252D02*
X911098Y134252D01*
X911098Y136424D02*
X913892Y136424D01*
X913892Y138596D02*
X911098Y138596D01*
X911098Y140768D02*
X913892Y140768D01*
X907542Y132080D02*
X904748Y132080D01*
X904748Y142494D01*
X907542Y142494D01*
X907542Y132080D01*
X907542Y134252D02*
X904748Y134252D01*
X904748Y136424D02*
X907542Y136424D01*
X907542Y138596D02*
X904748Y138596D01*
X904748Y140768D02*
X907542Y140768D01*
X901192Y132080D02*
X898398Y132080D01*
X898398Y142494D01*
X901192Y142494D01*
X901192Y132080D01*
X901192Y134252D02*
X898398Y134252D01*
X898398Y136424D02*
X901192Y136424D01*
X901192Y138596D02*
X898398Y138596D01*
X898398Y140768D02*
X901192Y140768D01*
X894842Y132080D02*
X892048Y132080D01*
X892048Y142494D01*
X894842Y142494D01*
X894842Y132080D01*
X894842Y134252D02*
X892048Y134252D01*
X892048Y136424D02*
X894842Y136424D01*
X894842Y138596D02*
X892048Y138596D01*
X892048Y140768D02*
X894842Y140768D01*
D12*
X933132Y156908D02*
X943148Y156908D01*
X943148Y147892D01*
X933132Y147892D01*
X933132Y156908D01*
X933132Y150033D02*
X943148Y150033D01*
X943148Y152174D02*
X933132Y152174D01*
X933132Y154315D02*
X943148Y154315D01*
X943148Y156456D02*
X933132Y156456D01*
X926148Y156908D02*
X916132Y156908D01*
X926148Y156908D02*
X926148Y147892D01*
X916132Y147892D01*
X916132Y156908D01*
X916132Y150033D02*
X926148Y150033D01*
X926148Y152174D02*
X916132Y152174D01*
X916132Y154315D02*
X926148Y154315D01*
X926148Y156456D02*
X916132Y156456D01*
X916496Y64580D02*
X906480Y64580D01*
X906480Y73596D01*
X916496Y73596D01*
X916496Y64580D01*
X916496Y66721D02*
X906480Y66721D01*
X906480Y68862D02*
X916496Y68862D01*
X916496Y71003D02*
X906480Y71003D01*
X906480Y73144D02*
X916496Y73144D01*
X923480Y64580D02*
X933496Y64580D01*
X923480Y64580D02*
X923480Y73596D01*
X933496Y73596D01*
X933496Y64580D01*
X933496Y66721D02*
X923480Y66721D01*
X923480Y68862D02*
X933496Y68862D01*
X933496Y71003D02*
X923480Y71003D01*
X923480Y73144D02*
X933496Y73144D01*
X760268Y391858D02*
X750252Y391858D01*
X760268Y391858D02*
X760268Y382842D01*
X750252Y382842D01*
X750252Y391858D01*
X750252Y384983D02*
X760268Y384983D01*
X760268Y387124D02*
X750252Y387124D01*
X750252Y389265D02*
X760268Y389265D01*
X760268Y391406D02*
X750252Y391406D01*
X743268Y391858D02*
X733252Y391858D01*
X743268Y391858D02*
X743268Y382842D01*
X733252Y382842D01*
X733252Y391858D01*
X733252Y384983D02*
X743268Y384983D01*
X743268Y387124D02*
X733252Y387124D01*
X733252Y389265D02*
X743268Y389265D01*
X743268Y391406D02*
X733252Y391406D01*
X750252Y407098D02*
X760268Y407098D01*
X760268Y398082D01*
X750252Y398082D01*
X750252Y407098D01*
X750252Y400223D02*
X760268Y400223D01*
X760268Y402364D02*
X750252Y402364D01*
X750252Y404505D02*
X760268Y404505D01*
X760268Y406646D02*
X750252Y406646D01*
X743268Y407098D02*
X733252Y407098D01*
X743268Y407098D02*
X743268Y398082D01*
X733252Y398082D01*
X733252Y407098D01*
X733252Y400223D02*
X743268Y400223D01*
X743268Y402364D02*
X733252Y402364D01*
X733252Y404505D02*
X743268Y404505D01*
X743268Y406646D02*
X733252Y406646D01*
D15*
X835660Y152400D03*
X962660Y152400D03*
D12*
X916496Y49340D02*
X906480Y49340D01*
X906480Y58356D01*
X916496Y58356D01*
X916496Y49340D01*
X916496Y51481D02*
X906480Y51481D01*
X906480Y53622D02*
X916496Y53622D01*
X916496Y55763D02*
X906480Y55763D01*
X906480Y57904D02*
X916496Y57904D01*
X923480Y49340D02*
X933496Y49340D01*
X923480Y49340D02*
X923480Y58356D01*
X933496Y58356D01*
X933496Y49340D01*
X933496Y51481D02*
X923480Y51481D01*
X923480Y53622D02*
X933496Y53622D01*
X933496Y55763D02*
X923480Y55763D01*
X923480Y57904D02*
X933496Y57904D01*
D10*
X1315233Y4543D02*
X1326247Y4543D01*
X1315233Y4543D02*
X1315233Y23557D01*
X1326247Y23557D01*
X1326247Y4543D01*
X1326247Y6686D02*
X1315233Y6686D01*
X1315233Y8829D02*
X1326247Y8829D01*
X1326247Y10972D02*
X1315233Y10972D01*
X1315233Y13115D02*
X1326247Y13115D01*
X1326247Y15258D02*
X1315233Y15258D01*
X1315233Y17401D02*
X1326247Y17401D01*
X1326247Y19544D02*
X1315233Y19544D01*
X1315233Y21687D02*
X1326247Y21687D01*
X1371233Y4543D02*
X1382247Y4543D01*
X1371233Y4543D02*
X1371233Y23557D01*
X1382247Y23557D01*
X1382247Y4543D01*
X1382247Y6686D02*
X1371233Y6686D01*
X1371233Y8829D02*
X1382247Y8829D01*
X1382247Y10972D02*
X1371233Y10972D01*
X1371233Y13115D02*
X1382247Y13115D01*
X1382247Y15258D02*
X1371233Y15258D01*
X1371233Y17401D02*
X1382247Y17401D01*
X1382247Y19544D02*
X1371233Y19544D01*
X1371233Y21687D02*
X1382247Y21687D01*
D11*
X1336248Y44542D02*
X1331232Y44542D01*
X1331232Y57058D01*
X1336248Y57058D01*
X1336248Y44542D01*
X1336248Y46683D02*
X1331232Y46683D01*
X1331232Y48824D02*
X1336248Y48824D01*
X1336248Y50965D02*
X1331232Y50965D01*
X1331232Y53106D02*
X1336248Y53106D01*
X1336248Y55247D02*
X1331232Y55247D01*
X1341232Y44542D02*
X1346248Y44542D01*
X1341232Y44542D02*
X1341232Y57058D01*
X1346248Y57058D01*
X1346248Y44542D01*
X1346248Y46683D02*
X1341232Y46683D01*
X1341232Y48824D02*
X1346248Y48824D01*
X1346248Y50965D02*
X1341232Y50965D01*
X1341232Y53106D02*
X1346248Y53106D01*
X1346248Y55247D02*
X1341232Y55247D01*
X1351232Y44542D02*
X1356248Y44542D01*
X1351232Y44542D02*
X1351232Y57058D01*
X1356248Y57058D01*
X1356248Y44542D01*
X1356248Y46683D02*
X1351232Y46683D01*
X1351232Y48824D02*
X1356248Y48824D01*
X1356248Y50965D02*
X1351232Y50965D01*
X1351232Y53106D02*
X1356248Y53106D01*
X1356248Y55247D02*
X1351232Y55247D01*
X1361232Y44542D02*
X1366248Y44542D01*
X1361232Y44542D02*
X1361232Y57058D01*
X1366248Y57058D01*
X1366248Y44542D01*
X1366248Y46683D02*
X1361232Y46683D01*
X1361232Y48824D02*
X1366248Y48824D01*
X1366248Y50965D02*
X1361232Y50965D01*
X1361232Y53106D02*
X1366248Y53106D01*
X1366248Y55247D02*
X1361232Y55247D01*
D12*
X1348804Y93662D02*
X1348804Y103678D01*
X1357820Y103678D01*
X1357820Y93662D01*
X1348804Y93662D01*
X1348804Y95803D02*
X1357820Y95803D01*
X1357820Y97944D02*
X1348804Y97944D01*
X1348804Y100085D02*
X1357820Y100085D01*
X1357820Y102226D02*
X1348804Y102226D01*
X1348804Y86678D02*
X1348804Y76662D01*
X1348804Y86678D02*
X1357820Y86678D01*
X1357820Y76662D01*
X1348804Y76662D01*
X1348804Y78803D02*
X1357820Y78803D01*
X1357820Y80944D02*
X1348804Y80944D01*
X1348804Y83085D02*
X1357820Y83085D01*
X1357820Y85226D02*
X1348804Y85226D01*
X1365822Y93662D02*
X1365822Y103678D01*
X1374838Y103678D01*
X1374838Y93662D01*
X1365822Y93662D01*
X1365822Y95803D02*
X1374838Y95803D01*
X1374838Y97944D02*
X1365822Y97944D01*
X1365822Y100085D02*
X1374838Y100085D01*
X1374838Y102226D02*
X1365822Y102226D01*
X1365822Y86678D02*
X1365822Y76662D01*
X1365822Y86678D02*
X1374838Y86678D01*
X1374838Y76662D01*
X1365822Y76662D01*
X1365822Y78803D02*
X1374838Y78803D01*
X1374838Y80944D02*
X1365822Y80944D01*
X1365822Y83085D02*
X1374838Y83085D01*
X1374838Y85226D02*
X1365822Y85226D01*
D13*
X1094740Y439420D03*
X1424940Y63500D03*
D14*
X1099344Y93504D02*
X1092676Y93504D01*
X1099344Y93504D02*
X1099344Y79216D01*
X1092676Y79216D01*
X1092676Y93504D01*
X1092676Y81328D02*
X1099344Y81328D01*
X1099344Y83440D02*
X1092676Y83440D01*
X1092676Y85552D02*
X1099344Y85552D01*
X1099344Y87664D02*
X1092676Y87664D01*
X1092676Y89776D02*
X1099344Y89776D01*
X1099344Y91888D02*
X1092676Y91888D01*
X1092676Y149384D02*
X1099344Y149384D01*
X1099344Y135096D01*
X1092676Y135096D01*
X1092676Y149384D01*
X1092676Y137208D02*
X1099344Y137208D01*
X1099344Y139320D02*
X1092676Y139320D01*
X1092676Y141432D02*
X1099344Y141432D01*
X1099344Y143544D02*
X1092676Y143544D01*
X1092676Y145656D02*
X1099344Y145656D01*
X1099344Y147768D02*
X1092676Y147768D01*
X1130776Y93504D02*
X1137444Y93504D01*
X1137444Y79216D01*
X1130776Y79216D01*
X1130776Y93504D01*
X1130776Y81328D02*
X1137444Y81328D01*
X1137444Y83440D02*
X1130776Y83440D01*
X1130776Y85552D02*
X1137444Y85552D01*
X1137444Y87664D02*
X1130776Y87664D01*
X1130776Y89776D02*
X1137444Y89776D01*
X1137444Y91888D02*
X1130776Y91888D01*
X1130776Y149384D02*
X1137444Y149384D01*
X1137444Y135096D01*
X1130776Y135096D01*
X1130776Y149384D01*
X1130776Y137208D02*
X1137444Y137208D01*
X1137444Y139320D02*
X1130776Y139320D01*
X1130776Y141432D02*
X1137444Y141432D01*
X1137444Y143544D02*
X1130776Y143544D01*
X1130776Y145656D02*
X1137444Y145656D01*
X1137444Y147768D02*
X1130776Y147768D01*
X1421606Y135096D02*
X1428274Y135096D01*
X1421606Y135096D02*
X1421606Y149384D01*
X1428274Y149384D01*
X1428274Y135096D01*
X1428274Y137208D02*
X1421606Y137208D01*
X1421606Y139320D02*
X1428274Y139320D01*
X1428274Y141432D02*
X1421606Y141432D01*
X1421606Y143544D02*
X1428274Y143544D01*
X1428274Y145656D02*
X1421606Y145656D01*
X1421606Y147768D02*
X1428274Y147768D01*
X1428274Y79216D02*
X1421606Y79216D01*
X1421606Y93504D01*
X1428274Y93504D01*
X1428274Y79216D01*
X1428274Y81328D02*
X1421606Y81328D01*
X1421606Y83440D02*
X1428274Y83440D01*
X1428274Y85552D02*
X1421606Y85552D01*
X1421606Y87664D02*
X1428274Y87664D01*
X1428274Y89776D02*
X1421606Y89776D01*
X1421606Y91888D02*
X1428274Y91888D01*
X1390174Y135096D02*
X1383506Y135096D01*
X1383506Y149384D01*
X1390174Y149384D01*
X1390174Y135096D01*
X1390174Y137208D02*
X1383506Y137208D01*
X1383506Y139320D02*
X1390174Y139320D01*
X1390174Y141432D02*
X1383506Y141432D01*
X1383506Y143544D02*
X1390174Y143544D01*
X1390174Y145656D02*
X1383506Y145656D01*
X1383506Y147768D02*
X1390174Y147768D01*
X1390174Y79216D02*
X1383506Y79216D01*
X1383506Y93504D01*
X1390174Y93504D01*
X1390174Y79216D01*
X1390174Y81328D02*
X1383506Y81328D01*
X1383506Y83440D02*
X1390174Y83440D01*
X1390174Y85552D02*
X1383506Y85552D01*
X1383506Y87664D02*
X1390174Y87664D01*
X1390174Y89776D02*
X1383506Y89776D01*
X1383506Y91888D02*
X1390174Y91888D01*
D15*
X1323340Y406400D03*
X1323340Y381000D03*
X1323340Y355600D03*
X1323340Y330200D03*
X1323340Y304800D03*
X1323340Y279400D03*
X1323340Y254000D03*
X1323340Y228600D03*
X1323340Y203200D03*
X1323340Y177800D03*
X1196340Y406400D03*
X1196340Y381000D03*
X1196340Y355600D03*
X1196340Y330200D03*
X1196340Y304800D03*
X1196340Y279400D03*
X1196340Y254000D03*
X1196340Y228600D03*
X1196340Y203200D03*
X1196340Y177800D03*
D12*
X1300798Y72944D02*
X1300798Y62928D01*
X1300798Y72944D02*
X1309814Y72944D01*
X1309814Y62928D01*
X1300798Y62928D01*
X1300798Y65069D02*
X1309814Y65069D01*
X1309814Y67210D02*
X1300798Y67210D01*
X1300798Y69351D02*
X1309814Y69351D01*
X1309814Y71492D02*
X1300798Y71492D01*
X1300798Y55944D02*
X1300798Y45928D01*
X1300798Y55944D02*
X1309814Y55944D01*
X1309814Y45928D01*
X1300798Y45928D01*
X1300798Y48069D02*
X1309814Y48069D01*
X1309814Y50210D02*
X1300798Y50210D01*
X1300798Y52351D02*
X1309814Y52351D01*
X1309814Y54492D02*
X1300798Y54492D01*
D16*
X1280606Y19108D02*
X1273618Y19108D01*
X1280606Y19108D02*
X1280606Y12120D01*
X1273618Y12120D01*
X1273618Y19108D01*
X1273618Y16189D02*
X1280606Y16189D01*
X1280606Y36648D02*
X1273618Y36648D01*
X1280606Y36648D02*
X1280606Y29660D01*
X1273618Y29660D01*
X1273618Y36648D01*
X1273618Y33729D02*
X1280606Y33729D01*
X1299018Y19108D02*
X1306006Y19108D01*
X1306006Y12120D01*
X1299018Y12120D01*
X1299018Y19108D01*
X1299018Y16189D02*
X1306006Y16189D01*
X1306006Y36648D02*
X1299018Y36648D01*
X1306006Y36648D02*
X1306006Y29660D01*
X1299018Y29660D01*
X1299018Y36648D01*
X1299018Y33729D02*
X1306006Y33729D01*
D12*
X1331786Y93662D02*
X1331786Y103678D01*
X1340802Y103678D01*
X1340802Y93662D01*
X1331786Y93662D01*
X1331786Y95803D02*
X1340802Y95803D01*
X1340802Y97944D02*
X1331786Y97944D01*
X1331786Y100085D02*
X1340802Y100085D01*
X1340802Y102226D02*
X1331786Y102226D01*
X1331786Y86678D02*
X1331786Y76662D01*
X1331786Y86678D02*
X1340802Y86678D01*
X1340802Y76662D01*
X1331786Y76662D01*
X1331786Y78803D02*
X1340802Y78803D01*
X1340802Y80944D02*
X1331786Y80944D01*
X1331786Y83085D02*
X1340802Y83085D01*
X1340802Y85226D02*
X1331786Y85226D01*
D17*
X1239908Y183181D02*
X1235372Y183181D01*
X1235372Y195717D01*
X1239908Y195717D01*
X1239908Y183181D01*
X1239908Y185303D02*
X1235372Y185303D01*
X1235372Y187425D02*
X1239908Y187425D01*
X1239908Y189547D02*
X1235372Y189547D01*
X1235372Y191669D02*
X1239908Y191669D01*
X1239908Y193791D02*
X1235372Y193791D01*
X1244872Y183181D02*
X1249408Y183181D01*
X1244872Y183181D02*
X1244872Y195717D01*
X1249408Y195717D01*
X1249408Y183181D01*
X1249408Y185303D02*
X1244872Y185303D01*
X1244872Y187425D02*
X1249408Y187425D01*
X1249408Y189547D02*
X1244872Y189547D01*
X1244872Y191669D02*
X1249408Y191669D01*
X1249408Y193791D02*
X1244872Y193791D01*
X1254372Y183181D02*
X1258908Y183181D01*
X1254372Y183181D02*
X1254372Y195717D01*
X1258908Y195717D01*
X1258908Y183181D01*
X1258908Y185303D02*
X1254372Y185303D01*
X1254372Y187425D02*
X1258908Y187425D01*
X1258908Y189547D02*
X1254372Y189547D01*
X1254372Y191669D02*
X1258908Y191669D01*
X1258908Y193791D02*
X1254372Y193791D01*
X1254372Y210683D02*
X1258908Y210683D01*
X1254372Y210683D02*
X1254372Y223219D01*
X1258908Y223219D01*
X1258908Y210683D01*
X1258908Y212805D02*
X1254372Y212805D01*
X1254372Y214927D02*
X1258908Y214927D01*
X1258908Y217049D02*
X1254372Y217049D01*
X1254372Y219171D02*
X1258908Y219171D01*
X1258908Y221293D02*
X1254372Y221293D01*
X1249408Y210683D02*
X1244872Y210683D01*
X1244872Y223219D01*
X1249408Y223219D01*
X1249408Y210683D01*
X1249408Y212805D02*
X1244872Y212805D01*
X1244872Y214927D02*
X1249408Y214927D01*
X1249408Y217049D02*
X1244872Y217049D01*
X1244872Y219171D02*
X1249408Y219171D01*
X1249408Y221293D02*
X1244872Y221293D01*
X1239908Y210683D02*
X1235372Y210683D01*
X1235372Y223219D01*
X1239908Y223219D01*
X1239908Y210683D01*
X1239908Y212805D02*
X1235372Y212805D01*
X1235372Y214927D02*
X1239908Y214927D01*
X1239908Y217049D02*
X1235372Y217049D01*
X1235372Y219171D02*
X1239908Y219171D01*
X1239908Y221293D02*
X1235372Y221293D01*
D18*
X1232707Y231567D02*
X1271733Y231567D01*
X1232707Y231567D02*
X1232707Y246593D01*
X1271733Y246593D01*
X1271733Y231567D01*
X1271733Y233700D02*
X1232707Y233700D01*
X1232707Y235833D02*
X1271733Y235833D01*
X1271733Y237966D02*
X1232707Y237966D01*
X1232707Y240099D02*
X1271733Y240099D01*
X1271733Y242232D02*
X1232707Y242232D01*
X1232707Y244365D02*
X1271733Y244365D01*
X1271733Y246498D02*
X1232707Y246498D01*
X1232707Y270567D02*
X1271733Y270567D01*
X1232707Y270567D02*
X1232707Y285593D01*
X1271733Y285593D01*
X1271733Y270567D01*
X1271733Y272700D02*
X1232707Y272700D01*
X1232707Y274833D02*
X1271733Y274833D01*
X1271733Y276966D02*
X1232707Y276966D01*
X1232707Y279099D02*
X1271733Y279099D01*
X1271733Y281232D02*
X1232707Y281232D01*
X1232707Y283365D02*
X1271733Y283365D01*
X1271733Y285498D02*
X1232707Y285498D01*
D12*
X1221168Y228918D02*
X1221168Y218902D01*
X1212152Y218902D01*
X1212152Y228918D01*
X1221168Y228918D01*
X1221168Y221043D02*
X1212152Y221043D01*
X1212152Y223184D02*
X1221168Y223184D01*
X1221168Y225325D02*
X1212152Y225325D01*
X1212152Y227466D02*
X1221168Y227466D01*
X1221168Y235902D02*
X1221168Y245918D01*
X1221168Y235902D02*
X1212152Y235902D01*
X1212152Y245918D01*
X1221168Y245918D01*
X1221168Y238043D02*
X1212152Y238043D01*
X1212152Y240184D02*
X1221168Y240184D01*
X1221168Y242325D02*
X1212152Y242325D01*
X1212152Y244466D02*
X1221168Y244466D01*
X1298512Y271462D02*
X1298512Y281478D01*
X1307528Y281478D01*
X1307528Y271462D01*
X1298512Y271462D01*
X1298512Y273603D02*
X1307528Y273603D01*
X1307528Y275744D02*
X1298512Y275744D01*
X1298512Y277885D02*
X1307528Y277885D01*
X1307528Y280026D02*
X1298512Y280026D01*
X1298512Y264478D02*
X1298512Y254462D01*
X1298512Y264478D02*
X1307528Y264478D01*
X1307528Y254462D01*
X1298512Y254462D01*
X1298512Y256603D02*
X1307528Y256603D01*
X1307528Y258744D02*
X1298512Y258744D01*
X1298512Y260885D02*
X1307528Y260885D01*
X1307528Y263026D02*
X1298512Y263026D01*
X1283272Y271462D02*
X1283272Y281478D01*
X1292288Y281478D01*
X1292288Y271462D01*
X1283272Y271462D01*
X1283272Y273603D02*
X1292288Y273603D01*
X1292288Y275744D02*
X1283272Y275744D01*
X1283272Y277885D02*
X1292288Y277885D01*
X1292288Y280026D02*
X1283272Y280026D01*
X1283272Y264478D02*
X1283272Y254462D01*
X1283272Y264478D02*
X1292288Y264478D01*
X1292288Y254462D01*
X1283272Y254462D01*
X1283272Y256603D02*
X1292288Y256603D01*
X1292288Y258744D02*
X1283272Y258744D01*
X1283272Y260885D02*
X1292288Y260885D01*
X1292288Y263026D02*
X1283272Y263026D01*
D19*
X1296328Y186438D02*
X1296328Y174702D01*
X1276692Y174702D01*
X1276692Y186438D01*
X1296328Y186438D01*
X1296328Y176825D02*
X1276692Y176825D01*
X1276692Y178948D02*
X1296328Y178948D01*
X1296328Y181071D02*
X1276692Y181071D01*
X1276692Y183194D02*
X1296328Y183194D01*
X1296328Y185317D02*
X1276692Y185317D01*
X1296328Y209802D02*
X1296328Y221538D01*
X1296328Y209802D02*
X1276692Y209802D01*
X1276692Y221538D01*
X1296328Y221538D01*
X1296328Y211925D02*
X1276692Y211925D01*
X1276692Y214048D02*
X1296328Y214048D01*
X1296328Y216171D02*
X1276692Y216171D01*
X1276692Y218294D02*
X1296328Y218294D01*
X1296328Y220417D02*
X1276692Y220417D01*
D12*
X1243648Y168212D02*
X1233632Y168212D01*
X1233632Y177228D01*
X1243648Y177228D01*
X1243648Y168212D01*
X1243648Y170353D02*
X1233632Y170353D01*
X1233632Y172494D02*
X1243648Y172494D01*
X1243648Y174635D02*
X1233632Y174635D01*
X1233632Y176776D02*
X1243648Y176776D01*
X1250632Y168212D02*
X1260648Y168212D01*
X1250632Y168212D02*
X1250632Y177228D01*
X1260648Y177228D01*
X1260648Y168212D01*
X1260648Y170353D02*
X1250632Y170353D01*
X1250632Y172494D02*
X1260648Y172494D01*
X1260648Y174635D02*
X1250632Y174635D01*
X1250632Y176776D02*
X1260648Y176776D01*
D20*
X1142852Y399438D02*
X1142852Y406962D01*
X1142852Y399438D02*
X1126828Y399438D01*
X1126828Y406962D01*
X1142852Y406962D01*
X1142852Y401573D02*
X1126828Y401573D01*
X1126828Y403708D02*
X1142852Y403708D01*
X1142852Y405843D02*
X1126828Y405843D01*
X1172852Y386962D02*
X1172852Y379438D01*
X1156828Y379438D01*
X1156828Y386962D01*
X1172852Y386962D01*
X1172852Y381573D02*
X1156828Y381573D01*
X1156828Y383708D02*
X1172852Y383708D01*
X1172852Y385843D02*
X1156828Y385843D01*
X1142852Y366962D02*
X1142852Y359438D01*
X1126828Y359438D01*
X1126828Y366962D01*
X1142852Y366962D01*
X1142852Y361573D02*
X1126828Y361573D01*
X1126828Y363708D02*
X1142852Y363708D01*
X1142852Y365843D02*
X1126828Y365843D01*
X1172852Y346962D02*
X1172852Y339438D01*
X1156828Y339438D01*
X1156828Y346962D01*
X1172852Y346962D01*
X1172852Y341573D02*
X1156828Y341573D01*
X1156828Y343708D02*
X1172852Y343708D01*
X1172852Y345843D02*
X1156828Y345843D01*
X1142852Y326962D02*
X1142852Y319438D01*
X1126828Y319438D01*
X1126828Y326962D01*
X1142852Y326962D01*
X1142852Y321573D02*
X1126828Y321573D01*
X1126828Y323708D02*
X1142852Y323708D01*
X1142852Y325843D02*
X1126828Y325843D01*
X1172852Y306962D02*
X1172852Y299438D01*
X1156828Y299438D01*
X1156828Y306962D01*
X1172852Y306962D01*
X1172852Y301573D02*
X1156828Y301573D01*
X1156828Y303708D02*
X1172852Y303708D01*
X1172852Y305843D02*
X1156828Y305843D01*
X1142852Y286962D02*
X1142852Y279438D01*
X1126828Y279438D01*
X1126828Y286962D01*
X1142852Y286962D01*
X1142852Y281573D02*
X1126828Y281573D01*
X1126828Y283708D02*
X1142852Y283708D01*
X1142852Y285843D02*
X1126828Y285843D01*
X1172852Y266962D02*
X1172852Y259438D01*
X1156828Y259438D01*
X1156828Y266962D01*
X1172852Y266962D01*
X1172852Y261573D02*
X1156828Y261573D01*
X1156828Y263708D02*
X1172852Y263708D01*
X1172852Y265843D02*
X1156828Y265843D01*
X1142852Y246962D02*
X1142852Y239438D01*
X1126828Y239438D01*
X1126828Y246962D01*
X1142852Y246962D01*
X1142852Y241573D02*
X1126828Y241573D01*
X1126828Y243708D02*
X1142852Y243708D01*
X1142852Y245843D02*
X1126828Y245843D01*
X1172852Y226962D02*
X1172852Y219438D01*
X1156828Y219438D01*
X1156828Y226962D01*
X1172852Y226962D01*
X1172852Y221573D02*
X1156828Y221573D01*
X1156828Y223708D02*
X1172852Y223708D01*
X1172852Y225843D02*
X1156828Y225843D01*
X1392852Y226962D02*
X1392852Y219438D01*
X1376828Y219438D01*
X1376828Y226962D01*
X1392852Y226962D01*
X1392852Y221573D02*
X1376828Y221573D01*
X1376828Y223708D02*
X1392852Y223708D01*
X1392852Y225843D02*
X1376828Y225843D01*
X1362852Y239438D02*
X1362852Y246962D01*
X1362852Y239438D02*
X1346828Y239438D01*
X1346828Y246962D01*
X1362852Y246962D01*
X1362852Y241573D02*
X1346828Y241573D01*
X1346828Y243708D02*
X1362852Y243708D01*
X1362852Y245843D02*
X1346828Y245843D01*
X1392852Y259438D02*
X1392852Y266962D01*
X1392852Y259438D02*
X1376828Y259438D01*
X1376828Y266962D01*
X1392852Y266962D01*
X1392852Y261573D02*
X1376828Y261573D01*
X1376828Y263708D02*
X1392852Y263708D01*
X1392852Y265843D02*
X1376828Y265843D01*
X1362852Y279438D02*
X1362852Y286962D01*
X1362852Y279438D02*
X1346828Y279438D01*
X1346828Y286962D01*
X1362852Y286962D01*
X1362852Y281573D02*
X1346828Y281573D01*
X1346828Y283708D02*
X1362852Y283708D01*
X1362852Y285843D02*
X1346828Y285843D01*
X1392852Y299438D02*
X1392852Y306962D01*
X1392852Y299438D02*
X1376828Y299438D01*
X1376828Y306962D01*
X1392852Y306962D01*
X1392852Y301573D02*
X1376828Y301573D01*
X1376828Y303708D02*
X1392852Y303708D01*
X1392852Y305843D02*
X1376828Y305843D01*
X1362852Y319438D02*
X1362852Y326962D01*
X1362852Y319438D02*
X1346828Y319438D01*
X1346828Y326962D01*
X1362852Y326962D01*
X1362852Y321573D02*
X1346828Y321573D01*
X1346828Y323708D02*
X1362852Y323708D01*
X1362852Y325843D02*
X1346828Y325843D01*
X1392852Y339438D02*
X1392852Y346962D01*
X1392852Y339438D02*
X1376828Y339438D01*
X1376828Y346962D01*
X1392852Y346962D01*
X1392852Y341573D02*
X1376828Y341573D01*
X1376828Y343708D02*
X1392852Y343708D01*
X1392852Y345843D02*
X1376828Y345843D01*
X1362852Y359438D02*
X1362852Y366962D01*
X1362852Y359438D02*
X1346828Y359438D01*
X1346828Y366962D01*
X1362852Y366962D01*
X1362852Y361573D02*
X1346828Y361573D01*
X1346828Y363708D02*
X1362852Y363708D01*
X1362852Y365843D02*
X1346828Y365843D01*
X1392852Y379438D02*
X1392852Y386962D01*
X1392852Y379438D02*
X1376828Y379438D01*
X1376828Y386962D01*
X1392852Y386962D01*
X1392852Y381573D02*
X1376828Y381573D01*
X1376828Y383708D02*
X1392852Y383708D01*
X1392852Y385843D02*
X1376828Y385843D01*
X1362852Y399438D02*
X1362852Y406962D01*
X1362852Y399438D02*
X1346828Y399438D01*
X1346828Y406962D01*
X1362852Y406962D01*
X1362852Y401573D02*
X1346828Y401573D01*
X1346828Y403708D02*
X1362852Y403708D01*
X1362852Y405843D02*
X1346828Y405843D01*
D12*
X1120948Y330898D02*
X1110932Y330898D01*
X1120948Y330898D02*
X1120948Y321882D01*
X1110932Y321882D01*
X1110932Y330898D01*
X1110932Y324023D02*
X1120948Y324023D01*
X1120948Y326164D02*
X1110932Y326164D01*
X1110932Y328305D02*
X1120948Y328305D01*
X1120948Y330446D02*
X1110932Y330446D01*
X1103948Y330898D02*
X1093932Y330898D01*
X1103948Y330898D02*
X1103948Y321882D01*
X1093932Y321882D01*
X1093932Y330898D01*
X1093932Y324023D02*
X1103948Y324023D01*
X1103948Y326164D02*
X1093932Y326164D01*
X1093932Y328305D02*
X1103948Y328305D01*
X1103948Y330446D02*
X1093932Y330446D01*
X1110932Y376618D02*
X1120948Y376618D01*
X1120948Y367602D01*
X1110932Y367602D01*
X1110932Y376618D01*
X1110932Y369743D02*
X1120948Y369743D01*
X1120948Y371884D02*
X1110932Y371884D01*
X1110932Y374025D02*
X1120948Y374025D01*
X1120948Y376166D02*
X1110932Y376166D01*
X1103948Y376618D02*
X1093932Y376618D01*
X1103948Y376618D02*
X1103948Y367602D01*
X1093932Y367602D01*
X1093932Y376618D01*
X1093932Y369743D02*
X1103948Y369743D01*
X1103948Y371884D02*
X1093932Y371884D01*
X1093932Y374025D02*
X1103948Y374025D01*
X1103948Y376166D02*
X1093932Y376166D01*
X1110932Y361378D02*
X1120948Y361378D01*
X1120948Y352362D01*
X1110932Y352362D01*
X1110932Y361378D01*
X1110932Y354503D02*
X1120948Y354503D01*
X1120948Y356644D02*
X1110932Y356644D01*
X1110932Y358785D02*
X1120948Y358785D01*
X1120948Y360926D02*
X1110932Y360926D01*
X1103948Y361378D02*
X1093932Y361378D01*
X1103948Y361378D02*
X1103948Y352362D01*
X1093932Y352362D01*
X1093932Y361378D01*
X1093932Y354503D02*
X1103948Y354503D01*
X1103948Y356644D02*
X1093932Y356644D01*
X1093932Y358785D02*
X1103948Y358785D01*
X1103948Y360926D02*
X1093932Y360926D01*
X1110932Y346138D02*
X1120948Y346138D01*
X1120948Y337122D01*
X1110932Y337122D01*
X1110932Y346138D01*
X1110932Y339263D02*
X1120948Y339263D01*
X1120948Y341404D02*
X1110932Y341404D01*
X1110932Y343545D02*
X1120948Y343545D01*
X1120948Y345686D02*
X1110932Y345686D01*
X1103948Y346138D02*
X1093932Y346138D01*
X1103948Y346138D02*
X1103948Y337122D01*
X1093932Y337122D01*
X1093932Y346138D01*
X1093932Y339263D02*
X1103948Y339263D01*
X1103948Y341404D02*
X1093932Y341404D01*
X1093932Y343545D02*
X1103948Y343545D01*
X1103948Y345686D02*
X1093932Y345686D01*
D21*
X1412240Y571500D03*
X1412240Y25400D03*
X1107440Y571500D03*
X1107440Y25400D03*
D16*
X1249488Y19108D02*
X1256476Y19108D01*
X1256476Y12120D01*
X1249488Y12120D01*
X1249488Y19108D01*
X1249488Y16189D02*
X1256476Y16189D01*
X1256476Y36648D02*
X1249488Y36648D01*
X1256476Y36648D02*
X1256476Y29660D01*
X1249488Y29660D01*
X1249488Y36648D01*
X1249488Y33729D02*
X1256476Y33729D01*
D12*
X1247712Y63182D02*
X1247712Y73198D01*
X1256728Y73198D01*
X1256728Y63182D01*
X1247712Y63182D01*
X1247712Y65323D02*
X1256728Y65323D01*
X1256728Y67464D02*
X1247712Y67464D01*
X1247712Y69605D02*
X1256728Y69605D01*
X1256728Y71746D02*
X1247712Y71746D01*
X1247712Y56198D02*
X1247712Y46182D01*
X1247712Y56198D02*
X1256728Y56198D01*
X1256728Y46182D01*
X1247712Y46182D01*
X1247712Y48323D02*
X1256728Y48323D01*
X1256728Y50464D02*
X1247712Y50464D01*
X1247712Y52605D02*
X1256728Y52605D01*
X1256728Y54746D02*
X1247712Y54746D01*
D22*
X1192122Y55618D02*
X1190158Y55618D01*
X1190158Y64582D01*
X1192122Y64582D01*
X1192122Y55618D01*
X1192122Y57809D02*
X1190158Y57809D01*
X1190158Y60000D02*
X1192122Y60000D01*
X1192122Y62191D02*
X1190158Y62191D01*
X1190158Y64382D02*
X1192122Y64382D01*
X1187122Y55618D02*
X1185158Y55618D01*
X1185158Y64582D01*
X1187122Y64582D01*
X1187122Y55618D01*
X1187122Y57809D02*
X1185158Y57809D01*
X1185158Y60000D02*
X1187122Y60000D01*
X1187122Y62191D02*
X1185158Y62191D01*
X1185158Y64382D02*
X1187122Y64382D01*
D11*
X1213382Y55592D02*
X1218398Y55592D01*
X1213382Y55592D02*
X1213382Y64608D01*
X1218398Y64608D01*
X1218398Y55592D01*
X1218398Y57733D02*
X1213382Y57733D01*
X1213382Y59874D02*
X1218398Y59874D01*
X1218398Y62015D02*
X1213382Y62015D01*
X1213382Y64156D02*
X1218398Y64156D01*
X1210648Y55592D02*
X1205632Y55592D01*
X1205632Y64608D01*
X1210648Y64608D01*
X1210648Y55592D01*
X1210648Y57733D02*
X1205632Y57733D01*
X1205632Y59874D02*
X1210648Y59874D01*
X1210648Y62015D02*
X1205632Y62015D01*
X1205632Y64156D02*
X1210648Y64156D01*
D22*
X1202122Y55618D02*
X1200158Y55618D01*
X1200158Y64582D01*
X1202122Y64582D01*
X1202122Y55618D01*
X1202122Y57809D02*
X1200158Y57809D01*
X1200158Y60000D02*
X1202122Y60000D01*
X1202122Y62191D02*
X1200158Y62191D01*
X1200158Y64382D02*
X1202122Y64382D01*
X1197122Y55618D02*
X1195158Y55618D01*
X1195158Y64582D01*
X1197122Y64582D01*
X1197122Y55618D01*
X1197122Y57809D02*
X1195158Y57809D01*
X1195158Y60000D02*
X1197122Y60000D01*
X1197122Y62191D02*
X1195158Y62191D01*
X1195158Y64382D02*
X1197122Y64382D01*
X1177122Y64582D02*
X1175158Y64582D01*
X1177122Y64582D02*
X1177122Y55618D01*
X1175158Y55618D01*
X1175158Y64582D01*
X1175158Y57809D02*
X1177122Y57809D01*
X1177122Y60000D02*
X1175158Y60000D01*
X1175158Y62191D02*
X1177122Y62191D01*
X1177122Y64382D02*
X1175158Y64382D01*
X1180158Y64582D02*
X1182122Y64582D01*
X1182122Y55618D01*
X1180158Y55618D01*
X1180158Y64582D01*
X1180158Y57809D02*
X1182122Y57809D01*
X1182122Y60000D02*
X1180158Y60000D01*
X1180158Y62191D02*
X1182122Y62191D01*
X1182122Y64382D02*
X1180158Y64382D01*
D11*
X1153898Y64608D02*
X1148882Y64608D01*
X1153898Y64608D02*
X1153898Y55592D01*
X1148882Y55592D01*
X1148882Y64608D01*
X1148882Y57733D02*
X1153898Y57733D01*
X1153898Y59874D02*
X1148882Y59874D01*
X1148882Y62015D02*
X1153898Y62015D01*
X1153898Y64156D02*
X1148882Y64156D01*
X1156632Y64608D02*
X1161648Y64608D01*
X1161648Y55592D01*
X1156632Y55592D01*
X1156632Y64608D01*
X1156632Y57733D02*
X1161648Y57733D01*
X1161648Y59874D02*
X1156632Y59874D01*
X1156632Y62015D02*
X1161648Y62015D01*
X1161648Y64156D02*
X1156632Y64156D01*
D22*
X1165158Y64582D02*
X1167122Y64582D01*
X1167122Y55618D01*
X1165158Y55618D01*
X1165158Y64582D01*
X1165158Y57809D02*
X1167122Y57809D01*
X1167122Y60000D02*
X1165158Y60000D01*
X1165158Y62191D02*
X1167122Y62191D01*
X1167122Y64382D02*
X1165158Y64382D01*
X1170158Y64582D02*
X1172122Y64582D01*
X1172122Y55618D01*
X1170158Y55618D01*
X1170158Y64582D01*
X1170158Y57809D02*
X1172122Y57809D01*
X1172122Y60000D02*
X1170158Y60000D01*
X1170158Y62191D02*
X1172122Y62191D01*
X1172122Y64382D02*
X1170158Y64382D01*
D23*
X1154740Y49050D03*
X1212540Y49050D03*
D12*
X1147382Y106362D02*
X1147382Y116378D01*
X1156398Y116378D01*
X1156398Y106362D01*
X1147382Y106362D01*
X1147382Y108503D02*
X1156398Y108503D01*
X1156398Y110644D02*
X1147382Y110644D01*
X1147382Y112785D02*
X1156398Y112785D01*
X1156398Y114926D02*
X1147382Y114926D01*
X1147382Y99378D02*
X1147382Y89362D01*
X1147382Y99378D02*
X1156398Y99378D01*
X1156398Y89362D01*
X1147382Y89362D01*
X1147382Y91503D02*
X1156398Y91503D01*
X1156398Y93644D02*
X1147382Y93644D01*
X1147382Y95785D02*
X1156398Y95785D01*
X1156398Y97926D02*
X1147382Y97926D01*
X1162622Y106362D02*
X1162622Y116378D01*
X1171638Y116378D01*
X1171638Y106362D01*
X1162622Y106362D01*
X1162622Y108503D02*
X1171638Y108503D01*
X1171638Y110644D02*
X1162622Y110644D01*
X1162622Y112785D02*
X1171638Y112785D01*
X1171638Y114926D02*
X1162622Y114926D01*
X1162622Y99378D02*
X1162622Y89362D01*
X1162622Y99378D02*
X1171638Y99378D01*
X1171638Y89362D01*
X1162622Y89362D01*
X1162622Y91503D02*
X1171638Y91503D01*
X1171638Y93644D02*
X1162622Y93644D01*
X1162622Y95785D02*
X1171638Y95785D01*
X1171638Y97926D02*
X1162622Y97926D01*
D17*
X1203572Y121619D02*
X1208108Y121619D01*
X1208108Y109083D01*
X1203572Y109083D01*
X1203572Y121619D01*
X1203572Y111205D02*
X1208108Y111205D01*
X1208108Y113327D02*
X1203572Y113327D01*
X1203572Y115449D02*
X1208108Y115449D01*
X1208108Y117571D02*
X1203572Y117571D01*
X1203572Y119693D02*
X1208108Y119693D01*
X1198608Y121619D02*
X1194072Y121619D01*
X1198608Y121619D02*
X1198608Y109083D01*
X1194072Y109083D01*
X1194072Y121619D01*
X1194072Y111205D02*
X1198608Y111205D01*
X1198608Y113327D02*
X1194072Y113327D01*
X1194072Y115449D02*
X1198608Y115449D01*
X1198608Y117571D02*
X1194072Y117571D01*
X1194072Y119693D02*
X1198608Y119693D01*
X1189108Y121619D02*
X1184572Y121619D01*
X1189108Y121619D02*
X1189108Y109083D01*
X1184572Y109083D01*
X1184572Y121619D01*
X1184572Y111205D02*
X1189108Y111205D01*
X1189108Y113327D02*
X1184572Y113327D01*
X1184572Y115449D02*
X1189108Y115449D01*
X1189108Y117571D02*
X1184572Y117571D01*
X1184572Y119693D02*
X1189108Y119693D01*
X1189108Y94117D02*
X1184572Y94117D01*
X1189108Y94117D02*
X1189108Y81581D01*
X1184572Y81581D01*
X1184572Y94117D01*
X1184572Y83703D02*
X1189108Y83703D01*
X1189108Y85825D02*
X1184572Y85825D01*
X1184572Y87947D02*
X1189108Y87947D01*
X1189108Y90069D02*
X1184572Y90069D01*
X1184572Y92191D02*
X1189108Y92191D01*
X1194072Y94117D02*
X1198608Y94117D01*
X1198608Y81581D01*
X1194072Y81581D01*
X1194072Y94117D01*
X1194072Y83703D02*
X1198608Y83703D01*
X1198608Y85825D02*
X1194072Y85825D01*
X1194072Y87947D02*
X1198608Y87947D01*
X1198608Y90069D02*
X1194072Y90069D01*
X1194072Y92191D02*
X1198608Y92191D01*
X1203572Y94117D02*
X1208108Y94117D01*
X1208108Y81581D01*
X1203572Y81581D01*
X1203572Y94117D01*
X1203572Y83703D02*
X1208108Y83703D01*
X1208108Y85825D02*
X1203572Y85825D01*
X1203572Y87947D02*
X1208108Y87947D01*
X1208108Y90069D02*
X1203572Y90069D01*
X1203572Y92191D02*
X1208108Y92191D01*
D24*
X1284478Y88900D02*
X1287272Y88900D01*
X1287272Y78486D01*
X1284478Y78486D01*
X1284478Y88900D01*
X1284478Y80658D02*
X1287272Y80658D01*
X1287272Y82830D02*
X1284478Y82830D01*
X1284478Y85002D02*
X1287272Y85002D01*
X1287272Y87174D02*
X1284478Y87174D01*
X1280922Y88900D02*
X1278128Y88900D01*
X1280922Y88900D02*
X1280922Y78486D01*
X1278128Y78486D01*
X1278128Y88900D01*
X1278128Y80658D02*
X1280922Y80658D01*
X1280922Y82830D02*
X1278128Y82830D01*
X1278128Y85002D02*
X1280922Y85002D01*
X1280922Y87174D02*
X1278128Y87174D01*
X1274572Y88900D02*
X1271778Y88900D01*
X1274572Y88900D02*
X1274572Y78486D01*
X1271778Y78486D01*
X1271778Y88900D01*
X1271778Y80658D02*
X1274572Y80658D01*
X1274572Y82830D02*
X1271778Y82830D01*
X1271778Y85002D02*
X1274572Y85002D01*
X1274572Y87174D02*
X1271778Y87174D01*
X1268222Y88900D02*
X1265428Y88900D01*
X1268222Y88900D02*
X1268222Y78486D01*
X1265428Y78486D01*
X1265428Y88900D01*
X1265428Y80658D02*
X1268222Y80658D01*
X1268222Y82830D02*
X1265428Y82830D01*
X1265428Y85002D02*
X1268222Y85002D01*
X1268222Y87174D02*
X1265428Y87174D01*
X1261872Y88900D02*
X1259078Y88900D01*
X1261872Y88900D02*
X1261872Y78486D01*
X1259078Y78486D01*
X1259078Y88900D01*
X1259078Y80658D02*
X1261872Y80658D01*
X1261872Y82830D02*
X1259078Y82830D01*
X1259078Y85002D02*
X1261872Y85002D01*
X1261872Y87174D02*
X1259078Y87174D01*
X1255522Y88900D02*
X1252728Y88900D01*
X1255522Y88900D02*
X1255522Y78486D01*
X1252728Y78486D01*
X1252728Y88900D01*
X1252728Y80658D02*
X1255522Y80658D01*
X1255522Y82830D02*
X1252728Y82830D01*
X1252728Y85002D02*
X1255522Y85002D01*
X1255522Y87174D02*
X1252728Y87174D01*
X1290828Y88900D02*
X1293622Y88900D01*
X1293622Y78486D01*
X1290828Y78486D01*
X1290828Y88900D01*
X1290828Y80658D02*
X1293622Y80658D01*
X1293622Y82830D02*
X1290828Y82830D01*
X1290828Y85002D02*
X1293622Y85002D01*
X1293622Y87174D02*
X1290828Y87174D01*
X1297178Y88900D02*
X1299972Y88900D01*
X1299972Y78486D01*
X1297178Y78486D01*
X1297178Y88900D01*
X1297178Y80658D02*
X1299972Y80658D01*
X1299972Y82830D02*
X1297178Y82830D01*
X1297178Y85002D02*
X1299972Y85002D01*
X1299972Y87174D02*
X1297178Y87174D01*
X1303528Y88900D02*
X1306322Y88900D01*
X1306322Y78486D01*
X1303528Y78486D01*
X1303528Y88900D01*
X1303528Y80658D02*
X1306322Y80658D01*
X1306322Y82830D02*
X1303528Y82830D01*
X1303528Y85002D02*
X1306322Y85002D01*
X1306322Y87174D02*
X1303528Y87174D01*
X1309878Y88900D02*
X1312672Y88900D01*
X1312672Y78486D01*
X1309878Y78486D01*
X1309878Y88900D01*
X1309878Y80658D02*
X1312672Y80658D01*
X1312672Y82830D02*
X1309878Y82830D01*
X1309878Y85002D02*
X1312672Y85002D01*
X1312672Y87174D02*
X1309878Y87174D01*
X1280922Y132080D02*
X1278128Y132080D01*
X1278128Y142494D01*
X1280922Y142494D01*
X1280922Y132080D01*
X1280922Y134252D02*
X1278128Y134252D01*
X1278128Y136424D02*
X1280922Y136424D01*
X1280922Y138596D02*
X1278128Y138596D01*
X1278128Y140768D02*
X1280922Y140768D01*
X1284478Y132080D02*
X1287272Y132080D01*
X1284478Y132080D02*
X1284478Y142494D01*
X1287272Y142494D01*
X1287272Y132080D01*
X1287272Y134252D02*
X1284478Y134252D01*
X1284478Y136424D02*
X1287272Y136424D01*
X1287272Y138596D02*
X1284478Y138596D01*
X1284478Y140768D02*
X1287272Y140768D01*
X1290828Y132080D02*
X1293622Y132080D01*
X1290828Y132080D02*
X1290828Y142494D01*
X1293622Y142494D01*
X1293622Y132080D01*
X1293622Y134252D02*
X1290828Y134252D01*
X1290828Y136424D02*
X1293622Y136424D01*
X1293622Y138596D02*
X1290828Y138596D01*
X1290828Y140768D02*
X1293622Y140768D01*
X1297178Y132080D02*
X1299972Y132080D01*
X1297178Y132080D02*
X1297178Y142494D01*
X1299972Y142494D01*
X1299972Y132080D01*
X1299972Y134252D02*
X1297178Y134252D01*
X1297178Y136424D02*
X1299972Y136424D01*
X1299972Y138596D02*
X1297178Y138596D01*
X1297178Y140768D02*
X1299972Y140768D01*
X1303528Y132080D02*
X1306322Y132080D01*
X1303528Y132080D02*
X1303528Y142494D01*
X1306322Y142494D01*
X1306322Y132080D01*
X1306322Y134252D02*
X1303528Y134252D01*
X1303528Y136424D02*
X1306322Y136424D01*
X1306322Y138596D02*
X1303528Y138596D01*
X1303528Y140768D02*
X1306322Y140768D01*
X1309878Y132080D02*
X1312672Y132080D01*
X1309878Y132080D02*
X1309878Y142494D01*
X1312672Y142494D01*
X1312672Y132080D01*
X1312672Y134252D02*
X1309878Y134252D01*
X1309878Y136424D02*
X1312672Y136424D01*
X1312672Y138596D02*
X1309878Y138596D01*
X1309878Y140768D02*
X1312672Y140768D01*
X1274572Y132080D02*
X1271778Y132080D01*
X1271778Y142494D01*
X1274572Y142494D01*
X1274572Y132080D01*
X1274572Y134252D02*
X1271778Y134252D01*
X1271778Y136424D02*
X1274572Y136424D01*
X1274572Y138596D02*
X1271778Y138596D01*
X1271778Y140768D02*
X1274572Y140768D01*
X1268222Y132080D02*
X1265428Y132080D01*
X1265428Y142494D01*
X1268222Y142494D01*
X1268222Y132080D01*
X1268222Y134252D02*
X1265428Y134252D01*
X1265428Y136424D02*
X1268222Y136424D01*
X1268222Y138596D02*
X1265428Y138596D01*
X1265428Y140768D02*
X1268222Y140768D01*
X1261872Y132080D02*
X1259078Y132080D01*
X1259078Y142494D01*
X1261872Y142494D01*
X1261872Y132080D01*
X1261872Y134252D02*
X1259078Y134252D01*
X1259078Y136424D02*
X1261872Y136424D01*
X1261872Y138596D02*
X1259078Y138596D01*
X1259078Y140768D02*
X1261872Y140768D01*
X1255522Y132080D02*
X1252728Y132080D01*
X1252728Y142494D01*
X1255522Y142494D01*
X1255522Y132080D01*
X1255522Y134252D02*
X1252728Y134252D01*
X1252728Y136424D02*
X1255522Y136424D01*
X1255522Y138596D02*
X1252728Y138596D01*
X1252728Y140768D02*
X1255522Y140768D01*
D12*
X1293812Y156908D02*
X1303828Y156908D01*
X1303828Y147892D01*
X1293812Y147892D01*
X1293812Y156908D01*
X1293812Y150033D02*
X1303828Y150033D01*
X1303828Y152174D02*
X1293812Y152174D01*
X1293812Y154315D02*
X1303828Y154315D01*
X1303828Y156456D02*
X1293812Y156456D01*
X1286828Y156908D02*
X1276812Y156908D01*
X1286828Y156908D02*
X1286828Y147892D01*
X1276812Y147892D01*
X1276812Y156908D01*
X1276812Y150033D02*
X1286828Y150033D01*
X1286828Y152174D02*
X1276812Y152174D01*
X1276812Y154315D02*
X1286828Y154315D01*
X1286828Y156456D02*
X1276812Y156456D01*
X1277176Y64580D02*
X1267160Y64580D01*
X1267160Y73596D01*
X1277176Y73596D01*
X1277176Y64580D01*
X1277176Y66721D02*
X1267160Y66721D01*
X1267160Y68862D02*
X1277176Y68862D01*
X1277176Y71003D02*
X1267160Y71003D01*
X1267160Y73144D02*
X1277176Y73144D01*
X1284160Y64580D02*
X1294176Y64580D01*
X1284160Y64580D02*
X1284160Y73596D01*
X1294176Y73596D01*
X1294176Y64580D01*
X1294176Y66721D02*
X1284160Y66721D01*
X1284160Y68862D02*
X1294176Y68862D01*
X1294176Y71003D02*
X1284160Y71003D01*
X1284160Y73144D02*
X1294176Y73144D01*
X1120948Y391858D02*
X1110932Y391858D01*
X1120948Y391858D02*
X1120948Y382842D01*
X1110932Y382842D01*
X1110932Y391858D01*
X1110932Y384983D02*
X1120948Y384983D01*
X1120948Y387124D02*
X1110932Y387124D01*
X1110932Y389265D02*
X1120948Y389265D01*
X1120948Y391406D02*
X1110932Y391406D01*
X1103948Y391858D02*
X1093932Y391858D01*
X1103948Y391858D02*
X1103948Y382842D01*
X1093932Y382842D01*
X1093932Y391858D01*
X1093932Y384983D02*
X1103948Y384983D01*
X1103948Y387124D02*
X1093932Y387124D01*
X1093932Y389265D02*
X1103948Y389265D01*
X1103948Y391406D02*
X1093932Y391406D01*
X1110932Y407098D02*
X1120948Y407098D01*
X1120948Y398082D01*
X1110932Y398082D01*
X1110932Y407098D01*
X1110932Y400223D02*
X1120948Y400223D01*
X1120948Y402364D02*
X1110932Y402364D01*
X1110932Y404505D02*
X1120948Y404505D01*
X1120948Y406646D02*
X1110932Y406646D01*
X1103948Y407098D02*
X1093932Y407098D01*
X1103948Y407098D02*
X1103948Y398082D01*
X1093932Y398082D01*
X1093932Y407098D01*
X1093932Y400223D02*
X1103948Y400223D01*
X1103948Y402364D02*
X1093932Y402364D01*
X1093932Y404505D02*
X1103948Y404505D01*
X1103948Y406646D02*
X1093932Y406646D01*
D15*
X1196340Y152400D03*
X1323340Y152400D03*
D12*
X1277176Y49340D02*
X1267160Y49340D01*
X1267160Y58356D01*
X1277176Y58356D01*
X1277176Y49340D01*
X1277176Y51481D02*
X1267160Y51481D01*
X1267160Y53622D02*
X1277176Y53622D01*
X1277176Y55763D02*
X1267160Y55763D01*
X1267160Y57904D02*
X1277176Y57904D01*
X1284160Y49340D02*
X1294176Y49340D01*
X1284160Y49340D02*
X1284160Y58356D01*
X1294176Y58356D01*
X1294176Y49340D01*
X1294176Y51481D02*
X1284160Y51481D01*
X1284160Y53622D02*
X1294176Y53622D01*
X1294176Y55763D02*
X1284160Y55763D01*
X1284160Y57904D02*
X1294176Y57904D01*
D13*
X-26238Y595630D03*
X1458798Y595630D03*
D25*
X-35293Y63500D02*
X-35290Y63722D01*
X-35282Y63944D01*
X-35268Y64166D01*
X-35249Y64388D01*
X-35225Y64608D01*
X-35195Y64829D01*
X-35160Y65048D01*
X-35119Y65267D01*
X-35073Y65484D01*
X-35022Y65700D01*
X-34965Y65915D01*
X-34903Y66129D01*
X-34836Y66340D01*
X-34764Y66551D01*
X-34686Y66759D01*
X-34604Y66965D01*
X-34516Y67169D01*
X-34424Y67372D01*
X-34326Y67571D01*
X-34224Y67768D01*
X-34117Y67963D01*
X-34005Y68155D01*
X-33888Y68344D01*
X-33767Y68531D01*
X-33641Y68714D01*
X-33511Y68894D01*
X-33376Y69071D01*
X-33238Y69244D01*
X-33095Y69414D01*
X-32947Y69581D01*
X-32796Y69744D01*
X-32641Y69903D01*
X-32482Y70058D01*
X-32319Y70209D01*
X-32152Y70357D01*
X-31982Y70500D01*
X-31809Y70638D01*
X-31632Y70773D01*
X-31452Y70903D01*
X-31269Y71029D01*
X-31082Y71150D01*
X-30893Y71267D01*
X-30701Y71379D01*
X-30506Y71486D01*
X-30309Y71588D01*
X-30110Y71686D01*
X-29907Y71778D01*
X-29703Y71866D01*
X-29497Y71948D01*
X-29289Y72026D01*
X-29078Y72098D01*
X-28867Y72165D01*
X-28653Y72227D01*
X-28438Y72284D01*
X-28222Y72335D01*
X-28005Y72381D01*
X-27786Y72422D01*
X-27567Y72457D01*
X-27346Y72487D01*
X-27126Y72511D01*
X-26904Y72530D01*
X-26682Y72544D01*
X-26460Y72552D01*
X-26238Y72555D01*
X-26016Y72552D01*
X-25794Y72544D01*
X-25572Y72530D01*
X-25350Y72511D01*
X-25130Y72487D01*
X-24909Y72457D01*
X-24690Y72422D01*
X-24471Y72381D01*
X-24254Y72335D01*
X-24038Y72284D01*
X-23823Y72227D01*
X-23609Y72165D01*
X-23398Y72098D01*
X-23187Y72026D01*
X-22979Y71948D01*
X-22773Y71866D01*
X-22569Y71778D01*
X-22366Y71686D01*
X-22167Y71588D01*
X-21970Y71486D01*
X-21775Y71379D01*
X-21583Y71267D01*
X-21394Y71150D01*
X-21207Y71029D01*
X-21024Y70903D01*
X-20844Y70773D01*
X-20667Y70638D01*
X-20494Y70500D01*
X-20324Y70357D01*
X-20157Y70209D01*
X-19994Y70058D01*
X-19835Y69903D01*
X-19680Y69744D01*
X-19529Y69581D01*
X-19381Y69414D01*
X-19238Y69244D01*
X-19100Y69071D01*
X-18965Y68894D01*
X-18835Y68714D01*
X-18709Y68531D01*
X-18588Y68344D01*
X-18471Y68155D01*
X-18359Y67963D01*
X-18252Y67768D01*
X-18150Y67571D01*
X-18052Y67372D01*
X-17960Y67169D01*
X-17872Y66965D01*
X-17790Y66759D01*
X-17712Y66551D01*
X-17640Y66340D01*
X-17573Y66129D01*
X-17511Y65915D01*
X-17454Y65700D01*
X-17403Y65484D01*
X-17357Y65267D01*
X-17316Y65048D01*
X-17281Y64829D01*
X-17251Y64608D01*
X-17227Y64388D01*
X-17208Y64166D01*
X-17194Y63944D01*
X-17186Y63722D01*
X-17183Y63500D01*
X-17186Y63278D01*
X-17194Y63056D01*
X-17208Y62834D01*
X-17227Y62612D01*
X-17251Y62392D01*
X-17281Y62171D01*
X-17316Y61952D01*
X-17357Y61733D01*
X-17403Y61516D01*
X-17454Y61300D01*
X-17511Y61085D01*
X-17573Y60871D01*
X-17640Y60660D01*
X-17712Y60449D01*
X-17790Y60241D01*
X-17872Y60035D01*
X-17960Y59831D01*
X-18052Y59628D01*
X-18150Y59429D01*
X-18252Y59232D01*
X-18359Y59037D01*
X-18471Y58845D01*
X-18588Y58656D01*
X-18709Y58469D01*
X-18835Y58286D01*
X-18965Y58106D01*
X-19100Y57929D01*
X-19238Y57756D01*
X-19381Y57586D01*
X-19529Y57419D01*
X-19680Y57256D01*
X-19835Y57097D01*
X-19994Y56942D01*
X-20157Y56791D01*
X-20324Y56643D01*
X-20494Y56500D01*
X-20667Y56362D01*
X-20844Y56227D01*
X-21024Y56097D01*
X-21207Y55971D01*
X-21394Y55850D01*
X-21583Y55733D01*
X-21775Y55621D01*
X-21970Y55514D01*
X-22167Y55412D01*
X-22366Y55314D01*
X-22569Y55222D01*
X-22773Y55134D01*
X-22979Y55052D01*
X-23187Y54974D01*
X-23398Y54902D01*
X-23609Y54835D01*
X-23823Y54773D01*
X-24038Y54716D01*
X-24254Y54665D01*
X-24471Y54619D01*
X-24690Y54578D01*
X-24909Y54543D01*
X-25130Y54513D01*
X-25350Y54489D01*
X-25572Y54470D01*
X-25794Y54456D01*
X-26016Y54448D01*
X-26238Y54445D01*
X-26460Y54448D01*
X-26682Y54456D01*
X-26904Y54470D01*
X-27126Y54489D01*
X-27346Y54513D01*
X-27567Y54543D01*
X-27786Y54578D01*
X-28005Y54619D01*
X-28222Y54665D01*
X-28438Y54716D01*
X-28653Y54773D01*
X-28867Y54835D01*
X-29078Y54902D01*
X-29289Y54974D01*
X-29497Y55052D01*
X-29703Y55134D01*
X-29907Y55222D01*
X-30110Y55314D01*
X-30309Y55412D01*
X-30506Y55514D01*
X-30701Y55621D01*
X-30893Y55733D01*
X-31082Y55850D01*
X-31269Y55971D01*
X-31452Y56097D01*
X-31632Y56227D01*
X-31809Y56362D01*
X-31982Y56500D01*
X-32152Y56643D01*
X-32319Y56791D01*
X-32482Y56942D01*
X-32641Y57097D01*
X-32796Y57256D01*
X-32947Y57419D01*
X-33095Y57586D01*
X-33238Y57756D01*
X-33376Y57929D01*
X-33511Y58106D01*
X-33641Y58286D01*
X-33767Y58469D01*
X-33888Y58656D01*
X-34005Y58845D01*
X-34117Y59037D01*
X-34224Y59232D01*
X-34326Y59429D01*
X-34424Y59628D01*
X-34516Y59831D01*
X-34604Y60035D01*
X-34686Y60241D01*
X-34764Y60449D01*
X-34836Y60660D01*
X-34903Y60871D01*
X-34965Y61085D01*
X-35022Y61300D01*
X-35073Y61516D01*
X-35119Y61733D01*
X-35160Y61952D01*
X-35195Y62171D01*
X-35225Y62392D01*
X-35249Y62612D01*
X-35268Y62834D01*
X-35282Y63056D01*
X-35290Y63278D01*
X-35293Y63500D01*
D26*
X-26238Y63500D03*
M02*
