M48
;GenerationSoftware,Autodesk,EAGLE,9.6.2*%
;CreationDate,2023-03-09T19:25:43Z*%
FMAT,2
ICI,OFF
METRIC,TZ,000.000
T4C0.305
T3C0.650
T2C1.016
T1C3.048
%
G90
M71
T1
X33020Y65278
X105156Y119888
X33020Y57150
X33020Y2540
X2540Y57150
X2540Y2540
X105156Y65278
X69088Y119888
X69088Y57150
X69088Y2540
X38608Y57150
X38608Y2540
X69088Y65278
X38608Y119888
X105156Y57150
X105156Y2540
X74676Y57150
X74676Y2540
X38608Y65278
X74676Y119888
X33020Y119888
X74676Y65278
X2540Y119888
X2540Y65278
T2
X60198Y35560
X96266Y80518
X83566Y103378
X83566Y100838
X83566Y98298
X83566Y95758
X83566Y93218
X96266Y77978
X83566Y90678
X83566Y88138
X83566Y85598
X83566Y83058
X83566Y80518
X83566Y77978
X24130Y40640
X24130Y38100
X24130Y35560
X24130Y33020
X24130Y30480
X24130Y27940
X24130Y25400
X24130Y22860
X24130Y20320
X24130Y17780
X11430Y40640
X11430Y38100
X11430Y35560
X11430Y33020
X11430Y30480
X11430Y27940
X11430Y25400
X11430Y22860
X11430Y20320
X11430Y17780
X11430Y15240
X24130Y15240
X60198Y40640
X60198Y38100
X60198Y33020
X60198Y30480
X60198Y27940
X60198Y25400
X60198Y22860
X60198Y20320
X60198Y17780
X47498Y40640
X47498Y38100
X47498Y35560
X47498Y33020
X47498Y30480
X47498Y27940
X47498Y25400
X47498Y22860
X47498Y20320
X47498Y17780
X47498Y15240
X60198Y15240
X96266Y40640
X96266Y38100
X96266Y35560
X96266Y33020
X96266Y30480
X96266Y27940
X96266Y25400
X96266Y22860
X96266Y20320
X96266Y17780
X83566Y40640
X83566Y38100
X83566Y35560
X83566Y33020
X83566Y30480
X83566Y27940
X83566Y25400
X83566Y22860
X83566Y20320
X83566Y17780
X83566Y15240
X96266Y15240
X24130Y103378
X24130Y100838
X24130Y98298
X24130Y95758
X24130Y93218
X24130Y90678
X24130Y88138
X24130Y85598
X24130Y83058
X24130Y80518
X11430Y103378
X11430Y100838
X11430Y98298
X11430Y95758
X11430Y93218
X11430Y90678
X11430Y88138
X11430Y85598
X11430Y83058
X11430Y80518
X11430Y77978
X24130Y77978
X60198Y103378
X60198Y100838
X60198Y98298
X60198Y95758
X60198Y93218
X60198Y90678
X60198Y88138
X60198Y85598
X60198Y83058
X60198Y80518
X47498Y103378
X47498Y100838
X47498Y98298
X47498Y95758
X47498Y93218
X47498Y90678
X47498Y88138
X47498Y85598
X47498Y83058
X47498Y80518
X47498Y77978
X60198Y77978
X96266Y103378
X96266Y100838
X96266Y98298
X96266Y95758
X96266Y93218
X96266Y90678
X96266Y88138
X96266Y85598
X96266Y83058
T3
X7270Y4905
X13050Y4905
X43338Y4905
X49118Y4905
X79406Y4905
X85186Y4905
X7270Y67643
X13050Y67643
X43338Y67643
X49118Y67643
X79406Y67643
X85186Y67643
T4
X69469Y36830
X59538Y12929
X58928Y36830
X58928Y34290
X58928Y31750
X53848Y31750
X53848Y34290
X48768Y34290
X48768Y36830
X48768Y39370
X58928Y39370
X37338Y30480
X70993Y25146
X70993Y18796
X70993Y34036
X57658Y12319
X42672Y7112
X62179Y11506
X58242Y9601
X56591Y4343
X52375Y8484
X59436Y5664
X63957Y11506
X53721Y29083
X52451Y29083
X55118Y29083
X50927Y18923
X40640Y34163
X54077Y5512
X57785Y16154
X62230Y3886
X56388Y29083
X51054Y29083
X59385Y6807
X62586Y7211
X62636Y6525
X64846Y7188
X43053Y23368
X43053Y38354
X41402Y22860
X41402Y34722
X50038Y8890
X39878Y8890
X39751Y26670
X58039Y20320
X53975Y14986
X69596Y29337
X66294Y29337
X69596Y10922
X61519Y10973
X58115Y635
X55575Y635
X51943Y14249
X53162Y635
X48158Y7137
X44856Y8230
X43688Y1270
X48768Y1270
X54483Y18034
X43815Y6985
X46736Y7620
X55042Y18593
X99212Y12090
X92710Y24638
X94234Y24638
X90424Y21590
X92710Y23368
X94234Y23368
X72771Y40259
X72771Y38735
X72771Y37211
X72771Y35687
X72771Y34163
X72771Y32639
X105664Y30226
X101600Y29210
X94234Y21590
X89027Y14986
X85979Y8128
X76505Y9576
X77343Y12954
X102870Y12827
X102870Y7239
X97333Y3734
X79121Y39243
X78105Y34417
X78359Y22860
X75057Y26416
X83591Y12649
X79121Y12573
X81661Y11176
X89916Y40640
X106426Y40640
X98806Y1270
X73406Y6350
X85395Y25552
X85344Y29058
X80442Y21107
X85192Y21082
X92659Y9601
X90907Y15138
X85522Y7061
X92939Y660
X90399Y635
X87401Y3962
X105664Y10033
X78105Y30607
X101346Y39370
X101346Y36830
X101346Y31750
X101346Y25400
X101346Y19050
X78486Y19050
X74676Y19050
X76581Y39243
X105537Y36830
X95606Y12929
X94996Y36830
X94996Y34290
X94996Y31750
X89916Y31750
X89916Y34290
X84836Y34290
X84836Y36830
X84836Y39370
X94996Y39370
X73406Y30480
X107061Y25146
X107061Y18796
X107061Y34036
X93726Y12319
X78740Y7112
X98247Y11506
X94310Y9601
X92659Y4343
X88443Y8484
X95504Y5664
X100025Y11506
X89789Y29083
X88519Y29083
X91186Y29083
X86995Y18923
X76708Y34163
X90145Y5512
X93853Y16154
X98298Y3886
X92456Y29083
X87122Y29083
X95453Y6807
X98654Y7211
X98704Y6525
X100914Y7188
X79121Y23368
X79121Y38354
X77470Y22860
X77470Y34722
X86106Y8890
X75946Y8890
X75819Y26670
X94107Y20320
X90043Y14986
X105664Y29337
X102362Y29337
X105664Y10922
X97587Y10973
X94183Y635
X91643Y635
X88011Y14249
X89230Y635
X84226Y7137
X80924Y8230
X79756Y1270
X84836Y1270
X90551Y18034
X79883Y6985
X82804Y7620
X91110Y18593
X27076Y74828
X20574Y87376
X22098Y87376
X18288Y84328
X20574Y86106
X22098Y86106
X635Y102997
X635Y101473
X635Y99949
X635Y98425
X635Y96901
X635Y95377
X33528Y92964
X29464Y91948
X22098Y84328
X16891Y77724
X13843Y70866
X4369Y72314
X5207Y75692
X30734Y75565
X30734Y69977
X25197Y66472
X6985Y101981
X5969Y97155
X6223Y85598
X2921Y89154
X11455Y75387
X6985Y75311
X9525Y73914
X17780Y103378
X34290Y103378
X26670Y64008
X1270Y69088
X13259Y88290
X13208Y91796
X8306Y83845
X13056Y83820
X20523Y72339
X18771Y77876
X13386Y69799
X20803Y63398
X18263Y63373
X15265Y66700
X33528Y72771
X5969Y93345
X29210Y102108
X29210Y99568
X29210Y94488
X29210Y88138
X29210Y81788
X6350Y81788
X2540Y81788
X4445Y101981
X33401Y99568
X23470Y75667
X22860Y99568
X22860Y97028
X22860Y94488
X17780Y94488
X17780Y97028
X12700Y97028
X12700Y99568
X12700Y102108
X22860Y102108
X1270Y93218
X34925Y87884
X34925Y81534
X34925Y96774
X21590Y75057
X6604Y69850
X26111Y74244
X22174Y72339
X20523Y67081
X16307Y71222
X23368Y68402
X27889Y74244
X17653Y91821
X16383Y91821
X19050Y91821
X14859Y81661
X4572Y96901
X18009Y68250
X21717Y78892
X26162Y66624
X12090Y7137
X14986Y91821
X23317Y69545
X26518Y69949
X26568Y69263
X28778Y69926
X6985Y86106
X6985Y101092
X5334Y85598
X5334Y97460
X13970Y71628
X3810Y71628
X3683Y89408
X21971Y83058
X17907Y77724
X33528Y92075
X30226Y92075
X33528Y73660
X25451Y73711
X22047Y63373
X19507Y63373
X15875Y76987
X17094Y63373
X12090Y69875
X8788Y70968
X7620Y64008
X12700Y64008
X18415Y80772
X7747Y69723
X10668Y70358
X18974Y81331
X63144Y74828
X56642Y87376
X58166Y87376
X54356Y84328
X56642Y86106
X58166Y86106
X36703Y102997
X36703Y101473
X36703Y99949
X36703Y98425
X36703Y96901
X36703Y95377
X69596Y92964
X65532Y91948
X58166Y84328
X52959Y77724
X49911Y70866
X40437Y72314
X41275Y75692
X66802Y75565
X66802Y69977
X61265Y66472
X43053Y101981
X42037Y97155
X42291Y85598
X38989Y89154
X47523Y75387
X43053Y75311
X45593Y73914
X53848Y103378
X70358Y103378
X62738Y64008
X37338Y69088
X49327Y88290
X49276Y91796
X44374Y83845
X49124Y83820
X56591Y72339
X54839Y77876
X49454Y69799
X56871Y63398
X54331Y63373
X51333Y66700
X69596Y72771
X42037Y93345
X65278Y102108
X65278Y99568
X65278Y94488
X65278Y88138
X65278Y81788
X42418Y81788
X38608Y81788
X40513Y101981
X69469Y99568
X59538Y75667
X58928Y99568
X58928Y97028
X58928Y94488
X53848Y94488
X53848Y97028
X48768Y97028
X48768Y99568
X48768Y102108
X58928Y102108
X37338Y93218
X70993Y87884
X70993Y81534
X70993Y96774
X57658Y75057
X42672Y69850
X62179Y74244
X58242Y72339
X56591Y67081
X52375Y71222
X59436Y68402
X63957Y74244
X53721Y91821
X52451Y91821
X55118Y91821
X50927Y81661
X40640Y96901
X54077Y68250
X57785Y78892
X62230Y66624
X56388Y91821
X51054Y91821
X59385Y69545
X62586Y69949
X62636Y69263
X64846Y69926
X43053Y86106
X43053Y101092
X41402Y85598
X41402Y97460
X50038Y71628
X39878Y71628
X39751Y89408
X58039Y83058
X53975Y77724
X69596Y92075
X66294Y92075
X69596Y73660
X61519Y73711
X58115Y63373
X55575Y63373
X51943Y76987
X53162Y63373
X48158Y69875
X44856Y70968
X43688Y64008
X48768Y64008
X54483Y80772
X43815Y69723
X46736Y70358
X55042Y81331
X99212Y74828
X92710Y87376
X94234Y87376
X90424Y84328
X92710Y86106
X94234Y86106
X72771Y102997
X72771Y101473
X72771Y99949
X72771Y98425
X72771Y96901
X72771Y95377
X105664Y92964
X101600Y91948
X94234Y84328
X89027Y77724
X85979Y70866
X76505Y72314
X77343Y75692
X102870Y75565
X102870Y69977
X97333Y66472
X79121Y101981
X78105Y97155
X78359Y85598
X75057Y89154
X83591Y75387
X79121Y75311
X81661Y73914
X89916Y103378
X106426Y103378
X98806Y64008
X73406Y69088
X85395Y88290
X85344Y91796
X80442Y83845
X85192Y83820
X92659Y72339
X90907Y77876
X85522Y69799
X92939Y63398
X90399Y63373
X87401Y66700
X105664Y72771
X78105Y93345
X101346Y102108
X101346Y99568
X101346Y94488
X101346Y88138
X101346Y81788
X78486Y81788
X74676Y81788
X76581Y101981
X105537Y99568
X95606Y75667
X94996Y99568
X94996Y97028
X94996Y94488
X89916Y94488
X89916Y97028
X84836Y97028
X84836Y99568
X84836Y102108
X94996Y102108
X73406Y93218
X107061Y87884
X107061Y81534
X107061Y96774
X27076Y12090
X78740Y69850
X98247Y74244
X94310Y72339
X92659Y67081
X88443Y71222
X95504Y68402
X100025Y74244
X89789Y91821
X88519Y91821
X91186Y91821
X86995Y81661
X76708Y96901
X90145Y68250
X93853Y78892
X98298Y66624
X92456Y91821
X87122Y91821
X95453Y69545
X98654Y69949
X98704Y69263
X100914Y69926
X79121Y86106
X79121Y101092
X77470Y85598
X77470Y97460
X86106Y71628
X75946Y71628
X75819Y89408
X94107Y83058
X90043Y77724
X105664Y92075
X102362Y92075
X105664Y73660
X97587Y73711
X94183Y63373
X91643Y63373
X88011Y76987
X89230Y63373
X84226Y69875
X80924Y70968
X79756Y64008
X84836Y64008
X90551Y80772
X79883Y69723
X82804Y70358
X91110Y81331
X20574Y24638
X22098Y24638
X18288Y21590
X20574Y23368
X22098Y23368
X635Y40259
X635Y38735
X635Y37211
X635Y35687
X635Y34163
X635Y32639
X33528Y30226
X29464Y29210
X22098Y21590
X16891Y14986
X13843Y8128
X4369Y9576
X5207Y12954
X30734Y12827
X30734Y7239
X25197Y3734
X6985Y39243
X5969Y34417
X6223Y22860
X2921Y26416
X11455Y12649
X6985Y12573
X9525Y11176
X17780Y40640
X34290Y40640
X26670Y1270
X1270Y6350
X13259Y25552
X13208Y29058
X8306Y21107
X13056Y21082
X20523Y9601
X18771Y15138
X13386Y7061
X20803Y660
X18263Y635
X15265Y3962
X33528Y10033
X5969Y30607
X29210Y39370
X29210Y36830
X29210Y31750
X29210Y25400
X29210Y19050
X6350Y19050
X2540Y19050
X4445Y39243
X33401Y36830
X23470Y12929
X22860Y36830
X22860Y34290
X22860Y31750
X17780Y31750
X17780Y34290
X12700Y34290
X20320Y91821
X12700Y36830
X12700Y39370
X22860Y39370
X1270Y30480
X34925Y25146
X34925Y18796
X34925Y34036
X21590Y12319
X6604Y7112
X26111Y11506
X22174Y9601
X20523Y4343
X16307Y8484
X23368Y5664
X27889Y11506
X17653Y29083
X16383Y29083
X19050Y29083
X14859Y18923
X4572Y34163
X18009Y5512
X21717Y16154
X26162Y3886
X20320Y29083
X14986Y29083
X23317Y6807
X26518Y7211
X26568Y6525
X28778Y7188
X6985Y23368
X6985Y38354
X5334Y22860
X5334Y34722
X13970Y8890
X3810Y8890
X3683Y26670
X21971Y20320
X17907Y14986
X33528Y29337
X30226Y29337
X33528Y10922
X25451Y10973
X22047Y635
X19507Y635
X15875Y14249
X17094Y635
X8788Y8230
X7620Y1270
X12700Y1270
X18415Y18034
X7747Y6985
X10668Y7620
X18974Y18593
X63144Y12090
X56642Y24638
X58166Y24638
X54356Y21590
X56642Y23368
X58166Y23368
X36703Y40259
X36703Y38735
X36703Y37211
X36703Y35687
X36703Y34163
X36703Y32639
X69596Y30226
X65532Y29210
X58166Y21590
X52959Y14986
X49911Y8128
X40437Y9576
X41275Y12954
X66802Y12827
X66802Y7239
X61265Y3734
X43053Y39243
X42037Y34417
X42291Y22860
X38989Y26416
X47523Y12649
X43053Y12573
X45593Y11176
X53848Y40640
X70358Y40640
X62738Y1270
X37338Y6350
X49327Y25552
X49276Y29058
X44374Y21107
X49124Y21082
X56591Y9601
X54839Y15138
X49454Y7061
X56871Y660
X54331Y635
X51333Y3962
X69596Y10033
X42037Y30607
X65278Y39370
X65278Y36830
X65278Y31750
X65278Y25400
X65278Y19050
X42418Y19050
X38608Y19050
X40513Y39243
X93726Y75057
M30