G04 EAGLE Gerber RS-274X export*
G75*
%MOMM*%
%FSLAX34Y34*%
%LPD*%
%INSoldermask Bottom*%
%IPPOS*%
%AMOC8*
5,1,8,0,0,1.08239X$1,22.5*%
G01*
%ADD10C,0.228344*%
%ADD11C,1.127000*%
%ADD12C,2.006600*%
%ADD13C,3.175000*%
%ADD14C,0.777000*%
%ADD15C,1.270000*%
%ADD16C,1.627000*%

G36*
X896685Y21312D02*
X896685Y21312D01*
X896751Y21314D01*
X896794Y21332D01*
X896841Y21340D01*
X896898Y21373D01*
X896958Y21398D01*
X896993Y21430D01*
X897034Y21454D01*
X897076Y21505D01*
X897124Y21550D01*
X897146Y21592D01*
X897175Y21628D01*
X897196Y21691D01*
X897227Y21749D01*
X897235Y21804D01*
X897247Y21841D01*
X897246Y21880D01*
X897254Y21935D01*
X897254Y25745D01*
X897243Y25809D01*
X897241Y25875D01*
X897223Y25919D01*
X897215Y25965D01*
X897181Y26022D01*
X897156Y26083D01*
X897125Y26118D01*
X897100Y26159D01*
X897049Y26200D01*
X897005Y26249D01*
X896963Y26270D01*
X896926Y26300D01*
X896864Y26321D01*
X896805Y26351D01*
X896751Y26359D01*
X896714Y26372D01*
X896674Y26371D01*
X896620Y26379D01*
X894080Y26379D01*
X894015Y26367D01*
X893949Y26365D01*
X893906Y26347D01*
X893859Y26339D01*
X893802Y26306D01*
X893742Y26281D01*
X893707Y26249D01*
X893666Y26225D01*
X893625Y26174D01*
X893576Y26129D01*
X893554Y26087D01*
X893525Y26051D01*
X893504Y25989D01*
X893473Y25930D01*
X893465Y25875D01*
X893453Y25838D01*
X893453Y25834D01*
X893454Y25798D01*
X893446Y25745D01*
X893446Y21935D01*
X893457Y21870D01*
X893459Y21804D01*
X893477Y21760D01*
X893485Y21714D01*
X893519Y21657D01*
X893544Y21596D01*
X893575Y21561D01*
X893600Y21520D01*
X893651Y21479D01*
X893695Y21430D01*
X893737Y21409D01*
X893774Y21379D01*
X893836Y21358D01*
X893895Y21328D01*
X893949Y21320D01*
X893986Y21307D01*
X894026Y21308D01*
X894080Y21300D01*
X896620Y21300D01*
X896685Y21312D01*
G37*
G36*
X536005Y21312D02*
X536005Y21312D01*
X536071Y21314D01*
X536114Y21332D01*
X536161Y21340D01*
X536218Y21373D01*
X536278Y21398D01*
X536313Y21430D01*
X536354Y21454D01*
X536396Y21505D01*
X536444Y21550D01*
X536466Y21592D01*
X536495Y21628D01*
X536516Y21691D01*
X536547Y21749D01*
X536555Y21804D01*
X536567Y21841D01*
X536566Y21880D01*
X536574Y21935D01*
X536574Y25745D01*
X536563Y25809D01*
X536561Y25875D01*
X536543Y25919D01*
X536535Y25965D01*
X536501Y26022D01*
X536476Y26083D01*
X536445Y26118D01*
X536420Y26159D01*
X536369Y26200D01*
X536325Y26249D01*
X536283Y26270D01*
X536246Y26300D01*
X536184Y26321D01*
X536125Y26351D01*
X536071Y26359D01*
X536034Y26372D01*
X535994Y26371D01*
X535940Y26379D01*
X533400Y26379D01*
X533335Y26367D01*
X533269Y26365D01*
X533226Y26347D01*
X533179Y26339D01*
X533122Y26306D01*
X533062Y26281D01*
X533027Y26249D01*
X532986Y26225D01*
X532945Y26174D01*
X532896Y26129D01*
X532874Y26087D01*
X532845Y26051D01*
X532824Y25989D01*
X532793Y25930D01*
X532785Y25875D01*
X532773Y25838D01*
X532773Y25834D01*
X532774Y25798D01*
X532766Y25745D01*
X532766Y21935D01*
X532777Y21870D01*
X532779Y21804D01*
X532797Y21760D01*
X532805Y21714D01*
X532839Y21657D01*
X532864Y21596D01*
X532895Y21561D01*
X532920Y21520D01*
X532971Y21479D01*
X533015Y21430D01*
X533057Y21409D01*
X533094Y21379D01*
X533156Y21358D01*
X533215Y21328D01*
X533269Y21320D01*
X533306Y21307D01*
X533346Y21308D01*
X533400Y21300D01*
X535940Y21300D01*
X536005Y21312D01*
G37*
G36*
X1306895Y21312D02*
X1306895Y21312D01*
X1306961Y21314D01*
X1307004Y21332D01*
X1307051Y21340D01*
X1307108Y21373D01*
X1307168Y21398D01*
X1307203Y21430D01*
X1307244Y21454D01*
X1307286Y21505D01*
X1307334Y21550D01*
X1307356Y21592D01*
X1307385Y21628D01*
X1307406Y21691D01*
X1307437Y21749D01*
X1307445Y21804D01*
X1307457Y21841D01*
X1307456Y21880D01*
X1307464Y21935D01*
X1307464Y25745D01*
X1307453Y25809D01*
X1307451Y25875D01*
X1307433Y25919D01*
X1307425Y25965D01*
X1307391Y26022D01*
X1307366Y26083D01*
X1307335Y26118D01*
X1307310Y26159D01*
X1307259Y26200D01*
X1307215Y26249D01*
X1307173Y26270D01*
X1307136Y26300D01*
X1307074Y26321D01*
X1307015Y26351D01*
X1306961Y26359D01*
X1306924Y26372D01*
X1306884Y26371D01*
X1306830Y26379D01*
X1304290Y26379D01*
X1304225Y26367D01*
X1304159Y26365D01*
X1304116Y26347D01*
X1304069Y26339D01*
X1304012Y26306D01*
X1303952Y26281D01*
X1303917Y26249D01*
X1303876Y26225D01*
X1303835Y26174D01*
X1303786Y26129D01*
X1303764Y26087D01*
X1303735Y26051D01*
X1303714Y25989D01*
X1303683Y25930D01*
X1303675Y25875D01*
X1303663Y25838D01*
X1303663Y25834D01*
X1303664Y25798D01*
X1303656Y25745D01*
X1303656Y21935D01*
X1303667Y21870D01*
X1303669Y21804D01*
X1303687Y21760D01*
X1303695Y21714D01*
X1303729Y21657D01*
X1303754Y21596D01*
X1303785Y21561D01*
X1303810Y21520D01*
X1303861Y21479D01*
X1303905Y21430D01*
X1303947Y21409D01*
X1303984Y21379D01*
X1304046Y21358D01*
X1304105Y21328D01*
X1304159Y21320D01*
X1304196Y21307D01*
X1304236Y21308D01*
X1304290Y21300D01*
X1306830Y21300D01*
X1306895Y21312D01*
G37*
G36*
X224855Y21312D02*
X224855Y21312D01*
X224921Y21314D01*
X224964Y21332D01*
X225011Y21340D01*
X225068Y21373D01*
X225128Y21398D01*
X225163Y21430D01*
X225204Y21454D01*
X225246Y21505D01*
X225294Y21550D01*
X225316Y21592D01*
X225345Y21628D01*
X225366Y21691D01*
X225397Y21749D01*
X225405Y21804D01*
X225417Y21841D01*
X225416Y21880D01*
X225424Y21935D01*
X225424Y25745D01*
X225413Y25809D01*
X225411Y25875D01*
X225393Y25919D01*
X225385Y25965D01*
X225351Y26022D01*
X225326Y26083D01*
X225295Y26118D01*
X225270Y26159D01*
X225219Y26200D01*
X225175Y26249D01*
X225133Y26270D01*
X225096Y26300D01*
X225034Y26321D01*
X224975Y26351D01*
X224921Y26359D01*
X224884Y26372D01*
X224844Y26371D01*
X224790Y26379D01*
X222250Y26379D01*
X222185Y26367D01*
X222119Y26365D01*
X222076Y26347D01*
X222029Y26339D01*
X221972Y26306D01*
X221912Y26281D01*
X221877Y26249D01*
X221836Y26225D01*
X221795Y26174D01*
X221746Y26129D01*
X221724Y26087D01*
X221695Y26051D01*
X221674Y25989D01*
X221643Y25930D01*
X221635Y25875D01*
X221623Y25838D01*
X221623Y25834D01*
X221624Y25798D01*
X221616Y25745D01*
X221616Y21935D01*
X221627Y21870D01*
X221629Y21804D01*
X221647Y21760D01*
X221655Y21714D01*
X221689Y21657D01*
X221714Y21596D01*
X221745Y21561D01*
X221770Y21520D01*
X221821Y21479D01*
X221865Y21430D01*
X221907Y21409D01*
X221944Y21379D01*
X222006Y21358D01*
X222065Y21328D01*
X222119Y21320D01*
X222156Y21307D01*
X222196Y21308D01*
X222250Y21300D01*
X224790Y21300D01*
X224855Y21312D01*
G37*
G36*
X946215Y21312D02*
X946215Y21312D01*
X946281Y21314D01*
X946324Y21332D01*
X946371Y21340D01*
X946428Y21373D01*
X946488Y21398D01*
X946523Y21430D01*
X946564Y21454D01*
X946606Y21505D01*
X946654Y21550D01*
X946676Y21592D01*
X946705Y21628D01*
X946726Y21691D01*
X946757Y21749D01*
X946765Y21804D01*
X946777Y21841D01*
X946776Y21880D01*
X946784Y21935D01*
X946784Y25745D01*
X946773Y25809D01*
X946771Y25875D01*
X946753Y25919D01*
X946745Y25965D01*
X946711Y26022D01*
X946686Y26083D01*
X946655Y26118D01*
X946630Y26159D01*
X946579Y26200D01*
X946535Y26249D01*
X946493Y26270D01*
X946456Y26300D01*
X946394Y26321D01*
X946335Y26351D01*
X946281Y26359D01*
X946244Y26372D01*
X946204Y26371D01*
X946150Y26379D01*
X943610Y26379D01*
X943545Y26367D01*
X943479Y26365D01*
X943436Y26347D01*
X943389Y26339D01*
X943332Y26306D01*
X943272Y26281D01*
X943237Y26249D01*
X943196Y26225D01*
X943155Y26174D01*
X943106Y26129D01*
X943084Y26087D01*
X943055Y26051D01*
X943034Y25989D01*
X943003Y25930D01*
X942995Y25875D01*
X942983Y25838D01*
X942983Y25834D01*
X942984Y25798D01*
X942976Y25745D01*
X942976Y21935D01*
X942987Y21870D01*
X942989Y21804D01*
X943007Y21760D01*
X943015Y21714D01*
X943049Y21657D01*
X943074Y21596D01*
X943105Y21561D01*
X943130Y21520D01*
X943181Y21479D01*
X943225Y21430D01*
X943267Y21409D01*
X943304Y21379D01*
X943366Y21358D01*
X943425Y21328D01*
X943479Y21320D01*
X943516Y21307D01*
X943556Y21308D01*
X943610Y21300D01*
X946150Y21300D01*
X946215Y21312D01*
G37*
G36*
X585535Y21312D02*
X585535Y21312D01*
X585601Y21314D01*
X585644Y21332D01*
X585691Y21340D01*
X585748Y21373D01*
X585808Y21398D01*
X585843Y21430D01*
X585884Y21454D01*
X585926Y21505D01*
X585974Y21550D01*
X585996Y21592D01*
X586025Y21628D01*
X586046Y21691D01*
X586077Y21749D01*
X586085Y21804D01*
X586097Y21841D01*
X586096Y21880D01*
X586104Y21935D01*
X586104Y25745D01*
X586093Y25809D01*
X586091Y25875D01*
X586073Y25919D01*
X586065Y25965D01*
X586031Y26022D01*
X586006Y26083D01*
X585975Y26118D01*
X585950Y26159D01*
X585899Y26200D01*
X585855Y26249D01*
X585813Y26270D01*
X585776Y26300D01*
X585714Y26321D01*
X585655Y26351D01*
X585601Y26359D01*
X585564Y26372D01*
X585524Y26371D01*
X585470Y26379D01*
X582930Y26379D01*
X582865Y26367D01*
X582799Y26365D01*
X582756Y26347D01*
X582709Y26339D01*
X582652Y26306D01*
X582592Y26281D01*
X582557Y26249D01*
X582516Y26225D01*
X582475Y26174D01*
X582426Y26129D01*
X582404Y26087D01*
X582375Y26051D01*
X582354Y25989D01*
X582323Y25930D01*
X582315Y25875D01*
X582303Y25838D01*
X582303Y25834D01*
X582304Y25798D01*
X582296Y25745D01*
X582296Y21935D01*
X582307Y21870D01*
X582309Y21804D01*
X582327Y21760D01*
X582335Y21714D01*
X582369Y21657D01*
X582394Y21596D01*
X582425Y21561D01*
X582450Y21520D01*
X582501Y21479D01*
X582545Y21430D01*
X582587Y21409D01*
X582624Y21379D01*
X582686Y21358D01*
X582745Y21328D01*
X582799Y21320D01*
X582836Y21307D01*
X582876Y21308D01*
X582930Y21300D01*
X585470Y21300D01*
X585535Y21312D01*
G37*
G36*
X175325Y21312D02*
X175325Y21312D01*
X175391Y21314D01*
X175434Y21332D01*
X175481Y21340D01*
X175538Y21373D01*
X175598Y21398D01*
X175633Y21430D01*
X175674Y21454D01*
X175716Y21505D01*
X175764Y21550D01*
X175786Y21592D01*
X175815Y21628D01*
X175836Y21691D01*
X175867Y21749D01*
X175875Y21804D01*
X175887Y21841D01*
X175886Y21880D01*
X175894Y21935D01*
X175894Y25745D01*
X175883Y25809D01*
X175881Y25875D01*
X175863Y25919D01*
X175855Y25965D01*
X175821Y26022D01*
X175796Y26083D01*
X175765Y26118D01*
X175740Y26159D01*
X175689Y26200D01*
X175645Y26249D01*
X175603Y26270D01*
X175566Y26300D01*
X175504Y26321D01*
X175445Y26351D01*
X175391Y26359D01*
X175354Y26372D01*
X175314Y26371D01*
X175260Y26379D01*
X172720Y26379D01*
X172655Y26367D01*
X172589Y26365D01*
X172546Y26347D01*
X172499Y26339D01*
X172442Y26306D01*
X172382Y26281D01*
X172347Y26249D01*
X172306Y26225D01*
X172265Y26174D01*
X172216Y26129D01*
X172194Y26087D01*
X172165Y26051D01*
X172144Y25989D01*
X172113Y25930D01*
X172105Y25875D01*
X172093Y25838D01*
X172093Y25834D01*
X172094Y25798D01*
X172086Y25745D01*
X172086Y21935D01*
X172097Y21870D01*
X172099Y21804D01*
X172117Y21760D01*
X172125Y21714D01*
X172159Y21657D01*
X172184Y21596D01*
X172215Y21561D01*
X172240Y21520D01*
X172291Y21479D01*
X172335Y21430D01*
X172377Y21409D01*
X172414Y21379D01*
X172476Y21358D01*
X172535Y21328D01*
X172589Y21320D01*
X172626Y21307D01*
X172666Y21308D01*
X172720Y21300D01*
X175260Y21300D01*
X175325Y21312D01*
G37*
G36*
X1257365Y21312D02*
X1257365Y21312D01*
X1257431Y21314D01*
X1257474Y21332D01*
X1257521Y21340D01*
X1257578Y21373D01*
X1257638Y21398D01*
X1257673Y21430D01*
X1257714Y21454D01*
X1257756Y21505D01*
X1257804Y21550D01*
X1257826Y21592D01*
X1257855Y21628D01*
X1257876Y21691D01*
X1257907Y21749D01*
X1257915Y21804D01*
X1257927Y21841D01*
X1257926Y21880D01*
X1257934Y21935D01*
X1257934Y25745D01*
X1257923Y25809D01*
X1257921Y25875D01*
X1257903Y25919D01*
X1257895Y25965D01*
X1257861Y26022D01*
X1257836Y26083D01*
X1257805Y26118D01*
X1257780Y26159D01*
X1257729Y26200D01*
X1257685Y26249D01*
X1257643Y26270D01*
X1257606Y26300D01*
X1257544Y26321D01*
X1257485Y26351D01*
X1257431Y26359D01*
X1257394Y26372D01*
X1257354Y26371D01*
X1257300Y26379D01*
X1254760Y26379D01*
X1254695Y26367D01*
X1254629Y26365D01*
X1254586Y26347D01*
X1254539Y26339D01*
X1254482Y26306D01*
X1254422Y26281D01*
X1254387Y26249D01*
X1254346Y26225D01*
X1254305Y26174D01*
X1254256Y26129D01*
X1254234Y26087D01*
X1254205Y26051D01*
X1254184Y25989D01*
X1254153Y25930D01*
X1254145Y25875D01*
X1254133Y25838D01*
X1254133Y25834D01*
X1254134Y25798D01*
X1254126Y25745D01*
X1254126Y21935D01*
X1254137Y21870D01*
X1254139Y21804D01*
X1254157Y21760D01*
X1254165Y21714D01*
X1254199Y21657D01*
X1254224Y21596D01*
X1254255Y21561D01*
X1254280Y21520D01*
X1254331Y21479D01*
X1254375Y21430D01*
X1254417Y21409D01*
X1254454Y21379D01*
X1254516Y21358D01*
X1254575Y21328D01*
X1254629Y21320D01*
X1254666Y21307D01*
X1254706Y21308D01*
X1254760Y21300D01*
X1257300Y21300D01*
X1257365Y21312D01*
G37*
G36*
X1278447Y20296D02*
X1278447Y20296D01*
X1278513Y20298D01*
X1278556Y20316D01*
X1278603Y20324D01*
X1278660Y20357D01*
X1278720Y20382D01*
X1278755Y20414D01*
X1278796Y20438D01*
X1278838Y20489D01*
X1278886Y20534D01*
X1278908Y20576D01*
X1278937Y20612D01*
X1278958Y20675D01*
X1278989Y20733D01*
X1278997Y20788D01*
X1279009Y20825D01*
X1279008Y20864D01*
X1279016Y20919D01*
X1279016Y24729D01*
X1279005Y24793D01*
X1279003Y24859D01*
X1278985Y24903D01*
X1278977Y24949D01*
X1278943Y25006D01*
X1278918Y25067D01*
X1278887Y25102D01*
X1278862Y25143D01*
X1278811Y25184D01*
X1278767Y25233D01*
X1278725Y25254D01*
X1278688Y25284D01*
X1278626Y25305D01*
X1278567Y25335D01*
X1278513Y25343D01*
X1278476Y25356D01*
X1278436Y25355D01*
X1278382Y25363D01*
X1275842Y25363D01*
X1275777Y25351D01*
X1275711Y25349D01*
X1275668Y25331D01*
X1275621Y25323D01*
X1275564Y25290D01*
X1275504Y25265D01*
X1275469Y25233D01*
X1275428Y25209D01*
X1275387Y25158D01*
X1275338Y25113D01*
X1275316Y25071D01*
X1275287Y25035D01*
X1275266Y24973D01*
X1275235Y24914D01*
X1275227Y24859D01*
X1275215Y24822D01*
X1275215Y24818D01*
X1275216Y24782D01*
X1275208Y24729D01*
X1275208Y20919D01*
X1275219Y20854D01*
X1275221Y20788D01*
X1275239Y20744D01*
X1275247Y20698D01*
X1275281Y20641D01*
X1275306Y20580D01*
X1275337Y20545D01*
X1275362Y20504D01*
X1275413Y20463D01*
X1275457Y20414D01*
X1275499Y20393D01*
X1275536Y20363D01*
X1275598Y20342D01*
X1275657Y20312D01*
X1275711Y20304D01*
X1275748Y20291D01*
X1275788Y20292D01*
X1275842Y20284D01*
X1278382Y20284D01*
X1278447Y20296D01*
G37*
G36*
X557087Y20296D02*
X557087Y20296D01*
X557153Y20298D01*
X557196Y20316D01*
X557243Y20324D01*
X557300Y20357D01*
X557360Y20382D01*
X557395Y20414D01*
X557436Y20438D01*
X557478Y20489D01*
X557526Y20534D01*
X557548Y20576D01*
X557577Y20612D01*
X557598Y20675D01*
X557629Y20733D01*
X557637Y20788D01*
X557649Y20825D01*
X557648Y20864D01*
X557656Y20919D01*
X557656Y24729D01*
X557645Y24793D01*
X557643Y24859D01*
X557625Y24903D01*
X557617Y24949D01*
X557583Y25006D01*
X557558Y25067D01*
X557527Y25102D01*
X557502Y25143D01*
X557451Y25184D01*
X557407Y25233D01*
X557365Y25254D01*
X557328Y25284D01*
X557266Y25305D01*
X557207Y25335D01*
X557153Y25343D01*
X557116Y25356D01*
X557076Y25355D01*
X557022Y25363D01*
X554482Y25363D01*
X554417Y25351D01*
X554351Y25349D01*
X554308Y25331D01*
X554261Y25323D01*
X554204Y25290D01*
X554144Y25265D01*
X554109Y25233D01*
X554068Y25209D01*
X554027Y25158D01*
X553978Y25113D01*
X553956Y25071D01*
X553927Y25035D01*
X553906Y24973D01*
X553875Y24914D01*
X553867Y24859D01*
X553855Y24822D01*
X553855Y24818D01*
X553856Y24782D01*
X553848Y24729D01*
X553848Y20919D01*
X553859Y20854D01*
X553861Y20788D01*
X553879Y20744D01*
X553887Y20698D01*
X553921Y20641D01*
X553946Y20580D01*
X553977Y20545D01*
X554002Y20504D01*
X554053Y20463D01*
X554097Y20414D01*
X554139Y20393D01*
X554176Y20363D01*
X554238Y20342D01*
X554297Y20312D01*
X554351Y20304D01*
X554388Y20291D01*
X554428Y20292D01*
X554482Y20284D01*
X557022Y20284D01*
X557087Y20296D01*
G37*
G36*
X917767Y20296D02*
X917767Y20296D01*
X917833Y20298D01*
X917876Y20316D01*
X917923Y20324D01*
X917980Y20357D01*
X918040Y20382D01*
X918075Y20414D01*
X918116Y20438D01*
X918158Y20489D01*
X918206Y20534D01*
X918228Y20576D01*
X918257Y20612D01*
X918278Y20675D01*
X918309Y20733D01*
X918317Y20788D01*
X918329Y20825D01*
X918328Y20864D01*
X918336Y20919D01*
X918336Y24729D01*
X918325Y24793D01*
X918323Y24859D01*
X918305Y24903D01*
X918297Y24949D01*
X918263Y25006D01*
X918238Y25067D01*
X918207Y25102D01*
X918182Y25143D01*
X918131Y25184D01*
X918087Y25233D01*
X918045Y25254D01*
X918008Y25284D01*
X917946Y25305D01*
X917887Y25335D01*
X917833Y25343D01*
X917796Y25356D01*
X917756Y25355D01*
X917702Y25363D01*
X915162Y25363D01*
X915097Y25351D01*
X915031Y25349D01*
X914988Y25331D01*
X914941Y25323D01*
X914884Y25290D01*
X914824Y25265D01*
X914789Y25233D01*
X914748Y25209D01*
X914707Y25158D01*
X914658Y25113D01*
X914636Y25071D01*
X914607Y25035D01*
X914586Y24973D01*
X914555Y24914D01*
X914547Y24859D01*
X914535Y24822D01*
X914535Y24818D01*
X914536Y24782D01*
X914528Y24729D01*
X914528Y20919D01*
X914539Y20854D01*
X914541Y20788D01*
X914559Y20744D01*
X914567Y20698D01*
X914601Y20641D01*
X914626Y20580D01*
X914657Y20545D01*
X914682Y20504D01*
X914733Y20463D01*
X914777Y20414D01*
X914819Y20393D01*
X914856Y20363D01*
X914918Y20342D01*
X914977Y20312D01*
X915031Y20304D01*
X915068Y20291D01*
X915108Y20292D01*
X915162Y20284D01*
X917702Y20284D01*
X917767Y20296D01*
G37*
G36*
X196407Y20296D02*
X196407Y20296D01*
X196473Y20298D01*
X196516Y20316D01*
X196563Y20324D01*
X196620Y20357D01*
X196680Y20382D01*
X196715Y20414D01*
X196756Y20438D01*
X196798Y20489D01*
X196846Y20534D01*
X196868Y20576D01*
X196897Y20612D01*
X196918Y20675D01*
X196949Y20733D01*
X196957Y20788D01*
X196969Y20825D01*
X196968Y20864D01*
X196976Y20919D01*
X196976Y24729D01*
X196965Y24793D01*
X196963Y24859D01*
X196945Y24903D01*
X196937Y24949D01*
X196903Y25006D01*
X196878Y25067D01*
X196847Y25102D01*
X196822Y25143D01*
X196771Y25184D01*
X196727Y25233D01*
X196685Y25254D01*
X196648Y25284D01*
X196586Y25305D01*
X196527Y25335D01*
X196473Y25343D01*
X196436Y25356D01*
X196396Y25355D01*
X196342Y25363D01*
X193802Y25363D01*
X193737Y25351D01*
X193671Y25349D01*
X193628Y25331D01*
X193581Y25323D01*
X193524Y25290D01*
X193464Y25265D01*
X193429Y25233D01*
X193388Y25209D01*
X193347Y25158D01*
X193298Y25113D01*
X193276Y25071D01*
X193247Y25035D01*
X193226Y24973D01*
X193195Y24914D01*
X193187Y24859D01*
X193175Y24822D01*
X193175Y24818D01*
X193176Y24782D01*
X193168Y24729D01*
X193168Y20919D01*
X193179Y20854D01*
X193181Y20788D01*
X193199Y20744D01*
X193207Y20698D01*
X193241Y20641D01*
X193266Y20580D01*
X193297Y20545D01*
X193322Y20504D01*
X193373Y20463D01*
X193417Y20414D01*
X193459Y20393D01*
X193496Y20363D01*
X193558Y20342D01*
X193617Y20312D01*
X193671Y20304D01*
X193708Y20291D01*
X193748Y20292D01*
X193802Y20284D01*
X196342Y20284D01*
X196407Y20296D01*
G37*
G36*
X265622Y87007D02*
X265622Y87007D01*
X265688Y87009D01*
X265731Y87027D01*
X265778Y87035D01*
X265835Y87069D01*
X265895Y87094D01*
X265930Y87125D01*
X265971Y87150D01*
X266013Y87201D01*
X266061Y87245D01*
X266083Y87287D01*
X266112Y87324D01*
X266133Y87386D01*
X266164Y87445D01*
X266172Y87499D01*
X266184Y87536D01*
X266183Y87576D01*
X266191Y87630D01*
X266191Y90170D01*
X266180Y90235D01*
X266178Y90301D01*
X266160Y90344D01*
X266152Y90391D01*
X266118Y90448D01*
X266093Y90508D01*
X266062Y90543D01*
X266037Y90584D01*
X265986Y90626D01*
X265942Y90674D01*
X265900Y90696D01*
X265863Y90725D01*
X265801Y90746D01*
X265742Y90777D01*
X265688Y90785D01*
X265651Y90797D01*
X265611Y90796D01*
X265557Y90804D01*
X261747Y90804D01*
X261682Y90793D01*
X261616Y90791D01*
X261573Y90773D01*
X261526Y90765D01*
X261469Y90731D01*
X261409Y90706D01*
X261374Y90675D01*
X261333Y90650D01*
X261292Y90599D01*
X261243Y90555D01*
X261221Y90513D01*
X261192Y90476D01*
X261171Y90414D01*
X261140Y90355D01*
X261132Y90301D01*
X261120Y90264D01*
X261120Y90261D01*
X261121Y90224D01*
X261113Y90170D01*
X261113Y87630D01*
X261124Y87565D01*
X261126Y87499D01*
X261144Y87456D01*
X261152Y87409D01*
X261186Y87352D01*
X261211Y87292D01*
X261242Y87257D01*
X261267Y87216D01*
X261318Y87175D01*
X261362Y87126D01*
X261404Y87104D01*
X261441Y87075D01*
X261503Y87054D01*
X261562Y87023D01*
X261616Y87015D01*
X261653Y87003D01*
X261693Y87004D01*
X261747Y86996D01*
X265557Y86996D01*
X265622Y87007D01*
G37*
G36*
X986982Y87007D02*
X986982Y87007D01*
X987048Y87009D01*
X987091Y87027D01*
X987138Y87035D01*
X987195Y87069D01*
X987255Y87094D01*
X987290Y87125D01*
X987331Y87150D01*
X987373Y87201D01*
X987421Y87245D01*
X987443Y87287D01*
X987472Y87324D01*
X987493Y87386D01*
X987524Y87445D01*
X987532Y87499D01*
X987544Y87536D01*
X987543Y87576D01*
X987551Y87630D01*
X987551Y90170D01*
X987540Y90235D01*
X987538Y90301D01*
X987520Y90344D01*
X987512Y90391D01*
X987478Y90448D01*
X987453Y90508D01*
X987422Y90543D01*
X987397Y90584D01*
X987346Y90626D01*
X987302Y90674D01*
X987260Y90696D01*
X987223Y90725D01*
X987161Y90746D01*
X987102Y90777D01*
X987048Y90785D01*
X987011Y90797D01*
X986971Y90796D01*
X986917Y90804D01*
X983107Y90804D01*
X983042Y90793D01*
X982976Y90791D01*
X982933Y90773D01*
X982886Y90765D01*
X982829Y90731D01*
X982769Y90706D01*
X982734Y90675D01*
X982693Y90650D01*
X982652Y90599D01*
X982603Y90555D01*
X982581Y90513D01*
X982552Y90476D01*
X982531Y90414D01*
X982500Y90355D01*
X982492Y90301D01*
X982480Y90264D01*
X982480Y90261D01*
X982481Y90224D01*
X982473Y90170D01*
X982473Y87630D01*
X982484Y87565D01*
X982486Y87499D01*
X982504Y87456D01*
X982512Y87409D01*
X982546Y87352D01*
X982571Y87292D01*
X982602Y87257D01*
X982627Y87216D01*
X982678Y87175D01*
X982722Y87126D01*
X982764Y87104D01*
X982801Y87075D01*
X982863Y87054D01*
X982922Y87023D01*
X982976Y87015D01*
X983013Y87003D01*
X983053Y87004D01*
X983107Y86996D01*
X986917Y86996D01*
X986982Y87007D01*
G37*
G36*
X275782Y87007D02*
X275782Y87007D01*
X275848Y87009D01*
X275891Y87027D01*
X275938Y87035D01*
X275995Y87069D01*
X276055Y87094D01*
X276090Y87125D01*
X276131Y87150D01*
X276173Y87201D01*
X276221Y87245D01*
X276243Y87287D01*
X276272Y87324D01*
X276293Y87386D01*
X276324Y87445D01*
X276332Y87499D01*
X276344Y87536D01*
X276343Y87576D01*
X276351Y87630D01*
X276351Y90170D01*
X276340Y90235D01*
X276338Y90301D01*
X276320Y90344D01*
X276312Y90391D01*
X276278Y90448D01*
X276253Y90508D01*
X276222Y90543D01*
X276197Y90584D01*
X276146Y90626D01*
X276102Y90674D01*
X276060Y90696D01*
X276023Y90725D01*
X275961Y90746D01*
X275902Y90777D01*
X275848Y90785D01*
X275811Y90797D01*
X275771Y90796D01*
X275717Y90804D01*
X271907Y90804D01*
X271842Y90793D01*
X271776Y90791D01*
X271733Y90773D01*
X271686Y90765D01*
X271629Y90731D01*
X271569Y90706D01*
X271534Y90675D01*
X271493Y90650D01*
X271452Y90599D01*
X271403Y90555D01*
X271381Y90513D01*
X271352Y90476D01*
X271331Y90414D01*
X271300Y90355D01*
X271292Y90301D01*
X271280Y90264D01*
X271280Y90261D01*
X271281Y90224D01*
X271273Y90170D01*
X271273Y87630D01*
X271284Y87565D01*
X271286Y87499D01*
X271304Y87456D01*
X271312Y87409D01*
X271346Y87352D01*
X271371Y87292D01*
X271402Y87257D01*
X271427Y87216D01*
X271478Y87175D01*
X271522Y87126D01*
X271564Y87104D01*
X271601Y87075D01*
X271663Y87054D01*
X271722Y87023D01*
X271776Y87015D01*
X271813Y87003D01*
X271853Y87004D01*
X271907Y86996D01*
X275717Y86996D01*
X275782Y87007D01*
G37*
G36*
X997142Y87007D02*
X997142Y87007D01*
X997208Y87009D01*
X997251Y87027D01*
X997298Y87035D01*
X997355Y87069D01*
X997415Y87094D01*
X997450Y87125D01*
X997491Y87150D01*
X997533Y87201D01*
X997581Y87245D01*
X997603Y87287D01*
X997632Y87324D01*
X997653Y87386D01*
X997684Y87445D01*
X997692Y87499D01*
X997704Y87536D01*
X997703Y87576D01*
X997711Y87630D01*
X997711Y90170D01*
X997700Y90235D01*
X997698Y90301D01*
X997680Y90344D01*
X997672Y90391D01*
X997638Y90448D01*
X997613Y90508D01*
X997582Y90543D01*
X997557Y90584D01*
X997506Y90626D01*
X997462Y90674D01*
X997420Y90696D01*
X997383Y90725D01*
X997321Y90746D01*
X997262Y90777D01*
X997208Y90785D01*
X997171Y90797D01*
X997131Y90796D01*
X997077Y90804D01*
X993267Y90804D01*
X993202Y90793D01*
X993136Y90791D01*
X993093Y90773D01*
X993046Y90765D01*
X992989Y90731D01*
X992929Y90706D01*
X992894Y90675D01*
X992853Y90650D01*
X992812Y90599D01*
X992763Y90555D01*
X992741Y90513D01*
X992712Y90476D01*
X992691Y90414D01*
X992660Y90355D01*
X992652Y90301D01*
X992640Y90264D01*
X992640Y90261D01*
X992641Y90224D01*
X992633Y90170D01*
X992633Y87630D01*
X992644Y87565D01*
X992646Y87499D01*
X992664Y87456D01*
X992672Y87409D01*
X992706Y87352D01*
X992731Y87292D01*
X992762Y87257D01*
X992787Y87216D01*
X992838Y87175D01*
X992882Y87126D01*
X992924Y87104D01*
X992961Y87075D01*
X993023Y87054D01*
X993082Y87023D01*
X993136Y87015D01*
X993173Y87003D01*
X993213Y87004D01*
X993267Y86996D01*
X997077Y86996D01*
X997142Y87007D01*
G37*
G36*
X636462Y87007D02*
X636462Y87007D01*
X636528Y87009D01*
X636571Y87027D01*
X636618Y87035D01*
X636675Y87069D01*
X636735Y87094D01*
X636770Y87125D01*
X636811Y87150D01*
X636853Y87201D01*
X636901Y87245D01*
X636923Y87287D01*
X636952Y87324D01*
X636973Y87386D01*
X637004Y87445D01*
X637012Y87499D01*
X637024Y87536D01*
X637023Y87576D01*
X637031Y87630D01*
X637031Y90170D01*
X637020Y90235D01*
X637018Y90301D01*
X637000Y90344D01*
X636992Y90391D01*
X636958Y90448D01*
X636933Y90508D01*
X636902Y90543D01*
X636877Y90584D01*
X636826Y90626D01*
X636782Y90674D01*
X636740Y90696D01*
X636703Y90725D01*
X636641Y90746D01*
X636582Y90777D01*
X636528Y90785D01*
X636491Y90797D01*
X636451Y90796D01*
X636397Y90804D01*
X632587Y90804D01*
X632522Y90793D01*
X632456Y90791D01*
X632413Y90773D01*
X632366Y90765D01*
X632309Y90731D01*
X632249Y90706D01*
X632214Y90675D01*
X632173Y90650D01*
X632132Y90599D01*
X632083Y90555D01*
X632061Y90513D01*
X632032Y90476D01*
X632011Y90414D01*
X631980Y90355D01*
X631972Y90301D01*
X631960Y90264D01*
X631960Y90261D01*
X631961Y90224D01*
X631953Y90170D01*
X631953Y87630D01*
X631964Y87565D01*
X631966Y87499D01*
X631984Y87456D01*
X631992Y87409D01*
X632026Y87352D01*
X632051Y87292D01*
X632082Y87257D01*
X632107Y87216D01*
X632158Y87175D01*
X632202Y87126D01*
X632244Y87104D01*
X632281Y87075D01*
X632343Y87054D01*
X632402Y87023D01*
X632456Y87015D01*
X632493Y87003D01*
X632533Y87004D01*
X632587Y86996D01*
X636397Y86996D01*
X636462Y87007D01*
G37*
G36*
X1347662Y87007D02*
X1347662Y87007D01*
X1347728Y87009D01*
X1347771Y87027D01*
X1347818Y87035D01*
X1347875Y87069D01*
X1347935Y87094D01*
X1347970Y87125D01*
X1348011Y87150D01*
X1348053Y87201D01*
X1348101Y87245D01*
X1348123Y87287D01*
X1348152Y87324D01*
X1348173Y87386D01*
X1348204Y87445D01*
X1348212Y87499D01*
X1348224Y87536D01*
X1348223Y87576D01*
X1348231Y87630D01*
X1348231Y90170D01*
X1348220Y90235D01*
X1348218Y90301D01*
X1348200Y90344D01*
X1348192Y90391D01*
X1348158Y90448D01*
X1348133Y90508D01*
X1348102Y90543D01*
X1348077Y90584D01*
X1348026Y90626D01*
X1347982Y90674D01*
X1347940Y90696D01*
X1347903Y90725D01*
X1347841Y90746D01*
X1347782Y90777D01*
X1347728Y90785D01*
X1347691Y90797D01*
X1347651Y90796D01*
X1347597Y90804D01*
X1343787Y90804D01*
X1343722Y90793D01*
X1343656Y90791D01*
X1343613Y90773D01*
X1343566Y90765D01*
X1343509Y90731D01*
X1343449Y90706D01*
X1343414Y90675D01*
X1343373Y90650D01*
X1343332Y90599D01*
X1343283Y90555D01*
X1343261Y90513D01*
X1343232Y90476D01*
X1343211Y90414D01*
X1343180Y90355D01*
X1343172Y90301D01*
X1343160Y90264D01*
X1343160Y90261D01*
X1343161Y90224D01*
X1343153Y90170D01*
X1343153Y87630D01*
X1343164Y87565D01*
X1343166Y87499D01*
X1343184Y87456D01*
X1343192Y87409D01*
X1343226Y87352D01*
X1343251Y87292D01*
X1343282Y87257D01*
X1343307Y87216D01*
X1343358Y87175D01*
X1343402Y87126D01*
X1343444Y87104D01*
X1343481Y87075D01*
X1343543Y87054D01*
X1343602Y87023D01*
X1343656Y87015D01*
X1343693Y87003D01*
X1343733Y87004D01*
X1343787Y86996D01*
X1347597Y86996D01*
X1347662Y87007D01*
G37*
G36*
X1357822Y87007D02*
X1357822Y87007D01*
X1357888Y87009D01*
X1357931Y87027D01*
X1357978Y87035D01*
X1358035Y87069D01*
X1358095Y87094D01*
X1358130Y87125D01*
X1358171Y87150D01*
X1358213Y87201D01*
X1358261Y87245D01*
X1358283Y87287D01*
X1358312Y87324D01*
X1358333Y87386D01*
X1358364Y87445D01*
X1358372Y87499D01*
X1358384Y87536D01*
X1358383Y87576D01*
X1358391Y87630D01*
X1358391Y90170D01*
X1358380Y90235D01*
X1358378Y90301D01*
X1358360Y90344D01*
X1358352Y90391D01*
X1358318Y90448D01*
X1358293Y90508D01*
X1358262Y90543D01*
X1358237Y90584D01*
X1358186Y90626D01*
X1358142Y90674D01*
X1358100Y90696D01*
X1358063Y90725D01*
X1358001Y90746D01*
X1357942Y90777D01*
X1357888Y90785D01*
X1357851Y90797D01*
X1357811Y90796D01*
X1357757Y90804D01*
X1353947Y90804D01*
X1353882Y90793D01*
X1353816Y90791D01*
X1353773Y90773D01*
X1353726Y90765D01*
X1353669Y90731D01*
X1353609Y90706D01*
X1353574Y90675D01*
X1353533Y90650D01*
X1353492Y90599D01*
X1353443Y90555D01*
X1353421Y90513D01*
X1353392Y90476D01*
X1353371Y90414D01*
X1353340Y90355D01*
X1353332Y90301D01*
X1353320Y90264D01*
X1353320Y90261D01*
X1353321Y90224D01*
X1353313Y90170D01*
X1353313Y87630D01*
X1353324Y87565D01*
X1353326Y87499D01*
X1353344Y87456D01*
X1353352Y87409D01*
X1353386Y87352D01*
X1353411Y87292D01*
X1353442Y87257D01*
X1353467Y87216D01*
X1353518Y87175D01*
X1353562Y87126D01*
X1353604Y87104D01*
X1353641Y87075D01*
X1353703Y87054D01*
X1353762Y87023D01*
X1353816Y87015D01*
X1353853Y87003D01*
X1353893Y87004D01*
X1353947Y86996D01*
X1357757Y86996D01*
X1357822Y87007D01*
G37*
G36*
X626302Y87007D02*
X626302Y87007D01*
X626368Y87009D01*
X626411Y87027D01*
X626458Y87035D01*
X626515Y87069D01*
X626575Y87094D01*
X626610Y87125D01*
X626651Y87150D01*
X626693Y87201D01*
X626741Y87245D01*
X626763Y87287D01*
X626792Y87324D01*
X626813Y87386D01*
X626844Y87445D01*
X626852Y87499D01*
X626864Y87536D01*
X626863Y87576D01*
X626871Y87630D01*
X626871Y90170D01*
X626860Y90235D01*
X626858Y90301D01*
X626840Y90344D01*
X626832Y90391D01*
X626798Y90448D01*
X626773Y90508D01*
X626742Y90543D01*
X626717Y90584D01*
X626666Y90626D01*
X626622Y90674D01*
X626580Y90696D01*
X626543Y90725D01*
X626481Y90746D01*
X626422Y90777D01*
X626368Y90785D01*
X626331Y90797D01*
X626291Y90796D01*
X626237Y90804D01*
X622427Y90804D01*
X622362Y90793D01*
X622296Y90791D01*
X622253Y90773D01*
X622206Y90765D01*
X622149Y90731D01*
X622089Y90706D01*
X622054Y90675D01*
X622013Y90650D01*
X621972Y90599D01*
X621923Y90555D01*
X621901Y90513D01*
X621872Y90476D01*
X621851Y90414D01*
X621820Y90355D01*
X621812Y90301D01*
X621800Y90264D01*
X621800Y90261D01*
X621801Y90224D01*
X621793Y90170D01*
X621793Y87630D01*
X621804Y87565D01*
X621806Y87499D01*
X621824Y87456D01*
X621832Y87409D01*
X621866Y87352D01*
X621891Y87292D01*
X621922Y87257D01*
X621947Y87216D01*
X621998Y87175D01*
X622042Y87126D01*
X622084Y87104D01*
X622121Y87075D01*
X622183Y87054D01*
X622242Y87023D01*
X622296Y87015D01*
X622333Y87003D01*
X622373Y87004D01*
X622427Y86996D01*
X626237Y86996D01*
X626302Y87007D01*
G37*
G36*
X1229298Y26301D02*
X1229298Y26301D01*
X1229364Y26303D01*
X1229407Y26321D01*
X1229454Y26329D01*
X1229511Y26363D01*
X1229571Y26388D01*
X1229606Y26419D01*
X1229647Y26444D01*
X1229689Y26495D01*
X1229737Y26539D01*
X1229759Y26581D01*
X1229788Y26618D01*
X1229809Y26680D01*
X1229840Y26739D01*
X1229848Y26793D01*
X1229860Y26830D01*
X1229859Y26870D01*
X1229867Y26924D01*
X1229867Y29464D01*
X1229856Y29529D01*
X1229854Y29595D01*
X1229836Y29638D01*
X1229828Y29685D01*
X1229794Y29742D01*
X1229769Y29802D01*
X1229738Y29837D01*
X1229713Y29878D01*
X1229662Y29920D01*
X1229618Y29968D01*
X1229576Y29990D01*
X1229539Y30019D01*
X1229477Y30040D01*
X1229418Y30071D01*
X1229364Y30079D01*
X1229327Y30091D01*
X1229287Y30090D01*
X1229233Y30098D01*
X1225423Y30098D01*
X1225358Y30087D01*
X1225292Y30085D01*
X1225249Y30067D01*
X1225202Y30059D01*
X1225145Y30025D01*
X1225085Y30000D01*
X1225050Y29969D01*
X1225009Y29944D01*
X1224968Y29893D01*
X1224919Y29849D01*
X1224897Y29807D01*
X1224868Y29770D01*
X1224847Y29708D01*
X1224816Y29649D01*
X1224808Y29595D01*
X1224796Y29558D01*
X1224796Y29555D01*
X1224797Y29518D01*
X1224789Y29464D01*
X1224789Y26924D01*
X1224800Y26859D01*
X1224802Y26793D01*
X1224820Y26750D01*
X1224828Y26703D01*
X1224862Y26646D01*
X1224887Y26586D01*
X1224918Y26551D01*
X1224943Y26510D01*
X1224994Y26469D01*
X1225038Y26420D01*
X1225080Y26398D01*
X1225117Y26369D01*
X1225179Y26348D01*
X1225238Y26317D01*
X1225292Y26309D01*
X1225329Y26297D01*
X1225369Y26298D01*
X1225423Y26290D01*
X1229233Y26290D01*
X1229298Y26301D01*
G37*
G36*
X507938Y26301D02*
X507938Y26301D01*
X508004Y26303D01*
X508047Y26321D01*
X508094Y26329D01*
X508151Y26363D01*
X508211Y26388D01*
X508246Y26419D01*
X508287Y26444D01*
X508329Y26495D01*
X508377Y26539D01*
X508399Y26581D01*
X508428Y26618D01*
X508449Y26680D01*
X508480Y26739D01*
X508488Y26793D01*
X508500Y26830D01*
X508499Y26870D01*
X508507Y26924D01*
X508507Y29464D01*
X508496Y29529D01*
X508494Y29595D01*
X508476Y29638D01*
X508468Y29685D01*
X508434Y29742D01*
X508409Y29802D01*
X508378Y29837D01*
X508353Y29878D01*
X508302Y29920D01*
X508258Y29968D01*
X508216Y29990D01*
X508179Y30019D01*
X508117Y30040D01*
X508058Y30071D01*
X508004Y30079D01*
X507967Y30091D01*
X507927Y30090D01*
X507873Y30098D01*
X504063Y30098D01*
X503998Y30087D01*
X503932Y30085D01*
X503889Y30067D01*
X503842Y30059D01*
X503785Y30025D01*
X503725Y30000D01*
X503690Y29969D01*
X503649Y29944D01*
X503608Y29893D01*
X503559Y29849D01*
X503537Y29807D01*
X503508Y29770D01*
X503487Y29708D01*
X503456Y29649D01*
X503448Y29595D01*
X503436Y29558D01*
X503436Y29555D01*
X503437Y29518D01*
X503429Y29464D01*
X503429Y26924D01*
X503440Y26859D01*
X503442Y26793D01*
X503460Y26750D01*
X503468Y26703D01*
X503502Y26646D01*
X503527Y26586D01*
X503558Y26551D01*
X503583Y26510D01*
X503634Y26469D01*
X503678Y26420D01*
X503720Y26398D01*
X503757Y26369D01*
X503819Y26348D01*
X503878Y26317D01*
X503932Y26309D01*
X503969Y26297D01*
X504009Y26298D01*
X504063Y26290D01*
X507873Y26290D01*
X507938Y26301D01*
G37*
G36*
X147258Y26301D02*
X147258Y26301D01*
X147324Y26303D01*
X147367Y26321D01*
X147414Y26329D01*
X147471Y26363D01*
X147531Y26388D01*
X147566Y26419D01*
X147607Y26444D01*
X147649Y26495D01*
X147697Y26539D01*
X147719Y26581D01*
X147748Y26618D01*
X147769Y26680D01*
X147800Y26739D01*
X147808Y26793D01*
X147820Y26830D01*
X147819Y26870D01*
X147827Y26924D01*
X147827Y29464D01*
X147816Y29529D01*
X147814Y29595D01*
X147796Y29638D01*
X147788Y29685D01*
X147754Y29742D01*
X147729Y29802D01*
X147698Y29837D01*
X147673Y29878D01*
X147622Y29920D01*
X147578Y29968D01*
X147536Y29990D01*
X147499Y30019D01*
X147437Y30040D01*
X147378Y30071D01*
X147324Y30079D01*
X147287Y30091D01*
X147247Y30090D01*
X147193Y30098D01*
X143383Y30098D01*
X143318Y30087D01*
X143252Y30085D01*
X143209Y30067D01*
X143162Y30059D01*
X143105Y30025D01*
X143045Y30000D01*
X143010Y29969D01*
X142969Y29944D01*
X142928Y29893D01*
X142879Y29849D01*
X142857Y29807D01*
X142828Y29770D01*
X142807Y29708D01*
X142776Y29649D01*
X142768Y29595D01*
X142756Y29558D01*
X142756Y29555D01*
X142757Y29518D01*
X142749Y29464D01*
X142749Y26924D01*
X142760Y26859D01*
X142762Y26793D01*
X142780Y26750D01*
X142788Y26703D01*
X142822Y26646D01*
X142847Y26586D01*
X142878Y26551D01*
X142903Y26510D01*
X142954Y26469D01*
X142998Y26420D01*
X143040Y26398D01*
X143077Y26369D01*
X143139Y26348D01*
X143198Y26317D01*
X143252Y26309D01*
X143289Y26297D01*
X143329Y26298D01*
X143383Y26290D01*
X147193Y26290D01*
X147258Y26301D01*
G37*
G36*
X868618Y26301D02*
X868618Y26301D01*
X868684Y26303D01*
X868727Y26321D01*
X868774Y26329D01*
X868831Y26363D01*
X868891Y26388D01*
X868926Y26419D01*
X868967Y26444D01*
X869009Y26495D01*
X869057Y26539D01*
X869079Y26581D01*
X869108Y26618D01*
X869129Y26680D01*
X869160Y26739D01*
X869168Y26793D01*
X869180Y26830D01*
X869179Y26870D01*
X869187Y26924D01*
X869187Y29464D01*
X869176Y29529D01*
X869174Y29595D01*
X869156Y29638D01*
X869148Y29685D01*
X869114Y29742D01*
X869089Y29802D01*
X869058Y29837D01*
X869033Y29878D01*
X868982Y29920D01*
X868938Y29968D01*
X868896Y29990D01*
X868859Y30019D01*
X868797Y30040D01*
X868738Y30071D01*
X868684Y30079D01*
X868647Y30091D01*
X868607Y30090D01*
X868553Y30098D01*
X864743Y30098D01*
X864678Y30087D01*
X864612Y30085D01*
X864569Y30067D01*
X864522Y30059D01*
X864465Y30025D01*
X864405Y30000D01*
X864370Y29969D01*
X864329Y29944D01*
X864288Y29893D01*
X864239Y29849D01*
X864217Y29807D01*
X864188Y29770D01*
X864167Y29708D01*
X864136Y29649D01*
X864128Y29595D01*
X864116Y29558D01*
X864116Y29555D01*
X864117Y29518D01*
X864109Y29464D01*
X864109Y26924D01*
X864120Y26859D01*
X864122Y26793D01*
X864140Y26750D01*
X864148Y26703D01*
X864182Y26646D01*
X864207Y26586D01*
X864238Y26551D01*
X864263Y26510D01*
X864314Y26469D01*
X864358Y26420D01*
X864400Y26398D01*
X864437Y26369D01*
X864499Y26348D01*
X864558Y26317D01*
X864612Y26309D01*
X864649Y26297D01*
X864689Y26298D01*
X864743Y26290D01*
X868553Y26290D01*
X868618Y26301D01*
G37*
D10*
X276350Y94744D02*
X281942Y94744D01*
X281942Y83056D01*
X276350Y83056D01*
X276350Y94744D01*
X276350Y85225D02*
X281942Y85225D01*
X281942Y87394D02*
X276350Y87394D01*
X276350Y89563D02*
X281942Y89563D01*
X281942Y91732D02*
X276350Y91732D01*
X276350Y93901D02*
X281942Y93901D01*
X271528Y94744D02*
X265936Y94744D01*
X271528Y94744D02*
X271528Y83056D01*
X265936Y83056D01*
X265936Y94744D01*
X265936Y85225D02*
X271528Y85225D01*
X271528Y87394D02*
X265936Y87394D01*
X265936Y89563D02*
X271528Y89563D01*
X271528Y91732D02*
X265936Y91732D01*
X265936Y93901D02*
X271528Y93901D01*
X261114Y94744D02*
X255522Y94744D01*
X261114Y94744D02*
X261114Y83056D01*
X255522Y83056D01*
X255522Y94744D01*
X255522Y85225D02*
X261114Y85225D01*
X261114Y87394D02*
X255522Y87394D01*
X255522Y89563D02*
X261114Y89563D01*
X261114Y91732D02*
X255522Y91732D01*
X255522Y93901D02*
X261114Y93901D01*
D11*
X12700Y439420D03*
X342900Y63500D03*
D12*
X241300Y406400D03*
X241300Y381000D03*
X241300Y355600D03*
X241300Y330200D03*
X241300Y304800D03*
X241300Y279400D03*
X241300Y254000D03*
X241300Y228600D03*
X241300Y203200D03*
X241300Y177800D03*
X114300Y406400D03*
X114300Y381000D03*
X114300Y355600D03*
X114300Y330200D03*
X114300Y304800D03*
X114300Y279400D03*
X114300Y254000D03*
X114300Y228600D03*
X114300Y203200D03*
X114300Y177800D03*
D10*
X189228Y30827D02*
X189228Y25235D01*
X189228Y30827D02*
X200916Y30827D01*
X200916Y25235D01*
X189228Y25235D01*
X189228Y27404D02*
X200916Y27404D01*
X200916Y29573D02*
X189228Y29573D01*
X189228Y20413D02*
X189228Y14821D01*
X189228Y20413D02*
X200916Y20413D01*
X200916Y14821D01*
X189228Y14821D01*
X189228Y16990D02*
X200916Y16990D01*
X200916Y19159D02*
X189228Y19159D01*
X217676Y26251D02*
X217676Y31843D01*
X229364Y31843D01*
X229364Y26251D01*
X217676Y26251D01*
X217676Y28420D02*
X229364Y28420D01*
X229364Y30589D02*
X217676Y30589D01*
X217676Y21429D02*
X217676Y15837D01*
X217676Y21429D02*
X229364Y21429D01*
X229364Y15837D01*
X217676Y15837D01*
X217676Y18006D02*
X229364Y18006D01*
X229364Y20175D02*
X217676Y20175D01*
D13*
X330200Y571500D03*
X330200Y25400D03*
X25400Y571500D03*
X25400Y25400D03*
D10*
X168146Y26251D02*
X168146Y31843D01*
X179834Y31843D01*
X179834Y26251D01*
X168146Y26251D01*
X168146Y28420D02*
X179834Y28420D01*
X179834Y30589D02*
X168146Y30589D01*
X168146Y21429D02*
X168146Y15837D01*
X168146Y21429D02*
X179834Y21429D01*
X179834Y15837D01*
X168146Y15837D01*
X168146Y18006D02*
X179834Y18006D01*
X179834Y20175D02*
X168146Y20175D01*
D14*
X72700Y49050D03*
X130500Y49050D03*
D10*
X147699Y34038D02*
X153291Y34038D01*
X153291Y22350D01*
X147699Y22350D01*
X147699Y34038D01*
X147699Y24519D02*
X153291Y24519D01*
X153291Y26688D02*
X147699Y26688D01*
X147699Y28857D02*
X153291Y28857D01*
X153291Y31026D02*
X147699Y31026D01*
X147699Y33195D02*
X153291Y33195D01*
X142877Y34038D02*
X137285Y34038D01*
X142877Y34038D02*
X142877Y22350D01*
X137285Y22350D01*
X137285Y34038D01*
X137285Y24519D02*
X142877Y24519D01*
X142877Y26688D02*
X137285Y26688D01*
X137285Y28857D02*
X142877Y28857D01*
X142877Y31026D02*
X137285Y31026D01*
X137285Y33195D02*
X142877Y33195D01*
D12*
X114300Y152400D03*
X241300Y152400D03*
D10*
X637030Y94744D02*
X642622Y94744D01*
X642622Y83056D01*
X637030Y83056D01*
X637030Y94744D01*
X637030Y85225D02*
X642622Y85225D01*
X642622Y87394D02*
X637030Y87394D01*
X637030Y89563D02*
X642622Y89563D01*
X642622Y91732D02*
X637030Y91732D01*
X637030Y93901D02*
X642622Y93901D01*
X632208Y94744D02*
X626616Y94744D01*
X632208Y94744D02*
X632208Y83056D01*
X626616Y83056D01*
X626616Y94744D01*
X626616Y85225D02*
X632208Y85225D01*
X632208Y87394D02*
X626616Y87394D01*
X626616Y89563D02*
X632208Y89563D01*
X632208Y91732D02*
X626616Y91732D01*
X626616Y93901D02*
X632208Y93901D01*
X621794Y94744D02*
X616202Y94744D01*
X621794Y94744D02*
X621794Y83056D01*
X616202Y83056D01*
X616202Y94744D01*
X616202Y85225D02*
X621794Y85225D01*
X621794Y87394D02*
X616202Y87394D01*
X616202Y89563D02*
X621794Y89563D01*
X621794Y91732D02*
X616202Y91732D01*
X616202Y93901D02*
X621794Y93901D01*
D11*
X373380Y439420D03*
X703580Y63500D03*
D12*
X601980Y406400D03*
X601980Y381000D03*
X601980Y355600D03*
X601980Y330200D03*
X601980Y304800D03*
X601980Y279400D03*
X601980Y254000D03*
X601980Y228600D03*
X601980Y203200D03*
X601980Y177800D03*
X474980Y406400D03*
X474980Y381000D03*
X474980Y355600D03*
X474980Y330200D03*
X474980Y304800D03*
X474980Y279400D03*
X474980Y254000D03*
X474980Y228600D03*
X474980Y203200D03*
X474980Y177800D03*
D10*
X549908Y30827D02*
X549908Y25235D01*
X549908Y30827D02*
X561596Y30827D01*
X561596Y25235D01*
X549908Y25235D01*
X549908Y27404D02*
X561596Y27404D01*
X561596Y29573D02*
X549908Y29573D01*
X549908Y20413D02*
X549908Y14821D01*
X549908Y20413D02*
X561596Y20413D01*
X561596Y14821D01*
X549908Y14821D01*
X549908Y16990D02*
X561596Y16990D01*
X561596Y19159D02*
X549908Y19159D01*
X578356Y26251D02*
X578356Y31843D01*
X590044Y31843D01*
X590044Y26251D01*
X578356Y26251D01*
X578356Y28420D02*
X590044Y28420D01*
X590044Y30589D02*
X578356Y30589D01*
X578356Y21429D02*
X578356Y15837D01*
X578356Y21429D02*
X590044Y21429D01*
X590044Y15837D01*
X578356Y15837D01*
X578356Y18006D02*
X590044Y18006D01*
X590044Y20175D02*
X578356Y20175D01*
D13*
X690880Y571500D03*
X690880Y25400D03*
X386080Y571500D03*
X386080Y25400D03*
D10*
X528826Y26251D02*
X528826Y31843D01*
X540514Y31843D01*
X540514Y26251D01*
X528826Y26251D01*
X528826Y28420D02*
X540514Y28420D01*
X540514Y30589D02*
X528826Y30589D01*
X528826Y21429D02*
X528826Y15837D01*
X528826Y21429D02*
X540514Y21429D01*
X540514Y15837D01*
X528826Y15837D01*
X528826Y18006D02*
X540514Y18006D01*
X540514Y20175D02*
X528826Y20175D01*
D14*
X433380Y49050D03*
X491180Y49050D03*
D10*
X508379Y34038D02*
X513971Y34038D01*
X513971Y22350D01*
X508379Y22350D01*
X508379Y34038D01*
X508379Y24519D02*
X513971Y24519D01*
X513971Y26688D02*
X508379Y26688D01*
X508379Y28857D02*
X513971Y28857D01*
X513971Y31026D02*
X508379Y31026D01*
X508379Y33195D02*
X513971Y33195D01*
X503557Y34038D02*
X497965Y34038D01*
X503557Y34038D02*
X503557Y22350D01*
X497965Y22350D01*
X497965Y34038D01*
X497965Y24519D02*
X503557Y24519D01*
X503557Y26688D02*
X497965Y26688D01*
X497965Y28857D02*
X503557Y28857D01*
X503557Y31026D02*
X497965Y31026D01*
X497965Y33195D02*
X503557Y33195D01*
D12*
X474980Y152400D03*
X601980Y152400D03*
D10*
X997710Y94744D02*
X1003302Y94744D01*
X1003302Y83056D01*
X997710Y83056D01*
X997710Y94744D01*
X997710Y85225D02*
X1003302Y85225D01*
X1003302Y87394D02*
X997710Y87394D01*
X997710Y89563D02*
X1003302Y89563D01*
X1003302Y91732D02*
X997710Y91732D01*
X997710Y93901D02*
X1003302Y93901D01*
X992888Y94744D02*
X987296Y94744D01*
X992888Y94744D02*
X992888Y83056D01*
X987296Y83056D01*
X987296Y94744D01*
X987296Y85225D02*
X992888Y85225D01*
X992888Y87394D02*
X987296Y87394D01*
X987296Y89563D02*
X992888Y89563D01*
X992888Y91732D02*
X987296Y91732D01*
X987296Y93901D02*
X992888Y93901D01*
X982474Y94744D02*
X976882Y94744D01*
X982474Y94744D02*
X982474Y83056D01*
X976882Y83056D01*
X976882Y94744D01*
X976882Y85225D02*
X982474Y85225D01*
X982474Y87394D02*
X976882Y87394D01*
X976882Y89563D02*
X982474Y89563D01*
X982474Y91732D02*
X976882Y91732D01*
X976882Y93901D02*
X982474Y93901D01*
D11*
X734060Y439420D03*
X1064260Y63500D03*
D12*
X962660Y406400D03*
X962660Y381000D03*
X962660Y355600D03*
X962660Y330200D03*
X962660Y304800D03*
X962660Y279400D03*
X962660Y254000D03*
X962660Y228600D03*
X962660Y203200D03*
X962660Y177800D03*
X835660Y406400D03*
X835660Y381000D03*
X835660Y355600D03*
X835660Y330200D03*
X835660Y304800D03*
X835660Y279400D03*
X835660Y254000D03*
X835660Y228600D03*
X835660Y203200D03*
X835660Y177800D03*
D10*
X910588Y30827D02*
X910588Y25235D01*
X910588Y30827D02*
X922276Y30827D01*
X922276Y25235D01*
X910588Y25235D01*
X910588Y27404D02*
X922276Y27404D01*
X922276Y29573D02*
X910588Y29573D01*
X910588Y20413D02*
X910588Y14821D01*
X910588Y20413D02*
X922276Y20413D01*
X922276Y14821D01*
X910588Y14821D01*
X910588Y16990D02*
X922276Y16990D01*
X922276Y19159D02*
X910588Y19159D01*
X939036Y26251D02*
X939036Y31843D01*
X950724Y31843D01*
X950724Y26251D01*
X939036Y26251D01*
X939036Y28420D02*
X950724Y28420D01*
X950724Y30589D02*
X939036Y30589D01*
X939036Y21429D02*
X939036Y15837D01*
X939036Y21429D02*
X950724Y21429D01*
X950724Y15837D01*
X939036Y15837D01*
X939036Y18006D02*
X950724Y18006D01*
X950724Y20175D02*
X939036Y20175D01*
D13*
X1051560Y571500D03*
X1051560Y25400D03*
X746760Y571500D03*
X746760Y25400D03*
D10*
X889506Y26251D02*
X889506Y31843D01*
X901194Y31843D01*
X901194Y26251D01*
X889506Y26251D01*
X889506Y28420D02*
X901194Y28420D01*
X901194Y30589D02*
X889506Y30589D01*
X889506Y21429D02*
X889506Y15837D01*
X889506Y21429D02*
X901194Y21429D01*
X901194Y15837D01*
X889506Y15837D01*
X889506Y18006D02*
X901194Y18006D01*
X901194Y20175D02*
X889506Y20175D01*
D14*
X794060Y49050D03*
X851860Y49050D03*
D10*
X869059Y34038D02*
X874651Y34038D01*
X874651Y22350D01*
X869059Y22350D01*
X869059Y34038D01*
X869059Y24519D02*
X874651Y24519D01*
X874651Y26688D02*
X869059Y26688D01*
X869059Y28857D02*
X874651Y28857D01*
X874651Y31026D02*
X869059Y31026D01*
X869059Y33195D02*
X874651Y33195D01*
X864237Y34038D02*
X858645Y34038D01*
X864237Y34038D02*
X864237Y22350D01*
X858645Y22350D01*
X858645Y34038D01*
X858645Y24519D02*
X864237Y24519D01*
X864237Y26688D02*
X858645Y26688D01*
X858645Y28857D02*
X864237Y28857D01*
X864237Y31026D02*
X858645Y31026D01*
X858645Y33195D02*
X864237Y33195D01*
D12*
X835660Y152400D03*
X962660Y152400D03*
D10*
X1358390Y94744D02*
X1363982Y94744D01*
X1363982Y83056D01*
X1358390Y83056D01*
X1358390Y94744D01*
X1358390Y85225D02*
X1363982Y85225D01*
X1363982Y87394D02*
X1358390Y87394D01*
X1358390Y89563D02*
X1363982Y89563D01*
X1363982Y91732D02*
X1358390Y91732D01*
X1358390Y93901D02*
X1363982Y93901D01*
X1353568Y94744D02*
X1347976Y94744D01*
X1353568Y94744D02*
X1353568Y83056D01*
X1347976Y83056D01*
X1347976Y94744D01*
X1347976Y85225D02*
X1353568Y85225D01*
X1353568Y87394D02*
X1347976Y87394D01*
X1347976Y89563D02*
X1353568Y89563D01*
X1353568Y91732D02*
X1347976Y91732D01*
X1347976Y93901D02*
X1353568Y93901D01*
X1343154Y94744D02*
X1337562Y94744D01*
X1343154Y94744D02*
X1343154Y83056D01*
X1337562Y83056D01*
X1337562Y94744D01*
X1337562Y85225D02*
X1343154Y85225D01*
X1343154Y87394D02*
X1337562Y87394D01*
X1337562Y89563D02*
X1343154Y89563D01*
X1343154Y91732D02*
X1337562Y91732D01*
X1337562Y93901D02*
X1343154Y93901D01*
D11*
X1094740Y439420D03*
X1424940Y63500D03*
D12*
X1323340Y406400D03*
X1323340Y381000D03*
X1323340Y355600D03*
X1323340Y330200D03*
X1323340Y304800D03*
X1323340Y279400D03*
X1323340Y254000D03*
X1323340Y228600D03*
X1323340Y203200D03*
X1323340Y177800D03*
X1196340Y406400D03*
X1196340Y381000D03*
X1196340Y355600D03*
X1196340Y330200D03*
X1196340Y304800D03*
X1196340Y279400D03*
X1196340Y254000D03*
X1196340Y228600D03*
X1196340Y203200D03*
X1196340Y177800D03*
D10*
X1271268Y30827D02*
X1271268Y25235D01*
X1271268Y30827D02*
X1282956Y30827D01*
X1282956Y25235D01*
X1271268Y25235D01*
X1271268Y27404D02*
X1282956Y27404D01*
X1282956Y29573D02*
X1271268Y29573D01*
X1271268Y20413D02*
X1271268Y14821D01*
X1271268Y20413D02*
X1282956Y20413D01*
X1282956Y14821D01*
X1271268Y14821D01*
X1271268Y16990D02*
X1282956Y16990D01*
X1282956Y19159D02*
X1271268Y19159D01*
X1299716Y26251D02*
X1299716Y31843D01*
X1311404Y31843D01*
X1311404Y26251D01*
X1299716Y26251D01*
X1299716Y28420D02*
X1311404Y28420D01*
X1311404Y30589D02*
X1299716Y30589D01*
X1299716Y21429D02*
X1299716Y15837D01*
X1299716Y21429D02*
X1311404Y21429D01*
X1311404Y15837D01*
X1299716Y15837D01*
X1299716Y18006D02*
X1311404Y18006D01*
X1311404Y20175D02*
X1299716Y20175D01*
D13*
X1412240Y571500D03*
X1412240Y25400D03*
X1107440Y571500D03*
X1107440Y25400D03*
D10*
X1250186Y26251D02*
X1250186Y31843D01*
X1261874Y31843D01*
X1261874Y26251D01*
X1250186Y26251D01*
X1250186Y28420D02*
X1261874Y28420D01*
X1261874Y30589D02*
X1250186Y30589D01*
X1250186Y21429D02*
X1250186Y15837D01*
X1250186Y21429D02*
X1261874Y21429D01*
X1261874Y15837D01*
X1250186Y15837D01*
X1250186Y18006D02*
X1261874Y18006D01*
X1261874Y20175D02*
X1250186Y20175D01*
D14*
X1154740Y49050D03*
X1212540Y49050D03*
D10*
X1229739Y34038D02*
X1235331Y34038D01*
X1235331Y22350D01*
X1229739Y22350D01*
X1229739Y34038D01*
X1229739Y24519D02*
X1235331Y24519D01*
X1235331Y26688D02*
X1229739Y26688D01*
X1229739Y28857D02*
X1235331Y28857D01*
X1235331Y31026D02*
X1229739Y31026D01*
X1229739Y33195D02*
X1235331Y33195D01*
X1224917Y34038D02*
X1219325Y34038D01*
X1224917Y34038D02*
X1224917Y22350D01*
X1219325Y22350D01*
X1219325Y34038D01*
X1219325Y24519D02*
X1224917Y24519D01*
X1224917Y26688D02*
X1219325Y26688D01*
X1219325Y28857D02*
X1224917Y28857D01*
X1224917Y31026D02*
X1219325Y31026D01*
X1219325Y33195D02*
X1224917Y33195D01*
D12*
X1196340Y152400D03*
X1323340Y152400D03*
D11*
X-26238Y595630D03*
X1458798Y595630D03*
D15*
X-35293Y63500D02*
X-35290Y63722D01*
X-35282Y63944D01*
X-35268Y64166D01*
X-35249Y64388D01*
X-35225Y64608D01*
X-35195Y64829D01*
X-35160Y65048D01*
X-35119Y65267D01*
X-35073Y65484D01*
X-35022Y65700D01*
X-34965Y65915D01*
X-34903Y66129D01*
X-34836Y66340D01*
X-34764Y66551D01*
X-34686Y66759D01*
X-34604Y66965D01*
X-34516Y67169D01*
X-34424Y67372D01*
X-34326Y67571D01*
X-34224Y67768D01*
X-34117Y67963D01*
X-34005Y68155D01*
X-33888Y68344D01*
X-33767Y68531D01*
X-33641Y68714D01*
X-33511Y68894D01*
X-33376Y69071D01*
X-33238Y69244D01*
X-33095Y69414D01*
X-32947Y69581D01*
X-32796Y69744D01*
X-32641Y69903D01*
X-32482Y70058D01*
X-32319Y70209D01*
X-32152Y70357D01*
X-31982Y70500D01*
X-31809Y70638D01*
X-31632Y70773D01*
X-31452Y70903D01*
X-31269Y71029D01*
X-31082Y71150D01*
X-30893Y71267D01*
X-30701Y71379D01*
X-30506Y71486D01*
X-30309Y71588D01*
X-30110Y71686D01*
X-29907Y71778D01*
X-29703Y71866D01*
X-29497Y71948D01*
X-29289Y72026D01*
X-29078Y72098D01*
X-28867Y72165D01*
X-28653Y72227D01*
X-28438Y72284D01*
X-28222Y72335D01*
X-28005Y72381D01*
X-27786Y72422D01*
X-27567Y72457D01*
X-27346Y72487D01*
X-27126Y72511D01*
X-26904Y72530D01*
X-26682Y72544D01*
X-26460Y72552D01*
X-26238Y72555D01*
X-26016Y72552D01*
X-25794Y72544D01*
X-25572Y72530D01*
X-25350Y72511D01*
X-25130Y72487D01*
X-24909Y72457D01*
X-24690Y72422D01*
X-24471Y72381D01*
X-24254Y72335D01*
X-24038Y72284D01*
X-23823Y72227D01*
X-23609Y72165D01*
X-23398Y72098D01*
X-23187Y72026D01*
X-22979Y71948D01*
X-22773Y71866D01*
X-22569Y71778D01*
X-22366Y71686D01*
X-22167Y71588D01*
X-21970Y71486D01*
X-21775Y71379D01*
X-21583Y71267D01*
X-21394Y71150D01*
X-21207Y71029D01*
X-21024Y70903D01*
X-20844Y70773D01*
X-20667Y70638D01*
X-20494Y70500D01*
X-20324Y70357D01*
X-20157Y70209D01*
X-19994Y70058D01*
X-19835Y69903D01*
X-19680Y69744D01*
X-19529Y69581D01*
X-19381Y69414D01*
X-19238Y69244D01*
X-19100Y69071D01*
X-18965Y68894D01*
X-18835Y68714D01*
X-18709Y68531D01*
X-18588Y68344D01*
X-18471Y68155D01*
X-18359Y67963D01*
X-18252Y67768D01*
X-18150Y67571D01*
X-18052Y67372D01*
X-17960Y67169D01*
X-17872Y66965D01*
X-17790Y66759D01*
X-17712Y66551D01*
X-17640Y66340D01*
X-17573Y66129D01*
X-17511Y65915D01*
X-17454Y65700D01*
X-17403Y65484D01*
X-17357Y65267D01*
X-17316Y65048D01*
X-17281Y64829D01*
X-17251Y64608D01*
X-17227Y64388D01*
X-17208Y64166D01*
X-17194Y63944D01*
X-17186Y63722D01*
X-17183Y63500D01*
X-17186Y63278D01*
X-17194Y63056D01*
X-17208Y62834D01*
X-17227Y62612D01*
X-17251Y62392D01*
X-17281Y62171D01*
X-17316Y61952D01*
X-17357Y61733D01*
X-17403Y61516D01*
X-17454Y61300D01*
X-17511Y61085D01*
X-17573Y60871D01*
X-17640Y60660D01*
X-17712Y60449D01*
X-17790Y60241D01*
X-17872Y60035D01*
X-17960Y59831D01*
X-18052Y59628D01*
X-18150Y59429D01*
X-18252Y59232D01*
X-18359Y59037D01*
X-18471Y58845D01*
X-18588Y58656D01*
X-18709Y58469D01*
X-18835Y58286D01*
X-18965Y58106D01*
X-19100Y57929D01*
X-19238Y57756D01*
X-19381Y57586D01*
X-19529Y57419D01*
X-19680Y57256D01*
X-19835Y57097D01*
X-19994Y56942D01*
X-20157Y56791D01*
X-20324Y56643D01*
X-20494Y56500D01*
X-20667Y56362D01*
X-20844Y56227D01*
X-21024Y56097D01*
X-21207Y55971D01*
X-21394Y55850D01*
X-21583Y55733D01*
X-21775Y55621D01*
X-21970Y55514D01*
X-22167Y55412D01*
X-22366Y55314D01*
X-22569Y55222D01*
X-22773Y55134D01*
X-22979Y55052D01*
X-23187Y54974D01*
X-23398Y54902D01*
X-23609Y54835D01*
X-23823Y54773D01*
X-24038Y54716D01*
X-24254Y54665D01*
X-24471Y54619D01*
X-24690Y54578D01*
X-24909Y54543D01*
X-25130Y54513D01*
X-25350Y54489D01*
X-25572Y54470D01*
X-25794Y54456D01*
X-26016Y54448D01*
X-26238Y54445D01*
X-26460Y54448D01*
X-26682Y54456D01*
X-26904Y54470D01*
X-27126Y54489D01*
X-27346Y54513D01*
X-27567Y54543D01*
X-27786Y54578D01*
X-28005Y54619D01*
X-28222Y54665D01*
X-28438Y54716D01*
X-28653Y54773D01*
X-28867Y54835D01*
X-29078Y54902D01*
X-29289Y54974D01*
X-29497Y55052D01*
X-29703Y55134D01*
X-29907Y55222D01*
X-30110Y55314D01*
X-30309Y55412D01*
X-30506Y55514D01*
X-30701Y55621D01*
X-30893Y55733D01*
X-31082Y55850D01*
X-31269Y55971D01*
X-31452Y56097D01*
X-31632Y56227D01*
X-31809Y56362D01*
X-31982Y56500D01*
X-32152Y56643D01*
X-32319Y56791D01*
X-32482Y56942D01*
X-32641Y57097D01*
X-32796Y57256D01*
X-32947Y57419D01*
X-33095Y57586D01*
X-33238Y57756D01*
X-33376Y57929D01*
X-33511Y58106D01*
X-33641Y58286D01*
X-33767Y58469D01*
X-33888Y58656D01*
X-34005Y58845D01*
X-34117Y59037D01*
X-34224Y59232D01*
X-34326Y59429D01*
X-34424Y59628D01*
X-34516Y59831D01*
X-34604Y60035D01*
X-34686Y60241D01*
X-34764Y60449D01*
X-34836Y60660D01*
X-34903Y60871D01*
X-34965Y61085D01*
X-35022Y61300D01*
X-35073Y61516D01*
X-35119Y61733D01*
X-35160Y61952D01*
X-35195Y62171D01*
X-35225Y62392D01*
X-35249Y62612D01*
X-35268Y62834D01*
X-35282Y63056D01*
X-35290Y63278D01*
X-35293Y63500D01*
D16*
X-26238Y63500D03*
M02*
