M48
;GenerationSoftware,Autodesk,EAGLE,9.6.2*%
;CreationDate,2023-03-08T21:34:37Z*%
FMAT,2
ICI,OFF
METRIC,TZ,000.000
T4C0.305
T3C0.650
T2C1.016
T1C3.048
%
G90
M71
T1
X105156Y57150
X74676Y57150
X33020Y57150
X33020Y2540
X2540Y57150
X2540Y2540
X74676Y2540
X110744Y57150
X69088Y57150
X69088Y2540
X38608Y57150
X38608Y2540
X110744Y2540
X141224Y57150
X141224Y2540
X105156Y2540
T2
X11430Y25400
X119634Y33020
X119634Y30480
X119634Y27940
X119634Y25400
X132334Y15240
X119634Y22860
X119634Y20320
X119634Y17780
X119634Y15240
X24130Y40640
X24130Y38100
X24130Y35560
X24130Y33020
X24130Y30480
X24130Y27940
X24130Y25400
X24130Y22860
X24130Y20320
X24130Y17780
X11430Y40640
X11430Y38100
X11430Y35560
X11430Y33020
X11430Y30480
X11430Y27940
X11430Y22860
X11430Y20320
X11430Y17780
X11430Y15240
X24130Y15240
X60198Y40640
X60198Y38100
X60198Y35560
X60198Y33020
X60198Y30480
X60198Y27940
X60198Y25400
X60198Y22860
X60198Y20320
X60198Y17780
X47498Y40640
X47498Y38100
X47498Y35560
X47498Y33020
X47498Y30480
X47498Y27940
X47498Y25400
X47498Y22860
X47498Y20320
X47498Y17780
X47498Y15240
X60198Y15240
X96266Y40640
X96266Y38100
X96266Y35560
X96266Y33020
X96266Y30480
X96266Y27940
X96266Y25400
X96266Y22860
X96266Y20320
X96266Y17780
X83566Y40640
X83566Y38100
X83566Y35560
X83566Y33020
X83566Y30480
X83566Y27940
X83566Y25400
X83566Y22860
X83566Y20320
X83566Y17780
X83566Y15240
X96266Y15240
X132334Y40640
X132334Y38100
X132334Y35560
X132334Y33020
X132334Y30480
X132334Y27940
X132334Y25400
X132334Y22860
X132334Y20320
X132334Y17780
X119634Y40640
X119634Y38100
X119634Y35560
T3
X7270Y4905
X13050Y4905
X43338Y4905
X49118Y4905
X79406Y4905
X85186Y4905
X115474Y4905
X121254Y4905
T4
X7747Y6985
X10668Y7620
X18974Y18593
X63144Y12090
X56642Y24638
X58166Y24638
X54356Y21590
X56642Y23368
X58166Y23368
X36703Y40259
X36703Y38735
X36703Y37211
X36703Y35687
X36703Y34163
X36703Y32639
X69596Y30226
X65532Y29210
X58166Y21590
X52959Y14986
X49911Y8128
X40437Y9576
X41275Y12954
X66802Y12827
X66802Y7239
X61265Y3734
X43053Y39243
X42037Y34417
X42291Y22860
X38989Y26416
X47523Y12649
X43053Y12573
X45593Y11176
X53848Y40640
X70358Y40640
X62738Y1270
X37338Y6350
X49327Y25552
X49276Y29058
X44374Y21107
X49124Y21082
X56591Y9601
X54839Y15138
X49454Y7061
X56871Y660
X54331Y635
X51333Y3962
X69596Y10033
X42037Y30607
X65278Y39370
X65278Y36830
X65278Y31750
X65278Y25400
X65278Y19050
X42418Y19050
X38608Y19050
X40513Y39243
X69469Y36830
X59538Y12929
X58928Y36830
X58928Y34290
X58928Y31750
X53848Y31750
X53848Y34290
X48768Y34290
X48768Y36830
X48768Y39370
X58928Y39370
X37338Y30480
X70993Y25146
X70993Y18796
X70993Y34036
X57658Y12319
X42672Y7112
X62179Y11506
X58242Y9601
X56591Y4343
X52375Y8484
X59436Y5664
X63957Y11506
X53721Y29083
X52451Y29083
X55118Y29083
X50927Y18923
X40640Y34163
X54077Y5512
X57785Y16154
X62230Y3886
X56388Y29083
X51054Y29083
X59385Y6807
X62586Y7211
X62636Y6525
X64846Y7188
X43053Y23368
X43053Y38354
X41402Y22860
X41402Y34722
X50038Y8890
X39878Y8890
X39751Y26670
X58039Y20320
X53975Y14986
X69596Y29337
X66294Y29337
X69596Y10922
X61519Y10973
X58115Y635
X55575Y635
X51943Y14249
X53162Y635
X48158Y7137
X44856Y8230
X43688Y1270
X48768Y1270
X54483Y18034
X43815Y6985
X46736Y7620
X55042Y18593
X99212Y12090
X92710Y24638
X94234Y24638
X90424Y21590
X92710Y23368
X94234Y23368
X72771Y40259
X72771Y38735
X72771Y37211
X72771Y35687
X72771Y34163
X72771Y32639
X105664Y30226
X101600Y29210
X94234Y21590
X89027Y14986
X85979Y8128
X76505Y9576
X77343Y12954
X102870Y12827
X102870Y7239
X97333Y3734
X79121Y39243
X78105Y34417
X78359Y22860
X75057Y26416
X83591Y12649
X79121Y12573
X81661Y11176
X89916Y40640
X106426Y40640
X98806Y1270
X73406Y6350
X85395Y25552
X85344Y29058
X80442Y21107
X85192Y21082
X92659Y9601
X90907Y15138
X85522Y7061
X92939Y660
X90399Y635
X87401Y3962
X105664Y10033
X78105Y30607
X101346Y39370
X101346Y36830
X101346Y31750
X101346Y25400
X101346Y19050
X78486Y19050
X74676Y19050
X76581Y39243
X105537Y36830
X95606Y12929
X94996Y36830
X22174Y9601
X94996Y31750
X89916Y31750
X89916Y34290
X84836Y34290
X84836Y36830
X84836Y39370
X94996Y39370
X73406Y30480
X107061Y25146
X107061Y18796
X107061Y34036
X93726Y12319
X78740Y7112
X98247Y11506
X94310Y9601
X92659Y4343
X88443Y8484
X95504Y5664
X100025Y11506
X89789Y29083
X88519Y29083
X91186Y29083
X86995Y18923
X76708Y34163
X90145Y5512
X93853Y16154
X98298Y3886
X92456Y29083
X87122Y29083
X95453Y6807
X98654Y7211
X98704Y6525
X100914Y7188
X79121Y23368
X79121Y38354
X77470Y22860
X77470Y34722
X86106Y8890
X75946Y8890
X75819Y26670
X94107Y20320
X90043Y14986
X105664Y29337
X102362Y29337
X105664Y10922
X97587Y10973
X94183Y635
X91643Y635
X88011Y14249
X89230Y635
X84226Y7137
X80924Y8230
X79756Y1270
X84836Y1270
X90551Y18034
X79883Y6985
X82804Y7620
X91110Y18593
X135280Y12090
X128778Y24638
X130302Y24638
X126492Y21590
X128778Y23368
X130302Y23368
X108839Y40259
X108839Y38735
X108839Y37211
X108839Y35687
X108839Y34163
X108839Y32639
X141732Y30226
X137668Y29210
X130302Y21590
X125095Y14986
X122047Y8128
X112573Y9576
X113411Y12954
X138938Y12827
X138938Y7239
X133401Y3734
X115189Y39243
X114173Y34417
X114427Y22860
X111125Y26416
X119659Y12649
X115189Y12573
X117729Y11176
X125984Y40640
X142494Y40640
X134874Y1270
X109474Y6350
X121463Y25552
X121412Y29058
X116510Y21107
X121260Y21082
X128727Y9601
X126975Y15138
X121590Y7061
X129007Y660
X126467Y635
X123469Y3962
X141732Y10033
X114173Y30607
X137414Y39370
X137414Y36830
X137414Y31750
X137414Y25400
X137414Y19050
X114554Y19050
X110744Y19050
X112649Y39243
X141605Y36830
X131674Y12929
X131064Y36830
X131064Y34290
X131064Y31750
X125984Y31750
X125984Y34290
X120904Y34290
X120904Y36830
X120904Y39370
X131064Y39370
X109474Y30480
X143129Y25146
X143129Y18796
X143129Y34036
X129794Y12319
X114808Y7112
X134315Y11506
X130378Y9601
X128727Y4343
X124511Y8484
X131572Y5664
X136093Y11506
X125857Y29083
X124587Y29083
X127254Y29083
X123063Y18923
X112776Y34163
X126213Y5512
X129921Y16154
X134366Y3886
X27076Y12090
X123190Y29083
X131521Y6807
X134722Y7211
X134772Y6525
X136982Y7188
X115189Y23368
X115189Y38354
X113538Y22860
X113538Y34722
X122174Y8890
X112014Y8890
X111887Y26670
X130175Y20320
X126111Y14986
X141732Y29337
X138430Y29337
X141732Y10922
X133655Y10973
X130251Y635
X127711Y635
X124079Y14249
X125298Y635
X120294Y7137
X116992Y8230
X115824Y1270
X120904Y1270
X126619Y18034
X115951Y6985
X118872Y7620
X127178Y18593
X20574Y24638
X22098Y24638
X18288Y21590
X20574Y23368
X22098Y23368
X635Y40259
X635Y38735
X635Y37211
X635Y35687
X635Y34163
X635Y32639
X33528Y30226
X29464Y29210
X22098Y21590
X16891Y14986
X13843Y8128
X4369Y9576
X5207Y12954
X30734Y12827
X30734Y7239
X25197Y3734
X6985Y39243
X5969Y34417
X6223Y22860
X2921Y26416
X11455Y12649
X6985Y12573
X9525Y11176
X17780Y40640
X34290Y40640
X26670Y1270
X1270Y6350
X13259Y25552
X13208Y29058
X8306Y21107
X13056Y21082
X20523Y9601
X18771Y15138
X13386Y7061
X20803Y660
X94996Y34290
X18263Y635
X15265Y3962
X33528Y10033
X5969Y30607
X29210Y39370
X29210Y36830
X29210Y31750
X29210Y25400
X29210Y19050
X6350Y19050
X2540Y19050
X4445Y39243
X33401Y36830
X23470Y12929
X22860Y36830
X22860Y34290
X22860Y31750
X17780Y31750
X17780Y34290
X12700Y34290
X12700Y36830
X12700Y39370
X22860Y39370
X1270Y30480
X34925Y25146
X34925Y18796
X34925Y34036
X21590Y12319
X6604Y7112
X26111Y11506
X20523Y4343
X16307Y8484
X23368Y5664
X27889Y11506
X17653Y29083
X16383Y29083
X19050Y29083
X14859Y18923
X4572Y34163
X18009Y5512
X21717Y16154
X26162Y3886
X20320Y29083
X14986Y29083
X23317Y6807
X26518Y7211
X26568Y6525
X28778Y7188
X6985Y23368
X6985Y38354
X5334Y22860
X5334Y34722
X13970Y8890
X3810Y8890
X3683Y26670
X21971Y20320
X17907Y14986
X33528Y29337
X30226Y29337
X33528Y10922
X25451Y10973
X22047Y635
X19507Y635
X15875Y14249
X17094Y635
X12090Y7137
X8788Y8230
X7620Y1270
X12700Y1270
X18415Y18034
X128524Y29083
M30