G04 EAGLE Gerber RS-274X export*
G75*
%MOMM*%
%FSLAX34Y34*%
%LPD*%
%INInner Layer 2*%
%IPPOS*%
%AMOC8*
5,1,8,0,0,1.08239X$1,22.5*%
G01*
%ADD10C,0.279400*%
%ADD11C,1.524000*%
%ADD12C,0.558800*%
%ADD13C,0.254000*%

G36*
X52321Y2810D02*
X52321Y2810D01*
X52440Y2817D01*
X52478Y2830D01*
X52519Y2835D01*
X52629Y2878D01*
X52742Y2915D01*
X52777Y2937D01*
X52814Y2952D01*
X52910Y3021D01*
X53011Y3085D01*
X53039Y3115D01*
X53072Y3138D01*
X53148Y3230D01*
X53229Y3317D01*
X53249Y3352D01*
X53274Y3383D01*
X53325Y3491D01*
X53383Y3595D01*
X53393Y3635D01*
X53410Y3671D01*
X53432Y3788D01*
X53462Y3903D01*
X53466Y3963D01*
X53470Y3983D01*
X53468Y4004D01*
X53472Y4064D01*
X53472Y20553D01*
X53547Y20628D01*
X55245Y20628D01*
X55363Y20643D01*
X55482Y20650D01*
X55520Y20663D01*
X55561Y20668D01*
X55671Y20711D01*
X55784Y20748D01*
X55819Y20770D01*
X55856Y20785D01*
X55952Y20854D01*
X56053Y20918D01*
X56081Y20948D01*
X56114Y20971D01*
X56190Y21063D01*
X56271Y21150D01*
X56291Y21185D01*
X56316Y21216D01*
X56367Y21324D01*
X56425Y21428D01*
X56435Y21468D01*
X56452Y21504D01*
X56474Y21621D01*
X56504Y21736D01*
X56508Y21796D01*
X56512Y21816D01*
X56510Y21837D01*
X56514Y21897D01*
X56514Y42103D01*
X56499Y42221D01*
X56492Y42340D01*
X56479Y42378D01*
X56474Y42419D01*
X56431Y42529D01*
X56394Y42642D01*
X56372Y42677D01*
X56357Y42714D01*
X56288Y42810D01*
X56224Y42911D01*
X56194Y42939D01*
X56171Y42972D01*
X56079Y43048D01*
X55992Y43129D01*
X55957Y43149D01*
X55926Y43174D01*
X55818Y43225D01*
X55714Y43283D01*
X55674Y43293D01*
X55638Y43310D01*
X55521Y43332D01*
X55406Y43362D01*
X55346Y43366D01*
X55326Y43370D01*
X55305Y43368D01*
X55245Y43372D01*
X53547Y43372D01*
X53472Y43447D01*
X53472Y64553D01*
X53547Y64628D01*
X63653Y64628D01*
X63728Y64553D01*
X63728Y64135D01*
X63743Y64017D01*
X63750Y63898D01*
X63763Y63860D01*
X63768Y63819D01*
X63811Y63709D01*
X63848Y63596D01*
X63870Y63561D01*
X63885Y63524D01*
X63954Y63428D01*
X64018Y63327D01*
X64048Y63299D01*
X64071Y63266D01*
X64163Y63190D01*
X64250Y63109D01*
X64285Y63089D01*
X64316Y63064D01*
X64424Y63013D01*
X64528Y62955D01*
X64568Y62945D01*
X64604Y62928D01*
X64721Y62906D01*
X64836Y62876D01*
X64896Y62872D01*
X64916Y62868D01*
X64937Y62870D01*
X64997Y62866D01*
X138203Y62866D01*
X138321Y62881D01*
X138440Y62888D01*
X138478Y62901D01*
X138519Y62906D01*
X138629Y62949D01*
X138742Y62986D01*
X138777Y63008D01*
X138814Y63023D01*
X138910Y63092D01*
X139011Y63156D01*
X139039Y63186D01*
X139072Y63209D01*
X139148Y63301D01*
X139229Y63388D01*
X139249Y63423D01*
X139274Y63454D01*
X139325Y63562D01*
X139383Y63666D01*
X139393Y63706D01*
X139410Y63742D01*
X139432Y63859D01*
X139462Y63974D01*
X139466Y64034D01*
X139470Y64054D01*
X139468Y64075D01*
X139472Y64135D01*
X139472Y64553D01*
X139547Y64628D01*
X149653Y64628D01*
X149728Y64553D01*
X149728Y43447D01*
X149653Y43372D01*
X147955Y43372D01*
X147837Y43357D01*
X147718Y43350D01*
X147680Y43337D01*
X147639Y43332D01*
X147529Y43289D01*
X147416Y43252D01*
X147381Y43230D01*
X147344Y43215D01*
X147248Y43146D01*
X147147Y43082D01*
X147119Y43052D01*
X147086Y43029D01*
X147010Y42937D01*
X146929Y42850D01*
X146909Y42815D01*
X146884Y42784D01*
X146833Y42676D01*
X146775Y42572D01*
X146765Y42532D01*
X146748Y42496D01*
X146726Y42379D01*
X146696Y42264D01*
X146692Y42204D01*
X146688Y42184D01*
X146690Y42163D01*
X146686Y42103D01*
X146686Y21897D01*
X146701Y21779D01*
X146708Y21660D01*
X146721Y21622D01*
X146726Y21581D01*
X146769Y21471D01*
X146806Y21358D01*
X146828Y21323D01*
X146843Y21286D01*
X146912Y21190D01*
X146976Y21089D01*
X147006Y21061D01*
X147029Y21028D01*
X147121Y20952D01*
X147208Y20871D01*
X147243Y20851D01*
X147274Y20826D01*
X147382Y20775D01*
X147486Y20717D01*
X147526Y20707D01*
X147562Y20690D01*
X147679Y20668D01*
X147794Y20638D01*
X147854Y20634D01*
X147874Y20630D01*
X147895Y20632D01*
X147955Y20628D01*
X149653Y20628D01*
X149728Y20553D01*
X149728Y4064D01*
X149743Y3946D01*
X149750Y3827D01*
X149763Y3789D01*
X149768Y3748D01*
X149811Y3638D01*
X149848Y3525D01*
X149870Y3490D01*
X149885Y3453D01*
X149954Y3357D01*
X150018Y3256D01*
X150048Y3228D01*
X150071Y3195D01*
X150163Y3119D01*
X150250Y3038D01*
X150285Y3018D01*
X150316Y2993D01*
X150424Y2942D01*
X150528Y2884D01*
X150568Y2874D01*
X150604Y2857D01*
X150721Y2835D01*
X150836Y2805D01*
X150896Y2801D01*
X150916Y2797D01*
X150937Y2799D01*
X150997Y2795D01*
X165685Y2795D01*
X165823Y2812D01*
X165961Y2825D01*
X165980Y2832D01*
X166000Y2835D01*
X166129Y2886D01*
X166261Y2933D01*
X166277Y2944D01*
X166296Y2952D01*
X166408Y3033D01*
X166524Y3112D01*
X166537Y3127D01*
X166553Y3138D01*
X166642Y3246D01*
X166734Y3350D01*
X166743Y3368D01*
X166756Y3383D01*
X166815Y3509D01*
X166879Y3633D01*
X166883Y3653D01*
X166892Y3671D01*
X166918Y3807D01*
X166948Y3944D01*
X166948Y3964D01*
X166951Y3983D01*
X166943Y4122D01*
X166938Y4261D01*
X166933Y4281D01*
X166932Y4301D01*
X166889Y4433D01*
X166877Y4473D01*
X166877Y8034D01*
X169258Y10415D01*
X172626Y10415D01*
X175007Y8034D01*
X175007Y4487D01*
X174992Y4457D01*
X174989Y4437D01*
X174981Y4419D01*
X174959Y4281D01*
X174933Y4144D01*
X174934Y4124D01*
X174931Y4105D01*
X174944Y3966D01*
X174952Y3827D01*
X174959Y3808D01*
X174961Y3788D01*
X175008Y3657D01*
X175050Y3525D01*
X175061Y3508D01*
X175068Y3489D01*
X175146Y3373D01*
X175221Y3256D01*
X175235Y3242D01*
X175247Y3225D01*
X175351Y3134D01*
X175452Y3038D01*
X175470Y3028D01*
X175485Y3015D01*
X175609Y2952D01*
X175731Y2884D01*
X175750Y2879D01*
X175768Y2870D01*
X175904Y2840D01*
X176039Y2805D01*
X176067Y2803D01*
X176078Y2801D01*
X176099Y2801D01*
X176199Y2795D01*
X189815Y2795D01*
X189953Y2812D01*
X190091Y2825D01*
X190110Y2832D01*
X190130Y2835D01*
X190259Y2886D01*
X190391Y2933D01*
X190407Y2944D01*
X190426Y2952D01*
X190538Y3033D01*
X190654Y3112D01*
X190667Y3127D01*
X190683Y3138D01*
X190772Y3246D01*
X190864Y3350D01*
X190873Y3368D01*
X190886Y3383D01*
X190945Y3509D01*
X191009Y3633D01*
X191013Y3653D01*
X191022Y3671D01*
X191048Y3807D01*
X191078Y3944D01*
X191078Y3964D01*
X191081Y3983D01*
X191073Y4122D01*
X191068Y4261D01*
X191063Y4281D01*
X191062Y4301D01*
X191019Y4433D01*
X191007Y4473D01*
X191007Y8034D01*
X193388Y10415D01*
X196756Y10415D01*
X199137Y8034D01*
X199137Y4487D01*
X199122Y4457D01*
X199119Y4437D01*
X199111Y4419D01*
X199089Y4281D01*
X199063Y4144D01*
X199064Y4124D01*
X199061Y4105D01*
X199074Y3966D01*
X199082Y3827D01*
X199089Y3808D01*
X199091Y3788D01*
X199138Y3657D01*
X199180Y3525D01*
X199191Y3508D01*
X199198Y3489D01*
X199276Y3373D01*
X199351Y3256D01*
X199365Y3242D01*
X199377Y3225D01*
X199481Y3134D01*
X199582Y3038D01*
X199600Y3028D01*
X199615Y3015D01*
X199739Y2952D01*
X199861Y2884D01*
X199880Y2879D01*
X199898Y2870D01*
X200034Y2840D01*
X200169Y2805D01*
X200197Y2803D01*
X200208Y2801D01*
X200229Y2801D01*
X200329Y2795D01*
X215215Y2795D01*
X215353Y2812D01*
X215491Y2825D01*
X215510Y2832D01*
X215530Y2835D01*
X215659Y2886D01*
X215791Y2933D01*
X215807Y2944D01*
X215826Y2952D01*
X215938Y3033D01*
X216054Y3112D01*
X216067Y3127D01*
X216083Y3138D01*
X216172Y3246D01*
X216264Y3350D01*
X216273Y3368D01*
X216286Y3383D01*
X216345Y3509D01*
X216409Y3633D01*
X216413Y3653D01*
X216422Y3671D01*
X216448Y3807D01*
X216478Y3944D01*
X216478Y3964D01*
X216481Y3983D01*
X216473Y4122D01*
X216468Y4261D01*
X216463Y4281D01*
X216462Y4301D01*
X216419Y4433D01*
X216407Y4473D01*
X216407Y8034D01*
X218788Y10415D01*
X222156Y10415D01*
X224537Y8034D01*
X224537Y4487D01*
X224522Y4457D01*
X224519Y4437D01*
X224511Y4419D01*
X224489Y4281D01*
X224463Y4144D01*
X224464Y4124D01*
X224461Y4105D01*
X224474Y3966D01*
X224482Y3827D01*
X224489Y3808D01*
X224491Y3788D01*
X224538Y3657D01*
X224580Y3525D01*
X224591Y3508D01*
X224598Y3489D01*
X224676Y3373D01*
X224751Y3256D01*
X224765Y3242D01*
X224777Y3225D01*
X224881Y3134D01*
X224982Y3038D01*
X225000Y3028D01*
X225015Y3015D01*
X225139Y2952D01*
X225261Y2884D01*
X225280Y2879D01*
X225298Y2870D01*
X225434Y2840D01*
X225569Y2805D01*
X225597Y2803D01*
X225608Y2801D01*
X225629Y2801D01*
X225729Y2795D01*
X351536Y2795D01*
X351654Y2810D01*
X351773Y2817D01*
X351811Y2830D01*
X351852Y2835D01*
X351962Y2878D01*
X352075Y2915D01*
X352110Y2937D01*
X352147Y2952D01*
X352243Y3021D01*
X352344Y3085D01*
X352372Y3115D01*
X352405Y3138D01*
X352481Y3230D01*
X352562Y3317D01*
X352582Y3352D01*
X352607Y3383D01*
X352658Y3491D01*
X352716Y3595D01*
X352726Y3635D01*
X352743Y3671D01*
X352765Y3788D01*
X352795Y3903D01*
X352799Y3963D01*
X352803Y3983D01*
X352801Y4004D01*
X352805Y4064D01*
X352805Y416560D01*
X352790Y416678D01*
X352783Y416797D01*
X352770Y416835D01*
X352765Y416876D01*
X352722Y416986D01*
X352685Y417099D01*
X352663Y417134D01*
X352648Y417171D01*
X352579Y417267D01*
X352515Y417368D01*
X352485Y417396D01*
X352462Y417429D01*
X352370Y417504D01*
X352283Y417586D01*
X352248Y417606D01*
X352217Y417631D01*
X352109Y417682D01*
X352005Y417740D01*
X351965Y417750D01*
X351929Y417767D01*
X351812Y417789D01*
X351697Y417819D01*
X351637Y417823D01*
X351617Y417827D01*
X351596Y417825D01*
X351536Y417829D01*
X4064Y417829D01*
X3946Y417814D01*
X3827Y417807D01*
X3789Y417794D01*
X3748Y417789D01*
X3638Y417746D01*
X3525Y417709D01*
X3490Y417687D01*
X3453Y417672D01*
X3357Y417602D01*
X3256Y417539D01*
X3228Y417509D01*
X3195Y417486D01*
X3119Y417394D01*
X3038Y417307D01*
X3018Y417272D01*
X2993Y417241D01*
X2942Y417133D01*
X2884Y417029D01*
X2874Y416989D01*
X2857Y416953D01*
X2835Y416836D01*
X2805Y416721D01*
X2801Y416660D01*
X2797Y416640D01*
X2799Y416620D01*
X2795Y416560D01*
X2795Y4064D01*
X2810Y3946D01*
X2817Y3827D01*
X2830Y3789D01*
X2835Y3748D01*
X2878Y3638D01*
X2915Y3525D01*
X2937Y3490D01*
X2952Y3453D01*
X3021Y3357D01*
X3085Y3256D01*
X3115Y3228D01*
X3138Y3195D01*
X3230Y3119D01*
X3317Y3038D01*
X3352Y3018D01*
X3383Y2993D01*
X3491Y2942D01*
X3595Y2884D01*
X3635Y2874D01*
X3671Y2857D01*
X3788Y2835D01*
X3903Y2805D01*
X3963Y2801D01*
X3983Y2797D01*
X4004Y2799D01*
X4064Y2795D01*
X52203Y2795D01*
X52321Y2810D01*
G37*
G36*
X413001Y2810D02*
X413001Y2810D01*
X413120Y2817D01*
X413158Y2830D01*
X413199Y2835D01*
X413309Y2878D01*
X413422Y2915D01*
X413457Y2937D01*
X413494Y2952D01*
X413590Y3021D01*
X413691Y3085D01*
X413719Y3115D01*
X413752Y3138D01*
X413828Y3230D01*
X413909Y3317D01*
X413929Y3352D01*
X413954Y3383D01*
X414005Y3491D01*
X414063Y3595D01*
X414073Y3635D01*
X414090Y3671D01*
X414112Y3788D01*
X414142Y3903D01*
X414146Y3963D01*
X414150Y3983D01*
X414148Y4004D01*
X414152Y4064D01*
X414152Y20553D01*
X414227Y20628D01*
X415925Y20628D01*
X416043Y20643D01*
X416162Y20650D01*
X416200Y20663D01*
X416241Y20668D01*
X416351Y20711D01*
X416464Y20748D01*
X416499Y20770D01*
X416536Y20785D01*
X416632Y20854D01*
X416733Y20918D01*
X416761Y20948D01*
X416794Y20971D01*
X416870Y21063D01*
X416951Y21150D01*
X416971Y21185D01*
X416996Y21216D01*
X417047Y21324D01*
X417105Y21428D01*
X417115Y21468D01*
X417132Y21504D01*
X417154Y21621D01*
X417184Y21736D01*
X417188Y21796D01*
X417192Y21816D01*
X417190Y21837D01*
X417194Y21897D01*
X417194Y42103D01*
X417179Y42221D01*
X417172Y42340D01*
X417159Y42378D01*
X417154Y42419D01*
X417111Y42529D01*
X417074Y42642D01*
X417052Y42677D01*
X417037Y42714D01*
X416968Y42810D01*
X416904Y42911D01*
X416874Y42939D01*
X416851Y42972D01*
X416759Y43048D01*
X416672Y43129D01*
X416637Y43149D01*
X416606Y43174D01*
X416498Y43225D01*
X416394Y43283D01*
X416354Y43293D01*
X416318Y43310D01*
X416201Y43332D01*
X416086Y43362D01*
X416026Y43366D01*
X416006Y43370D01*
X415985Y43368D01*
X415925Y43372D01*
X414227Y43372D01*
X414152Y43447D01*
X414152Y64553D01*
X414227Y64628D01*
X424333Y64628D01*
X424408Y64553D01*
X424408Y64135D01*
X424423Y64017D01*
X424430Y63898D01*
X424443Y63860D01*
X424448Y63819D01*
X424491Y63709D01*
X424528Y63596D01*
X424550Y63561D01*
X424565Y63524D01*
X424634Y63428D01*
X424698Y63327D01*
X424728Y63299D01*
X424751Y63266D01*
X424843Y63190D01*
X424930Y63109D01*
X424965Y63089D01*
X424996Y63064D01*
X425104Y63013D01*
X425208Y62955D01*
X425248Y62945D01*
X425284Y62928D01*
X425401Y62906D01*
X425516Y62876D01*
X425576Y62872D01*
X425596Y62868D01*
X425617Y62870D01*
X425677Y62866D01*
X498883Y62866D01*
X499001Y62881D01*
X499120Y62888D01*
X499158Y62901D01*
X499199Y62906D01*
X499309Y62949D01*
X499422Y62986D01*
X499457Y63008D01*
X499494Y63023D01*
X499590Y63092D01*
X499691Y63156D01*
X499719Y63186D01*
X499752Y63209D01*
X499828Y63301D01*
X499909Y63388D01*
X499929Y63423D01*
X499954Y63454D01*
X500005Y63562D01*
X500063Y63666D01*
X500073Y63706D01*
X500090Y63742D01*
X500112Y63859D01*
X500142Y63974D01*
X500146Y64034D01*
X500150Y64054D01*
X500148Y64075D01*
X500152Y64135D01*
X500152Y64553D01*
X500227Y64628D01*
X510333Y64628D01*
X510408Y64553D01*
X510408Y43447D01*
X510333Y43372D01*
X508635Y43372D01*
X508517Y43357D01*
X508398Y43350D01*
X508360Y43337D01*
X508319Y43332D01*
X508209Y43289D01*
X508096Y43252D01*
X508061Y43230D01*
X508024Y43215D01*
X507928Y43146D01*
X507827Y43082D01*
X507799Y43052D01*
X507766Y43029D01*
X507690Y42937D01*
X507609Y42850D01*
X507589Y42815D01*
X507564Y42784D01*
X507513Y42676D01*
X507455Y42572D01*
X507445Y42532D01*
X507428Y42496D01*
X507406Y42379D01*
X507376Y42264D01*
X507372Y42204D01*
X507368Y42184D01*
X507370Y42163D01*
X507366Y42103D01*
X507366Y21897D01*
X507381Y21779D01*
X507388Y21660D01*
X507401Y21622D01*
X507406Y21581D01*
X507449Y21471D01*
X507486Y21358D01*
X507508Y21323D01*
X507523Y21286D01*
X507592Y21190D01*
X507656Y21089D01*
X507686Y21061D01*
X507709Y21028D01*
X507801Y20952D01*
X507888Y20871D01*
X507923Y20851D01*
X507954Y20826D01*
X508062Y20775D01*
X508166Y20717D01*
X508206Y20707D01*
X508242Y20690D01*
X508359Y20668D01*
X508474Y20638D01*
X508534Y20634D01*
X508554Y20630D01*
X508575Y20632D01*
X508635Y20628D01*
X510333Y20628D01*
X510408Y20553D01*
X510408Y4064D01*
X510423Y3946D01*
X510430Y3827D01*
X510443Y3789D01*
X510448Y3748D01*
X510491Y3638D01*
X510528Y3525D01*
X510550Y3490D01*
X510565Y3453D01*
X510634Y3357D01*
X510698Y3256D01*
X510728Y3228D01*
X510751Y3195D01*
X510843Y3119D01*
X510930Y3038D01*
X510965Y3018D01*
X510996Y2993D01*
X511104Y2942D01*
X511208Y2884D01*
X511248Y2874D01*
X511284Y2857D01*
X511401Y2835D01*
X511516Y2805D01*
X511576Y2801D01*
X511596Y2797D01*
X511617Y2799D01*
X511677Y2795D01*
X526365Y2795D01*
X526503Y2812D01*
X526641Y2825D01*
X526660Y2832D01*
X526680Y2835D01*
X526809Y2886D01*
X526941Y2933D01*
X526957Y2944D01*
X526976Y2952D01*
X527088Y3033D01*
X527204Y3112D01*
X527217Y3127D01*
X527233Y3138D01*
X527322Y3246D01*
X527414Y3350D01*
X527423Y3368D01*
X527436Y3383D01*
X527495Y3509D01*
X527559Y3633D01*
X527563Y3653D01*
X527572Y3671D01*
X527598Y3807D01*
X527628Y3944D01*
X527628Y3964D01*
X527631Y3983D01*
X527623Y4122D01*
X527618Y4261D01*
X527613Y4281D01*
X527612Y4301D01*
X527569Y4433D01*
X527557Y4473D01*
X527557Y8034D01*
X529938Y10415D01*
X533306Y10415D01*
X535687Y8034D01*
X535687Y4487D01*
X535672Y4457D01*
X535669Y4437D01*
X535661Y4419D01*
X535639Y4281D01*
X535613Y4144D01*
X535614Y4124D01*
X535611Y4105D01*
X535624Y3966D01*
X535632Y3827D01*
X535639Y3808D01*
X535641Y3788D01*
X535688Y3657D01*
X535730Y3525D01*
X535741Y3508D01*
X535748Y3489D01*
X535826Y3373D01*
X535901Y3256D01*
X535915Y3242D01*
X535927Y3225D01*
X536031Y3134D01*
X536132Y3038D01*
X536150Y3028D01*
X536165Y3015D01*
X536289Y2952D01*
X536411Y2884D01*
X536430Y2879D01*
X536448Y2870D01*
X536584Y2840D01*
X536719Y2805D01*
X536747Y2803D01*
X536758Y2801D01*
X536779Y2801D01*
X536879Y2795D01*
X550495Y2795D01*
X550633Y2812D01*
X550771Y2825D01*
X550790Y2832D01*
X550810Y2835D01*
X550939Y2886D01*
X551071Y2933D01*
X551087Y2944D01*
X551106Y2952D01*
X551218Y3033D01*
X551334Y3112D01*
X551347Y3127D01*
X551363Y3138D01*
X551452Y3246D01*
X551544Y3350D01*
X551553Y3368D01*
X551566Y3383D01*
X551625Y3509D01*
X551689Y3633D01*
X551693Y3653D01*
X551702Y3671D01*
X551728Y3807D01*
X551758Y3944D01*
X551758Y3964D01*
X551761Y3983D01*
X551753Y4122D01*
X551748Y4261D01*
X551743Y4281D01*
X551742Y4301D01*
X551699Y4433D01*
X551687Y4473D01*
X551687Y8034D01*
X554068Y10415D01*
X557436Y10415D01*
X559817Y8034D01*
X559817Y4487D01*
X559802Y4457D01*
X559799Y4437D01*
X559791Y4419D01*
X559769Y4281D01*
X559743Y4144D01*
X559744Y4124D01*
X559741Y4105D01*
X559754Y3966D01*
X559762Y3827D01*
X559769Y3808D01*
X559771Y3788D01*
X559818Y3657D01*
X559860Y3525D01*
X559871Y3508D01*
X559878Y3489D01*
X559956Y3373D01*
X560031Y3256D01*
X560045Y3242D01*
X560057Y3225D01*
X560161Y3134D01*
X560262Y3038D01*
X560280Y3028D01*
X560295Y3015D01*
X560419Y2952D01*
X560541Y2884D01*
X560560Y2879D01*
X560578Y2870D01*
X560714Y2840D01*
X560849Y2805D01*
X560877Y2803D01*
X560888Y2801D01*
X560909Y2801D01*
X561009Y2795D01*
X575895Y2795D01*
X576033Y2812D01*
X576171Y2825D01*
X576190Y2832D01*
X576210Y2835D01*
X576339Y2886D01*
X576471Y2933D01*
X576487Y2944D01*
X576506Y2952D01*
X576618Y3033D01*
X576734Y3112D01*
X576747Y3127D01*
X576763Y3138D01*
X576852Y3246D01*
X576944Y3350D01*
X576953Y3368D01*
X576966Y3383D01*
X577025Y3509D01*
X577089Y3633D01*
X577093Y3653D01*
X577102Y3671D01*
X577128Y3807D01*
X577158Y3944D01*
X577158Y3964D01*
X577161Y3983D01*
X577153Y4122D01*
X577148Y4261D01*
X577143Y4281D01*
X577142Y4301D01*
X577099Y4433D01*
X577087Y4473D01*
X577087Y8034D01*
X579468Y10415D01*
X582836Y10415D01*
X585217Y8034D01*
X585217Y4487D01*
X585202Y4457D01*
X585199Y4437D01*
X585191Y4419D01*
X585169Y4281D01*
X585143Y4144D01*
X585144Y4124D01*
X585141Y4105D01*
X585154Y3966D01*
X585162Y3827D01*
X585169Y3808D01*
X585171Y3788D01*
X585218Y3657D01*
X585260Y3525D01*
X585271Y3508D01*
X585278Y3489D01*
X585356Y3373D01*
X585431Y3256D01*
X585445Y3242D01*
X585457Y3225D01*
X585561Y3134D01*
X585662Y3038D01*
X585680Y3028D01*
X585695Y3015D01*
X585819Y2952D01*
X585941Y2884D01*
X585960Y2879D01*
X585978Y2870D01*
X586114Y2840D01*
X586249Y2805D01*
X586277Y2803D01*
X586288Y2801D01*
X586309Y2801D01*
X586409Y2795D01*
X712216Y2795D01*
X712334Y2810D01*
X712453Y2817D01*
X712491Y2830D01*
X712532Y2835D01*
X712642Y2878D01*
X712755Y2915D01*
X712790Y2937D01*
X712827Y2952D01*
X712923Y3021D01*
X713024Y3085D01*
X713052Y3115D01*
X713085Y3138D01*
X713161Y3230D01*
X713242Y3317D01*
X713262Y3352D01*
X713287Y3383D01*
X713338Y3491D01*
X713396Y3595D01*
X713406Y3635D01*
X713423Y3671D01*
X713445Y3788D01*
X713475Y3903D01*
X713479Y3963D01*
X713483Y3983D01*
X713481Y4004D01*
X713485Y4064D01*
X713485Y416560D01*
X713470Y416678D01*
X713463Y416797D01*
X713450Y416835D01*
X713445Y416876D01*
X713402Y416986D01*
X713365Y417099D01*
X713343Y417134D01*
X713328Y417171D01*
X713259Y417267D01*
X713195Y417368D01*
X713165Y417396D01*
X713142Y417429D01*
X713050Y417504D01*
X712963Y417586D01*
X712928Y417606D01*
X712897Y417631D01*
X712789Y417682D01*
X712685Y417740D01*
X712645Y417750D01*
X712609Y417767D01*
X712492Y417789D01*
X712377Y417819D01*
X712317Y417823D01*
X712297Y417827D01*
X712276Y417825D01*
X712216Y417829D01*
X364744Y417829D01*
X364626Y417814D01*
X364507Y417807D01*
X364469Y417794D01*
X364428Y417789D01*
X364318Y417746D01*
X364205Y417709D01*
X364170Y417687D01*
X364133Y417672D01*
X364037Y417602D01*
X363936Y417539D01*
X363908Y417509D01*
X363875Y417486D01*
X363799Y417394D01*
X363718Y417307D01*
X363698Y417272D01*
X363673Y417241D01*
X363622Y417133D01*
X363564Y417029D01*
X363554Y416989D01*
X363537Y416953D01*
X363515Y416836D01*
X363485Y416721D01*
X363481Y416660D01*
X363477Y416640D01*
X363479Y416620D01*
X363475Y416560D01*
X363475Y4064D01*
X363490Y3946D01*
X363497Y3827D01*
X363510Y3789D01*
X363515Y3748D01*
X363558Y3638D01*
X363595Y3525D01*
X363617Y3490D01*
X363632Y3453D01*
X363701Y3357D01*
X363765Y3256D01*
X363795Y3228D01*
X363818Y3195D01*
X363910Y3119D01*
X363997Y3038D01*
X364032Y3018D01*
X364063Y2993D01*
X364171Y2942D01*
X364275Y2884D01*
X364315Y2874D01*
X364351Y2857D01*
X364468Y2835D01*
X364583Y2805D01*
X364643Y2801D01*
X364663Y2797D01*
X364684Y2799D01*
X364744Y2795D01*
X412883Y2795D01*
X413001Y2810D01*
G37*
G36*
X773681Y2810D02*
X773681Y2810D01*
X773800Y2817D01*
X773838Y2830D01*
X773879Y2835D01*
X773989Y2878D01*
X774102Y2915D01*
X774137Y2937D01*
X774174Y2952D01*
X774270Y3021D01*
X774371Y3085D01*
X774399Y3115D01*
X774432Y3138D01*
X774508Y3230D01*
X774589Y3317D01*
X774609Y3352D01*
X774634Y3383D01*
X774685Y3491D01*
X774743Y3595D01*
X774753Y3635D01*
X774770Y3671D01*
X774792Y3788D01*
X774822Y3903D01*
X774826Y3963D01*
X774830Y3983D01*
X774828Y4004D01*
X774832Y4064D01*
X774832Y20553D01*
X774907Y20628D01*
X776605Y20628D01*
X776723Y20643D01*
X776842Y20650D01*
X776880Y20663D01*
X776921Y20668D01*
X777031Y20711D01*
X777144Y20748D01*
X777179Y20770D01*
X777216Y20785D01*
X777312Y20854D01*
X777413Y20918D01*
X777441Y20948D01*
X777474Y20971D01*
X777550Y21063D01*
X777631Y21150D01*
X777651Y21185D01*
X777676Y21216D01*
X777727Y21324D01*
X777785Y21428D01*
X777795Y21468D01*
X777812Y21504D01*
X777834Y21621D01*
X777864Y21736D01*
X777868Y21796D01*
X777872Y21816D01*
X777870Y21837D01*
X777874Y21897D01*
X777874Y42103D01*
X777859Y42221D01*
X777852Y42340D01*
X777839Y42378D01*
X777834Y42419D01*
X777791Y42529D01*
X777754Y42642D01*
X777732Y42677D01*
X777717Y42714D01*
X777648Y42810D01*
X777584Y42911D01*
X777554Y42939D01*
X777531Y42972D01*
X777439Y43048D01*
X777352Y43129D01*
X777317Y43149D01*
X777286Y43174D01*
X777178Y43225D01*
X777074Y43283D01*
X777034Y43293D01*
X776998Y43310D01*
X776881Y43332D01*
X776766Y43362D01*
X776706Y43366D01*
X776686Y43370D01*
X776665Y43368D01*
X776605Y43372D01*
X774907Y43372D01*
X774832Y43447D01*
X774832Y64553D01*
X774907Y64628D01*
X785013Y64628D01*
X785088Y64553D01*
X785088Y64135D01*
X785103Y64017D01*
X785110Y63898D01*
X785123Y63860D01*
X785128Y63819D01*
X785171Y63709D01*
X785208Y63596D01*
X785230Y63561D01*
X785245Y63524D01*
X785314Y63428D01*
X785378Y63327D01*
X785408Y63299D01*
X785431Y63266D01*
X785523Y63190D01*
X785610Y63109D01*
X785645Y63089D01*
X785676Y63064D01*
X785784Y63013D01*
X785888Y62955D01*
X785928Y62945D01*
X785964Y62928D01*
X786081Y62906D01*
X786196Y62876D01*
X786256Y62872D01*
X786276Y62868D01*
X786297Y62870D01*
X786357Y62866D01*
X859563Y62866D01*
X859681Y62881D01*
X859800Y62888D01*
X859838Y62901D01*
X859879Y62906D01*
X859989Y62949D01*
X860102Y62986D01*
X860137Y63008D01*
X860174Y63023D01*
X860270Y63092D01*
X860371Y63156D01*
X860399Y63186D01*
X860432Y63209D01*
X860508Y63301D01*
X860589Y63388D01*
X860609Y63423D01*
X860634Y63454D01*
X860685Y63562D01*
X860743Y63666D01*
X860753Y63706D01*
X860770Y63742D01*
X860792Y63859D01*
X860822Y63974D01*
X860826Y64034D01*
X860830Y64054D01*
X860828Y64075D01*
X860832Y64135D01*
X860832Y64553D01*
X860907Y64628D01*
X871013Y64628D01*
X871088Y64553D01*
X871088Y43447D01*
X871013Y43372D01*
X869315Y43372D01*
X869197Y43357D01*
X869078Y43350D01*
X869040Y43337D01*
X868999Y43332D01*
X868889Y43289D01*
X868776Y43252D01*
X868741Y43230D01*
X868704Y43215D01*
X868608Y43146D01*
X868507Y43082D01*
X868479Y43052D01*
X868446Y43029D01*
X868370Y42937D01*
X868289Y42850D01*
X868269Y42815D01*
X868244Y42784D01*
X868193Y42676D01*
X868135Y42572D01*
X868125Y42532D01*
X868108Y42496D01*
X868086Y42379D01*
X868056Y42264D01*
X868052Y42204D01*
X868048Y42184D01*
X868050Y42163D01*
X868046Y42103D01*
X868046Y21897D01*
X868061Y21779D01*
X868068Y21660D01*
X868081Y21622D01*
X868086Y21581D01*
X868129Y21471D01*
X868166Y21358D01*
X868188Y21323D01*
X868203Y21286D01*
X868272Y21190D01*
X868336Y21089D01*
X868366Y21061D01*
X868389Y21028D01*
X868481Y20952D01*
X868568Y20871D01*
X868603Y20851D01*
X868634Y20826D01*
X868742Y20775D01*
X868846Y20717D01*
X868886Y20707D01*
X868922Y20690D01*
X869039Y20668D01*
X869154Y20638D01*
X869214Y20634D01*
X869234Y20630D01*
X869255Y20632D01*
X869315Y20628D01*
X871013Y20628D01*
X871088Y20553D01*
X871088Y4064D01*
X871103Y3946D01*
X871110Y3827D01*
X871123Y3789D01*
X871128Y3748D01*
X871171Y3638D01*
X871208Y3525D01*
X871230Y3490D01*
X871245Y3453D01*
X871314Y3357D01*
X871378Y3256D01*
X871408Y3228D01*
X871431Y3195D01*
X871523Y3119D01*
X871610Y3038D01*
X871645Y3018D01*
X871676Y2993D01*
X871784Y2942D01*
X871888Y2884D01*
X871928Y2874D01*
X871964Y2857D01*
X872081Y2835D01*
X872196Y2805D01*
X872256Y2801D01*
X872276Y2797D01*
X872297Y2799D01*
X872357Y2795D01*
X887045Y2795D01*
X887183Y2812D01*
X887321Y2825D01*
X887340Y2832D01*
X887360Y2835D01*
X887489Y2886D01*
X887621Y2933D01*
X887637Y2944D01*
X887656Y2952D01*
X887768Y3033D01*
X887884Y3112D01*
X887897Y3127D01*
X887913Y3138D01*
X888002Y3246D01*
X888094Y3350D01*
X888103Y3368D01*
X888116Y3383D01*
X888175Y3509D01*
X888239Y3633D01*
X888243Y3653D01*
X888252Y3671D01*
X888278Y3807D01*
X888308Y3944D01*
X888308Y3964D01*
X888311Y3983D01*
X888303Y4122D01*
X888298Y4261D01*
X888293Y4281D01*
X888292Y4301D01*
X888249Y4433D01*
X888237Y4473D01*
X888237Y8034D01*
X890618Y10415D01*
X893986Y10415D01*
X896367Y8034D01*
X896367Y4487D01*
X896352Y4457D01*
X896349Y4437D01*
X896341Y4419D01*
X896319Y4281D01*
X896293Y4144D01*
X896294Y4124D01*
X896291Y4105D01*
X896304Y3966D01*
X896312Y3827D01*
X896319Y3808D01*
X896321Y3788D01*
X896368Y3657D01*
X896410Y3525D01*
X896421Y3508D01*
X896428Y3489D01*
X896506Y3373D01*
X896581Y3256D01*
X896595Y3242D01*
X896607Y3225D01*
X896711Y3134D01*
X896812Y3038D01*
X896830Y3028D01*
X896845Y3015D01*
X896969Y2952D01*
X897091Y2884D01*
X897110Y2879D01*
X897128Y2870D01*
X897264Y2840D01*
X897399Y2805D01*
X897427Y2803D01*
X897438Y2801D01*
X897459Y2801D01*
X897559Y2795D01*
X911175Y2795D01*
X911313Y2812D01*
X911451Y2825D01*
X911470Y2832D01*
X911490Y2835D01*
X911619Y2886D01*
X911751Y2933D01*
X911767Y2944D01*
X911786Y2952D01*
X911898Y3033D01*
X912014Y3112D01*
X912027Y3127D01*
X912043Y3138D01*
X912132Y3246D01*
X912224Y3350D01*
X912233Y3368D01*
X912246Y3383D01*
X912305Y3509D01*
X912369Y3633D01*
X912373Y3653D01*
X912382Y3671D01*
X912408Y3807D01*
X912438Y3944D01*
X912438Y3964D01*
X912441Y3983D01*
X912433Y4122D01*
X912428Y4261D01*
X912423Y4281D01*
X912422Y4301D01*
X912379Y4433D01*
X912367Y4473D01*
X912367Y8034D01*
X914748Y10415D01*
X918116Y10415D01*
X920497Y8034D01*
X920497Y4487D01*
X920482Y4457D01*
X920479Y4437D01*
X920471Y4419D01*
X920449Y4281D01*
X920423Y4144D01*
X920424Y4124D01*
X920421Y4105D01*
X920434Y3966D01*
X920442Y3827D01*
X920449Y3808D01*
X920451Y3788D01*
X920498Y3657D01*
X920540Y3525D01*
X920551Y3508D01*
X920558Y3489D01*
X920636Y3373D01*
X920711Y3256D01*
X920725Y3242D01*
X920737Y3225D01*
X920841Y3134D01*
X920942Y3038D01*
X920960Y3028D01*
X920975Y3015D01*
X921099Y2952D01*
X921221Y2884D01*
X921240Y2879D01*
X921258Y2870D01*
X921394Y2840D01*
X921529Y2805D01*
X921557Y2803D01*
X921568Y2801D01*
X921589Y2801D01*
X921689Y2795D01*
X936575Y2795D01*
X936713Y2812D01*
X936851Y2825D01*
X936870Y2832D01*
X936890Y2835D01*
X937019Y2886D01*
X937151Y2933D01*
X937167Y2944D01*
X937186Y2952D01*
X937298Y3033D01*
X937414Y3112D01*
X937427Y3127D01*
X937443Y3138D01*
X937532Y3246D01*
X937624Y3350D01*
X937633Y3368D01*
X937646Y3383D01*
X937705Y3509D01*
X937769Y3633D01*
X937773Y3653D01*
X937782Y3671D01*
X937808Y3807D01*
X937838Y3944D01*
X937838Y3964D01*
X937841Y3983D01*
X937833Y4122D01*
X937828Y4261D01*
X937823Y4281D01*
X937822Y4301D01*
X937779Y4433D01*
X937767Y4473D01*
X937767Y8034D01*
X940148Y10415D01*
X943516Y10415D01*
X945897Y8034D01*
X945897Y4487D01*
X945882Y4457D01*
X945879Y4437D01*
X945871Y4419D01*
X945849Y4281D01*
X945823Y4144D01*
X945824Y4124D01*
X945821Y4105D01*
X945834Y3966D01*
X945842Y3827D01*
X945849Y3808D01*
X945851Y3788D01*
X945898Y3657D01*
X945940Y3525D01*
X945951Y3508D01*
X945958Y3489D01*
X946036Y3373D01*
X946111Y3256D01*
X946125Y3242D01*
X946137Y3225D01*
X946241Y3134D01*
X946342Y3038D01*
X946360Y3028D01*
X946375Y3015D01*
X946499Y2952D01*
X946621Y2884D01*
X946640Y2879D01*
X946658Y2870D01*
X946794Y2840D01*
X946929Y2805D01*
X946957Y2803D01*
X946968Y2801D01*
X946989Y2801D01*
X947089Y2795D01*
X1072896Y2795D01*
X1073014Y2810D01*
X1073133Y2817D01*
X1073171Y2830D01*
X1073212Y2835D01*
X1073322Y2878D01*
X1073435Y2915D01*
X1073470Y2937D01*
X1073507Y2952D01*
X1073603Y3021D01*
X1073704Y3085D01*
X1073732Y3115D01*
X1073765Y3138D01*
X1073841Y3230D01*
X1073922Y3317D01*
X1073942Y3352D01*
X1073967Y3383D01*
X1074018Y3491D01*
X1074076Y3595D01*
X1074086Y3635D01*
X1074103Y3671D01*
X1074125Y3788D01*
X1074155Y3903D01*
X1074159Y3963D01*
X1074163Y3983D01*
X1074161Y4004D01*
X1074165Y4064D01*
X1074165Y416560D01*
X1074150Y416678D01*
X1074143Y416797D01*
X1074130Y416835D01*
X1074125Y416876D01*
X1074082Y416986D01*
X1074045Y417099D01*
X1074023Y417134D01*
X1074008Y417171D01*
X1073939Y417267D01*
X1073875Y417368D01*
X1073845Y417396D01*
X1073822Y417429D01*
X1073730Y417504D01*
X1073643Y417586D01*
X1073608Y417606D01*
X1073577Y417631D01*
X1073469Y417682D01*
X1073365Y417740D01*
X1073325Y417750D01*
X1073289Y417767D01*
X1073172Y417789D01*
X1073057Y417819D01*
X1072997Y417823D01*
X1072977Y417827D01*
X1072956Y417825D01*
X1072896Y417829D01*
X725424Y417829D01*
X725306Y417814D01*
X725187Y417807D01*
X725149Y417794D01*
X725108Y417789D01*
X724998Y417746D01*
X724885Y417709D01*
X724850Y417687D01*
X724813Y417672D01*
X724717Y417602D01*
X724616Y417539D01*
X724588Y417509D01*
X724555Y417486D01*
X724479Y417394D01*
X724398Y417307D01*
X724378Y417272D01*
X724353Y417241D01*
X724302Y417133D01*
X724244Y417029D01*
X724234Y416989D01*
X724217Y416953D01*
X724195Y416836D01*
X724165Y416721D01*
X724161Y416660D01*
X724157Y416640D01*
X724159Y416620D01*
X724155Y416560D01*
X724155Y4064D01*
X724170Y3946D01*
X724177Y3827D01*
X724190Y3789D01*
X724195Y3748D01*
X724238Y3638D01*
X724275Y3525D01*
X724297Y3490D01*
X724312Y3453D01*
X724381Y3357D01*
X724445Y3256D01*
X724475Y3228D01*
X724498Y3195D01*
X724590Y3119D01*
X724677Y3038D01*
X724712Y3018D01*
X724743Y2993D01*
X724851Y2942D01*
X724955Y2884D01*
X724995Y2874D01*
X725031Y2857D01*
X725148Y2835D01*
X725263Y2805D01*
X725323Y2801D01*
X725343Y2797D01*
X725364Y2799D01*
X725424Y2795D01*
X773563Y2795D01*
X773681Y2810D01*
G37*
G36*
X1134361Y2810D02*
X1134361Y2810D01*
X1134480Y2817D01*
X1134518Y2830D01*
X1134559Y2835D01*
X1134669Y2878D01*
X1134782Y2915D01*
X1134817Y2937D01*
X1134854Y2952D01*
X1134950Y3021D01*
X1135051Y3085D01*
X1135079Y3115D01*
X1135112Y3138D01*
X1135188Y3230D01*
X1135269Y3317D01*
X1135289Y3352D01*
X1135314Y3383D01*
X1135365Y3491D01*
X1135423Y3595D01*
X1135433Y3635D01*
X1135450Y3671D01*
X1135472Y3788D01*
X1135502Y3903D01*
X1135506Y3963D01*
X1135510Y3983D01*
X1135508Y4004D01*
X1135512Y4064D01*
X1135512Y20553D01*
X1135587Y20628D01*
X1137285Y20628D01*
X1137403Y20643D01*
X1137522Y20650D01*
X1137560Y20663D01*
X1137601Y20668D01*
X1137711Y20711D01*
X1137824Y20748D01*
X1137859Y20770D01*
X1137896Y20785D01*
X1137992Y20854D01*
X1138093Y20918D01*
X1138121Y20948D01*
X1138154Y20971D01*
X1138230Y21063D01*
X1138311Y21150D01*
X1138331Y21185D01*
X1138356Y21216D01*
X1138407Y21324D01*
X1138465Y21428D01*
X1138475Y21468D01*
X1138492Y21504D01*
X1138514Y21621D01*
X1138544Y21736D01*
X1138548Y21796D01*
X1138552Y21816D01*
X1138550Y21837D01*
X1138554Y21897D01*
X1138554Y42103D01*
X1138539Y42221D01*
X1138532Y42340D01*
X1138519Y42378D01*
X1138514Y42419D01*
X1138471Y42529D01*
X1138434Y42642D01*
X1138412Y42677D01*
X1138397Y42714D01*
X1138328Y42810D01*
X1138264Y42911D01*
X1138234Y42939D01*
X1138211Y42972D01*
X1138119Y43048D01*
X1138032Y43129D01*
X1137997Y43149D01*
X1137966Y43174D01*
X1137858Y43225D01*
X1137754Y43283D01*
X1137714Y43293D01*
X1137678Y43310D01*
X1137561Y43332D01*
X1137446Y43362D01*
X1137386Y43366D01*
X1137366Y43370D01*
X1137345Y43368D01*
X1137285Y43372D01*
X1135587Y43372D01*
X1135512Y43447D01*
X1135512Y64553D01*
X1135587Y64628D01*
X1145693Y64628D01*
X1145768Y64553D01*
X1145768Y64135D01*
X1145783Y64017D01*
X1145790Y63898D01*
X1145803Y63860D01*
X1145808Y63819D01*
X1145851Y63709D01*
X1145888Y63596D01*
X1145910Y63561D01*
X1145925Y63524D01*
X1145994Y63428D01*
X1146058Y63327D01*
X1146088Y63299D01*
X1146111Y63266D01*
X1146203Y63190D01*
X1146290Y63109D01*
X1146325Y63089D01*
X1146356Y63064D01*
X1146464Y63013D01*
X1146568Y62955D01*
X1146608Y62945D01*
X1146644Y62928D01*
X1146761Y62906D01*
X1146876Y62876D01*
X1146936Y62872D01*
X1146956Y62868D01*
X1146977Y62870D01*
X1147037Y62866D01*
X1220243Y62866D01*
X1220361Y62881D01*
X1220480Y62888D01*
X1220518Y62901D01*
X1220559Y62906D01*
X1220669Y62949D01*
X1220782Y62986D01*
X1220817Y63008D01*
X1220854Y63023D01*
X1220950Y63092D01*
X1221051Y63156D01*
X1221079Y63186D01*
X1221112Y63209D01*
X1221188Y63301D01*
X1221269Y63388D01*
X1221289Y63423D01*
X1221314Y63454D01*
X1221365Y63562D01*
X1221423Y63666D01*
X1221433Y63706D01*
X1221450Y63742D01*
X1221472Y63859D01*
X1221502Y63974D01*
X1221506Y64034D01*
X1221510Y64054D01*
X1221508Y64075D01*
X1221512Y64135D01*
X1221512Y64553D01*
X1221587Y64628D01*
X1231693Y64628D01*
X1231768Y64553D01*
X1231768Y43447D01*
X1231693Y43372D01*
X1229995Y43372D01*
X1229877Y43357D01*
X1229758Y43350D01*
X1229720Y43337D01*
X1229679Y43332D01*
X1229569Y43289D01*
X1229456Y43252D01*
X1229421Y43230D01*
X1229384Y43215D01*
X1229288Y43146D01*
X1229187Y43082D01*
X1229159Y43052D01*
X1229126Y43029D01*
X1229050Y42937D01*
X1228969Y42850D01*
X1228949Y42815D01*
X1228924Y42784D01*
X1228873Y42676D01*
X1228815Y42572D01*
X1228805Y42532D01*
X1228788Y42496D01*
X1228766Y42379D01*
X1228736Y42264D01*
X1228732Y42204D01*
X1228728Y42184D01*
X1228730Y42163D01*
X1228726Y42103D01*
X1228726Y21897D01*
X1228741Y21779D01*
X1228748Y21660D01*
X1228761Y21622D01*
X1228766Y21581D01*
X1228809Y21471D01*
X1228846Y21358D01*
X1228868Y21323D01*
X1228883Y21286D01*
X1228952Y21190D01*
X1229016Y21089D01*
X1229046Y21061D01*
X1229069Y21028D01*
X1229161Y20952D01*
X1229248Y20871D01*
X1229283Y20851D01*
X1229314Y20826D01*
X1229422Y20775D01*
X1229526Y20717D01*
X1229566Y20707D01*
X1229602Y20690D01*
X1229719Y20668D01*
X1229834Y20638D01*
X1229894Y20634D01*
X1229914Y20630D01*
X1229935Y20632D01*
X1229995Y20628D01*
X1231693Y20628D01*
X1231768Y20553D01*
X1231768Y4064D01*
X1231783Y3946D01*
X1231790Y3827D01*
X1231803Y3789D01*
X1231808Y3748D01*
X1231851Y3638D01*
X1231888Y3525D01*
X1231910Y3490D01*
X1231925Y3453D01*
X1231994Y3357D01*
X1232058Y3256D01*
X1232088Y3228D01*
X1232111Y3195D01*
X1232203Y3119D01*
X1232290Y3038D01*
X1232325Y3018D01*
X1232356Y2993D01*
X1232464Y2942D01*
X1232568Y2884D01*
X1232608Y2874D01*
X1232644Y2857D01*
X1232761Y2835D01*
X1232876Y2805D01*
X1232936Y2801D01*
X1232956Y2797D01*
X1232977Y2799D01*
X1233037Y2795D01*
X1247725Y2795D01*
X1247863Y2812D01*
X1248001Y2825D01*
X1248020Y2832D01*
X1248040Y2835D01*
X1248169Y2886D01*
X1248301Y2933D01*
X1248317Y2944D01*
X1248336Y2952D01*
X1248448Y3033D01*
X1248564Y3112D01*
X1248577Y3127D01*
X1248593Y3138D01*
X1248682Y3246D01*
X1248774Y3350D01*
X1248783Y3368D01*
X1248796Y3383D01*
X1248855Y3509D01*
X1248919Y3633D01*
X1248923Y3653D01*
X1248932Y3671D01*
X1248958Y3807D01*
X1248988Y3944D01*
X1248988Y3964D01*
X1248991Y3983D01*
X1248983Y4122D01*
X1248978Y4261D01*
X1248973Y4281D01*
X1248972Y4301D01*
X1248929Y4433D01*
X1248917Y4473D01*
X1248917Y8034D01*
X1251298Y10415D01*
X1254666Y10415D01*
X1257047Y8034D01*
X1257047Y4487D01*
X1257032Y4457D01*
X1257029Y4437D01*
X1257021Y4419D01*
X1256999Y4281D01*
X1256973Y4144D01*
X1256974Y4124D01*
X1256971Y4105D01*
X1256984Y3966D01*
X1256992Y3827D01*
X1256999Y3808D01*
X1257001Y3788D01*
X1257048Y3657D01*
X1257090Y3525D01*
X1257101Y3508D01*
X1257108Y3489D01*
X1257186Y3373D01*
X1257261Y3256D01*
X1257275Y3242D01*
X1257287Y3225D01*
X1257391Y3134D01*
X1257492Y3038D01*
X1257510Y3028D01*
X1257525Y3015D01*
X1257649Y2952D01*
X1257771Y2884D01*
X1257790Y2879D01*
X1257808Y2870D01*
X1257944Y2840D01*
X1258079Y2805D01*
X1258107Y2803D01*
X1258118Y2801D01*
X1258139Y2801D01*
X1258239Y2795D01*
X1271855Y2795D01*
X1271993Y2812D01*
X1272131Y2825D01*
X1272150Y2832D01*
X1272170Y2835D01*
X1272299Y2886D01*
X1272431Y2933D01*
X1272447Y2944D01*
X1272466Y2952D01*
X1272578Y3033D01*
X1272694Y3112D01*
X1272707Y3127D01*
X1272723Y3138D01*
X1272812Y3246D01*
X1272904Y3350D01*
X1272913Y3368D01*
X1272926Y3383D01*
X1272985Y3509D01*
X1273049Y3633D01*
X1273053Y3653D01*
X1273062Y3671D01*
X1273088Y3807D01*
X1273118Y3944D01*
X1273118Y3964D01*
X1273121Y3983D01*
X1273113Y4122D01*
X1273108Y4261D01*
X1273103Y4281D01*
X1273102Y4301D01*
X1273059Y4433D01*
X1273047Y4473D01*
X1273047Y8034D01*
X1275428Y10415D01*
X1278796Y10415D01*
X1281177Y8034D01*
X1281177Y4487D01*
X1281162Y4457D01*
X1281159Y4437D01*
X1281151Y4419D01*
X1281129Y4281D01*
X1281103Y4144D01*
X1281104Y4124D01*
X1281101Y4105D01*
X1281114Y3966D01*
X1281122Y3827D01*
X1281129Y3808D01*
X1281131Y3788D01*
X1281178Y3657D01*
X1281220Y3525D01*
X1281231Y3508D01*
X1281238Y3489D01*
X1281316Y3373D01*
X1281391Y3256D01*
X1281405Y3242D01*
X1281417Y3225D01*
X1281521Y3134D01*
X1281622Y3038D01*
X1281640Y3028D01*
X1281655Y3015D01*
X1281779Y2952D01*
X1281901Y2884D01*
X1281920Y2879D01*
X1281938Y2870D01*
X1282074Y2840D01*
X1282209Y2805D01*
X1282237Y2803D01*
X1282248Y2801D01*
X1282269Y2801D01*
X1282369Y2795D01*
X1297255Y2795D01*
X1297393Y2812D01*
X1297531Y2825D01*
X1297550Y2832D01*
X1297570Y2835D01*
X1297699Y2886D01*
X1297831Y2933D01*
X1297847Y2944D01*
X1297866Y2952D01*
X1297978Y3033D01*
X1298094Y3112D01*
X1298107Y3127D01*
X1298123Y3138D01*
X1298212Y3246D01*
X1298304Y3350D01*
X1298313Y3368D01*
X1298326Y3383D01*
X1298385Y3509D01*
X1298449Y3633D01*
X1298453Y3653D01*
X1298462Y3671D01*
X1298488Y3807D01*
X1298518Y3944D01*
X1298518Y3964D01*
X1298521Y3983D01*
X1298513Y4122D01*
X1298508Y4261D01*
X1298503Y4281D01*
X1298502Y4301D01*
X1298459Y4433D01*
X1298447Y4473D01*
X1298447Y8034D01*
X1300828Y10415D01*
X1304196Y10415D01*
X1306577Y8034D01*
X1306577Y4487D01*
X1306562Y4457D01*
X1306559Y4437D01*
X1306551Y4419D01*
X1306529Y4281D01*
X1306503Y4144D01*
X1306504Y4124D01*
X1306501Y4105D01*
X1306514Y3966D01*
X1306522Y3827D01*
X1306529Y3808D01*
X1306531Y3788D01*
X1306578Y3657D01*
X1306620Y3525D01*
X1306631Y3508D01*
X1306638Y3489D01*
X1306716Y3373D01*
X1306791Y3256D01*
X1306805Y3242D01*
X1306817Y3225D01*
X1306921Y3134D01*
X1307022Y3038D01*
X1307040Y3028D01*
X1307055Y3015D01*
X1307179Y2952D01*
X1307301Y2884D01*
X1307320Y2879D01*
X1307338Y2870D01*
X1307474Y2840D01*
X1307609Y2805D01*
X1307637Y2803D01*
X1307648Y2801D01*
X1307669Y2801D01*
X1307769Y2795D01*
X1433576Y2795D01*
X1433694Y2810D01*
X1433813Y2817D01*
X1433851Y2830D01*
X1433892Y2835D01*
X1434002Y2878D01*
X1434115Y2915D01*
X1434150Y2937D01*
X1434187Y2952D01*
X1434283Y3021D01*
X1434384Y3085D01*
X1434412Y3115D01*
X1434445Y3138D01*
X1434521Y3230D01*
X1434602Y3317D01*
X1434622Y3352D01*
X1434647Y3383D01*
X1434698Y3491D01*
X1434756Y3595D01*
X1434766Y3635D01*
X1434783Y3671D01*
X1434805Y3788D01*
X1434835Y3903D01*
X1434839Y3963D01*
X1434843Y3983D01*
X1434841Y4004D01*
X1434845Y4064D01*
X1434845Y416560D01*
X1434830Y416678D01*
X1434823Y416797D01*
X1434810Y416835D01*
X1434805Y416876D01*
X1434762Y416986D01*
X1434725Y417099D01*
X1434703Y417134D01*
X1434688Y417171D01*
X1434619Y417267D01*
X1434555Y417368D01*
X1434525Y417396D01*
X1434502Y417429D01*
X1434410Y417504D01*
X1434323Y417586D01*
X1434288Y417606D01*
X1434257Y417631D01*
X1434149Y417682D01*
X1434045Y417740D01*
X1434005Y417750D01*
X1433969Y417767D01*
X1433852Y417789D01*
X1433737Y417819D01*
X1433677Y417823D01*
X1433657Y417827D01*
X1433636Y417825D01*
X1433576Y417829D01*
X1325361Y417829D01*
X1325292Y417820D01*
X1325222Y417822D01*
X1325134Y417801D01*
X1325045Y417789D01*
X1324981Y417764D01*
X1324913Y417747D01*
X1324833Y417705D01*
X1324750Y417672D01*
X1324693Y417631D01*
X1324632Y417599D01*
X1324565Y417538D01*
X1324492Y417486D01*
X1324448Y417432D01*
X1324396Y417385D01*
X1324347Y417310D01*
X1324290Y417241D01*
X1324260Y417177D01*
X1324221Y417119D01*
X1324192Y417034D01*
X1324154Y416953D01*
X1324141Y416884D01*
X1324118Y416818D01*
X1324111Y416729D01*
X1324094Y416640D01*
X1324099Y416571D01*
X1324093Y416501D01*
X1324108Y416413D01*
X1324114Y416323D01*
X1324135Y416257D01*
X1324147Y416188D01*
X1324184Y416106D01*
X1324212Y416021D01*
X1324249Y415962D01*
X1324278Y415898D01*
X1324334Y415828D01*
X1324382Y415752D01*
X1324433Y415704D01*
X1324477Y415650D01*
X1324548Y415595D01*
X1324614Y415534D01*
X1324675Y415500D01*
X1324731Y415458D01*
X1324875Y415387D01*
X1328376Y413937D01*
X1330877Y411436D01*
X1332231Y408169D01*
X1332231Y404631D01*
X1330877Y401364D01*
X1328376Y398863D01*
X1325109Y397509D01*
X1321571Y397509D01*
X1318304Y398863D01*
X1315803Y401364D01*
X1314449Y404631D01*
X1314449Y408169D01*
X1315803Y411436D01*
X1318304Y413937D01*
X1321805Y415387D01*
X1321865Y415422D01*
X1321930Y415448D01*
X1322003Y415500D01*
X1322081Y415545D01*
X1322131Y415593D01*
X1322188Y415634D01*
X1322245Y415704D01*
X1322309Y415766D01*
X1322346Y415826D01*
X1322390Y415879D01*
X1322429Y415961D01*
X1322476Y416037D01*
X1322496Y416104D01*
X1322526Y416167D01*
X1322543Y416255D01*
X1322569Y416341D01*
X1322573Y416411D01*
X1322586Y416479D01*
X1322580Y416569D01*
X1322584Y416659D01*
X1322570Y416727D01*
X1322566Y416797D01*
X1322538Y416882D01*
X1322520Y416970D01*
X1322489Y417033D01*
X1322468Y417099D01*
X1322420Y417175D01*
X1322380Y417256D01*
X1322335Y417309D01*
X1322298Y417368D01*
X1322232Y417430D01*
X1322174Y417498D01*
X1322117Y417538D01*
X1322066Y417586D01*
X1321988Y417629D01*
X1321914Y417681D01*
X1321849Y417706D01*
X1321788Y417740D01*
X1321701Y417762D01*
X1321617Y417794D01*
X1321547Y417802D01*
X1321480Y417819D01*
X1321319Y417829D01*
X1086104Y417829D01*
X1085986Y417814D01*
X1085867Y417807D01*
X1085829Y417794D01*
X1085788Y417789D01*
X1085678Y417746D01*
X1085565Y417709D01*
X1085530Y417687D01*
X1085493Y417672D01*
X1085397Y417602D01*
X1085296Y417539D01*
X1085268Y417509D01*
X1085235Y417486D01*
X1085159Y417394D01*
X1085078Y417307D01*
X1085058Y417272D01*
X1085033Y417241D01*
X1084982Y417133D01*
X1084924Y417029D01*
X1084914Y416989D01*
X1084897Y416953D01*
X1084875Y416836D01*
X1084845Y416721D01*
X1084841Y416660D01*
X1084837Y416640D01*
X1084839Y416620D01*
X1084835Y416560D01*
X1084835Y4064D01*
X1084850Y3946D01*
X1084857Y3827D01*
X1084870Y3789D01*
X1084875Y3748D01*
X1084918Y3638D01*
X1084955Y3525D01*
X1084977Y3490D01*
X1084992Y3453D01*
X1085061Y3357D01*
X1085125Y3256D01*
X1085155Y3228D01*
X1085178Y3195D01*
X1085270Y3119D01*
X1085357Y3038D01*
X1085392Y3018D01*
X1085423Y2993D01*
X1085531Y2942D01*
X1085635Y2884D01*
X1085675Y2874D01*
X1085711Y2857D01*
X1085828Y2835D01*
X1085943Y2805D01*
X1086003Y2801D01*
X1086023Y2797D01*
X1086044Y2799D01*
X1086104Y2795D01*
X1134243Y2795D01*
X1134361Y2810D01*
G37*
G36*
X1226885Y2806D02*
X1226885Y2806D01*
X1226951Y2808D01*
X1226994Y2826D01*
X1227041Y2834D01*
X1227098Y2868D01*
X1227158Y2893D01*
X1227193Y2924D01*
X1227234Y2949D01*
X1227276Y3000D01*
X1227324Y3044D01*
X1227346Y3086D01*
X1227375Y3123D01*
X1227396Y3185D01*
X1227427Y3244D01*
X1227435Y3298D01*
X1227447Y3335D01*
X1227446Y3375D01*
X1227454Y3429D01*
X1227454Y3738D01*
X1227443Y3803D01*
X1227441Y3869D01*
X1227423Y3912D01*
X1227415Y3959D01*
X1227381Y4016D01*
X1227356Y4076D01*
X1227325Y4111D01*
X1227300Y4152D01*
X1227249Y4193D01*
X1227205Y4242D01*
X1227163Y4264D01*
X1227126Y4293D01*
X1227064Y4314D01*
X1227005Y4345D01*
X1226951Y4353D01*
X1226914Y4365D01*
X1226874Y4364D01*
X1226820Y4372D01*
X1221587Y4372D01*
X1221512Y4447D01*
X1221512Y20553D01*
X1221587Y20628D01*
X1226820Y20628D01*
X1226885Y20639D01*
X1226951Y20641D01*
X1226994Y20659D01*
X1227041Y20667D01*
X1227098Y20701D01*
X1227158Y20726D01*
X1227193Y20757D01*
X1227234Y20782D01*
X1227276Y20833D01*
X1227324Y20877D01*
X1227346Y20919D01*
X1227375Y20956D01*
X1227396Y21018D01*
X1227427Y21077D01*
X1227435Y21131D01*
X1227447Y21168D01*
X1227446Y21208D01*
X1227454Y21262D01*
X1227454Y42738D01*
X1227443Y42803D01*
X1227441Y42869D01*
X1227423Y42912D01*
X1227415Y42959D01*
X1227381Y43016D01*
X1227356Y43076D01*
X1227325Y43111D01*
X1227300Y43152D01*
X1227249Y43194D01*
X1227205Y43242D01*
X1227163Y43264D01*
X1227126Y43293D01*
X1227064Y43314D01*
X1227005Y43345D01*
X1226951Y43353D01*
X1226914Y43365D01*
X1226874Y43364D01*
X1226820Y43372D01*
X1221587Y43372D01*
X1221512Y43447D01*
X1221512Y60960D01*
X1221501Y61025D01*
X1221499Y61091D01*
X1221481Y61134D01*
X1221473Y61181D01*
X1221439Y61238D01*
X1221414Y61298D01*
X1221383Y61333D01*
X1221358Y61374D01*
X1221307Y61416D01*
X1221263Y61464D01*
X1221221Y61486D01*
X1221184Y61515D01*
X1221122Y61536D01*
X1221063Y61567D01*
X1221009Y61575D01*
X1220972Y61587D01*
X1220932Y61586D01*
X1220878Y61594D01*
X1146402Y61594D01*
X1146337Y61583D01*
X1146271Y61581D01*
X1146228Y61563D01*
X1146181Y61555D01*
X1146124Y61521D01*
X1146064Y61496D01*
X1146029Y61465D01*
X1145988Y61440D01*
X1145946Y61389D01*
X1145898Y61345D01*
X1145876Y61303D01*
X1145847Y61266D01*
X1145826Y61204D01*
X1145795Y61145D01*
X1145787Y61091D01*
X1145775Y61054D01*
X1145776Y61014D01*
X1145768Y60960D01*
X1145768Y43447D01*
X1145693Y43372D01*
X1140460Y43372D01*
X1140395Y43361D01*
X1140329Y43359D01*
X1140286Y43341D01*
X1140239Y43333D01*
X1140182Y43299D01*
X1140122Y43274D01*
X1140087Y43243D01*
X1140046Y43218D01*
X1140005Y43167D01*
X1139956Y43123D01*
X1139934Y43081D01*
X1139905Y43044D01*
X1139884Y42982D01*
X1139853Y42923D01*
X1139845Y42869D01*
X1139833Y42832D01*
X1139834Y42792D01*
X1139826Y42738D01*
X1139826Y21262D01*
X1139837Y21197D01*
X1139839Y21131D01*
X1139857Y21088D01*
X1139865Y21041D01*
X1139899Y20984D01*
X1139924Y20924D01*
X1139955Y20889D01*
X1139980Y20848D01*
X1140031Y20806D01*
X1140075Y20758D01*
X1140117Y20736D01*
X1140154Y20707D01*
X1140216Y20686D01*
X1140275Y20655D01*
X1140329Y20647D01*
X1140366Y20635D01*
X1140406Y20636D01*
X1140460Y20628D01*
X1145693Y20628D01*
X1145768Y20553D01*
X1145768Y4447D01*
X1145693Y4372D01*
X1140460Y4372D01*
X1140395Y4361D01*
X1140329Y4359D01*
X1140286Y4341D01*
X1140239Y4333D01*
X1140182Y4299D01*
X1140122Y4274D01*
X1140087Y4243D01*
X1140046Y4218D01*
X1140005Y4167D01*
X1139956Y4123D01*
X1139934Y4081D01*
X1139905Y4044D01*
X1139884Y3982D01*
X1139853Y3923D01*
X1139845Y3869D01*
X1139833Y3832D01*
X1139834Y3792D01*
X1139826Y3738D01*
X1139826Y3429D01*
X1139837Y3364D01*
X1139839Y3298D01*
X1139857Y3255D01*
X1139865Y3208D01*
X1139899Y3151D01*
X1139924Y3091D01*
X1139955Y3056D01*
X1139980Y3015D01*
X1140031Y2973D01*
X1140075Y2925D01*
X1140117Y2903D01*
X1140154Y2874D01*
X1140216Y2853D01*
X1140275Y2822D01*
X1140329Y2814D01*
X1140366Y2802D01*
X1140406Y2803D01*
X1140460Y2795D01*
X1226820Y2795D01*
X1226885Y2806D01*
G37*
G36*
X505525Y2806D02*
X505525Y2806D01*
X505591Y2808D01*
X505634Y2826D01*
X505681Y2834D01*
X505738Y2868D01*
X505798Y2893D01*
X505833Y2924D01*
X505874Y2949D01*
X505916Y3000D01*
X505964Y3044D01*
X505986Y3086D01*
X506015Y3123D01*
X506036Y3185D01*
X506067Y3244D01*
X506075Y3298D01*
X506087Y3335D01*
X506086Y3375D01*
X506094Y3429D01*
X506094Y3738D01*
X506083Y3803D01*
X506081Y3869D01*
X506063Y3912D01*
X506055Y3959D01*
X506021Y4016D01*
X505996Y4076D01*
X505965Y4111D01*
X505940Y4152D01*
X505889Y4193D01*
X505845Y4242D01*
X505803Y4264D01*
X505766Y4293D01*
X505704Y4314D01*
X505645Y4345D01*
X505591Y4353D01*
X505554Y4365D01*
X505514Y4364D01*
X505460Y4372D01*
X500227Y4372D01*
X500152Y4447D01*
X500152Y20553D01*
X500227Y20628D01*
X505460Y20628D01*
X505525Y20639D01*
X505591Y20641D01*
X505634Y20659D01*
X505681Y20667D01*
X505738Y20701D01*
X505798Y20726D01*
X505833Y20757D01*
X505874Y20782D01*
X505916Y20833D01*
X505964Y20877D01*
X505986Y20919D01*
X506015Y20956D01*
X506036Y21018D01*
X506067Y21077D01*
X506075Y21131D01*
X506087Y21168D01*
X506086Y21208D01*
X506094Y21262D01*
X506094Y42738D01*
X506083Y42803D01*
X506081Y42869D01*
X506063Y42912D01*
X506055Y42959D01*
X506021Y43016D01*
X505996Y43076D01*
X505965Y43111D01*
X505940Y43152D01*
X505889Y43194D01*
X505845Y43242D01*
X505803Y43264D01*
X505766Y43293D01*
X505704Y43314D01*
X505645Y43345D01*
X505591Y43353D01*
X505554Y43365D01*
X505514Y43364D01*
X505460Y43372D01*
X500227Y43372D01*
X500152Y43447D01*
X500152Y60960D01*
X500141Y61025D01*
X500139Y61091D01*
X500121Y61134D01*
X500113Y61181D01*
X500079Y61238D01*
X500054Y61298D01*
X500023Y61333D01*
X499998Y61374D01*
X499947Y61416D01*
X499903Y61464D01*
X499861Y61486D01*
X499824Y61515D01*
X499762Y61536D01*
X499703Y61567D01*
X499649Y61575D01*
X499612Y61587D01*
X499572Y61586D01*
X499518Y61594D01*
X425042Y61594D01*
X424977Y61583D01*
X424911Y61581D01*
X424868Y61563D01*
X424821Y61555D01*
X424764Y61521D01*
X424704Y61496D01*
X424669Y61465D01*
X424628Y61440D01*
X424586Y61389D01*
X424538Y61345D01*
X424516Y61303D01*
X424487Y61266D01*
X424466Y61204D01*
X424435Y61145D01*
X424427Y61091D01*
X424415Y61054D01*
X424416Y61014D01*
X424408Y60960D01*
X424408Y43447D01*
X424333Y43372D01*
X419100Y43372D01*
X419035Y43361D01*
X418969Y43359D01*
X418926Y43341D01*
X418879Y43333D01*
X418822Y43299D01*
X418762Y43274D01*
X418727Y43243D01*
X418686Y43218D01*
X418645Y43167D01*
X418596Y43123D01*
X418574Y43081D01*
X418545Y43044D01*
X418524Y42982D01*
X418493Y42923D01*
X418485Y42869D01*
X418473Y42832D01*
X418474Y42792D01*
X418466Y42738D01*
X418466Y21262D01*
X418477Y21197D01*
X418479Y21131D01*
X418497Y21088D01*
X418505Y21041D01*
X418539Y20984D01*
X418564Y20924D01*
X418595Y20889D01*
X418620Y20848D01*
X418671Y20806D01*
X418715Y20758D01*
X418757Y20736D01*
X418794Y20707D01*
X418856Y20686D01*
X418915Y20655D01*
X418969Y20647D01*
X419006Y20635D01*
X419046Y20636D01*
X419100Y20628D01*
X424333Y20628D01*
X424408Y20553D01*
X424408Y4447D01*
X424333Y4372D01*
X419100Y4372D01*
X419035Y4361D01*
X418969Y4359D01*
X418926Y4341D01*
X418879Y4333D01*
X418822Y4299D01*
X418762Y4274D01*
X418727Y4243D01*
X418686Y4218D01*
X418645Y4167D01*
X418596Y4123D01*
X418574Y4081D01*
X418545Y4044D01*
X418524Y3982D01*
X418493Y3923D01*
X418485Y3869D01*
X418473Y3832D01*
X418474Y3792D01*
X418466Y3738D01*
X418466Y3429D01*
X418477Y3364D01*
X418479Y3298D01*
X418497Y3255D01*
X418505Y3208D01*
X418539Y3151D01*
X418564Y3091D01*
X418595Y3056D01*
X418620Y3015D01*
X418671Y2973D01*
X418715Y2925D01*
X418757Y2903D01*
X418794Y2874D01*
X418856Y2853D01*
X418915Y2822D01*
X418969Y2814D01*
X419006Y2802D01*
X419046Y2803D01*
X419100Y2795D01*
X505460Y2795D01*
X505525Y2806D01*
G37*
G36*
X866205Y2806D02*
X866205Y2806D01*
X866271Y2808D01*
X866314Y2826D01*
X866361Y2834D01*
X866418Y2868D01*
X866478Y2893D01*
X866513Y2924D01*
X866554Y2949D01*
X866596Y3000D01*
X866644Y3044D01*
X866666Y3086D01*
X866695Y3123D01*
X866716Y3185D01*
X866747Y3244D01*
X866755Y3298D01*
X866767Y3335D01*
X866766Y3375D01*
X866774Y3429D01*
X866774Y3738D01*
X866763Y3803D01*
X866761Y3869D01*
X866743Y3912D01*
X866735Y3959D01*
X866701Y4016D01*
X866676Y4076D01*
X866645Y4111D01*
X866620Y4152D01*
X866569Y4193D01*
X866525Y4242D01*
X866483Y4264D01*
X866446Y4293D01*
X866384Y4314D01*
X866325Y4345D01*
X866271Y4353D01*
X866234Y4365D01*
X866194Y4364D01*
X866140Y4372D01*
X860907Y4372D01*
X860832Y4447D01*
X860832Y20553D01*
X860907Y20628D01*
X866140Y20628D01*
X866205Y20639D01*
X866271Y20641D01*
X866314Y20659D01*
X866361Y20667D01*
X866418Y20701D01*
X866478Y20726D01*
X866513Y20757D01*
X866554Y20782D01*
X866596Y20833D01*
X866644Y20877D01*
X866666Y20919D01*
X866695Y20956D01*
X866716Y21018D01*
X866747Y21077D01*
X866755Y21131D01*
X866767Y21168D01*
X866766Y21208D01*
X866774Y21262D01*
X866774Y42738D01*
X866763Y42803D01*
X866761Y42869D01*
X866743Y42912D01*
X866735Y42959D01*
X866701Y43016D01*
X866676Y43076D01*
X866645Y43111D01*
X866620Y43152D01*
X866569Y43194D01*
X866525Y43242D01*
X866483Y43264D01*
X866446Y43293D01*
X866384Y43314D01*
X866325Y43345D01*
X866271Y43353D01*
X866234Y43365D01*
X866194Y43364D01*
X866140Y43372D01*
X860907Y43372D01*
X860832Y43447D01*
X860832Y60960D01*
X860821Y61025D01*
X860819Y61091D01*
X860801Y61134D01*
X860793Y61181D01*
X860759Y61238D01*
X860734Y61298D01*
X860703Y61333D01*
X860678Y61374D01*
X860627Y61416D01*
X860583Y61464D01*
X860541Y61486D01*
X860504Y61515D01*
X860442Y61536D01*
X860383Y61567D01*
X860329Y61575D01*
X860292Y61587D01*
X860252Y61586D01*
X860198Y61594D01*
X785722Y61594D01*
X785657Y61583D01*
X785591Y61581D01*
X785548Y61563D01*
X785501Y61555D01*
X785444Y61521D01*
X785384Y61496D01*
X785349Y61465D01*
X785308Y61440D01*
X785266Y61389D01*
X785218Y61345D01*
X785196Y61303D01*
X785167Y61266D01*
X785146Y61204D01*
X785115Y61145D01*
X785107Y61091D01*
X785095Y61054D01*
X785096Y61014D01*
X785088Y60960D01*
X785088Y43447D01*
X785013Y43372D01*
X779780Y43372D01*
X779715Y43361D01*
X779649Y43359D01*
X779606Y43341D01*
X779559Y43333D01*
X779502Y43299D01*
X779442Y43274D01*
X779407Y43243D01*
X779366Y43218D01*
X779325Y43167D01*
X779276Y43123D01*
X779254Y43081D01*
X779225Y43044D01*
X779204Y42982D01*
X779173Y42923D01*
X779165Y42869D01*
X779153Y42832D01*
X779154Y42792D01*
X779146Y42738D01*
X779146Y21262D01*
X779157Y21197D01*
X779159Y21131D01*
X779177Y21088D01*
X779185Y21041D01*
X779219Y20984D01*
X779244Y20924D01*
X779275Y20889D01*
X779300Y20848D01*
X779351Y20806D01*
X779395Y20758D01*
X779437Y20736D01*
X779474Y20707D01*
X779536Y20686D01*
X779595Y20655D01*
X779649Y20647D01*
X779686Y20635D01*
X779726Y20636D01*
X779780Y20628D01*
X785013Y20628D01*
X785088Y20553D01*
X785088Y4447D01*
X785013Y4372D01*
X779780Y4372D01*
X779715Y4361D01*
X779649Y4359D01*
X779606Y4341D01*
X779559Y4333D01*
X779502Y4299D01*
X779442Y4274D01*
X779407Y4243D01*
X779366Y4218D01*
X779325Y4167D01*
X779276Y4123D01*
X779254Y4081D01*
X779225Y4044D01*
X779204Y3982D01*
X779173Y3923D01*
X779165Y3869D01*
X779153Y3832D01*
X779154Y3792D01*
X779146Y3738D01*
X779146Y3429D01*
X779157Y3364D01*
X779159Y3298D01*
X779177Y3255D01*
X779185Y3208D01*
X779219Y3151D01*
X779244Y3091D01*
X779275Y3056D01*
X779300Y3015D01*
X779351Y2973D01*
X779395Y2925D01*
X779437Y2903D01*
X779474Y2874D01*
X779536Y2853D01*
X779595Y2822D01*
X779649Y2814D01*
X779686Y2802D01*
X779726Y2803D01*
X779780Y2795D01*
X866140Y2795D01*
X866205Y2806D01*
G37*
G36*
X144845Y2806D02*
X144845Y2806D01*
X144911Y2808D01*
X144954Y2826D01*
X145001Y2834D01*
X145058Y2868D01*
X145118Y2893D01*
X145153Y2924D01*
X145194Y2949D01*
X145235Y3000D01*
X145284Y3044D01*
X145306Y3086D01*
X145335Y3123D01*
X145356Y3185D01*
X145387Y3244D01*
X145395Y3298D01*
X145407Y3335D01*
X145406Y3375D01*
X145414Y3429D01*
X145414Y3738D01*
X145403Y3803D01*
X145401Y3869D01*
X145383Y3912D01*
X145375Y3959D01*
X145341Y4016D01*
X145316Y4076D01*
X145285Y4111D01*
X145260Y4152D01*
X145209Y4193D01*
X145165Y4242D01*
X145123Y4264D01*
X145086Y4293D01*
X145024Y4314D01*
X144965Y4345D01*
X144911Y4353D01*
X144874Y4365D01*
X144834Y4364D01*
X144780Y4372D01*
X139547Y4372D01*
X139472Y4447D01*
X139472Y20553D01*
X139547Y20628D01*
X144780Y20628D01*
X144845Y20639D01*
X144911Y20641D01*
X144954Y20659D01*
X145001Y20667D01*
X145058Y20701D01*
X145118Y20726D01*
X145153Y20757D01*
X145194Y20782D01*
X145235Y20833D01*
X145284Y20877D01*
X145306Y20919D01*
X145335Y20956D01*
X145356Y21018D01*
X145387Y21077D01*
X145395Y21131D01*
X145407Y21168D01*
X145406Y21208D01*
X145414Y21262D01*
X145414Y42738D01*
X145403Y42803D01*
X145401Y42869D01*
X145383Y42912D01*
X145375Y42959D01*
X145341Y43016D01*
X145316Y43076D01*
X145285Y43111D01*
X145260Y43152D01*
X145209Y43194D01*
X145165Y43242D01*
X145123Y43264D01*
X145086Y43293D01*
X145024Y43314D01*
X144965Y43345D01*
X144911Y43353D01*
X144874Y43365D01*
X144834Y43364D01*
X144780Y43372D01*
X139547Y43372D01*
X139472Y43447D01*
X139472Y60960D01*
X139461Y61025D01*
X139459Y61091D01*
X139441Y61134D01*
X139433Y61181D01*
X139399Y61238D01*
X139374Y61298D01*
X139343Y61333D01*
X139318Y61374D01*
X139267Y61416D01*
X139223Y61464D01*
X139181Y61486D01*
X139144Y61515D01*
X139082Y61536D01*
X139023Y61567D01*
X138969Y61575D01*
X138932Y61587D01*
X138892Y61586D01*
X138838Y61594D01*
X64362Y61594D01*
X64297Y61583D01*
X64231Y61581D01*
X64188Y61563D01*
X64141Y61555D01*
X64084Y61521D01*
X64024Y61496D01*
X63989Y61465D01*
X63948Y61440D01*
X63906Y61389D01*
X63858Y61345D01*
X63836Y61303D01*
X63807Y61266D01*
X63786Y61204D01*
X63755Y61145D01*
X63747Y61091D01*
X63735Y61054D01*
X63736Y61014D01*
X63728Y60960D01*
X63728Y43447D01*
X63653Y43372D01*
X58420Y43372D01*
X58355Y43361D01*
X58289Y43359D01*
X58246Y43341D01*
X58199Y43333D01*
X58142Y43299D01*
X58082Y43274D01*
X58047Y43243D01*
X58006Y43218D01*
X57965Y43167D01*
X57916Y43123D01*
X57894Y43081D01*
X57865Y43044D01*
X57844Y42982D01*
X57813Y42923D01*
X57805Y42869D01*
X57793Y42832D01*
X57794Y42792D01*
X57786Y42738D01*
X57786Y21262D01*
X57797Y21197D01*
X57799Y21131D01*
X57817Y21088D01*
X57825Y21041D01*
X57859Y20984D01*
X57884Y20924D01*
X57915Y20889D01*
X57940Y20848D01*
X57991Y20806D01*
X58035Y20758D01*
X58077Y20736D01*
X58114Y20707D01*
X58176Y20686D01*
X58235Y20655D01*
X58289Y20647D01*
X58326Y20635D01*
X58366Y20636D01*
X58420Y20628D01*
X63653Y20628D01*
X63728Y20553D01*
X63728Y4447D01*
X63653Y4372D01*
X58420Y4372D01*
X58355Y4361D01*
X58289Y4359D01*
X58246Y4341D01*
X58199Y4333D01*
X58142Y4299D01*
X58082Y4274D01*
X58047Y4243D01*
X58006Y4218D01*
X57965Y4167D01*
X57916Y4123D01*
X57894Y4081D01*
X57865Y4044D01*
X57844Y3982D01*
X57813Y3923D01*
X57805Y3869D01*
X57793Y3832D01*
X57794Y3792D01*
X57786Y3738D01*
X57786Y3429D01*
X57797Y3364D01*
X57799Y3298D01*
X57817Y3255D01*
X57825Y3208D01*
X57859Y3151D01*
X57884Y3091D01*
X57915Y3056D01*
X57940Y3015D01*
X57991Y2973D01*
X58035Y2925D01*
X58077Y2903D01*
X58114Y2874D01*
X58176Y2853D01*
X58235Y2822D01*
X58289Y2814D01*
X58326Y2802D01*
X58366Y2803D01*
X58420Y2795D01*
X144780Y2795D01*
X144845Y2806D01*
G37*
%LPC*%
G36*
X326815Y8381D02*
X326815Y8381D01*
X320560Y10972D01*
X315772Y15760D01*
X313181Y22015D01*
X313181Y28785D01*
X315772Y35040D01*
X320560Y39828D01*
X326815Y42419D01*
X333585Y42419D01*
X339840Y39828D01*
X344628Y35040D01*
X347219Y28785D01*
X347219Y22015D01*
X344628Y15760D01*
X339840Y10972D01*
X333585Y8381D01*
X326815Y8381D01*
G37*
%LPD*%
%LPC*%
G36*
X743375Y8381D02*
X743375Y8381D01*
X737120Y10972D01*
X732332Y15760D01*
X729741Y22015D01*
X729741Y28785D01*
X732332Y35040D01*
X737120Y39828D01*
X743375Y42419D01*
X750145Y42419D01*
X756400Y39828D01*
X761188Y35040D01*
X763779Y28785D01*
X763779Y22015D01*
X761188Y15760D01*
X756400Y10972D01*
X750145Y8381D01*
X743375Y8381D01*
G37*
%LPD*%
%LPC*%
G36*
X22015Y8381D02*
X22015Y8381D01*
X15760Y10972D01*
X10972Y15760D01*
X8381Y22015D01*
X8381Y28785D01*
X10972Y35040D01*
X15760Y39828D01*
X22015Y42419D01*
X28785Y42419D01*
X35040Y39828D01*
X39828Y35040D01*
X42419Y28785D01*
X42419Y22015D01*
X39828Y15760D01*
X35040Y10972D01*
X28785Y8381D01*
X22015Y8381D01*
G37*
%LPD*%
%LPC*%
G36*
X687495Y8381D02*
X687495Y8381D01*
X681240Y10972D01*
X676452Y15760D01*
X673861Y22015D01*
X673861Y28785D01*
X676452Y35040D01*
X681240Y39828D01*
X687495Y42419D01*
X694265Y42419D01*
X700520Y39828D01*
X705308Y35040D01*
X707899Y28785D01*
X707899Y22015D01*
X705308Y15760D01*
X700520Y10972D01*
X694265Y8381D01*
X687495Y8381D01*
G37*
%LPD*%
%LPC*%
G36*
X382695Y8381D02*
X382695Y8381D01*
X376440Y10972D01*
X371652Y15760D01*
X369061Y22015D01*
X369061Y28785D01*
X371652Y35040D01*
X376440Y39828D01*
X382695Y42419D01*
X389465Y42419D01*
X395720Y39828D01*
X400508Y35040D01*
X403099Y28785D01*
X403099Y22015D01*
X400508Y15760D01*
X395720Y10972D01*
X389465Y8381D01*
X382695Y8381D01*
G37*
%LPD*%
%LPC*%
G36*
X1048175Y8381D02*
X1048175Y8381D01*
X1041920Y10972D01*
X1037132Y15760D01*
X1034541Y22015D01*
X1034541Y28785D01*
X1037132Y35040D01*
X1041920Y39828D01*
X1048175Y42419D01*
X1054945Y42419D01*
X1061200Y39828D01*
X1065988Y35040D01*
X1068579Y28785D01*
X1068579Y22015D01*
X1065988Y15760D01*
X1061200Y10972D01*
X1054945Y8381D01*
X1048175Y8381D01*
G37*
%LPD*%
%LPC*%
G36*
X1408855Y8381D02*
X1408855Y8381D01*
X1402600Y10972D01*
X1397812Y15760D01*
X1395221Y22015D01*
X1395221Y28785D01*
X1397812Y35040D01*
X1402600Y39828D01*
X1408855Y42419D01*
X1415625Y42419D01*
X1421880Y39828D01*
X1426668Y35040D01*
X1429259Y28785D01*
X1429259Y22015D01*
X1426668Y15760D01*
X1421880Y10972D01*
X1415625Y8381D01*
X1408855Y8381D01*
G37*
%LPD*%
%LPC*%
G36*
X1104055Y8381D02*
X1104055Y8381D01*
X1097800Y10972D01*
X1093012Y15760D01*
X1090421Y22015D01*
X1090421Y28785D01*
X1093012Y35040D01*
X1097800Y39828D01*
X1104055Y42419D01*
X1110825Y42419D01*
X1117080Y39828D01*
X1121868Y35040D01*
X1124459Y28785D01*
X1124459Y22015D01*
X1121868Y15760D01*
X1117080Y10972D01*
X1110825Y8381D01*
X1104055Y8381D01*
G37*
%LPD*%
%LPC*%
G36*
X1194571Y194309D02*
X1194571Y194309D01*
X1191304Y195663D01*
X1188803Y198164D01*
X1187449Y201431D01*
X1187449Y204969D01*
X1188803Y208236D01*
X1191304Y210737D01*
X1194571Y212091D01*
X1198109Y212091D01*
X1201376Y210737D01*
X1203877Y208236D01*
X1204586Y206524D01*
X1204601Y206499D01*
X1204610Y206471D01*
X1204680Y206361D01*
X1204744Y206248D01*
X1204764Y206227D01*
X1204780Y206202D01*
X1204875Y206113D01*
X1204965Y206020D01*
X1204990Y206004D01*
X1205012Y205984D01*
X1205125Y205921D01*
X1205236Y205853D01*
X1205264Y205845D01*
X1205290Y205830D01*
X1205416Y205798D01*
X1205540Y205760D01*
X1205570Y205758D01*
X1205598Y205751D01*
X1205759Y205741D01*
X1298017Y205741D01*
X1298115Y205753D01*
X1298214Y205756D01*
X1298272Y205773D01*
X1298332Y205781D01*
X1298424Y205817D01*
X1298519Y205845D01*
X1298571Y205875D01*
X1298628Y205898D01*
X1298708Y205956D01*
X1298793Y206006D01*
X1298869Y206072D01*
X1298885Y206084D01*
X1298893Y206094D01*
X1298914Y206112D01*
X1300066Y207265D01*
X1303434Y207265D01*
X1305815Y204884D01*
X1305815Y201516D01*
X1303434Y199135D01*
X1300066Y199135D01*
X1298914Y200288D01*
X1298836Y200348D01*
X1298764Y200416D01*
X1298711Y200445D01*
X1298663Y200482D01*
X1298572Y200522D01*
X1298485Y200570D01*
X1298427Y200585D01*
X1298371Y200609D01*
X1298273Y200624D01*
X1298177Y200649D01*
X1298077Y200655D01*
X1298057Y200659D01*
X1298045Y200657D01*
X1298017Y200659D01*
X1205759Y200659D01*
X1205730Y200656D01*
X1205700Y200658D01*
X1205572Y200636D01*
X1205443Y200619D01*
X1205416Y200609D01*
X1205387Y200604D01*
X1205268Y200550D01*
X1205148Y200502D01*
X1205124Y200485D01*
X1205097Y200473D01*
X1204996Y200392D01*
X1204890Y200316D01*
X1204872Y200293D01*
X1204848Y200274D01*
X1204770Y200171D01*
X1204688Y200071D01*
X1204675Y200044D01*
X1204657Y200020D01*
X1204586Y199876D01*
X1203877Y198164D01*
X1201376Y195663D01*
X1198109Y194309D01*
X1194571Y194309D01*
G37*
%LPD*%
%LPC*%
G36*
X112531Y194309D02*
X112531Y194309D01*
X109264Y195663D01*
X106763Y198164D01*
X105409Y201431D01*
X105409Y204969D01*
X106763Y208236D01*
X109264Y210737D01*
X112531Y212091D01*
X116069Y212091D01*
X119336Y210737D01*
X121837Y208236D01*
X122546Y206524D01*
X122561Y206499D01*
X122570Y206471D01*
X122640Y206361D01*
X122704Y206248D01*
X122724Y206227D01*
X122740Y206202D01*
X122835Y206113D01*
X122925Y206020D01*
X122950Y206004D01*
X122972Y205984D01*
X123085Y205921D01*
X123196Y205853D01*
X123224Y205845D01*
X123250Y205830D01*
X123376Y205798D01*
X123500Y205760D01*
X123530Y205758D01*
X123558Y205751D01*
X123719Y205741D01*
X215977Y205741D01*
X216075Y205753D01*
X216174Y205756D01*
X216232Y205773D01*
X216292Y205781D01*
X216384Y205817D01*
X216479Y205845D01*
X216531Y205875D01*
X216588Y205898D01*
X216668Y205956D01*
X216753Y206006D01*
X216829Y206072D01*
X216845Y206084D01*
X216853Y206094D01*
X216874Y206112D01*
X218026Y207265D01*
X221394Y207265D01*
X223775Y204884D01*
X223775Y201516D01*
X221394Y199135D01*
X218026Y199135D01*
X216874Y200288D01*
X216796Y200348D01*
X216724Y200416D01*
X216671Y200445D01*
X216623Y200482D01*
X216532Y200522D01*
X216445Y200570D01*
X216387Y200585D01*
X216331Y200609D01*
X216233Y200624D01*
X216137Y200649D01*
X216037Y200655D01*
X216017Y200659D01*
X216005Y200657D01*
X215977Y200659D01*
X123719Y200659D01*
X123690Y200656D01*
X123660Y200658D01*
X123532Y200636D01*
X123403Y200619D01*
X123376Y200609D01*
X123347Y200604D01*
X123228Y200550D01*
X123108Y200502D01*
X123084Y200485D01*
X123057Y200473D01*
X122956Y200392D01*
X122850Y200316D01*
X122832Y200293D01*
X122808Y200274D01*
X122730Y200171D01*
X122648Y200071D01*
X122635Y200044D01*
X122617Y200020D01*
X122546Y199876D01*
X121837Y198164D01*
X119336Y195663D01*
X116069Y194309D01*
X112531Y194309D01*
G37*
%LPD*%
%LPC*%
G36*
X833891Y194309D02*
X833891Y194309D01*
X830624Y195663D01*
X828123Y198164D01*
X826769Y201431D01*
X826769Y204969D01*
X828123Y208236D01*
X830624Y210737D01*
X833891Y212091D01*
X837429Y212091D01*
X840696Y210737D01*
X843197Y208236D01*
X843906Y206524D01*
X843921Y206499D01*
X843930Y206471D01*
X844000Y206361D01*
X844064Y206248D01*
X844084Y206227D01*
X844100Y206202D01*
X844195Y206113D01*
X844285Y206020D01*
X844310Y206004D01*
X844332Y205984D01*
X844445Y205921D01*
X844556Y205853D01*
X844584Y205845D01*
X844610Y205830D01*
X844736Y205798D01*
X844860Y205760D01*
X844890Y205758D01*
X844918Y205751D01*
X845079Y205741D01*
X937337Y205741D01*
X937435Y205753D01*
X937534Y205756D01*
X937592Y205773D01*
X937652Y205781D01*
X937744Y205817D01*
X937839Y205845D01*
X937892Y205875D01*
X937948Y205898D01*
X938028Y205956D01*
X938113Y206006D01*
X938189Y206072D01*
X938205Y206084D01*
X938213Y206094D01*
X938234Y206112D01*
X939386Y207265D01*
X942754Y207265D01*
X945135Y204884D01*
X945135Y201516D01*
X942754Y199135D01*
X939386Y199135D01*
X938234Y200288D01*
X938156Y200348D01*
X938084Y200416D01*
X938031Y200445D01*
X937983Y200482D01*
X937892Y200522D01*
X937805Y200570D01*
X937747Y200585D01*
X937691Y200609D01*
X937593Y200624D01*
X937497Y200649D01*
X937397Y200655D01*
X937377Y200659D01*
X937365Y200657D01*
X937337Y200659D01*
X845079Y200659D01*
X845050Y200656D01*
X845020Y200658D01*
X844892Y200636D01*
X844763Y200619D01*
X844736Y200609D01*
X844707Y200604D01*
X844588Y200550D01*
X844468Y200502D01*
X844444Y200485D01*
X844417Y200473D01*
X844316Y200392D01*
X844210Y200316D01*
X844192Y200293D01*
X844168Y200274D01*
X844090Y200171D01*
X844008Y200071D01*
X843995Y200044D01*
X843977Y200020D01*
X843906Y199876D01*
X843197Y198164D01*
X840696Y195663D01*
X837429Y194309D01*
X833891Y194309D01*
G37*
%LPD*%
%LPC*%
G36*
X473211Y194309D02*
X473211Y194309D01*
X469944Y195663D01*
X467443Y198164D01*
X466089Y201431D01*
X466089Y204969D01*
X467443Y208236D01*
X469944Y210737D01*
X473211Y212091D01*
X476749Y212091D01*
X480016Y210737D01*
X482517Y208236D01*
X483226Y206524D01*
X483241Y206499D01*
X483250Y206471D01*
X483319Y206361D01*
X483384Y206248D01*
X483404Y206227D01*
X483420Y206202D01*
X483515Y206113D01*
X483605Y206020D01*
X483630Y206004D01*
X483652Y205984D01*
X483766Y205921D01*
X483876Y205853D01*
X483904Y205845D01*
X483930Y205830D01*
X484056Y205798D01*
X484180Y205760D01*
X484210Y205758D01*
X484238Y205751D01*
X484399Y205741D01*
X576657Y205741D01*
X576755Y205753D01*
X576854Y205756D01*
X576912Y205773D01*
X576972Y205781D01*
X577064Y205817D01*
X577159Y205845D01*
X577211Y205875D01*
X577268Y205898D01*
X577348Y205956D01*
X577433Y206006D01*
X577509Y206072D01*
X577525Y206084D01*
X577533Y206094D01*
X577554Y206112D01*
X578706Y207265D01*
X582074Y207265D01*
X584455Y204884D01*
X584455Y201516D01*
X582074Y199135D01*
X578706Y199135D01*
X577554Y200288D01*
X577476Y200348D01*
X577404Y200416D01*
X577351Y200445D01*
X577303Y200482D01*
X577212Y200522D01*
X577125Y200570D01*
X577067Y200585D01*
X577011Y200609D01*
X576913Y200624D01*
X576817Y200649D01*
X576717Y200655D01*
X576697Y200659D01*
X576685Y200657D01*
X576657Y200659D01*
X484399Y200659D01*
X484370Y200656D01*
X484340Y200658D01*
X484212Y200636D01*
X484083Y200619D01*
X484056Y200609D01*
X484027Y200604D01*
X483908Y200550D01*
X483788Y200502D01*
X483764Y200485D01*
X483737Y200473D01*
X483635Y200392D01*
X483530Y200316D01*
X483512Y200293D01*
X483488Y200274D01*
X483410Y200171D01*
X483328Y200071D01*
X483315Y200044D01*
X483297Y200020D01*
X483226Y199876D01*
X482517Y198164D01*
X480016Y195663D01*
X476749Y194309D01*
X473211Y194309D01*
G37*
%LPD*%
%LPC*%
G36*
X395826Y262635D02*
X395826Y262635D01*
X393445Y265016D01*
X393445Y268384D01*
X394598Y269536D01*
X394658Y269614D01*
X394726Y269686D01*
X394755Y269739D01*
X394792Y269787D01*
X394832Y269878D01*
X394880Y269965D01*
X394895Y270023D01*
X394919Y270079D01*
X394934Y270177D01*
X394959Y270273D01*
X394960Y270283D01*
X398998Y274321D01*
X445462Y274321D01*
X445560Y274333D01*
X445659Y274336D01*
X445717Y274353D01*
X445777Y274361D01*
X445869Y274397D01*
X445965Y274425D01*
X446017Y274455D01*
X446073Y274478D01*
X446153Y274536D01*
X446238Y274586D01*
X446314Y274652D01*
X446330Y274664D01*
X446338Y274674D01*
X446359Y274692D01*
X453608Y281941D01*
X465561Y281941D01*
X465590Y281944D01*
X465620Y281942D01*
X465748Y281964D01*
X465877Y281981D01*
X465904Y281991D01*
X465933Y281996D01*
X466052Y282050D01*
X466172Y282098D01*
X466196Y282115D01*
X466223Y282127D01*
X466324Y282208D01*
X466430Y282284D01*
X466448Y282307D01*
X466472Y282326D01*
X466550Y282429D01*
X466632Y282529D01*
X466645Y282556D01*
X466663Y282580D01*
X466734Y282724D01*
X467443Y284436D01*
X469944Y286937D01*
X473211Y288291D01*
X476749Y288291D01*
X480016Y286937D01*
X482517Y284436D01*
X483871Y281169D01*
X483871Y277631D01*
X482517Y274364D01*
X480016Y271863D01*
X476749Y270509D01*
X473211Y270509D01*
X469944Y271863D01*
X467443Y274364D01*
X466734Y276076D01*
X466719Y276101D01*
X466710Y276129D01*
X466640Y276239D01*
X466576Y276352D01*
X466556Y276373D01*
X466540Y276398D01*
X466445Y276487D01*
X466355Y276580D01*
X466330Y276596D01*
X466308Y276616D01*
X466195Y276679D01*
X466084Y276747D01*
X466056Y276755D01*
X466030Y276770D01*
X465904Y276802D01*
X465780Y276840D01*
X465750Y276842D01*
X465722Y276849D01*
X465561Y276859D01*
X456238Y276859D01*
X456140Y276847D01*
X456041Y276844D01*
X455983Y276827D01*
X455923Y276819D01*
X455831Y276783D01*
X455735Y276755D01*
X455683Y276725D01*
X455627Y276702D01*
X455547Y276644D01*
X455462Y276594D01*
X455386Y276528D01*
X455370Y276516D01*
X455362Y276506D01*
X455341Y276488D01*
X448092Y269239D01*
X402844Y269239D01*
X402726Y269224D01*
X402607Y269217D01*
X402569Y269204D01*
X402528Y269199D01*
X402418Y269156D01*
X402305Y269119D01*
X402270Y269097D01*
X402233Y269082D01*
X402137Y269013D01*
X402036Y268949D01*
X402008Y268919D01*
X401975Y268896D01*
X401899Y268804D01*
X401818Y268717D01*
X401798Y268682D01*
X401773Y268651D01*
X401722Y268543D01*
X401664Y268439D01*
X401654Y268399D01*
X401637Y268363D01*
X401615Y268246D01*
X401585Y268131D01*
X401581Y268071D01*
X401577Y268051D01*
X401579Y268030D01*
X401575Y267970D01*
X401575Y265016D01*
X399194Y262635D01*
X395826Y262635D01*
G37*
%LPD*%
%LPC*%
G36*
X1117186Y262635D02*
X1117186Y262635D01*
X1114805Y265016D01*
X1114805Y268384D01*
X1115958Y269536D01*
X1116018Y269614D01*
X1116086Y269686D01*
X1116115Y269739D01*
X1116152Y269787D01*
X1116192Y269878D01*
X1116240Y269965D01*
X1116255Y270023D01*
X1116279Y270079D01*
X1116294Y270177D01*
X1116319Y270273D01*
X1116320Y270283D01*
X1120358Y274321D01*
X1166822Y274321D01*
X1166920Y274333D01*
X1167019Y274336D01*
X1167077Y274353D01*
X1167137Y274361D01*
X1167229Y274397D01*
X1167325Y274425D01*
X1167377Y274455D01*
X1167433Y274478D01*
X1167513Y274536D01*
X1167598Y274586D01*
X1167674Y274652D01*
X1167690Y274664D01*
X1167698Y274674D01*
X1167719Y274692D01*
X1174968Y281941D01*
X1186921Y281941D01*
X1186950Y281944D01*
X1186980Y281942D01*
X1187108Y281964D01*
X1187237Y281981D01*
X1187264Y281991D01*
X1187293Y281996D01*
X1187412Y282050D01*
X1187532Y282098D01*
X1187556Y282115D01*
X1187583Y282127D01*
X1187684Y282208D01*
X1187790Y282284D01*
X1187808Y282307D01*
X1187832Y282326D01*
X1187910Y282429D01*
X1187992Y282529D01*
X1188005Y282556D01*
X1188023Y282580D01*
X1188094Y282724D01*
X1188803Y284436D01*
X1191304Y286937D01*
X1194571Y288291D01*
X1198109Y288291D01*
X1201376Y286937D01*
X1203877Y284436D01*
X1205231Y281169D01*
X1205231Y277631D01*
X1203877Y274364D01*
X1201376Y271863D01*
X1198109Y270509D01*
X1194571Y270509D01*
X1191304Y271863D01*
X1188803Y274364D01*
X1188094Y276076D01*
X1188079Y276101D01*
X1188070Y276129D01*
X1188000Y276239D01*
X1187936Y276352D01*
X1187916Y276373D01*
X1187900Y276398D01*
X1187805Y276487D01*
X1187715Y276580D01*
X1187690Y276596D01*
X1187668Y276616D01*
X1187555Y276679D01*
X1187444Y276747D01*
X1187416Y276755D01*
X1187390Y276770D01*
X1187264Y276802D01*
X1187140Y276840D01*
X1187110Y276842D01*
X1187082Y276849D01*
X1186921Y276859D01*
X1177598Y276859D01*
X1177500Y276847D01*
X1177401Y276844D01*
X1177343Y276827D01*
X1177283Y276819D01*
X1177191Y276783D01*
X1177095Y276755D01*
X1177043Y276725D01*
X1176987Y276702D01*
X1176907Y276644D01*
X1176822Y276594D01*
X1176746Y276528D01*
X1176730Y276516D01*
X1176722Y276506D01*
X1176701Y276488D01*
X1169452Y269239D01*
X1124204Y269239D01*
X1124086Y269224D01*
X1123967Y269217D01*
X1123929Y269204D01*
X1123888Y269199D01*
X1123778Y269156D01*
X1123665Y269119D01*
X1123630Y269097D01*
X1123593Y269082D01*
X1123497Y269013D01*
X1123396Y268949D01*
X1123368Y268919D01*
X1123335Y268896D01*
X1123259Y268804D01*
X1123178Y268717D01*
X1123158Y268682D01*
X1123133Y268651D01*
X1123082Y268543D01*
X1123024Y268439D01*
X1123014Y268399D01*
X1122997Y268363D01*
X1122975Y268246D01*
X1122945Y268131D01*
X1122941Y268071D01*
X1122937Y268051D01*
X1122939Y268030D01*
X1122935Y267970D01*
X1122935Y265016D01*
X1120554Y262635D01*
X1117186Y262635D01*
G37*
%LPD*%
%LPC*%
G36*
X756506Y262635D02*
X756506Y262635D01*
X754125Y265016D01*
X754125Y268384D01*
X755278Y269536D01*
X755338Y269614D01*
X755406Y269686D01*
X755435Y269739D01*
X755472Y269787D01*
X755512Y269878D01*
X755560Y269965D01*
X755575Y270023D01*
X755599Y270079D01*
X755614Y270177D01*
X755639Y270273D01*
X755640Y270283D01*
X759678Y274321D01*
X806142Y274321D01*
X806240Y274333D01*
X806339Y274336D01*
X806397Y274353D01*
X806457Y274361D01*
X806549Y274397D01*
X806645Y274425D01*
X806697Y274455D01*
X806753Y274478D01*
X806833Y274536D01*
X806918Y274586D01*
X806994Y274652D01*
X807010Y274664D01*
X807018Y274674D01*
X807039Y274692D01*
X814288Y281941D01*
X826241Y281941D01*
X826270Y281944D01*
X826300Y281942D01*
X826428Y281964D01*
X826557Y281981D01*
X826584Y281991D01*
X826613Y281996D01*
X826732Y282050D01*
X826852Y282098D01*
X826876Y282115D01*
X826903Y282127D01*
X827005Y282208D01*
X827110Y282284D01*
X827128Y282307D01*
X827152Y282326D01*
X827230Y282429D01*
X827312Y282529D01*
X827325Y282556D01*
X827343Y282580D01*
X827414Y282724D01*
X828123Y284436D01*
X830624Y286937D01*
X833891Y288291D01*
X837429Y288291D01*
X840696Y286937D01*
X843197Y284436D01*
X844551Y281169D01*
X844551Y277631D01*
X843197Y274364D01*
X840696Y271863D01*
X837429Y270509D01*
X833891Y270509D01*
X830624Y271863D01*
X828123Y274364D01*
X827414Y276076D01*
X827399Y276101D01*
X827390Y276129D01*
X827321Y276239D01*
X827256Y276352D01*
X827236Y276373D01*
X827220Y276398D01*
X827125Y276487D01*
X827035Y276580D01*
X827010Y276596D01*
X826988Y276616D01*
X826874Y276679D01*
X826764Y276747D01*
X826736Y276755D01*
X826710Y276770D01*
X826584Y276802D01*
X826460Y276840D01*
X826430Y276842D01*
X826402Y276849D01*
X826241Y276859D01*
X816918Y276859D01*
X816820Y276847D01*
X816721Y276844D01*
X816663Y276827D01*
X816603Y276819D01*
X816511Y276783D01*
X816415Y276755D01*
X816363Y276725D01*
X816307Y276702D01*
X816227Y276644D01*
X816142Y276594D01*
X816066Y276528D01*
X816050Y276516D01*
X816042Y276506D01*
X816021Y276488D01*
X808772Y269239D01*
X763524Y269239D01*
X763406Y269224D01*
X763287Y269217D01*
X763249Y269204D01*
X763208Y269199D01*
X763098Y269156D01*
X762985Y269119D01*
X762950Y269097D01*
X762913Y269082D01*
X762817Y269013D01*
X762716Y268949D01*
X762688Y268919D01*
X762655Y268896D01*
X762579Y268804D01*
X762498Y268717D01*
X762478Y268682D01*
X762453Y268651D01*
X762402Y268543D01*
X762344Y268439D01*
X762334Y268399D01*
X762317Y268363D01*
X762295Y268246D01*
X762265Y268131D01*
X762261Y268071D01*
X762257Y268051D01*
X762259Y268030D01*
X762255Y267970D01*
X762255Y265016D01*
X759874Y262635D01*
X756506Y262635D01*
G37*
%LPD*%
%LPC*%
G36*
X35146Y262635D02*
X35146Y262635D01*
X32765Y265016D01*
X32765Y268384D01*
X33918Y269536D01*
X33978Y269614D01*
X34046Y269686D01*
X34075Y269739D01*
X34112Y269787D01*
X34152Y269878D01*
X34200Y269965D01*
X34215Y270023D01*
X34239Y270079D01*
X34254Y270177D01*
X34279Y270273D01*
X34280Y270283D01*
X38318Y274321D01*
X84782Y274321D01*
X84880Y274333D01*
X84979Y274336D01*
X85037Y274353D01*
X85097Y274361D01*
X85189Y274397D01*
X85285Y274425D01*
X85337Y274455D01*
X85393Y274478D01*
X85473Y274536D01*
X85558Y274586D01*
X85634Y274652D01*
X85650Y274664D01*
X85658Y274674D01*
X85679Y274692D01*
X91068Y280081D01*
X92928Y281941D01*
X104881Y281941D01*
X104910Y281944D01*
X104940Y281942D01*
X105068Y281964D01*
X105197Y281981D01*
X105224Y281991D01*
X105253Y281996D01*
X105372Y282050D01*
X105492Y282098D01*
X105516Y282115D01*
X105543Y282127D01*
X105644Y282208D01*
X105750Y282284D01*
X105768Y282307D01*
X105792Y282326D01*
X105870Y282429D01*
X105952Y282529D01*
X105965Y282556D01*
X105983Y282580D01*
X106054Y282724D01*
X106763Y284436D01*
X109264Y286937D01*
X112531Y288291D01*
X116069Y288291D01*
X119336Y286937D01*
X121837Y284436D01*
X123191Y281169D01*
X123191Y277631D01*
X121837Y274364D01*
X119336Y271863D01*
X116069Y270509D01*
X112531Y270509D01*
X109264Y271863D01*
X106763Y274364D01*
X106054Y276076D01*
X106039Y276101D01*
X106030Y276129D01*
X105960Y276239D01*
X105896Y276352D01*
X105876Y276373D01*
X105860Y276398D01*
X105765Y276487D01*
X105675Y276580D01*
X105650Y276596D01*
X105628Y276616D01*
X105515Y276679D01*
X105404Y276747D01*
X105376Y276755D01*
X105350Y276770D01*
X105224Y276802D01*
X105100Y276840D01*
X105070Y276842D01*
X105042Y276849D01*
X104881Y276859D01*
X95558Y276859D01*
X95460Y276847D01*
X95361Y276844D01*
X95303Y276827D01*
X95243Y276819D01*
X95151Y276783D01*
X95055Y276755D01*
X95003Y276725D01*
X94947Y276702D01*
X94867Y276644D01*
X94781Y276594D01*
X94706Y276528D01*
X94690Y276516D01*
X94682Y276506D01*
X94661Y276488D01*
X87412Y269239D01*
X42164Y269239D01*
X42046Y269224D01*
X41927Y269217D01*
X41889Y269204D01*
X41848Y269199D01*
X41738Y269156D01*
X41625Y269119D01*
X41590Y269097D01*
X41553Y269082D01*
X41457Y269013D01*
X41356Y268949D01*
X41328Y268919D01*
X41295Y268896D01*
X41219Y268804D01*
X41138Y268717D01*
X41118Y268682D01*
X41093Y268651D01*
X41042Y268543D01*
X40984Y268439D01*
X40974Y268399D01*
X40957Y268363D01*
X40935Y268246D01*
X40905Y268131D01*
X40901Y268071D01*
X40897Y268051D01*
X40899Y268030D01*
X40895Y267970D01*
X40895Y265016D01*
X38514Y262635D01*
X35146Y262635D01*
G37*
%LPD*%
%LPC*%
G36*
X239531Y372109D02*
X239531Y372109D01*
X236264Y373463D01*
X233763Y375964D01*
X232409Y379231D01*
X232409Y382769D01*
X233763Y386036D01*
X236264Y388537D01*
X239531Y389891D01*
X243069Y389891D01*
X246336Y388537D01*
X248837Y386036D01*
X250191Y382769D01*
X250191Y379231D01*
X248837Y375964D01*
X246336Y373463D01*
X243069Y372109D01*
X239531Y372109D01*
G37*
%LPD*%
%LPC*%
G36*
X833891Y372109D02*
X833891Y372109D01*
X830624Y373463D01*
X828123Y375964D01*
X826769Y379231D01*
X826769Y382769D01*
X828123Y386036D01*
X830624Y388537D01*
X833891Y389891D01*
X837429Y389891D01*
X840696Y388537D01*
X843197Y386036D01*
X844551Y382769D01*
X844551Y379231D01*
X843197Y375964D01*
X840696Y373463D01*
X837429Y372109D01*
X833891Y372109D01*
G37*
%LPD*%
%LPC*%
G36*
X1194571Y372109D02*
X1194571Y372109D01*
X1191304Y373463D01*
X1188803Y375964D01*
X1187449Y379231D01*
X1187449Y382769D01*
X1188803Y386036D01*
X1191304Y388537D01*
X1194571Y389891D01*
X1198109Y389891D01*
X1201376Y388537D01*
X1203877Y386036D01*
X1205231Y382769D01*
X1205231Y379231D01*
X1203877Y375964D01*
X1201376Y373463D01*
X1198109Y372109D01*
X1194571Y372109D01*
G37*
%LPD*%
%LPC*%
G36*
X473211Y372109D02*
X473211Y372109D01*
X469944Y373463D01*
X467443Y375964D01*
X466089Y379231D01*
X466089Y382769D01*
X467443Y386036D01*
X469944Y388537D01*
X473211Y389891D01*
X476749Y389891D01*
X480016Y388537D01*
X482517Y386036D01*
X483871Y382769D01*
X483871Y379231D01*
X482517Y375964D01*
X480016Y373463D01*
X476749Y372109D01*
X473211Y372109D01*
G37*
%LPD*%
%LPC*%
G36*
X600211Y372109D02*
X600211Y372109D01*
X596944Y373463D01*
X594443Y375964D01*
X593089Y379231D01*
X593089Y382769D01*
X594443Y386036D01*
X596944Y388537D01*
X600211Y389891D01*
X603749Y389891D01*
X607016Y388537D01*
X609517Y386036D01*
X610871Y382769D01*
X610871Y379231D01*
X609517Y375964D01*
X607016Y373463D01*
X603749Y372109D01*
X600211Y372109D01*
G37*
%LPD*%
%LPC*%
G36*
X1321571Y372109D02*
X1321571Y372109D01*
X1318304Y373463D01*
X1315803Y375964D01*
X1314449Y379231D01*
X1314449Y382769D01*
X1315803Y386036D01*
X1318304Y388537D01*
X1321571Y389891D01*
X1325109Y389891D01*
X1328376Y388537D01*
X1330877Y386036D01*
X1332231Y382769D01*
X1332231Y379231D01*
X1330877Y375964D01*
X1328376Y373463D01*
X1325109Y372109D01*
X1321571Y372109D01*
G37*
%LPD*%
%LPC*%
G36*
X960891Y372109D02*
X960891Y372109D01*
X957624Y373463D01*
X955123Y375964D01*
X953769Y379231D01*
X953769Y382769D01*
X955123Y386036D01*
X957624Y388537D01*
X960891Y389891D01*
X964429Y389891D01*
X967696Y388537D01*
X970197Y386036D01*
X971551Y382769D01*
X971551Y379231D01*
X970197Y375964D01*
X967696Y373463D01*
X964429Y372109D01*
X960891Y372109D01*
G37*
%LPD*%
%LPC*%
G36*
X239531Y270509D02*
X239531Y270509D01*
X236264Y271863D01*
X233763Y274364D01*
X232409Y277631D01*
X232409Y281169D01*
X233763Y284436D01*
X236264Y286937D01*
X239531Y288291D01*
X243069Y288291D01*
X246336Y286937D01*
X248837Y284436D01*
X250191Y281169D01*
X250191Y277631D01*
X248837Y274364D01*
X246336Y271863D01*
X243069Y270509D01*
X239531Y270509D01*
G37*
%LPD*%
%LPC*%
G36*
X1321571Y270509D02*
X1321571Y270509D01*
X1318304Y271863D01*
X1315803Y274364D01*
X1314449Y277631D01*
X1314449Y281169D01*
X1315803Y284436D01*
X1318304Y286937D01*
X1321571Y288291D01*
X1325109Y288291D01*
X1328376Y286937D01*
X1330877Y284436D01*
X1332231Y281169D01*
X1332231Y277631D01*
X1330877Y274364D01*
X1328376Y271863D01*
X1325109Y270509D01*
X1321571Y270509D01*
G37*
%LPD*%
%LPC*%
G36*
X960891Y270509D02*
X960891Y270509D01*
X957624Y271863D01*
X955123Y274364D01*
X953769Y277631D01*
X953769Y281169D01*
X955123Y284436D01*
X957624Y286937D01*
X960891Y288291D01*
X964429Y288291D01*
X967696Y286937D01*
X970197Y284436D01*
X971551Y281169D01*
X971551Y277631D01*
X970197Y274364D01*
X967696Y271863D01*
X964429Y270509D01*
X960891Y270509D01*
G37*
%LPD*%
%LPC*%
G36*
X473211Y346709D02*
X473211Y346709D01*
X469944Y348063D01*
X467443Y350564D01*
X466089Y353831D01*
X466089Y357369D01*
X467443Y360636D01*
X469944Y363137D01*
X473211Y364491D01*
X476749Y364491D01*
X480016Y363137D01*
X482517Y360636D01*
X483871Y357369D01*
X483871Y353831D01*
X482517Y350564D01*
X480016Y348063D01*
X476749Y346709D01*
X473211Y346709D01*
G37*
%LPD*%
%LPC*%
G36*
X239531Y346709D02*
X239531Y346709D01*
X236264Y348063D01*
X233763Y350564D01*
X232409Y353831D01*
X232409Y357369D01*
X233763Y360636D01*
X236264Y363137D01*
X239531Y364491D01*
X243069Y364491D01*
X246336Y363137D01*
X248837Y360636D01*
X250191Y357369D01*
X250191Y353831D01*
X248837Y350564D01*
X246336Y348063D01*
X243069Y346709D01*
X239531Y346709D01*
G37*
%LPD*%
%LPC*%
G36*
X112531Y346709D02*
X112531Y346709D01*
X109264Y348063D01*
X106763Y350564D01*
X105409Y353831D01*
X105409Y357369D01*
X106763Y360636D01*
X109264Y363137D01*
X112531Y364491D01*
X116069Y364491D01*
X119336Y363137D01*
X121837Y360636D01*
X123191Y357369D01*
X123191Y353831D01*
X121837Y350564D01*
X119336Y348063D01*
X116069Y346709D01*
X112531Y346709D01*
G37*
%LPD*%
%LPC*%
G36*
X833891Y346709D02*
X833891Y346709D01*
X830624Y348063D01*
X828123Y350564D01*
X826769Y353831D01*
X826769Y357369D01*
X828123Y360636D01*
X830624Y363137D01*
X833891Y364491D01*
X837429Y364491D01*
X840696Y363137D01*
X843197Y360636D01*
X844551Y357369D01*
X844551Y353831D01*
X843197Y350564D01*
X840696Y348063D01*
X837429Y346709D01*
X833891Y346709D01*
G37*
%LPD*%
%LPC*%
G36*
X1194571Y346709D02*
X1194571Y346709D01*
X1191304Y348063D01*
X1188803Y350564D01*
X1187449Y353831D01*
X1187449Y357369D01*
X1188803Y360636D01*
X1191304Y363137D01*
X1194571Y364491D01*
X1198109Y364491D01*
X1201376Y363137D01*
X1203877Y360636D01*
X1205231Y357369D01*
X1205231Y353831D01*
X1203877Y350564D01*
X1201376Y348063D01*
X1198109Y346709D01*
X1194571Y346709D01*
G37*
%LPD*%
%LPC*%
G36*
X600211Y346709D02*
X600211Y346709D01*
X596944Y348063D01*
X594443Y350564D01*
X593089Y353831D01*
X593089Y357369D01*
X594443Y360636D01*
X596944Y363137D01*
X600211Y364491D01*
X603749Y364491D01*
X607016Y363137D01*
X609517Y360636D01*
X610871Y357369D01*
X610871Y353831D01*
X609517Y350564D01*
X607016Y348063D01*
X603749Y346709D01*
X600211Y346709D01*
G37*
%LPD*%
%LPC*%
G36*
X960891Y346709D02*
X960891Y346709D01*
X957624Y348063D01*
X955123Y350564D01*
X953769Y353831D01*
X953769Y357369D01*
X955123Y360636D01*
X957624Y363137D01*
X960891Y364491D01*
X964429Y364491D01*
X967696Y363137D01*
X970197Y360636D01*
X971551Y357369D01*
X971551Y353831D01*
X970197Y350564D01*
X967696Y348063D01*
X964429Y346709D01*
X960891Y346709D01*
G37*
%LPD*%
%LPC*%
G36*
X1321571Y346709D02*
X1321571Y346709D01*
X1318304Y348063D01*
X1315803Y350564D01*
X1314449Y353831D01*
X1314449Y357369D01*
X1315803Y360636D01*
X1318304Y363137D01*
X1321571Y364491D01*
X1325109Y364491D01*
X1328376Y363137D01*
X1330877Y360636D01*
X1332231Y357369D01*
X1332231Y353831D01*
X1330877Y350564D01*
X1328376Y348063D01*
X1325109Y346709D01*
X1321571Y346709D01*
G37*
%LPD*%
%LPC*%
G36*
X960891Y321309D02*
X960891Y321309D01*
X957624Y322663D01*
X955123Y325164D01*
X953769Y328431D01*
X953769Y331969D01*
X955123Y335236D01*
X957624Y337737D01*
X960891Y339091D01*
X964429Y339091D01*
X967696Y337737D01*
X970197Y335236D01*
X971551Y331969D01*
X971551Y328431D01*
X970197Y325164D01*
X967696Y322663D01*
X964429Y321309D01*
X960891Y321309D01*
G37*
%LPD*%
%LPC*%
G36*
X112531Y321309D02*
X112531Y321309D01*
X109264Y322663D01*
X106763Y325164D01*
X105409Y328431D01*
X105409Y331969D01*
X106763Y335236D01*
X109264Y337737D01*
X112531Y339091D01*
X116069Y339091D01*
X119336Y337737D01*
X121837Y335236D01*
X123191Y331969D01*
X123191Y328431D01*
X121837Y325164D01*
X119336Y322663D01*
X116069Y321309D01*
X112531Y321309D01*
G37*
%LPD*%
%LPC*%
G36*
X833891Y321309D02*
X833891Y321309D01*
X830624Y322663D01*
X828123Y325164D01*
X826769Y328431D01*
X826769Y331969D01*
X828123Y335236D01*
X830624Y337737D01*
X833891Y339091D01*
X837429Y339091D01*
X840696Y337737D01*
X843197Y335236D01*
X844551Y331969D01*
X844551Y328431D01*
X843197Y325164D01*
X840696Y322663D01*
X837429Y321309D01*
X833891Y321309D01*
G37*
%LPD*%
%LPC*%
G36*
X1321571Y321309D02*
X1321571Y321309D01*
X1318304Y322663D01*
X1315803Y325164D01*
X1314449Y328431D01*
X1314449Y331969D01*
X1315803Y335236D01*
X1318304Y337737D01*
X1321571Y339091D01*
X1325109Y339091D01*
X1328376Y337737D01*
X1330877Y335236D01*
X1332231Y331969D01*
X1332231Y328431D01*
X1330877Y325164D01*
X1328376Y322663D01*
X1325109Y321309D01*
X1321571Y321309D01*
G37*
%LPD*%
%LPC*%
G36*
X1194571Y321309D02*
X1194571Y321309D01*
X1191304Y322663D01*
X1188803Y325164D01*
X1187449Y328431D01*
X1187449Y331969D01*
X1188803Y335236D01*
X1191304Y337737D01*
X1194571Y339091D01*
X1198109Y339091D01*
X1201376Y337737D01*
X1203877Y335236D01*
X1205231Y331969D01*
X1205231Y328431D01*
X1203877Y325164D01*
X1201376Y322663D01*
X1198109Y321309D01*
X1194571Y321309D01*
G37*
%LPD*%
%LPC*%
G36*
X600211Y321309D02*
X600211Y321309D01*
X596944Y322663D01*
X594443Y325164D01*
X593089Y328431D01*
X593089Y331969D01*
X594443Y335236D01*
X596944Y337737D01*
X600211Y339091D01*
X603749Y339091D01*
X607016Y337737D01*
X609517Y335236D01*
X610871Y331969D01*
X610871Y328431D01*
X609517Y325164D01*
X607016Y322663D01*
X603749Y321309D01*
X600211Y321309D01*
G37*
%LPD*%
%LPC*%
G36*
X239531Y321309D02*
X239531Y321309D01*
X236264Y322663D01*
X233763Y325164D01*
X232409Y328431D01*
X232409Y331969D01*
X233763Y335236D01*
X236264Y337737D01*
X239531Y339091D01*
X243069Y339091D01*
X246336Y337737D01*
X248837Y335236D01*
X250191Y331969D01*
X250191Y328431D01*
X248837Y325164D01*
X246336Y322663D01*
X243069Y321309D01*
X239531Y321309D01*
G37*
%LPD*%
%LPC*%
G36*
X473211Y321309D02*
X473211Y321309D01*
X469944Y322663D01*
X467443Y325164D01*
X466089Y328431D01*
X466089Y331969D01*
X467443Y335236D01*
X469944Y337737D01*
X473211Y339091D01*
X476749Y339091D01*
X480016Y337737D01*
X482517Y335236D01*
X483871Y331969D01*
X483871Y328431D01*
X482517Y325164D01*
X480016Y322663D01*
X476749Y321309D01*
X473211Y321309D01*
G37*
%LPD*%
%LPC*%
G36*
X112531Y295909D02*
X112531Y295909D01*
X109264Y297263D01*
X106763Y299764D01*
X105409Y303031D01*
X105409Y306569D01*
X106763Y309836D01*
X109264Y312337D01*
X112531Y313691D01*
X116069Y313691D01*
X119336Y312337D01*
X121837Y309836D01*
X123191Y306569D01*
X123191Y303031D01*
X121837Y299764D01*
X119336Y297263D01*
X116069Y295909D01*
X112531Y295909D01*
G37*
%LPD*%
%LPC*%
G36*
X239531Y295909D02*
X239531Y295909D01*
X236264Y297263D01*
X233763Y299764D01*
X232409Y303031D01*
X232409Y306569D01*
X233763Y309836D01*
X236264Y312337D01*
X239531Y313691D01*
X243069Y313691D01*
X246336Y312337D01*
X248837Y309836D01*
X250191Y306569D01*
X250191Y303031D01*
X248837Y299764D01*
X246336Y297263D01*
X243069Y295909D01*
X239531Y295909D01*
G37*
%LPD*%
%LPC*%
G36*
X600211Y295909D02*
X600211Y295909D01*
X596944Y297263D01*
X594443Y299764D01*
X593089Y303031D01*
X593089Y306569D01*
X594443Y309836D01*
X596944Y312337D01*
X600211Y313691D01*
X603749Y313691D01*
X607016Y312337D01*
X609517Y309836D01*
X610871Y306569D01*
X610871Y303031D01*
X609517Y299764D01*
X607016Y297263D01*
X603749Y295909D01*
X600211Y295909D01*
G37*
%LPD*%
%LPC*%
G36*
X473211Y295909D02*
X473211Y295909D01*
X469944Y297263D01*
X467443Y299764D01*
X466089Y303031D01*
X466089Y306569D01*
X467443Y309836D01*
X469944Y312337D01*
X473211Y313691D01*
X476749Y313691D01*
X480016Y312337D01*
X482517Y309836D01*
X483871Y306569D01*
X483871Y303031D01*
X482517Y299764D01*
X480016Y297263D01*
X476749Y295909D01*
X473211Y295909D01*
G37*
%LPD*%
%LPC*%
G36*
X960891Y295909D02*
X960891Y295909D01*
X957624Y297263D01*
X955123Y299764D01*
X953769Y303031D01*
X953769Y306569D01*
X955123Y309836D01*
X957624Y312337D01*
X960891Y313691D01*
X964429Y313691D01*
X967696Y312337D01*
X970197Y309836D01*
X971551Y306569D01*
X971551Y303031D01*
X970197Y299764D01*
X967696Y297263D01*
X964429Y295909D01*
X960891Y295909D01*
G37*
%LPD*%
%LPC*%
G36*
X833891Y295909D02*
X833891Y295909D01*
X830624Y297263D01*
X828123Y299764D01*
X826769Y303031D01*
X826769Y306569D01*
X828123Y309836D01*
X830624Y312337D01*
X833891Y313691D01*
X837429Y313691D01*
X840696Y312337D01*
X843197Y309836D01*
X844551Y306569D01*
X844551Y303031D01*
X843197Y299764D01*
X840696Y297263D01*
X837429Y295909D01*
X833891Y295909D01*
G37*
%LPD*%
%LPC*%
G36*
X1321571Y295909D02*
X1321571Y295909D01*
X1318304Y297263D01*
X1315803Y299764D01*
X1314449Y303031D01*
X1314449Y306569D01*
X1315803Y309836D01*
X1318304Y312337D01*
X1321571Y313691D01*
X1325109Y313691D01*
X1328376Y312337D01*
X1330877Y309836D01*
X1332231Y306569D01*
X1332231Y303031D01*
X1330877Y299764D01*
X1328376Y297263D01*
X1325109Y295909D01*
X1321571Y295909D01*
G37*
%LPD*%
%LPC*%
G36*
X1194571Y295909D02*
X1194571Y295909D01*
X1191304Y297263D01*
X1188803Y299764D01*
X1187449Y303031D01*
X1187449Y306569D01*
X1188803Y309836D01*
X1191304Y312337D01*
X1194571Y313691D01*
X1198109Y313691D01*
X1201376Y312337D01*
X1203877Y309836D01*
X1205231Y306569D01*
X1205231Y303031D01*
X1203877Y299764D01*
X1201376Y297263D01*
X1198109Y295909D01*
X1194571Y295909D01*
G37*
%LPD*%
%LPC*%
G36*
X600211Y270509D02*
X600211Y270509D01*
X596944Y271863D01*
X594443Y274364D01*
X593089Y277631D01*
X593089Y281169D01*
X594443Y284436D01*
X596944Y286937D01*
X600211Y288291D01*
X603749Y288291D01*
X607016Y286937D01*
X609517Y284436D01*
X610871Y281169D01*
X610871Y277631D01*
X609517Y274364D01*
X607016Y271863D01*
X603749Y270509D01*
X600211Y270509D01*
G37*
%LPD*%
%LPC*%
G36*
X1194571Y245109D02*
X1194571Y245109D01*
X1191304Y246463D01*
X1188803Y248964D01*
X1187449Y252231D01*
X1187449Y255769D01*
X1188803Y259036D01*
X1191304Y261537D01*
X1194571Y262891D01*
X1198109Y262891D01*
X1201376Y261537D01*
X1203877Y259036D01*
X1205231Y255769D01*
X1205231Y252231D01*
X1203877Y248964D01*
X1201376Y246463D01*
X1198109Y245109D01*
X1194571Y245109D01*
G37*
%LPD*%
%LPC*%
G36*
X960891Y245109D02*
X960891Y245109D01*
X957624Y246463D01*
X955123Y248964D01*
X953769Y252231D01*
X953769Y255769D01*
X955123Y259036D01*
X957624Y261537D01*
X960891Y262891D01*
X964429Y262891D01*
X967696Y261537D01*
X970197Y259036D01*
X971551Y255769D01*
X971551Y252231D01*
X970197Y248964D01*
X967696Y246463D01*
X964429Y245109D01*
X960891Y245109D01*
G37*
%LPD*%
%LPC*%
G36*
X112531Y372109D02*
X112531Y372109D01*
X109264Y373463D01*
X106763Y375964D01*
X105409Y379231D01*
X105409Y382769D01*
X106763Y386036D01*
X109264Y388537D01*
X112531Y389891D01*
X116069Y389891D01*
X119336Y388537D01*
X121837Y386036D01*
X123191Y382769D01*
X123191Y379231D01*
X121837Y375964D01*
X119336Y373463D01*
X116069Y372109D01*
X112531Y372109D01*
G37*
%LPD*%
%LPC*%
G36*
X239531Y245109D02*
X239531Y245109D01*
X236264Y246463D01*
X233763Y248964D01*
X232409Y252231D01*
X232409Y255769D01*
X233763Y259036D01*
X236264Y261537D01*
X239531Y262891D01*
X243069Y262891D01*
X246336Y261537D01*
X248837Y259036D01*
X250191Y255769D01*
X250191Y252231D01*
X248837Y248964D01*
X246336Y246463D01*
X243069Y245109D01*
X239531Y245109D01*
G37*
%LPD*%
%LPC*%
G36*
X112531Y245109D02*
X112531Y245109D01*
X109264Y246463D01*
X106763Y248964D01*
X105409Y252231D01*
X105409Y255769D01*
X106763Y259036D01*
X109264Y261537D01*
X112531Y262891D01*
X116069Y262891D01*
X119336Y261537D01*
X121837Y259036D01*
X123191Y255769D01*
X123191Y252231D01*
X121837Y248964D01*
X119336Y246463D01*
X116069Y245109D01*
X112531Y245109D01*
G37*
%LPD*%
%LPC*%
G36*
X600211Y245109D02*
X600211Y245109D01*
X596944Y246463D01*
X594443Y248964D01*
X593089Y252231D01*
X593089Y255769D01*
X594443Y259036D01*
X596944Y261537D01*
X600211Y262891D01*
X603749Y262891D01*
X607016Y261537D01*
X609517Y259036D01*
X610871Y255769D01*
X610871Y252231D01*
X609517Y248964D01*
X607016Y246463D01*
X603749Y245109D01*
X600211Y245109D01*
G37*
%LPD*%
%LPC*%
G36*
X1321571Y245109D02*
X1321571Y245109D01*
X1318304Y246463D01*
X1315803Y248964D01*
X1314449Y252231D01*
X1314449Y255769D01*
X1315803Y259036D01*
X1318304Y261537D01*
X1321571Y262891D01*
X1325109Y262891D01*
X1328376Y261537D01*
X1330877Y259036D01*
X1332231Y255769D01*
X1332231Y252231D01*
X1330877Y248964D01*
X1328376Y246463D01*
X1325109Y245109D01*
X1321571Y245109D01*
G37*
%LPD*%
%LPC*%
G36*
X833891Y245109D02*
X833891Y245109D01*
X830624Y246463D01*
X828123Y248964D01*
X826769Y252231D01*
X826769Y255769D01*
X828123Y259036D01*
X830624Y261537D01*
X833891Y262891D01*
X837429Y262891D01*
X840696Y261537D01*
X843197Y259036D01*
X844551Y255769D01*
X844551Y252231D01*
X843197Y248964D01*
X840696Y246463D01*
X837429Y245109D01*
X833891Y245109D01*
G37*
%LPD*%
%LPC*%
G36*
X1321571Y194309D02*
X1321571Y194309D01*
X1318304Y195663D01*
X1315803Y198164D01*
X1314449Y201431D01*
X1314449Y204969D01*
X1315803Y208236D01*
X1318304Y210737D01*
X1321571Y212091D01*
X1325109Y212091D01*
X1328376Y210737D01*
X1330877Y208236D01*
X1332231Y204969D01*
X1332231Y201431D01*
X1330877Y198164D01*
X1328376Y195663D01*
X1325109Y194309D01*
X1321571Y194309D01*
G37*
%LPD*%
%LPC*%
G36*
X600211Y194309D02*
X600211Y194309D01*
X596944Y195663D01*
X594443Y198164D01*
X593089Y201431D01*
X593089Y204969D01*
X594443Y208236D01*
X596944Y210737D01*
X600211Y212091D01*
X603749Y212091D01*
X607016Y210737D01*
X609517Y208236D01*
X610871Y204969D01*
X610871Y201431D01*
X609517Y198164D01*
X607016Y195663D01*
X603749Y194309D01*
X600211Y194309D01*
G37*
%LPD*%
%LPC*%
G36*
X112531Y219709D02*
X112531Y219709D01*
X109264Y221063D01*
X106763Y223564D01*
X105409Y226831D01*
X105409Y230369D01*
X106763Y233636D01*
X109264Y236137D01*
X112531Y237491D01*
X116069Y237491D01*
X119336Y236137D01*
X121837Y233636D01*
X123191Y230369D01*
X123191Y226831D01*
X121837Y223564D01*
X119336Y221063D01*
X116069Y219709D01*
X112531Y219709D01*
G37*
%LPD*%
%LPC*%
G36*
X239531Y219709D02*
X239531Y219709D01*
X236264Y221063D01*
X233763Y223564D01*
X232409Y226831D01*
X232409Y230369D01*
X233763Y233636D01*
X236264Y236137D01*
X239531Y237491D01*
X243069Y237491D01*
X246336Y236137D01*
X248837Y233636D01*
X250191Y230369D01*
X250191Y226831D01*
X248837Y223564D01*
X246336Y221063D01*
X243069Y219709D01*
X239531Y219709D01*
G37*
%LPD*%
%LPC*%
G36*
X1321571Y219709D02*
X1321571Y219709D01*
X1318304Y221063D01*
X1315803Y223564D01*
X1314449Y226831D01*
X1314449Y230369D01*
X1315803Y233636D01*
X1318304Y236137D01*
X1321571Y237491D01*
X1325109Y237491D01*
X1328376Y236137D01*
X1330877Y233636D01*
X1332231Y230369D01*
X1332231Y226831D01*
X1330877Y223564D01*
X1328376Y221063D01*
X1325109Y219709D01*
X1321571Y219709D01*
G37*
%LPD*%
%LPC*%
G36*
X1194571Y219709D02*
X1194571Y219709D01*
X1191304Y221063D01*
X1188803Y223564D01*
X1187449Y226831D01*
X1187449Y230369D01*
X1188803Y233636D01*
X1191304Y236137D01*
X1194571Y237491D01*
X1198109Y237491D01*
X1201376Y236137D01*
X1203877Y233636D01*
X1205231Y230369D01*
X1205231Y226831D01*
X1203877Y223564D01*
X1201376Y221063D01*
X1198109Y219709D01*
X1194571Y219709D01*
G37*
%LPD*%
%LPC*%
G36*
X960891Y219709D02*
X960891Y219709D01*
X957624Y221063D01*
X955123Y223564D01*
X953769Y226831D01*
X953769Y230369D01*
X955123Y233636D01*
X957624Y236137D01*
X960891Y237491D01*
X964429Y237491D01*
X967696Y236137D01*
X970197Y233636D01*
X971551Y230369D01*
X971551Y226831D01*
X970197Y223564D01*
X967696Y221063D01*
X964429Y219709D01*
X960891Y219709D01*
G37*
%LPD*%
%LPC*%
G36*
X833891Y219709D02*
X833891Y219709D01*
X830624Y221063D01*
X828123Y223564D01*
X826769Y226831D01*
X826769Y230369D01*
X828123Y233636D01*
X830624Y236137D01*
X833891Y237491D01*
X837429Y237491D01*
X840696Y236137D01*
X843197Y233636D01*
X844551Y230369D01*
X844551Y226831D01*
X843197Y223564D01*
X840696Y221063D01*
X837429Y219709D01*
X833891Y219709D01*
G37*
%LPD*%
%LPC*%
G36*
X473211Y219709D02*
X473211Y219709D01*
X469944Y221063D01*
X467443Y223564D01*
X466089Y226831D01*
X466089Y230369D01*
X467443Y233636D01*
X469944Y236137D01*
X473211Y237491D01*
X476749Y237491D01*
X480016Y236137D01*
X482517Y233636D01*
X483871Y230369D01*
X483871Y226831D01*
X482517Y223564D01*
X480016Y221063D01*
X476749Y219709D01*
X473211Y219709D01*
G37*
%LPD*%
%LPC*%
G36*
X600211Y219709D02*
X600211Y219709D01*
X596944Y221063D01*
X594443Y223564D01*
X593089Y226831D01*
X593089Y230369D01*
X594443Y233636D01*
X596944Y236137D01*
X600211Y237491D01*
X603749Y237491D01*
X607016Y236137D01*
X609517Y233636D01*
X610871Y230369D01*
X610871Y226831D01*
X609517Y223564D01*
X607016Y221063D01*
X603749Y219709D01*
X600211Y219709D01*
G37*
%LPD*%
%LPC*%
G36*
X239531Y194309D02*
X239531Y194309D01*
X236264Y195663D01*
X233763Y198164D01*
X232409Y201431D01*
X232409Y204969D01*
X233763Y208236D01*
X236264Y210737D01*
X239531Y212091D01*
X243069Y212091D01*
X246336Y210737D01*
X248837Y208236D01*
X250191Y204969D01*
X250191Y201431D01*
X248837Y198164D01*
X246336Y195663D01*
X243069Y194309D01*
X239531Y194309D01*
G37*
%LPD*%
%LPC*%
G36*
X960891Y194309D02*
X960891Y194309D01*
X957624Y195663D01*
X955123Y198164D01*
X953769Y201431D01*
X953769Y204969D01*
X955123Y208236D01*
X957624Y210737D01*
X960891Y212091D01*
X964429Y212091D01*
X967696Y210737D01*
X970197Y208236D01*
X971551Y204969D01*
X971551Y201431D01*
X970197Y198164D01*
X967696Y195663D01*
X964429Y194309D01*
X960891Y194309D01*
G37*
%LPD*%
%LPC*%
G36*
X1321571Y168909D02*
X1321571Y168909D01*
X1318304Y170263D01*
X1315803Y172764D01*
X1314449Y176031D01*
X1314449Y179569D01*
X1315803Y182836D01*
X1318304Y185337D01*
X1321571Y186691D01*
X1325109Y186691D01*
X1328376Y185337D01*
X1330877Y182836D01*
X1332231Y179569D01*
X1332231Y176031D01*
X1330877Y172764D01*
X1328376Y170263D01*
X1325109Y168909D01*
X1321571Y168909D01*
G37*
%LPD*%
%LPC*%
G36*
X600211Y168909D02*
X600211Y168909D01*
X596944Y170263D01*
X594443Y172764D01*
X593089Y176031D01*
X593089Y179569D01*
X594443Y182836D01*
X596944Y185337D01*
X600211Y186691D01*
X603749Y186691D01*
X607016Y185337D01*
X609517Y182836D01*
X610871Y179569D01*
X610871Y176031D01*
X609517Y172764D01*
X607016Y170263D01*
X603749Y168909D01*
X600211Y168909D01*
G37*
%LPD*%
%LPC*%
G36*
X960891Y168909D02*
X960891Y168909D01*
X957624Y170263D01*
X955123Y172764D01*
X953769Y176031D01*
X953769Y179569D01*
X955123Y182836D01*
X957624Y185337D01*
X960891Y186691D01*
X964429Y186691D01*
X967696Y185337D01*
X970197Y182836D01*
X971551Y179569D01*
X971551Y176031D01*
X970197Y172764D01*
X967696Y170263D01*
X964429Y168909D01*
X960891Y168909D01*
G37*
%LPD*%
%LPC*%
G36*
X239531Y168909D02*
X239531Y168909D01*
X236264Y170263D01*
X233763Y172764D01*
X232409Y176031D01*
X232409Y179569D01*
X233763Y182836D01*
X236264Y185337D01*
X239531Y186691D01*
X243069Y186691D01*
X246336Y185337D01*
X248837Y182836D01*
X250191Y179569D01*
X250191Y176031D01*
X248837Y172764D01*
X246336Y170263D01*
X243069Y168909D01*
X239531Y168909D01*
G37*
%LPD*%
%LPC*%
G36*
X600211Y143509D02*
X600211Y143509D01*
X596944Y144863D01*
X594443Y147364D01*
X593089Y150631D01*
X593089Y154169D01*
X594443Y157436D01*
X596944Y159937D01*
X600211Y161291D01*
X603749Y161291D01*
X607016Y159937D01*
X609517Y157436D01*
X610871Y154169D01*
X610871Y150631D01*
X609517Y147364D01*
X607016Y144863D01*
X603749Y143509D01*
X600211Y143509D01*
G37*
%LPD*%
%LPC*%
G36*
X112531Y143509D02*
X112531Y143509D01*
X109264Y144863D01*
X106763Y147364D01*
X105409Y150631D01*
X105409Y154169D01*
X106763Y157436D01*
X109264Y159937D01*
X112531Y161291D01*
X116069Y161291D01*
X119336Y159937D01*
X121837Y157436D01*
X123191Y154169D01*
X123191Y150631D01*
X121837Y147364D01*
X119336Y144863D01*
X116069Y143509D01*
X112531Y143509D01*
G37*
%LPD*%
%LPC*%
G36*
X239531Y143509D02*
X239531Y143509D01*
X236264Y144863D01*
X233763Y147364D01*
X232409Y150631D01*
X232409Y154169D01*
X233763Y157436D01*
X236264Y159937D01*
X239531Y161291D01*
X243069Y161291D01*
X246336Y159937D01*
X248837Y157436D01*
X250191Y154169D01*
X250191Y150631D01*
X248837Y147364D01*
X246336Y144863D01*
X243069Y143509D01*
X239531Y143509D01*
G37*
%LPD*%
%LPC*%
G36*
X833891Y143509D02*
X833891Y143509D01*
X830624Y144863D01*
X828123Y147364D01*
X826769Y150631D01*
X826769Y154169D01*
X828123Y157436D01*
X830624Y159937D01*
X833891Y161291D01*
X837429Y161291D01*
X840696Y159937D01*
X843197Y157436D01*
X844551Y154169D01*
X844551Y150631D01*
X843197Y147364D01*
X840696Y144863D01*
X837429Y143509D01*
X833891Y143509D01*
G37*
%LPD*%
%LPC*%
G36*
X1321571Y143509D02*
X1321571Y143509D01*
X1318304Y144863D01*
X1315803Y147364D01*
X1314449Y150631D01*
X1314449Y154169D01*
X1315803Y157436D01*
X1318304Y159937D01*
X1321571Y161291D01*
X1325109Y161291D01*
X1328376Y159937D01*
X1330877Y157436D01*
X1332231Y154169D01*
X1332231Y150631D01*
X1330877Y147364D01*
X1328376Y144863D01*
X1325109Y143509D01*
X1321571Y143509D01*
G37*
%LPD*%
%LPC*%
G36*
X960891Y143509D02*
X960891Y143509D01*
X957624Y144863D01*
X955123Y147364D01*
X953769Y150631D01*
X953769Y154169D01*
X955123Y157436D01*
X957624Y159937D01*
X960891Y161291D01*
X964429Y161291D01*
X967696Y159937D01*
X970197Y157436D01*
X971551Y154169D01*
X971551Y150631D01*
X970197Y147364D01*
X967696Y144863D01*
X964429Y143509D01*
X960891Y143509D01*
G37*
%LPD*%
%LPC*%
G36*
X1194571Y143509D02*
X1194571Y143509D01*
X1191304Y144863D01*
X1188803Y147364D01*
X1187449Y150631D01*
X1187449Y154169D01*
X1188803Y157436D01*
X1191304Y159937D01*
X1194571Y161291D01*
X1198109Y161291D01*
X1201376Y159937D01*
X1203877Y157436D01*
X1205231Y154169D01*
X1205231Y150631D01*
X1203877Y147364D01*
X1201376Y144863D01*
X1198109Y143509D01*
X1194571Y143509D01*
G37*
%LPD*%
%LPC*%
G36*
X473211Y397509D02*
X473211Y397509D01*
X469944Y398863D01*
X467443Y401364D01*
X466089Y404631D01*
X466089Y408169D01*
X467443Y411436D01*
X469944Y413937D01*
X473211Y415291D01*
X476749Y415291D01*
X480016Y413937D01*
X482517Y411436D01*
X483871Y408169D01*
X483871Y404631D01*
X482517Y401364D01*
X480016Y398863D01*
X476749Y397509D01*
X473211Y397509D01*
G37*
%LPD*%
%LPC*%
G36*
X473211Y245109D02*
X473211Y245109D01*
X469944Y246463D01*
X467443Y248964D01*
X466089Y252231D01*
X466089Y255769D01*
X467443Y259036D01*
X469944Y261537D01*
X473211Y262891D01*
X476749Y262891D01*
X480016Y261537D01*
X482517Y259036D01*
X483871Y255769D01*
X483871Y252231D01*
X482517Y248964D01*
X480016Y246463D01*
X476749Y245109D01*
X473211Y245109D01*
G37*
%LPD*%
%LPC*%
G36*
X833891Y397509D02*
X833891Y397509D01*
X830624Y398863D01*
X828123Y401364D01*
X826769Y404631D01*
X826769Y408169D01*
X828123Y411436D01*
X830624Y413937D01*
X833891Y415291D01*
X837429Y415291D01*
X840696Y413937D01*
X843197Y411436D01*
X844551Y408169D01*
X844551Y404631D01*
X843197Y401364D01*
X840696Y398863D01*
X837429Y397509D01*
X833891Y397509D01*
G37*
%LPD*%
%LPC*%
G36*
X960891Y397509D02*
X960891Y397509D01*
X957624Y398863D01*
X955123Y401364D01*
X953769Y404631D01*
X953769Y408169D01*
X955123Y411436D01*
X957624Y413937D01*
X960891Y415291D01*
X964429Y415291D01*
X967696Y413937D01*
X970197Y411436D01*
X971551Y408169D01*
X971551Y404631D01*
X970197Y401364D01*
X967696Y398863D01*
X964429Y397509D01*
X960891Y397509D01*
G37*
%LPD*%
%LPC*%
G36*
X112531Y397509D02*
X112531Y397509D01*
X109264Y398863D01*
X106763Y401364D01*
X105409Y404631D01*
X105409Y408169D01*
X106763Y411436D01*
X109264Y413937D01*
X112531Y415291D01*
X116069Y415291D01*
X119336Y413937D01*
X121837Y411436D01*
X123191Y408169D01*
X123191Y404631D01*
X121837Y401364D01*
X119336Y398863D01*
X116069Y397509D01*
X112531Y397509D01*
G37*
%LPD*%
%LPC*%
G36*
X600211Y397509D02*
X600211Y397509D01*
X596944Y398863D01*
X594443Y401364D01*
X593089Y404631D01*
X593089Y408169D01*
X594443Y411436D01*
X596944Y413937D01*
X600211Y415291D01*
X603749Y415291D01*
X607016Y413937D01*
X609517Y411436D01*
X610871Y408169D01*
X610871Y404631D01*
X609517Y401364D01*
X607016Y398863D01*
X603749Y397509D01*
X600211Y397509D01*
G37*
%LPD*%
%LPC*%
G36*
X239531Y397509D02*
X239531Y397509D01*
X236264Y398863D01*
X233763Y401364D01*
X232409Y404631D01*
X232409Y408169D01*
X233763Y411436D01*
X236264Y413937D01*
X239531Y415291D01*
X243069Y415291D01*
X246336Y413937D01*
X248837Y411436D01*
X250191Y408169D01*
X250191Y404631D01*
X248837Y401364D01*
X246336Y398863D01*
X243069Y397509D01*
X239531Y397509D01*
G37*
%LPD*%
%LPC*%
G36*
X1194571Y397509D02*
X1194571Y397509D01*
X1191304Y398863D01*
X1188803Y401364D01*
X1187449Y404631D01*
X1187449Y408169D01*
X1188803Y411436D01*
X1191304Y413937D01*
X1194571Y415291D01*
X1198109Y415291D01*
X1201376Y413937D01*
X1203877Y411436D01*
X1205231Y408169D01*
X1205231Y404631D01*
X1203877Y401364D01*
X1201376Y398863D01*
X1198109Y397509D01*
X1194571Y397509D01*
G37*
%LPD*%
%LPC*%
G36*
X473211Y143509D02*
X473211Y143509D01*
X469944Y144863D01*
X467443Y147364D01*
X466089Y150631D01*
X466089Y154169D01*
X467443Y157436D01*
X469944Y159937D01*
X473211Y161291D01*
X476749Y161291D01*
X480016Y159937D01*
X482517Y157436D01*
X483871Y154169D01*
X483871Y150631D01*
X482517Y147364D01*
X480016Y144863D01*
X476749Y143509D01*
X473211Y143509D01*
G37*
%LPD*%
%LPC*%
G36*
X910959Y370762D02*
X910959Y370762D01*
X910213Y371508D01*
X910196Y371521D01*
X910138Y371578D01*
X909343Y372253D01*
X909319Y372293D01*
X909319Y373348D01*
X909317Y373369D01*
X909315Y373450D01*
X909231Y374490D01*
X909242Y374535D01*
X909988Y375281D01*
X910001Y375298D01*
X910058Y375356D01*
X914691Y380807D01*
X914728Y380865D01*
X914774Y380916D01*
X914815Y380997D01*
X914865Y381073D01*
X914887Y381138D01*
X914918Y381200D01*
X914938Y381288D01*
X914967Y381374D01*
X914972Y381443D01*
X914987Y381510D01*
X914984Y381601D01*
X914991Y381691D01*
X914979Y381759D01*
X914977Y381828D01*
X914952Y381915D01*
X914936Y382005D01*
X914908Y382067D01*
X914888Y382133D01*
X914842Y382212D01*
X914805Y382294D01*
X914762Y382348D01*
X914726Y382407D01*
X914662Y382471D01*
X914605Y382542D01*
X914550Y382583D01*
X914501Y382632D01*
X914423Y382678D01*
X914351Y382733D01*
X914287Y382759D01*
X914228Y382794D01*
X914141Y382819D01*
X914057Y382854D01*
X913988Y382863D01*
X913922Y382883D01*
X913832Y382885D01*
X913742Y382898D01*
X913673Y382890D01*
X913604Y382893D01*
X913516Y382873D01*
X913426Y382863D01*
X913361Y382838D01*
X913294Y382823D01*
X913146Y382759D01*
X912216Y382284D01*
X910114Y382965D01*
X909109Y384933D01*
X909449Y385985D01*
X909939Y387499D01*
X912067Y389865D01*
X914975Y391161D01*
X918285Y391161D01*
X921262Y389442D01*
X922980Y386465D01*
X922980Y383373D01*
X921898Y380848D01*
X921054Y380044D01*
X921043Y380030D01*
X920962Y379947D01*
X919533Y378266D01*
X919485Y378192D01*
X919429Y378125D01*
X919399Y378060D01*
X919359Y378000D01*
X919331Y377916D01*
X919294Y377837D01*
X919280Y377767D01*
X919257Y377699D01*
X919250Y377611D01*
X919234Y377524D01*
X919238Y377453D01*
X919233Y377382D01*
X919248Y377295D01*
X919254Y377207D01*
X919276Y377139D01*
X919288Y377068D01*
X919324Y376988D01*
X919352Y376905D01*
X919390Y376844D01*
X919419Y376779D01*
X919475Y376710D01*
X919522Y376636D01*
X919574Y376587D01*
X919619Y376531D01*
X919689Y376478D01*
X919753Y376418D01*
X919816Y376383D01*
X919873Y376340D01*
X919955Y376307D01*
X920032Y376264D01*
X920101Y376247D01*
X920167Y376219D01*
X920255Y376207D01*
X920340Y376185D01*
X920469Y376177D01*
X920482Y376175D01*
X920488Y376176D01*
X920500Y376175D01*
X921418Y376175D01*
X922980Y374612D01*
X922980Y372402D01*
X921418Y370839D01*
X912146Y370839D01*
X912125Y370837D01*
X912044Y370835D01*
X911004Y370751D01*
X910959Y370762D01*
G37*
%LPD*%
%LPC*%
G36*
X1271639Y370762D02*
X1271639Y370762D01*
X1270893Y371508D01*
X1270876Y371521D01*
X1270818Y371578D01*
X1270023Y372253D01*
X1269999Y372293D01*
X1269999Y373348D01*
X1269997Y373369D01*
X1269995Y373450D01*
X1269911Y374490D01*
X1269922Y374535D01*
X1270668Y375281D01*
X1270681Y375298D01*
X1270738Y375356D01*
X1275371Y380807D01*
X1275408Y380865D01*
X1275454Y380916D01*
X1275495Y380997D01*
X1275545Y381073D01*
X1275567Y381138D01*
X1275598Y381200D01*
X1275618Y381288D01*
X1275647Y381374D01*
X1275652Y381443D01*
X1275667Y381510D01*
X1275664Y381601D01*
X1275671Y381691D01*
X1275659Y381759D01*
X1275657Y381828D01*
X1275632Y381915D01*
X1275616Y382005D01*
X1275588Y382067D01*
X1275568Y382133D01*
X1275522Y382212D01*
X1275485Y382294D01*
X1275441Y382348D01*
X1275406Y382407D01*
X1275342Y382471D01*
X1275285Y382542D01*
X1275230Y382583D01*
X1275181Y382632D01*
X1275103Y382678D01*
X1275031Y382733D01*
X1274967Y382759D01*
X1274908Y382794D01*
X1274821Y382819D01*
X1274737Y382854D01*
X1274668Y382863D01*
X1274602Y382883D01*
X1274512Y382885D01*
X1274422Y382898D01*
X1274353Y382890D01*
X1274284Y382893D01*
X1274196Y382873D01*
X1274106Y382863D01*
X1274041Y382838D01*
X1273974Y382823D01*
X1273826Y382759D01*
X1272896Y382284D01*
X1270794Y382965D01*
X1269789Y384933D01*
X1270129Y385985D01*
X1270619Y387499D01*
X1272747Y389865D01*
X1275655Y391161D01*
X1278965Y391161D01*
X1281942Y389442D01*
X1283660Y386465D01*
X1283660Y383373D01*
X1282578Y380848D01*
X1281734Y380044D01*
X1281723Y380030D01*
X1281642Y379947D01*
X1280213Y378266D01*
X1280165Y378192D01*
X1280109Y378125D01*
X1280079Y378060D01*
X1280039Y378000D01*
X1280011Y377916D01*
X1279974Y377837D01*
X1279960Y377767D01*
X1279937Y377699D01*
X1279930Y377611D01*
X1279914Y377524D01*
X1279918Y377453D01*
X1279913Y377382D01*
X1279928Y377295D01*
X1279934Y377207D01*
X1279956Y377139D01*
X1279968Y377068D01*
X1280004Y376988D01*
X1280032Y376905D01*
X1280070Y376844D01*
X1280099Y376779D01*
X1280155Y376710D01*
X1280202Y376636D01*
X1280254Y376587D01*
X1280299Y376531D01*
X1280369Y376478D01*
X1280433Y376418D01*
X1280496Y376383D01*
X1280553Y376340D01*
X1280635Y376307D01*
X1280712Y376264D01*
X1280781Y376247D01*
X1280847Y376219D01*
X1280935Y376207D01*
X1281020Y376185D01*
X1281149Y376177D01*
X1281162Y376175D01*
X1281168Y376176D01*
X1281180Y376175D01*
X1282098Y376175D01*
X1283660Y374612D01*
X1283660Y372402D01*
X1282098Y370839D01*
X1272826Y370839D01*
X1272805Y370837D01*
X1272724Y370835D01*
X1271684Y370751D01*
X1271639Y370762D01*
G37*
%LPD*%
%LPC*%
G36*
X189599Y370762D02*
X189599Y370762D01*
X188853Y371508D01*
X188836Y371521D01*
X188778Y371578D01*
X187983Y372253D01*
X187959Y372293D01*
X187959Y373348D01*
X187957Y373369D01*
X187955Y373450D01*
X187871Y374490D01*
X187882Y374535D01*
X188628Y375281D01*
X188641Y375298D01*
X188698Y375356D01*
X193331Y380807D01*
X193368Y380865D01*
X193414Y380916D01*
X193455Y380997D01*
X193505Y381073D01*
X193527Y381138D01*
X193558Y381200D01*
X193578Y381288D01*
X193607Y381374D01*
X193612Y381443D01*
X193627Y381510D01*
X193624Y381601D01*
X193631Y381691D01*
X193619Y381759D01*
X193617Y381828D01*
X193592Y381915D01*
X193576Y382005D01*
X193548Y382067D01*
X193528Y382133D01*
X193482Y382212D01*
X193445Y382294D01*
X193402Y382348D01*
X193366Y382407D01*
X193302Y382471D01*
X193245Y382542D01*
X193190Y382583D01*
X193141Y382632D01*
X193063Y382678D01*
X192991Y382733D01*
X192927Y382759D01*
X192868Y382794D01*
X192781Y382819D01*
X192697Y382854D01*
X192628Y382863D01*
X192562Y382883D01*
X192472Y382885D01*
X192382Y382898D01*
X192313Y382890D01*
X192244Y382893D01*
X192156Y382873D01*
X192066Y382863D01*
X192001Y382838D01*
X191934Y382823D01*
X191786Y382759D01*
X190856Y382284D01*
X188754Y382965D01*
X187749Y384933D01*
X188089Y385985D01*
X188579Y387499D01*
X190707Y389865D01*
X193615Y391161D01*
X196925Y391161D01*
X199902Y389442D01*
X201620Y386465D01*
X201620Y383373D01*
X200538Y380848D01*
X199694Y380044D01*
X199683Y380030D01*
X199602Y379947D01*
X198173Y378266D01*
X198125Y378192D01*
X198069Y378125D01*
X198039Y378060D01*
X197999Y378000D01*
X197971Y377916D01*
X197934Y377837D01*
X197920Y377767D01*
X197897Y377699D01*
X197890Y377611D01*
X197874Y377524D01*
X197878Y377453D01*
X197873Y377382D01*
X197888Y377295D01*
X197894Y377207D01*
X197916Y377139D01*
X197928Y377068D01*
X197964Y376988D01*
X197992Y376905D01*
X198030Y376844D01*
X198059Y376779D01*
X198115Y376710D01*
X198162Y376636D01*
X198214Y376587D01*
X198259Y376531D01*
X198329Y376478D01*
X198393Y376418D01*
X198456Y376383D01*
X198513Y376340D01*
X198595Y376307D01*
X198672Y376264D01*
X198741Y376247D01*
X198807Y376219D01*
X198895Y376207D01*
X198980Y376185D01*
X199109Y376177D01*
X199122Y376175D01*
X199128Y376176D01*
X199140Y376175D01*
X200058Y376175D01*
X201620Y374612D01*
X201620Y372402D01*
X200058Y370839D01*
X190786Y370839D01*
X190765Y370837D01*
X190684Y370835D01*
X189644Y370751D01*
X189599Y370762D01*
G37*
%LPD*%
%LPC*%
G36*
X550279Y370762D02*
X550279Y370762D01*
X549533Y371508D01*
X549516Y371521D01*
X549458Y371578D01*
X548663Y372253D01*
X548639Y372293D01*
X548639Y373348D01*
X548637Y373369D01*
X548635Y373450D01*
X548551Y374490D01*
X548562Y374535D01*
X549308Y375281D01*
X549321Y375298D01*
X549378Y375356D01*
X554011Y380807D01*
X554048Y380865D01*
X554094Y380916D01*
X554135Y380997D01*
X554185Y381073D01*
X554207Y381138D01*
X554238Y381200D01*
X554258Y381288D01*
X554287Y381374D01*
X554292Y381443D01*
X554307Y381510D01*
X554304Y381601D01*
X554311Y381691D01*
X554299Y381759D01*
X554297Y381828D01*
X554272Y381915D01*
X554256Y382005D01*
X554228Y382067D01*
X554208Y382133D01*
X554162Y382212D01*
X554125Y382294D01*
X554082Y382348D01*
X554046Y382407D01*
X553982Y382471D01*
X553925Y382542D01*
X553870Y382583D01*
X553821Y382632D01*
X553743Y382678D01*
X553671Y382733D01*
X553607Y382759D01*
X553548Y382794D01*
X553461Y382819D01*
X553377Y382854D01*
X553308Y382863D01*
X553242Y382883D01*
X553152Y382885D01*
X553062Y382898D01*
X552993Y382890D01*
X552924Y382893D01*
X552836Y382873D01*
X552746Y382863D01*
X552681Y382838D01*
X552614Y382823D01*
X552466Y382759D01*
X551536Y382284D01*
X549434Y382965D01*
X548429Y384933D01*
X548769Y385985D01*
X549259Y387499D01*
X551387Y389865D01*
X554295Y391161D01*
X557605Y391161D01*
X560582Y389442D01*
X562300Y386465D01*
X562300Y383373D01*
X561218Y380848D01*
X560374Y380044D01*
X560363Y380030D01*
X560282Y379947D01*
X558853Y378266D01*
X558805Y378192D01*
X558749Y378125D01*
X558719Y378060D01*
X558679Y378000D01*
X558651Y377916D01*
X558614Y377837D01*
X558600Y377767D01*
X558577Y377699D01*
X558570Y377611D01*
X558554Y377524D01*
X558558Y377453D01*
X558553Y377382D01*
X558568Y377295D01*
X558574Y377207D01*
X558596Y377139D01*
X558608Y377068D01*
X558644Y376988D01*
X558672Y376905D01*
X558710Y376844D01*
X558739Y376779D01*
X558795Y376710D01*
X558842Y376636D01*
X558894Y376587D01*
X558939Y376531D01*
X559009Y376478D01*
X559073Y376418D01*
X559136Y376383D01*
X559193Y376340D01*
X559275Y376307D01*
X559352Y376264D01*
X559421Y376247D01*
X559487Y376219D01*
X559575Y376207D01*
X559660Y376185D01*
X559789Y376177D01*
X559802Y376175D01*
X559808Y376176D01*
X559820Y376175D01*
X560738Y376175D01*
X562300Y374612D01*
X562300Y372402D01*
X560738Y370839D01*
X551466Y370839D01*
X551445Y370837D01*
X551364Y370835D01*
X550324Y370751D01*
X550279Y370762D01*
G37*
%LPD*%
%LPC*%
G36*
X1126076Y337565D02*
X1126076Y337565D01*
X1123695Y339946D01*
X1123695Y343314D01*
X1126076Y345695D01*
X1129623Y345695D01*
X1129653Y345680D01*
X1129673Y345677D01*
X1129691Y345669D01*
X1129829Y345647D01*
X1129966Y345621D01*
X1129986Y345622D01*
X1130005Y345619D01*
X1130144Y345632D01*
X1130283Y345640D01*
X1130302Y345647D01*
X1130322Y345649D01*
X1130453Y345696D01*
X1130585Y345738D01*
X1130602Y345749D01*
X1130621Y345756D01*
X1130737Y345834D01*
X1130854Y345909D01*
X1130868Y345923D01*
X1130885Y345935D01*
X1130976Y346039D01*
X1131072Y346140D01*
X1131082Y346158D01*
X1131095Y346173D01*
X1131158Y346297D01*
X1131226Y346419D01*
X1131231Y346438D01*
X1131240Y346456D01*
X1131270Y346592D01*
X1131305Y346727D01*
X1131307Y346755D01*
X1131309Y346766D01*
X1131309Y346787D01*
X1131315Y346887D01*
X1131315Y348902D01*
X1133696Y351283D01*
X1137064Y351283D01*
X1139445Y348902D01*
X1139445Y345534D01*
X1137064Y343153D01*
X1133517Y343153D01*
X1133487Y343168D01*
X1133467Y343171D01*
X1133449Y343179D01*
X1133311Y343201D01*
X1133174Y343227D01*
X1133154Y343226D01*
X1133135Y343229D01*
X1132996Y343216D01*
X1132857Y343208D01*
X1132838Y343201D01*
X1132818Y343199D01*
X1132687Y343152D01*
X1132555Y343110D01*
X1132538Y343099D01*
X1132519Y343092D01*
X1132403Y343014D01*
X1132286Y342939D01*
X1132272Y342925D01*
X1132255Y342913D01*
X1132164Y342809D01*
X1132068Y342708D01*
X1132058Y342690D01*
X1132045Y342675D01*
X1131982Y342551D01*
X1131914Y342429D01*
X1131909Y342410D01*
X1131900Y342392D01*
X1131870Y342256D01*
X1131835Y342121D01*
X1131833Y342093D01*
X1131831Y342082D01*
X1131831Y342061D01*
X1131825Y341961D01*
X1131825Y339946D01*
X1129444Y337565D01*
X1126076Y337565D01*
G37*
%LPD*%
%LPC*%
G36*
X44036Y337565D02*
X44036Y337565D01*
X41655Y339946D01*
X41655Y343314D01*
X44036Y345695D01*
X47583Y345695D01*
X47613Y345680D01*
X47633Y345677D01*
X47651Y345669D01*
X47789Y345647D01*
X47926Y345621D01*
X47946Y345622D01*
X47965Y345619D01*
X48104Y345632D01*
X48243Y345640D01*
X48262Y345647D01*
X48282Y345649D01*
X48413Y345696D01*
X48545Y345738D01*
X48562Y345749D01*
X48581Y345756D01*
X48697Y345834D01*
X48814Y345909D01*
X48828Y345923D01*
X48845Y345935D01*
X48936Y346039D01*
X49032Y346140D01*
X49042Y346158D01*
X49055Y346173D01*
X49118Y346297D01*
X49186Y346419D01*
X49191Y346438D01*
X49200Y346456D01*
X49230Y346592D01*
X49265Y346727D01*
X49267Y346755D01*
X49269Y346766D01*
X49269Y346787D01*
X49275Y346887D01*
X49275Y348902D01*
X51656Y351283D01*
X55024Y351283D01*
X57405Y348902D01*
X57405Y345534D01*
X55024Y343153D01*
X51477Y343153D01*
X51447Y343168D01*
X51427Y343171D01*
X51409Y343179D01*
X51271Y343201D01*
X51134Y343227D01*
X51114Y343226D01*
X51095Y343229D01*
X50956Y343216D01*
X50817Y343208D01*
X50798Y343201D01*
X50778Y343199D01*
X50647Y343152D01*
X50515Y343110D01*
X50498Y343099D01*
X50479Y343092D01*
X50363Y343014D01*
X50246Y342939D01*
X50232Y342925D01*
X50215Y342913D01*
X50124Y342809D01*
X50028Y342708D01*
X50018Y342690D01*
X50005Y342675D01*
X49942Y342551D01*
X49874Y342429D01*
X49869Y342410D01*
X49860Y342392D01*
X49830Y342256D01*
X49795Y342121D01*
X49793Y342093D01*
X49791Y342082D01*
X49791Y342061D01*
X49785Y341961D01*
X49785Y339946D01*
X47404Y337565D01*
X44036Y337565D01*
G37*
%LPD*%
%LPC*%
G36*
X404716Y337565D02*
X404716Y337565D01*
X402335Y339946D01*
X402335Y343314D01*
X404716Y345695D01*
X408263Y345695D01*
X408293Y345680D01*
X408313Y345677D01*
X408331Y345669D01*
X408469Y345647D01*
X408606Y345621D01*
X408626Y345622D01*
X408645Y345619D01*
X408784Y345632D01*
X408923Y345640D01*
X408942Y345647D01*
X408962Y345649D01*
X409093Y345696D01*
X409225Y345738D01*
X409242Y345749D01*
X409261Y345756D01*
X409377Y345834D01*
X409494Y345909D01*
X409508Y345923D01*
X409525Y345935D01*
X409616Y346039D01*
X409712Y346140D01*
X409722Y346158D01*
X409735Y346173D01*
X409798Y346297D01*
X409866Y346419D01*
X409871Y346438D01*
X409880Y346456D01*
X409910Y346592D01*
X409945Y346727D01*
X409947Y346755D01*
X409949Y346766D01*
X409949Y346787D01*
X409955Y346887D01*
X409955Y348902D01*
X412336Y351283D01*
X415704Y351283D01*
X418085Y348902D01*
X418085Y345534D01*
X415704Y343153D01*
X412157Y343153D01*
X412127Y343168D01*
X412107Y343171D01*
X412089Y343179D01*
X411951Y343201D01*
X411814Y343227D01*
X411794Y343226D01*
X411775Y343229D01*
X411636Y343216D01*
X411497Y343208D01*
X411478Y343201D01*
X411458Y343199D01*
X411327Y343152D01*
X411195Y343110D01*
X411178Y343099D01*
X411159Y343092D01*
X411043Y343014D01*
X410926Y342939D01*
X410912Y342925D01*
X410895Y342913D01*
X410804Y342809D01*
X410708Y342708D01*
X410698Y342690D01*
X410685Y342675D01*
X410622Y342551D01*
X410554Y342429D01*
X410549Y342410D01*
X410540Y342392D01*
X410510Y342256D01*
X410475Y342121D01*
X410473Y342093D01*
X410471Y342082D01*
X410471Y342061D01*
X410465Y341961D01*
X410465Y339946D01*
X408084Y337565D01*
X404716Y337565D01*
G37*
%LPD*%
%LPC*%
G36*
X765396Y337565D02*
X765396Y337565D01*
X763015Y339946D01*
X763015Y343314D01*
X765396Y345695D01*
X768943Y345695D01*
X768973Y345680D01*
X768993Y345677D01*
X769011Y345669D01*
X769149Y345647D01*
X769286Y345621D01*
X769306Y345622D01*
X769325Y345619D01*
X769464Y345632D01*
X769603Y345640D01*
X769622Y345647D01*
X769642Y345649D01*
X769773Y345696D01*
X769905Y345738D01*
X769922Y345749D01*
X769941Y345756D01*
X770057Y345834D01*
X770174Y345909D01*
X770188Y345923D01*
X770205Y345935D01*
X770296Y346039D01*
X770392Y346140D01*
X770402Y346158D01*
X770415Y346173D01*
X770478Y346297D01*
X770546Y346419D01*
X770551Y346438D01*
X770560Y346456D01*
X770590Y346592D01*
X770625Y346727D01*
X770627Y346755D01*
X770629Y346766D01*
X770629Y346787D01*
X770635Y346887D01*
X770635Y348902D01*
X773016Y351283D01*
X776384Y351283D01*
X778765Y348902D01*
X778765Y345534D01*
X776384Y343153D01*
X772837Y343153D01*
X772807Y343168D01*
X772787Y343171D01*
X772769Y343179D01*
X772631Y343201D01*
X772494Y343227D01*
X772474Y343226D01*
X772455Y343229D01*
X772316Y343216D01*
X772177Y343208D01*
X772158Y343201D01*
X772138Y343199D01*
X772007Y343152D01*
X771875Y343110D01*
X771858Y343099D01*
X771839Y343092D01*
X771723Y343014D01*
X771606Y342939D01*
X771592Y342925D01*
X771575Y342913D01*
X771484Y342809D01*
X771388Y342708D01*
X771378Y342690D01*
X771365Y342675D01*
X771302Y342551D01*
X771234Y342429D01*
X771229Y342410D01*
X771220Y342392D01*
X771190Y342256D01*
X771155Y342121D01*
X771153Y342093D01*
X771151Y342082D01*
X771151Y342061D01*
X771145Y341961D01*
X771145Y339946D01*
X768764Y337565D01*
X765396Y337565D01*
G37*
%LPD*%
%LPC*%
G36*
X903826Y176275D02*
X903826Y176275D01*
X901445Y178656D01*
X901445Y182024D01*
X903826Y184405D01*
X905764Y184405D01*
X905882Y184420D01*
X906001Y184427D01*
X906039Y184440D01*
X906080Y184445D01*
X906190Y184488D01*
X906303Y184525D01*
X906338Y184547D01*
X906375Y184562D01*
X906471Y184631D01*
X906572Y184695D01*
X906600Y184725D01*
X906633Y184748D01*
X906709Y184840D01*
X906790Y184927D01*
X906810Y184962D01*
X906835Y184993D01*
X906886Y185101D01*
X906944Y185205D01*
X906954Y185245D01*
X906971Y185281D01*
X906993Y185398D01*
X907023Y185513D01*
X907027Y185573D01*
X907031Y185593D01*
X907029Y185614D01*
X907033Y185674D01*
X907033Y187612D01*
X909414Y189993D01*
X912782Y189993D01*
X915163Y187612D01*
X915163Y184244D01*
X912782Y181863D01*
X910844Y181863D01*
X910726Y181848D01*
X910607Y181841D01*
X910569Y181828D01*
X910528Y181823D01*
X910418Y181780D01*
X910305Y181743D01*
X910270Y181721D01*
X910233Y181706D01*
X910137Y181637D01*
X910036Y181573D01*
X910008Y181543D01*
X909975Y181520D01*
X909899Y181428D01*
X909818Y181341D01*
X909798Y181306D01*
X909773Y181275D01*
X909722Y181167D01*
X909664Y181063D01*
X909654Y181023D01*
X909637Y180987D01*
X909615Y180870D01*
X909585Y180755D01*
X909581Y180695D01*
X909577Y180675D01*
X909579Y180654D01*
X909575Y180594D01*
X909575Y178656D01*
X907194Y176275D01*
X903826Y176275D01*
G37*
%LPD*%
%LPC*%
G36*
X1264506Y176275D02*
X1264506Y176275D01*
X1262125Y178656D01*
X1262125Y182024D01*
X1264506Y184405D01*
X1266444Y184405D01*
X1266562Y184420D01*
X1266681Y184427D01*
X1266719Y184440D01*
X1266760Y184445D01*
X1266870Y184488D01*
X1266983Y184525D01*
X1267018Y184547D01*
X1267055Y184562D01*
X1267151Y184631D01*
X1267252Y184695D01*
X1267280Y184725D01*
X1267313Y184748D01*
X1267389Y184840D01*
X1267470Y184927D01*
X1267490Y184962D01*
X1267515Y184993D01*
X1267566Y185101D01*
X1267624Y185205D01*
X1267634Y185245D01*
X1267651Y185281D01*
X1267673Y185398D01*
X1267703Y185513D01*
X1267707Y185573D01*
X1267711Y185593D01*
X1267709Y185614D01*
X1267713Y185674D01*
X1267713Y187612D01*
X1270094Y189993D01*
X1273462Y189993D01*
X1275843Y187612D01*
X1275843Y184244D01*
X1273462Y181863D01*
X1271524Y181863D01*
X1271406Y181848D01*
X1271287Y181841D01*
X1271249Y181828D01*
X1271208Y181823D01*
X1271098Y181780D01*
X1270985Y181743D01*
X1270950Y181721D01*
X1270913Y181706D01*
X1270817Y181637D01*
X1270716Y181573D01*
X1270688Y181543D01*
X1270655Y181520D01*
X1270579Y181428D01*
X1270498Y181341D01*
X1270478Y181306D01*
X1270453Y181275D01*
X1270402Y181167D01*
X1270344Y181063D01*
X1270334Y181023D01*
X1270317Y180987D01*
X1270295Y180870D01*
X1270265Y180755D01*
X1270261Y180695D01*
X1270257Y180675D01*
X1270259Y180654D01*
X1270255Y180594D01*
X1270255Y178656D01*
X1267874Y176275D01*
X1264506Y176275D01*
G37*
%LPD*%
%LPC*%
G36*
X543146Y176275D02*
X543146Y176275D01*
X540765Y178656D01*
X540765Y182024D01*
X543146Y184405D01*
X545084Y184405D01*
X545202Y184420D01*
X545321Y184427D01*
X545359Y184440D01*
X545400Y184445D01*
X545510Y184488D01*
X545623Y184525D01*
X545658Y184547D01*
X545695Y184562D01*
X545791Y184631D01*
X545892Y184695D01*
X545920Y184725D01*
X545953Y184748D01*
X546029Y184840D01*
X546110Y184927D01*
X546130Y184962D01*
X546155Y184993D01*
X546206Y185101D01*
X546264Y185205D01*
X546274Y185245D01*
X546291Y185281D01*
X546313Y185398D01*
X546343Y185513D01*
X546347Y185573D01*
X546351Y185593D01*
X546349Y185614D01*
X546353Y185674D01*
X546353Y187612D01*
X548734Y189993D01*
X552102Y189993D01*
X554483Y187612D01*
X554483Y184244D01*
X552102Y181863D01*
X550164Y181863D01*
X550046Y181848D01*
X549927Y181841D01*
X549889Y181828D01*
X549848Y181823D01*
X549738Y181780D01*
X549625Y181743D01*
X549590Y181721D01*
X549553Y181706D01*
X549457Y181637D01*
X549356Y181573D01*
X549328Y181543D01*
X549295Y181520D01*
X549219Y181428D01*
X549138Y181341D01*
X549118Y181306D01*
X549093Y181275D01*
X549042Y181167D01*
X548984Y181063D01*
X548974Y181023D01*
X548957Y180987D01*
X548935Y180870D01*
X548905Y180755D01*
X548901Y180695D01*
X548897Y180675D01*
X548899Y180654D01*
X548895Y180594D01*
X548895Y178656D01*
X546514Y176275D01*
X543146Y176275D01*
G37*
%LPD*%
%LPC*%
G36*
X182466Y176275D02*
X182466Y176275D01*
X180085Y178656D01*
X180085Y182024D01*
X182466Y184405D01*
X184404Y184405D01*
X184522Y184420D01*
X184641Y184427D01*
X184679Y184440D01*
X184720Y184445D01*
X184830Y184488D01*
X184943Y184525D01*
X184978Y184547D01*
X185015Y184562D01*
X185111Y184631D01*
X185212Y184695D01*
X185240Y184725D01*
X185273Y184748D01*
X185349Y184840D01*
X185430Y184927D01*
X185450Y184962D01*
X185475Y184993D01*
X185526Y185101D01*
X185584Y185205D01*
X185594Y185245D01*
X185611Y185281D01*
X185633Y185398D01*
X185663Y185513D01*
X185667Y185573D01*
X185671Y185593D01*
X185669Y185614D01*
X185673Y185674D01*
X185673Y187612D01*
X188054Y189993D01*
X191422Y189993D01*
X193803Y187612D01*
X193803Y184244D01*
X191422Y181863D01*
X189484Y181863D01*
X189366Y181848D01*
X189247Y181841D01*
X189209Y181828D01*
X189168Y181823D01*
X189058Y181780D01*
X188945Y181743D01*
X188910Y181721D01*
X188873Y181706D01*
X188777Y181637D01*
X188676Y181573D01*
X188648Y181543D01*
X188615Y181520D01*
X188539Y181428D01*
X188458Y181341D01*
X188438Y181306D01*
X188413Y181275D01*
X188362Y181167D01*
X188304Y181063D01*
X188294Y181023D01*
X188277Y180987D01*
X188255Y180870D01*
X188225Y180755D01*
X188221Y180695D01*
X188217Y180675D01*
X188219Y180654D01*
X188215Y180594D01*
X188215Y178656D01*
X185834Y176275D01*
X182466Y176275D01*
G37*
%LPD*%
%LPC*%
G36*
X985360Y61183D02*
X985360Y61183D01*
X982979Y63564D01*
X982979Y66932D01*
X983573Y67526D01*
X983646Y67620D01*
X983725Y67709D01*
X983743Y67745D01*
X983768Y67777D01*
X983815Y67886D01*
X983869Y67992D01*
X983878Y68031D01*
X983894Y68069D01*
X983913Y68186D01*
X983939Y68302D01*
X983938Y68343D01*
X983944Y68383D01*
X983933Y68501D01*
X983929Y68620D01*
X983918Y68659D01*
X983914Y68699D01*
X983874Y68811D01*
X983841Y68926D01*
X983821Y68961D01*
X983807Y68999D01*
X983740Y69097D01*
X983679Y69200D01*
X983640Y69245D01*
X983628Y69262D01*
X983613Y69275D01*
X983573Y69321D01*
X982471Y70422D01*
X982471Y73790D01*
X984852Y76171D01*
X988220Y76171D01*
X990601Y73790D01*
X990601Y70422D01*
X990007Y69829D01*
X989934Y69735D01*
X989855Y69645D01*
X989837Y69609D01*
X989812Y69577D01*
X989765Y69468D01*
X989711Y69362D01*
X989702Y69323D01*
X989686Y69285D01*
X989667Y69168D01*
X989641Y69052D01*
X989642Y69011D01*
X989636Y68971D01*
X989647Y68853D01*
X989651Y68734D01*
X989662Y68695D01*
X989666Y68655D01*
X989706Y68542D01*
X989739Y68428D01*
X989759Y68394D01*
X989773Y68355D01*
X989840Y68257D01*
X989900Y68154D01*
X989940Y68109D01*
X989952Y68092D01*
X989967Y68079D01*
X990007Y68034D01*
X991109Y66932D01*
X991109Y63564D01*
X988728Y61183D01*
X985360Y61183D01*
G37*
%LPD*%
%LPC*%
G36*
X624680Y61183D02*
X624680Y61183D01*
X622299Y63564D01*
X622299Y66932D01*
X622893Y67526D01*
X622966Y67620D01*
X623045Y67709D01*
X623063Y67745D01*
X623088Y67777D01*
X623135Y67886D01*
X623189Y67992D01*
X623198Y68031D01*
X623214Y68069D01*
X623233Y68186D01*
X623259Y68302D01*
X623258Y68343D01*
X623264Y68383D01*
X623253Y68501D01*
X623249Y68620D01*
X623238Y68659D01*
X623234Y68699D01*
X623194Y68811D01*
X623161Y68926D01*
X623141Y68961D01*
X623127Y68999D01*
X623060Y69097D01*
X622999Y69200D01*
X622960Y69245D01*
X622948Y69262D01*
X622933Y69275D01*
X622893Y69321D01*
X621791Y70422D01*
X621791Y73790D01*
X624172Y76171D01*
X627540Y76171D01*
X629921Y73790D01*
X629921Y70422D01*
X629327Y69829D01*
X629254Y69735D01*
X629175Y69645D01*
X629157Y69609D01*
X629132Y69577D01*
X629085Y69468D01*
X629031Y69362D01*
X629022Y69323D01*
X629006Y69285D01*
X628987Y69168D01*
X628961Y69052D01*
X628962Y69011D01*
X628956Y68971D01*
X628967Y68853D01*
X628971Y68734D01*
X628982Y68695D01*
X628986Y68655D01*
X629026Y68542D01*
X629059Y68428D01*
X629079Y68394D01*
X629093Y68355D01*
X629160Y68257D01*
X629220Y68154D01*
X629260Y68109D01*
X629272Y68092D01*
X629287Y68079D01*
X629327Y68034D01*
X630429Y66932D01*
X630429Y63564D01*
X628048Y61183D01*
X624680Y61183D01*
G37*
%LPD*%
%LPC*%
G36*
X1346040Y61183D02*
X1346040Y61183D01*
X1343659Y63564D01*
X1343659Y66932D01*
X1344253Y67526D01*
X1344326Y67620D01*
X1344405Y67709D01*
X1344423Y67745D01*
X1344448Y67777D01*
X1344495Y67886D01*
X1344549Y67992D01*
X1344558Y68031D01*
X1344574Y68069D01*
X1344593Y68186D01*
X1344619Y68302D01*
X1344618Y68343D01*
X1344624Y68383D01*
X1344613Y68501D01*
X1344609Y68620D01*
X1344598Y68659D01*
X1344594Y68699D01*
X1344554Y68811D01*
X1344521Y68926D01*
X1344501Y68961D01*
X1344487Y68999D01*
X1344420Y69097D01*
X1344359Y69200D01*
X1344320Y69245D01*
X1344308Y69262D01*
X1344293Y69275D01*
X1344253Y69321D01*
X1343151Y70422D01*
X1343151Y73790D01*
X1345532Y76171D01*
X1348900Y76171D01*
X1351281Y73790D01*
X1351281Y70422D01*
X1350687Y69829D01*
X1350614Y69735D01*
X1350535Y69645D01*
X1350517Y69609D01*
X1350492Y69577D01*
X1350445Y69468D01*
X1350391Y69362D01*
X1350382Y69323D01*
X1350366Y69285D01*
X1350347Y69168D01*
X1350321Y69052D01*
X1350322Y69011D01*
X1350316Y68971D01*
X1350327Y68853D01*
X1350331Y68734D01*
X1350342Y68695D01*
X1350346Y68655D01*
X1350386Y68542D01*
X1350419Y68428D01*
X1350439Y68394D01*
X1350453Y68355D01*
X1350520Y68257D01*
X1350580Y68154D01*
X1350620Y68109D01*
X1350632Y68092D01*
X1350647Y68079D01*
X1350687Y68034D01*
X1351789Y66932D01*
X1351789Y63564D01*
X1349408Y61183D01*
X1346040Y61183D01*
G37*
%LPD*%
%LPC*%
G36*
X264000Y61183D02*
X264000Y61183D01*
X261619Y63564D01*
X261619Y66932D01*
X262213Y67526D01*
X262286Y67620D01*
X262365Y67709D01*
X262383Y67745D01*
X262408Y67777D01*
X262455Y67886D01*
X262509Y67992D01*
X262518Y68031D01*
X262534Y68069D01*
X262553Y68186D01*
X262579Y68302D01*
X262578Y68343D01*
X262584Y68383D01*
X262573Y68501D01*
X262569Y68620D01*
X262558Y68659D01*
X262554Y68699D01*
X262514Y68811D01*
X262481Y68926D01*
X262461Y68961D01*
X262447Y68999D01*
X262380Y69097D01*
X262319Y69200D01*
X262280Y69245D01*
X262268Y69262D01*
X262253Y69275D01*
X262213Y69321D01*
X261111Y70422D01*
X261111Y73790D01*
X263492Y76171D01*
X266860Y76171D01*
X269241Y73790D01*
X269241Y70422D01*
X268647Y69829D01*
X268574Y69735D01*
X268495Y69645D01*
X268477Y69609D01*
X268452Y69577D01*
X268405Y69468D01*
X268351Y69362D01*
X268342Y69323D01*
X268326Y69285D01*
X268307Y69168D01*
X268281Y69052D01*
X268282Y69011D01*
X268276Y68971D01*
X268287Y68853D01*
X268291Y68734D01*
X268302Y68695D01*
X268306Y68655D01*
X268346Y68542D01*
X268379Y68428D01*
X268399Y68394D01*
X268413Y68355D01*
X268480Y68257D01*
X268540Y68154D01*
X268580Y68109D01*
X268592Y68092D01*
X268607Y68079D01*
X268647Y68034D01*
X269749Y66932D01*
X269749Y63564D01*
X267368Y61183D01*
X264000Y61183D01*
G37*
%LPD*%
%LPC*%
G36*
X70617Y44021D02*
X70617Y44021D01*
X67671Y46967D01*
X67671Y51133D01*
X70617Y54079D01*
X74783Y54079D01*
X77729Y51133D01*
X77729Y46967D01*
X74783Y44021D01*
X70617Y44021D01*
G37*
%LPD*%
%LPC*%
G36*
X128417Y44021D02*
X128417Y44021D01*
X125471Y46967D01*
X125471Y51133D01*
X128417Y54079D01*
X132583Y54079D01*
X135529Y51133D01*
X135529Y46967D01*
X132583Y44021D01*
X128417Y44021D01*
G37*
%LPD*%
%LPC*%
G36*
X1152657Y44021D02*
X1152657Y44021D01*
X1149711Y46967D01*
X1149711Y51133D01*
X1152657Y54079D01*
X1156823Y54079D01*
X1159769Y51133D01*
X1159769Y46967D01*
X1156823Y44021D01*
X1152657Y44021D01*
G37*
%LPD*%
%LPC*%
G36*
X431297Y44021D02*
X431297Y44021D01*
X428351Y46967D01*
X428351Y51133D01*
X431297Y54079D01*
X435463Y54079D01*
X438409Y51133D01*
X438409Y46967D01*
X435463Y44021D01*
X431297Y44021D01*
G37*
%LPD*%
%LPC*%
G36*
X791977Y44021D02*
X791977Y44021D01*
X789031Y46967D01*
X789031Y51133D01*
X791977Y54079D01*
X796143Y54079D01*
X799089Y51133D01*
X799089Y46967D01*
X796143Y44021D01*
X791977Y44021D01*
G37*
%LPD*%
%LPC*%
G36*
X489097Y44021D02*
X489097Y44021D01*
X486151Y46967D01*
X486151Y51133D01*
X489097Y54079D01*
X493263Y54079D01*
X496209Y51133D01*
X496209Y46967D01*
X493263Y44021D01*
X489097Y44021D01*
G37*
%LPD*%
%LPC*%
G36*
X849777Y44021D02*
X849777Y44021D01*
X846831Y46967D01*
X846831Y51133D01*
X849777Y54079D01*
X853943Y54079D01*
X856889Y51133D01*
X856889Y46967D01*
X853943Y44021D01*
X849777Y44021D01*
G37*
%LPD*%
%LPC*%
G36*
X1210457Y44021D02*
X1210457Y44021D01*
X1207511Y46967D01*
X1207511Y51133D01*
X1210457Y54079D01*
X1214623Y54079D01*
X1217569Y51133D01*
X1217569Y46967D01*
X1214623Y44021D01*
X1210457Y44021D01*
G37*
%LPD*%
%LPC*%
G36*
X1228946Y185165D02*
X1228946Y185165D01*
X1226565Y187546D01*
X1226565Y190914D01*
X1228946Y193295D01*
X1232314Y193295D01*
X1234695Y190914D01*
X1234695Y187546D01*
X1232314Y185165D01*
X1228946Y185165D01*
G37*
%LPD*%
%LPC*%
G36*
X868266Y185165D02*
X868266Y185165D01*
X865885Y187546D01*
X865885Y190914D01*
X868266Y193295D01*
X871634Y193295D01*
X874015Y190914D01*
X874015Y187546D01*
X871634Y185165D01*
X868266Y185165D01*
G37*
%LPD*%
%LPC*%
G36*
X507586Y185165D02*
X507586Y185165D01*
X505205Y187546D01*
X505205Y190914D01*
X507586Y193295D01*
X510954Y193295D01*
X513335Y190914D01*
X513335Y187546D01*
X510954Y185165D01*
X507586Y185165D01*
G37*
%LPD*%
%LPC*%
G36*
X146906Y185165D02*
X146906Y185165D01*
X144525Y187546D01*
X144525Y190914D01*
X146906Y193295D01*
X150274Y193295D01*
X152655Y190914D01*
X152655Y187546D01*
X150274Y185165D01*
X146906Y185165D01*
G37*
%LPD*%
%LPC*%
G36*
X68166Y379475D02*
X68166Y379475D01*
X65785Y381856D01*
X65785Y385224D01*
X68166Y387605D01*
X71534Y387605D01*
X73915Y385224D01*
X73915Y381856D01*
X71534Y379475D01*
X68166Y379475D01*
G37*
%LPD*%
%LPC*%
G36*
X789526Y379475D02*
X789526Y379475D01*
X787145Y381856D01*
X787145Y385224D01*
X789526Y387605D01*
X792894Y387605D01*
X795275Y385224D01*
X795275Y381856D01*
X792894Y379475D01*
X789526Y379475D01*
G37*
%LPD*%
%LPC*%
G36*
X428846Y379475D02*
X428846Y379475D01*
X426465Y381856D01*
X426465Y385224D01*
X428846Y387605D01*
X432214Y387605D01*
X434595Y385224D01*
X434595Y381856D01*
X432214Y379475D01*
X428846Y379475D01*
G37*
%LPD*%
%LPC*%
G36*
X1150206Y379475D02*
X1150206Y379475D01*
X1147825Y381856D01*
X1147825Y385224D01*
X1150206Y387605D01*
X1153574Y387605D01*
X1155955Y385224D01*
X1155955Y381856D01*
X1153574Y379475D01*
X1150206Y379475D01*
G37*
%LPD*%
%LPC*%
G36*
X333596Y289305D02*
X333596Y289305D01*
X331215Y291686D01*
X331215Y295054D01*
X333596Y297435D01*
X336964Y297435D01*
X339345Y295054D01*
X339345Y291686D01*
X336964Y289305D01*
X333596Y289305D01*
G37*
%LPD*%
%LPC*%
G36*
X300576Y289305D02*
X300576Y289305D01*
X298195Y291686D01*
X298195Y295054D01*
X300576Y297435D01*
X303944Y297435D01*
X306325Y295054D01*
X306325Y291686D01*
X303944Y289305D01*
X300576Y289305D01*
G37*
%LPD*%
%LPC*%
G36*
X1415636Y289305D02*
X1415636Y289305D01*
X1413255Y291686D01*
X1413255Y295054D01*
X1415636Y297435D01*
X1419004Y297435D01*
X1421385Y295054D01*
X1421385Y291686D01*
X1419004Y289305D01*
X1415636Y289305D01*
G37*
%LPD*%
%LPC*%
G36*
X661256Y289305D02*
X661256Y289305D01*
X658875Y291686D01*
X658875Y295054D01*
X661256Y297435D01*
X664624Y297435D01*
X667005Y295054D01*
X667005Y291686D01*
X664624Y289305D01*
X661256Y289305D01*
G37*
%LPD*%
%LPC*%
G36*
X215486Y157479D02*
X215486Y157479D01*
X213105Y159860D01*
X213105Y163228D01*
X215486Y165609D01*
X218854Y165609D01*
X221235Y163228D01*
X221235Y159860D01*
X218854Y157479D01*
X215486Y157479D01*
G37*
%LPD*%
%LPC*%
G36*
X576166Y157479D02*
X576166Y157479D01*
X573785Y159860D01*
X573785Y163228D01*
X576166Y165609D01*
X579534Y165609D01*
X581915Y163228D01*
X581915Y159860D01*
X579534Y157479D01*
X576166Y157479D01*
G37*
%LPD*%
%LPC*%
G36*
X1297526Y157479D02*
X1297526Y157479D01*
X1295145Y159860D01*
X1295145Y163228D01*
X1297526Y165609D01*
X1300894Y165609D01*
X1303275Y163228D01*
X1303275Y159860D01*
X1300894Y157479D01*
X1297526Y157479D01*
G37*
%LPD*%
%LPC*%
G36*
X936846Y157479D02*
X936846Y157479D01*
X934465Y159860D01*
X934465Y163228D01*
X936846Y165609D01*
X940214Y165609D01*
X942595Y163228D01*
X942595Y159860D01*
X940214Y157479D01*
X936846Y157479D01*
G37*
%LPD*%
%LPC*%
G36*
X694276Y289305D02*
X694276Y289305D01*
X691895Y291686D01*
X691895Y295054D01*
X694276Y297435D01*
X697644Y297435D01*
X700025Y295054D01*
X700025Y291686D01*
X697644Y289305D01*
X694276Y289305D01*
G37*
%LPD*%
%LPC*%
G36*
X1054956Y289305D02*
X1054956Y289305D01*
X1052575Y291686D01*
X1052575Y295054D01*
X1054956Y297435D01*
X1058324Y297435D01*
X1060705Y295054D01*
X1060705Y291686D01*
X1058324Y289305D01*
X1054956Y289305D01*
G37*
%LPD*%
%LPC*%
G36*
X1021936Y289305D02*
X1021936Y289305D01*
X1019555Y291686D01*
X1019555Y295054D01*
X1021936Y297435D01*
X1025304Y297435D01*
X1027685Y295054D01*
X1027685Y291686D01*
X1025304Y289305D01*
X1021936Y289305D01*
G37*
%LPD*%
%LPC*%
G36*
X1382616Y289305D02*
X1382616Y289305D01*
X1380235Y291686D01*
X1380235Y295054D01*
X1382616Y297435D01*
X1385984Y297435D01*
X1388365Y295054D01*
X1388365Y291686D01*
X1385984Y289305D01*
X1382616Y289305D01*
G37*
%LPD*%
%LPC*%
G36*
X896206Y286765D02*
X896206Y286765D01*
X893825Y289146D01*
X893825Y292514D01*
X896206Y294895D01*
X899574Y294895D01*
X901955Y292514D01*
X901955Y289146D01*
X899574Y286765D01*
X896206Y286765D01*
G37*
%LPD*%
%LPC*%
G36*
X869536Y286765D02*
X869536Y286765D01*
X867155Y289146D01*
X867155Y292514D01*
X869536Y294895D01*
X872904Y294895D01*
X875285Y292514D01*
X875285Y289146D01*
X872904Y286765D01*
X869536Y286765D01*
G37*
%LPD*%
%LPC*%
G36*
X1283556Y286765D02*
X1283556Y286765D01*
X1281175Y289146D01*
X1281175Y292514D01*
X1283556Y294895D01*
X1286924Y294895D01*
X1289305Y292514D01*
X1289305Y289146D01*
X1286924Y286765D01*
X1283556Y286765D01*
G37*
%LPD*%
%LPC*%
G36*
X1230216Y286765D02*
X1230216Y286765D01*
X1227835Y289146D01*
X1227835Y292514D01*
X1230216Y294895D01*
X1233584Y294895D01*
X1235965Y292514D01*
X1235965Y289146D01*
X1233584Y286765D01*
X1230216Y286765D01*
G37*
%LPD*%
%LPC*%
G36*
X1259426Y145795D02*
X1259426Y145795D01*
X1257045Y148176D01*
X1257045Y151544D01*
X1259426Y153925D01*
X1262794Y153925D01*
X1265175Y151544D01*
X1265175Y148176D01*
X1262794Y145795D01*
X1259426Y145795D01*
G37*
%LPD*%
%LPC*%
G36*
X898746Y145795D02*
X898746Y145795D01*
X896365Y148176D01*
X896365Y151544D01*
X898746Y153925D01*
X902114Y153925D01*
X904495Y151544D01*
X904495Y148176D01*
X902114Y145795D01*
X898746Y145795D01*
G37*
%LPD*%
%LPC*%
G36*
X538066Y145795D02*
X538066Y145795D01*
X535685Y148176D01*
X535685Y151544D01*
X538066Y153925D01*
X541434Y153925D01*
X543815Y151544D01*
X543815Y148176D01*
X541434Y145795D01*
X538066Y145795D01*
G37*
%LPD*%
%LPC*%
G36*
X177386Y145795D02*
X177386Y145795D01*
X175005Y148176D01*
X175005Y151544D01*
X177386Y153925D01*
X180754Y153925D01*
X183135Y151544D01*
X183135Y148176D01*
X180754Y145795D01*
X177386Y145795D01*
G37*
%LPD*%
%LPC*%
G36*
X1239106Y138429D02*
X1239106Y138429D01*
X1236725Y140810D01*
X1236725Y144178D01*
X1239106Y146559D01*
X1242474Y146559D01*
X1244855Y144178D01*
X1244855Y140810D01*
X1242474Y138429D01*
X1239106Y138429D01*
G37*
%LPD*%
%LPC*%
G36*
X878426Y138429D02*
X878426Y138429D01*
X876045Y140810D01*
X876045Y144178D01*
X878426Y146559D01*
X881794Y146559D01*
X884175Y144178D01*
X884175Y140810D01*
X881794Y138429D01*
X878426Y138429D01*
G37*
%LPD*%
%LPC*%
G36*
X517746Y138429D02*
X517746Y138429D01*
X515365Y140810D01*
X515365Y144178D01*
X517746Y146559D01*
X521114Y146559D01*
X523495Y144178D01*
X523495Y140810D01*
X521114Y138429D01*
X517746Y138429D01*
G37*
%LPD*%
%LPC*%
G36*
X157066Y138429D02*
X157066Y138429D01*
X154685Y140810D01*
X154685Y144178D01*
X157066Y146559D01*
X160434Y146559D01*
X162815Y144178D01*
X162815Y140810D01*
X160434Y138429D01*
X157066Y138429D01*
G37*
%LPD*%
%LPC*%
G36*
X1351120Y116839D02*
X1351120Y116839D01*
X1348739Y119220D01*
X1348739Y122588D01*
X1351120Y124969D01*
X1354488Y124969D01*
X1356869Y122588D01*
X1356869Y119220D01*
X1354488Y116839D01*
X1351120Y116839D01*
G37*
%LPD*%
%LPC*%
G36*
X990440Y116839D02*
X990440Y116839D01*
X988059Y119220D01*
X988059Y122588D01*
X990440Y124969D01*
X993808Y124969D01*
X996189Y122588D01*
X996189Y119220D01*
X993808Y116839D01*
X990440Y116839D01*
G37*
%LPD*%
%LPC*%
G36*
X629760Y116839D02*
X629760Y116839D01*
X627379Y119220D01*
X627379Y122588D01*
X629760Y124969D01*
X633128Y124969D01*
X635509Y122588D01*
X635509Y119220D01*
X633128Y116839D01*
X629760Y116839D01*
G37*
%LPD*%
%LPC*%
G36*
X269080Y116839D02*
X269080Y116839D01*
X266699Y119220D01*
X266699Y122588D01*
X269080Y124969D01*
X272448Y124969D01*
X274829Y122588D01*
X274829Y119220D01*
X272448Y116839D01*
X269080Y116839D01*
G37*
%LPD*%
%LPC*%
G36*
X974184Y105663D02*
X974184Y105663D01*
X971803Y108044D01*
X971803Y111412D01*
X974184Y113793D01*
X977552Y113793D01*
X979933Y111412D01*
X979933Y108044D01*
X977552Y105663D01*
X974184Y105663D01*
G37*
%LPD*%
%LPC*%
G36*
X1334864Y105663D02*
X1334864Y105663D01*
X1332483Y108044D01*
X1332483Y111412D01*
X1334864Y113793D01*
X1338232Y113793D01*
X1340613Y111412D01*
X1340613Y108044D01*
X1338232Y105663D01*
X1334864Y105663D01*
G37*
%LPD*%
%LPC*%
G36*
X613504Y105663D02*
X613504Y105663D01*
X611123Y108044D01*
X611123Y111412D01*
X613504Y113793D01*
X616872Y113793D01*
X619253Y111412D01*
X619253Y108044D01*
X616872Y105663D01*
X613504Y105663D01*
G37*
%LPD*%
%LPC*%
G36*
X252824Y105663D02*
X252824Y105663D01*
X250443Y108044D01*
X250443Y111412D01*
X252824Y113793D01*
X256192Y113793D01*
X258573Y111412D01*
X258573Y108044D01*
X256192Y105663D01*
X252824Y105663D01*
G37*
%LPD*%
%LPC*%
G36*
X1054956Y105155D02*
X1054956Y105155D01*
X1052575Y107536D01*
X1052575Y110904D01*
X1054956Y113285D01*
X1058324Y113285D01*
X1060705Y110904D01*
X1060705Y107536D01*
X1058324Y105155D01*
X1054956Y105155D01*
G37*
%LPD*%
%LPC*%
G36*
X694276Y105155D02*
X694276Y105155D01*
X691895Y107536D01*
X691895Y110904D01*
X694276Y113285D01*
X697644Y113285D01*
X700025Y110904D01*
X700025Y107536D01*
X697644Y105155D01*
X694276Y105155D01*
G37*
%LPD*%
%LPC*%
G36*
X1415636Y105155D02*
X1415636Y105155D01*
X1413255Y107536D01*
X1413255Y110904D01*
X1415636Y113285D01*
X1419004Y113285D01*
X1421385Y110904D01*
X1421385Y107536D01*
X1419004Y105155D01*
X1415636Y105155D01*
G37*
%LPD*%
%LPC*%
G36*
X333596Y105155D02*
X333596Y105155D01*
X331215Y107536D01*
X331215Y110904D01*
X333596Y113285D01*
X336964Y113285D01*
X339345Y110904D01*
X339345Y107536D01*
X336964Y105155D01*
X333596Y105155D01*
G37*
%LPD*%
%LPC*%
G36*
X397096Y84835D02*
X397096Y84835D01*
X394715Y87216D01*
X394715Y90584D01*
X397096Y92965D01*
X400464Y92965D01*
X402845Y90584D01*
X402845Y87216D01*
X400464Y84835D01*
X397096Y84835D01*
G37*
%LPD*%
%LPC*%
G36*
X1244186Y286765D02*
X1244186Y286765D01*
X1241805Y289146D01*
X1241805Y292514D01*
X1244186Y294895D01*
X1247554Y294895D01*
X1249935Y292514D01*
X1249935Y289146D01*
X1247554Y286765D01*
X1244186Y286765D01*
G37*
%LPD*%
%LPC*%
G36*
X757776Y84835D02*
X757776Y84835D01*
X755395Y87216D01*
X755395Y90584D01*
X757776Y92965D01*
X761144Y92965D01*
X763525Y90584D01*
X763525Y87216D01*
X761144Y84835D01*
X757776Y84835D01*
G37*
%LPD*%
%LPC*%
G36*
X859376Y84835D02*
X859376Y84835D01*
X856995Y87216D01*
X856995Y90584D01*
X859376Y92965D01*
X862744Y92965D01*
X865125Y90584D01*
X865125Y87216D01*
X862744Y84835D01*
X859376Y84835D01*
G37*
%LPD*%
%LPC*%
G36*
X1118456Y84835D02*
X1118456Y84835D01*
X1116075Y87216D01*
X1116075Y90584D01*
X1118456Y92965D01*
X1121824Y92965D01*
X1124205Y90584D01*
X1124205Y87216D01*
X1121824Y84835D01*
X1118456Y84835D01*
G37*
%LPD*%
%LPC*%
G36*
X1220056Y84835D02*
X1220056Y84835D01*
X1217675Y87216D01*
X1217675Y90584D01*
X1220056Y92965D01*
X1223424Y92965D01*
X1225805Y90584D01*
X1225805Y87216D01*
X1223424Y84835D01*
X1220056Y84835D01*
G37*
%LPD*%
%LPC*%
G36*
X138016Y84835D02*
X138016Y84835D01*
X135635Y87216D01*
X135635Y90584D01*
X138016Y92965D01*
X141384Y92965D01*
X143765Y90584D01*
X143765Y87216D01*
X141384Y84835D01*
X138016Y84835D01*
G37*
%LPD*%
%LPC*%
G36*
X36416Y84835D02*
X36416Y84835D01*
X34035Y87216D01*
X34035Y90584D01*
X36416Y92965D01*
X39784Y92965D01*
X42165Y90584D01*
X42165Y87216D01*
X39784Y84835D01*
X36416Y84835D01*
G37*
%LPD*%
%LPC*%
G36*
X1168240Y78231D02*
X1168240Y78231D01*
X1165859Y80612D01*
X1165859Y83980D01*
X1168240Y86361D01*
X1171608Y86361D01*
X1173989Y83980D01*
X1173989Y80612D01*
X1171608Y78231D01*
X1168240Y78231D01*
G37*
%LPD*%
%LPC*%
G36*
X807560Y78231D02*
X807560Y78231D01*
X805179Y80612D01*
X805179Y83980D01*
X807560Y86361D01*
X810928Y86361D01*
X813309Y83980D01*
X813309Y80612D01*
X810928Y78231D01*
X807560Y78231D01*
G37*
%LPD*%
%LPC*%
G36*
X446880Y78231D02*
X446880Y78231D01*
X444499Y80612D01*
X444499Y83980D01*
X446880Y86361D01*
X450248Y86361D01*
X452629Y83980D01*
X452629Y80612D01*
X450248Y78231D01*
X446880Y78231D01*
G37*
%LPD*%
%LPC*%
G36*
X86200Y78231D02*
X86200Y78231D01*
X83819Y80612D01*
X83819Y83980D01*
X86200Y86361D01*
X89568Y86361D01*
X91949Y83980D01*
X91949Y80612D01*
X89568Y78231D01*
X86200Y78231D01*
G37*
%LPD*%
%LPC*%
G36*
X1187036Y72135D02*
X1187036Y72135D01*
X1184655Y74516D01*
X1184655Y77884D01*
X1187036Y80265D01*
X1190404Y80265D01*
X1192785Y77884D01*
X1192785Y74516D01*
X1190404Y72135D01*
X1187036Y72135D01*
G37*
%LPD*%
%LPC*%
G36*
X465676Y72135D02*
X465676Y72135D01*
X463295Y74516D01*
X463295Y77884D01*
X465676Y80265D01*
X469044Y80265D01*
X471425Y77884D01*
X471425Y74516D01*
X469044Y72135D01*
X465676Y72135D01*
G37*
%LPD*%
%LPC*%
G36*
X826356Y72135D02*
X826356Y72135D01*
X823975Y74516D01*
X823975Y77884D01*
X826356Y80265D01*
X829724Y80265D01*
X832105Y77884D01*
X832105Y74516D01*
X829724Y72135D01*
X826356Y72135D01*
G37*
%LPD*%
%LPC*%
G36*
X104996Y72135D02*
X104996Y72135D01*
X102615Y74516D01*
X102615Y77884D01*
X104996Y80265D01*
X108364Y80265D01*
X110745Y77884D01*
X110745Y74516D01*
X108364Y72135D01*
X104996Y72135D01*
G37*
%LPD*%
%LPC*%
G36*
X188816Y286765D02*
X188816Y286765D01*
X186435Y289146D01*
X186435Y292514D01*
X188816Y294895D01*
X192184Y294895D01*
X194565Y292514D01*
X194565Y289146D01*
X192184Y286765D01*
X188816Y286765D01*
G37*
%LPD*%
%LPC*%
G36*
X1270856Y286765D02*
X1270856Y286765D01*
X1268475Y289146D01*
X1268475Y292514D01*
X1270856Y294895D01*
X1274224Y294895D01*
X1276605Y292514D01*
X1276605Y289146D01*
X1274224Y286765D01*
X1270856Y286765D01*
G37*
%LPD*%
%LPC*%
G36*
X535526Y286765D02*
X535526Y286765D01*
X533145Y289146D01*
X533145Y292514D01*
X535526Y294895D01*
X538894Y294895D01*
X541275Y292514D01*
X541275Y289146D01*
X538894Y286765D01*
X535526Y286765D01*
G37*
%LPD*%
%LPC*%
G36*
X508856Y286765D02*
X508856Y286765D01*
X506475Y289146D01*
X506475Y292514D01*
X508856Y294895D01*
X512224Y294895D01*
X514605Y292514D01*
X514605Y289146D01*
X512224Y286765D01*
X508856Y286765D01*
G37*
%LPD*%
%LPC*%
G36*
X646778Y67817D02*
X646778Y67817D01*
X644397Y70198D01*
X644397Y73566D01*
X646778Y75947D01*
X650146Y75947D01*
X652527Y73566D01*
X652527Y70198D01*
X650146Y67817D01*
X646778Y67817D01*
G37*
%LPD*%
%LPC*%
G36*
X1368138Y67817D02*
X1368138Y67817D01*
X1365757Y70198D01*
X1365757Y73566D01*
X1368138Y75947D01*
X1371506Y75947D01*
X1373887Y73566D01*
X1373887Y70198D01*
X1371506Y67817D01*
X1368138Y67817D01*
G37*
%LPD*%
%LPC*%
G36*
X1007458Y67817D02*
X1007458Y67817D01*
X1005077Y70198D01*
X1005077Y73566D01*
X1007458Y75947D01*
X1010826Y75947D01*
X1013207Y73566D01*
X1013207Y70198D01*
X1010826Y67817D01*
X1007458Y67817D01*
G37*
%LPD*%
%LPC*%
G36*
X286098Y67817D02*
X286098Y67817D01*
X283717Y70198D01*
X283717Y73566D01*
X286098Y75947D01*
X289466Y75947D01*
X291847Y73566D01*
X291847Y70198D01*
X289466Y67817D01*
X286098Y67817D01*
G37*
%LPD*%
%LPC*%
G36*
X479900Y67309D02*
X479900Y67309D01*
X477519Y69690D01*
X477519Y73058D01*
X479900Y75439D01*
X483268Y75439D01*
X485649Y73058D01*
X485649Y69690D01*
X483268Y67309D01*
X479900Y67309D01*
G37*
%LPD*%
%LPC*%
G36*
X840580Y67309D02*
X840580Y67309D01*
X838199Y69690D01*
X838199Y73058D01*
X840580Y75439D01*
X843948Y75439D01*
X846329Y73058D01*
X846329Y69690D01*
X843948Y67309D01*
X840580Y67309D01*
G37*
%LPD*%
%LPC*%
G36*
X1201260Y67309D02*
X1201260Y67309D01*
X1198879Y69690D01*
X1198879Y73058D01*
X1201260Y75439D01*
X1204628Y75439D01*
X1207009Y73058D01*
X1207009Y69690D01*
X1204628Y67309D01*
X1201260Y67309D01*
G37*
%LPD*%
%LPC*%
G36*
X119220Y67309D02*
X119220Y67309D01*
X116839Y69690D01*
X116839Y73058D01*
X119220Y75439D01*
X122588Y75439D01*
X124969Y73058D01*
X124969Y69690D01*
X122588Y67309D01*
X119220Y67309D01*
G37*
%LPD*%
%LPC*%
G36*
X797146Y65785D02*
X797146Y65785D01*
X794765Y68166D01*
X794765Y71534D01*
X797146Y73915D01*
X800514Y73915D01*
X802895Y71534D01*
X802895Y68166D01*
X800514Y65785D01*
X797146Y65785D01*
G37*
%LPD*%
%LPC*%
G36*
X436466Y65785D02*
X436466Y65785D01*
X434085Y68166D01*
X434085Y71534D01*
X436466Y73915D01*
X439834Y73915D01*
X442215Y71534D01*
X442215Y68166D01*
X439834Y65785D01*
X436466Y65785D01*
G37*
%LPD*%
%LPC*%
G36*
X1157826Y65785D02*
X1157826Y65785D01*
X1155445Y68166D01*
X1155445Y71534D01*
X1157826Y73915D01*
X1161194Y73915D01*
X1163575Y71534D01*
X1163575Y68166D01*
X1161194Y65785D01*
X1157826Y65785D01*
G37*
%LPD*%
%LPC*%
G36*
X75786Y65785D02*
X75786Y65785D01*
X73405Y68166D01*
X73405Y71534D01*
X75786Y73915D01*
X79154Y73915D01*
X81535Y71534D01*
X81535Y68166D01*
X79154Y65785D01*
X75786Y65785D01*
G37*
%LPD*%
%LPC*%
G36*
X498696Y84835D02*
X498696Y84835D01*
X496315Y87216D01*
X496315Y90584D01*
X498696Y92965D01*
X502064Y92965D01*
X504445Y90584D01*
X504445Y87216D01*
X502064Y84835D01*
X498696Y84835D01*
G37*
%LPD*%
%LPC*%
G36*
X952848Y64007D02*
X952848Y64007D01*
X950467Y66388D01*
X950467Y69756D01*
X952848Y72137D01*
X956216Y72137D01*
X958597Y69756D01*
X958597Y66388D01*
X956216Y64007D01*
X952848Y64007D01*
G37*
%LPD*%
%LPC*%
G36*
X592168Y64007D02*
X592168Y64007D01*
X589787Y66388D01*
X589787Y69756D01*
X592168Y72137D01*
X595536Y72137D01*
X597917Y69756D01*
X597917Y66388D01*
X595536Y64007D01*
X592168Y64007D01*
G37*
%LPD*%
%LPC*%
G36*
X231488Y64007D02*
X231488Y64007D01*
X229107Y66388D01*
X229107Y69756D01*
X231488Y72137D01*
X234856Y72137D01*
X237237Y69756D01*
X237237Y66388D01*
X234856Y64007D01*
X231488Y64007D01*
G37*
%LPD*%
%LPC*%
G36*
X162146Y286765D02*
X162146Y286765D01*
X159765Y289146D01*
X159765Y292514D01*
X162146Y294895D01*
X165514Y294895D01*
X167895Y292514D01*
X167895Y289146D01*
X165514Y286765D01*
X162146Y286765D01*
G37*
%LPD*%
%LPC*%
G36*
X148176Y286765D02*
X148176Y286765D01*
X145795Y289146D01*
X145795Y292514D01*
X148176Y294895D01*
X151544Y294895D01*
X153925Y292514D01*
X153925Y289146D01*
X151544Y286765D01*
X148176Y286765D01*
G37*
%LPD*%
%LPC*%
G36*
X549496Y286765D02*
X549496Y286765D01*
X547115Y289146D01*
X547115Y292514D01*
X549496Y294895D01*
X552864Y294895D01*
X555245Y292514D01*
X555245Y289146D01*
X552864Y286765D01*
X549496Y286765D01*
G37*
%LPD*%
%LPC*%
G36*
X201516Y286765D02*
X201516Y286765D01*
X199135Y289146D01*
X199135Y292514D01*
X201516Y294895D01*
X204884Y294895D01*
X207265Y292514D01*
X207265Y289146D01*
X204884Y286765D01*
X201516Y286765D01*
G37*
%LPD*%
%LPC*%
G36*
X539082Y51053D02*
X539082Y51053D01*
X536701Y53434D01*
X536701Y56802D01*
X539082Y59183D01*
X542450Y59183D01*
X544831Y56802D01*
X544831Y53434D01*
X542450Y51053D01*
X539082Y51053D01*
G37*
%LPD*%
%LPC*%
G36*
X899762Y51053D02*
X899762Y51053D01*
X897381Y53434D01*
X897381Y56802D01*
X899762Y59183D01*
X903130Y59183D01*
X905511Y56802D01*
X905511Y53434D01*
X903130Y51053D01*
X899762Y51053D01*
G37*
%LPD*%
%LPC*%
G36*
X1260442Y51053D02*
X1260442Y51053D01*
X1258061Y53434D01*
X1258061Y56802D01*
X1260442Y59183D01*
X1263810Y59183D01*
X1266191Y56802D01*
X1266191Y53434D01*
X1263810Y51053D01*
X1260442Y51053D01*
G37*
%LPD*%
%LPC*%
G36*
X178402Y51053D02*
X178402Y51053D01*
X176021Y53434D01*
X176021Y56802D01*
X178402Y59183D01*
X181770Y59183D01*
X184151Y56802D01*
X184151Y53434D01*
X181770Y51053D01*
X178402Y51053D01*
G37*
%LPD*%
%LPC*%
G36*
X910176Y286765D02*
X910176Y286765D01*
X907795Y289146D01*
X907795Y292514D01*
X910176Y294895D01*
X913544Y294895D01*
X915925Y292514D01*
X915925Y289146D01*
X913544Y286765D01*
X910176Y286765D01*
G37*
%LPD*%
%LPC*%
G36*
X174846Y286765D02*
X174846Y286765D01*
X172465Y289146D01*
X172465Y292514D01*
X174846Y294895D01*
X178214Y294895D01*
X180595Y292514D01*
X180595Y289146D01*
X178214Y286765D01*
X174846Y286765D01*
G37*
%LPD*%
%LPC*%
G36*
X562196Y286765D02*
X562196Y286765D01*
X559815Y289146D01*
X559815Y292514D01*
X562196Y294895D01*
X565564Y294895D01*
X567945Y292514D01*
X567945Y289146D01*
X565564Y286765D01*
X562196Y286765D01*
G37*
%LPD*%
%LPC*%
G36*
X522826Y286765D02*
X522826Y286765D01*
X520445Y289146D01*
X520445Y292514D01*
X522826Y294895D01*
X526194Y294895D01*
X528575Y292514D01*
X528575Y289146D01*
X526194Y286765D01*
X522826Y286765D01*
G37*
%LPD*%
%LPC*%
G36*
X883506Y286765D02*
X883506Y286765D01*
X881125Y289146D01*
X881125Y292514D01*
X883506Y294895D01*
X886874Y294895D01*
X889255Y292514D01*
X889255Y289146D01*
X886874Y286765D01*
X883506Y286765D01*
G37*
%LPD*%
%LPC*%
G36*
X922876Y286765D02*
X922876Y286765D01*
X920495Y289146D01*
X920495Y292514D01*
X922876Y294895D01*
X926244Y294895D01*
X928625Y292514D01*
X928625Y289146D01*
X926244Y286765D01*
X922876Y286765D01*
G37*
%LPD*%
%LPC*%
G36*
X1256886Y286765D02*
X1256886Y286765D01*
X1254505Y289146D01*
X1254505Y292514D01*
X1256886Y294895D01*
X1260254Y294895D01*
X1262635Y292514D01*
X1262635Y289146D01*
X1260254Y286765D01*
X1256886Y286765D01*
G37*
%LPD*%
%LPC*%
G36*
X1150206Y229615D02*
X1150206Y229615D01*
X1147825Y231996D01*
X1147825Y235364D01*
X1150206Y237745D01*
X1153574Y237745D01*
X1155955Y235364D01*
X1155955Y231996D01*
X1153574Y229615D01*
X1150206Y229615D01*
G37*
%LPD*%
%LPC*%
G36*
X1341976Y34797D02*
X1341976Y34797D01*
X1339595Y37178D01*
X1339595Y40546D01*
X1341976Y42927D01*
X1345344Y42927D01*
X1347725Y40546D01*
X1347725Y37178D01*
X1345344Y34797D01*
X1341976Y34797D01*
G37*
%LPD*%
%LPC*%
G36*
X981296Y34797D02*
X981296Y34797D01*
X978915Y37178D01*
X978915Y40546D01*
X981296Y42927D01*
X984664Y42927D01*
X987045Y40546D01*
X987045Y37178D01*
X984664Y34797D01*
X981296Y34797D01*
G37*
%LPD*%
%LPC*%
G36*
X620616Y34797D02*
X620616Y34797D01*
X618235Y37178D01*
X618235Y40546D01*
X620616Y42927D01*
X623984Y42927D01*
X626365Y40546D01*
X626365Y37178D01*
X623984Y34797D01*
X620616Y34797D01*
G37*
%LPD*%
%LPC*%
G36*
X259936Y34797D02*
X259936Y34797D01*
X257555Y37178D01*
X257555Y40546D01*
X259936Y42927D01*
X263304Y42927D01*
X265685Y40546D01*
X265685Y37178D01*
X263304Y34797D01*
X259936Y34797D01*
G37*
%LPD*%
%LPC*%
G36*
X789526Y229615D02*
X789526Y229615D01*
X787145Y231996D01*
X787145Y235364D01*
X789526Y237745D01*
X792894Y237745D01*
X795275Y235364D01*
X795275Y231996D01*
X792894Y229615D01*
X789526Y229615D01*
G37*
%LPD*%
%LPC*%
G36*
X68166Y229615D02*
X68166Y229615D01*
X65785Y231996D01*
X65785Y235364D01*
X68166Y237745D01*
X71534Y237745D01*
X73915Y235364D01*
X73915Y231996D01*
X71534Y229615D01*
X68166Y229615D01*
G37*
%LPD*%
%LPC*%
G36*
X428846Y229615D02*
X428846Y229615D01*
X426465Y231996D01*
X426465Y235364D01*
X428846Y237745D01*
X432214Y237745D01*
X434595Y235364D01*
X434595Y231996D01*
X432214Y229615D01*
X428846Y229615D01*
G37*
%LPD*%
%LPC*%
G36*
X51656Y224535D02*
X51656Y224535D01*
X49275Y226916D01*
X49275Y230284D01*
X51656Y232665D01*
X55024Y232665D01*
X57405Y230284D01*
X57405Y226916D01*
X55024Y224535D01*
X51656Y224535D01*
G37*
%LPD*%
%LPC*%
G36*
X773016Y224535D02*
X773016Y224535D01*
X770635Y226916D01*
X770635Y230284D01*
X773016Y232665D01*
X776384Y232665D01*
X778765Y230284D01*
X778765Y226916D01*
X776384Y224535D01*
X773016Y224535D01*
G37*
%LPD*%
%LPC*%
G36*
X1133696Y224535D02*
X1133696Y224535D01*
X1131315Y226916D01*
X1131315Y230284D01*
X1133696Y232665D01*
X1137064Y232665D01*
X1139445Y230284D01*
X1139445Y226916D01*
X1137064Y224535D01*
X1133696Y224535D01*
G37*
%LPD*%
%LPC*%
G36*
X412336Y224535D02*
X412336Y224535D01*
X409955Y226916D01*
X409955Y230284D01*
X412336Y232665D01*
X415704Y232665D01*
X418085Y230284D01*
X418085Y226916D01*
X415704Y224535D01*
X412336Y224535D01*
G37*
%LPD*%
%LPC*%
G36*
X1313528Y64007D02*
X1313528Y64007D01*
X1311147Y66388D01*
X1311147Y69756D01*
X1313528Y72137D01*
X1316896Y72137D01*
X1319277Y69756D01*
X1319277Y66388D01*
X1316896Y64007D01*
X1313528Y64007D01*
G37*
%LPD*%
%LPC*%
G36*
X477519Y180339D02*
X477519Y180339D01*
X477519Y187659D01*
X478880Y187216D01*
X480305Y186490D01*
X481599Y185550D01*
X482730Y184419D01*
X483670Y183125D01*
X484396Y181700D01*
X484839Y180339D01*
X477519Y180339D01*
G37*
%LPD*%
%LPC*%
G36*
X116839Y180339D02*
X116839Y180339D01*
X116839Y187659D01*
X118200Y187216D01*
X119625Y186490D01*
X120919Y185550D01*
X122050Y184419D01*
X122990Y183125D01*
X123716Y181700D01*
X124159Y180339D01*
X116839Y180339D01*
G37*
%LPD*%
%LPC*%
G36*
X1198879Y180339D02*
X1198879Y180339D01*
X1198879Y187659D01*
X1200240Y187216D01*
X1201665Y186490D01*
X1202959Y185550D01*
X1204090Y184419D01*
X1205030Y183125D01*
X1205756Y181700D01*
X1206199Y180339D01*
X1198879Y180339D01*
G37*
%LPD*%
%LPC*%
G36*
X838199Y180339D02*
X838199Y180339D01*
X838199Y187659D01*
X839560Y187216D01*
X840985Y186490D01*
X842279Y185550D01*
X843410Y184419D01*
X844350Y183125D01*
X845076Y181700D01*
X845519Y180339D01*
X838199Y180339D01*
G37*
%LPD*%
%LPC*%
G36*
X116839Y175261D02*
X116839Y175261D01*
X124159Y175261D01*
X123716Y173900D01*
X122990Y172475D01*
X122050Y171181D01*
X120919Y170050D01*
X119625Y169110D01*
X118200Y168384D01*
X116839Y167941D01*
X116839Y175261D01*
G37*
%LPD*%
%LPC*%
G36*
X465121Y180339D02*
X465121Y180339D01*
X465564Y181700D01*
X466290Y183125D01*
X467230Y184419D01*
X468361Y185550D01*
X469655Y186490D01*
X471080Y187216D01*
X472441Y187659D01*
X472441Y180339D01*
X465121Y180339D01*
G37*
%LPD*%
%LPC*%
G36*
X104441Y180339D02*
X104441Y180339D01*
X104884Y181700D01*
X105610Y183125D01*
X106550Y184419D01*
X107681Y185550D01*
X108975Y186490D01*
X110400Y187216D01*
X111761Y187659D01*
X111761Y180339D01*
X104441Y180339D01*
G37*
%LPD*%
%LPC*%
G36*
X825801Y180339D02*
X825801Y180339D01*
X826244Y181700D01*
X826970Y183125D01*
X827910Y184419D01*
X829041Y185550D01*
X830335Y186490D01*
X831760Y187216D01*
X833121Y187659D01*
X833121Y180339D01*
X825801Y180339D01*
G37*
%LPD*%
%LPC*%
G36*
X1186481Y180339D02*
X1186481Y180339D01*
X1186924Y181700D01*
X1187650Y183125D01*
X1188590Y184419D01*
X1189721Y185550D01*
X1191015Y186490D01*
X1192440Y187216D01*
X1193801Y187659D01*
X1193801Y180339D01*
X1186481Y180339D01*
G37*
%LPD*%
%LPC*%
G36*
X838199Y175261D02*
X838199Y175261D01*
X845519Y175261D01*
X845076Y173900D01*
X844350Y172475D01*
X843410Y171181D01*
X842279Y170050D01*
X840985Y169110D01*
X839560Y168384D01*
X838199Y167941D01*
X838199Y175261D01*
G37*
%LPD*%
%LPC*%
G36*
X477519Y175261D02*
X477519Y175261D01*
X484839Y175261D01*
X484396Y173900D01*
X483670Y172475D01*
X482730Y171181D01*
X481599Y170050D01*
X480305Y169110D01*
X478880Y168384D01*
X477519Y167941D01*
X477519Y175261D01*
G37*
%LPD*%
%LPC*%
G36*
X1198879Y175261D02*
X1198879Y175261D01*
X1206199Y175261D01*
X1205756Y173900D01*
X1205030Y172475D01*
X1204090Y171181D01*
X1202959Y170050D01*
X1201665Y169110D01*
X1200240Y168384D01*
X1198879Y167941D01*
X1198879Y175261D01*
G37*
%LPD*%
%LPC*%
G36*
X831760Y168384D02*
X831760Y168384D01*
X830335Y169110D01*
X829041Y170050D01*
X827910Y171181D01*
X826970Y172475D01*
X826244Y173900D01*
X825801Y175261D01*
X833121Y175261D01*
X833121Y167941D01*
X831760Y168384D01*
G37*
%LPD*%
%LPC*%
G36*
X110400Y168384D02*
X110400Y168384D01*
X108975Y169110D01*
X107681Y170050D01*
X106550Y171181D01*
X105610Y172475D01*
X104884Y173900D01*
X104441Y175261D01*
X111761Y175261D01*
X111761Y167941D01*
X110400Y168384D01*
G37*
%LPD*%
%LPC*%
G36*
X471080Y168384D02*
X471080Y168384D01*
X469655Y169110D01*
X468361Y170050D01*
X467230Y171181D01*
X466290Y172475D01*
X465564Y173900D01*
X465121Y175261D01*
X472441Y175261D01*
X472441Y167941D01*
X471080Y168384D01*
G37*
%LPD*%
%LPC*%
G36*
X1192440Y168384D02*
X1192440Y168384D01*
X1191015Y169110D01*
X1189721Y170050D01*
X1188590Y171181D01*
X1187650Y172475D01*
X1186924Y173900D01*
X1186481Y175261D01*
X1193801Y175261D01*
X1193801Y167941D01*
X1192440Y168384D01*
G37*
%LPD*%
%LPC*%
G36*
X474979Y177799D02*
X474979Y177799D01*
X474979Y177801D01*
X474981Y177801D01*
X474981Y177799D01*
X474979Y177799D01*
G37*
%LPD*%
%LPC*%
G36*
X1196339Y177799D02*
X1196339Y177799D01*
X1196339Y177801D01*
X1196341Y177801D01*
X1196341Y177799D01*
X1196339Y177799D01*
G37*
%LPD*%
%LPC*%
G36*
X835659Y177799D02*
X835659Y177799D01*
X835659Y177801D01*
X835661Y177801D01*
X835661Y177799D01*
X835659Y177799D01*
G37*
%LPD*%
%LPC*%
G36*
X114299Y177799D02*
X114299Y177799D01*
X114299Y177801D01*
X114301Y177801D01*
X114301Y177799D01*
X114299Y177799D01*
G37*
%LPD*%
D10*
X198953Y384747D02*
X198951Y384867D01*
X198945Y384987D01*
X198936Y385107D01*
X198922Y385226D01*
X198905Y385345D01*
X198884Y385463D01*
X198859Y385581D01*
X198830Y385697D01*
X198798Y385813D01*
X198762Y385928D01*
X198722Y386041D01*
X198679Y386153D01*
X198632Y386264D01*
X198582Y386373D01*
X198528Y386480D01*
X198471Y386586D01*
X198410Y386689D01*
X198346Y386791D01*
X198279Y386891D01*
X198209Y386988D01*
X198136Y387083D01*
X198059Y387176D01*
X197980Y387266D01*
X197898Y387354D01*
X197813Y387439D01*
X197725Y387521D01*
X197635Y387600D01*
X197542Y387677D01*
X197447Y387750D01*
X197350Y387820D01*
X197250Y387887D01*
X197148Y387951D01*
X197045Y388012D01*
X196939Y388069D01*
X196832Y388123D01*
X196723Y388173D01*
X196612Y388220D01*
X196500Y388263D01*
X196387Y388303D01*
X196272Y388339D01*
X196156Y388371D01*
X196040Y388400D01*
X195922Y388425D01*
X195804Y388446D01*
X195685Y388463D01*
X195566Y388477D01*
X195446Y388486D01*
X195326Y388492D01*
X195206Y388494D01*
X195206Y388493D02*
X195068Y388491D01*
X194931Y388485D01*
X194794Y388475D01*
X194657Y388462D01*
X194521Y388444D01*
X194385Y388422D01*
X194249Y388397D01*
X194115Y388368D01*
X193982Y388335D01*
X193849Y388298D01*
X193718Y388257D01*
X193587Y388213D01*
X193459Y388165D01*
X193331Y388113D01*
X193205Y388057D01*
X193081Y387998D01*
X192958Y387936D01*
X192838Y387870D01*
X192719Y387801D01*
X192602Y387728D01*
X192488Y387652D01*
X192375Y387572D01*
X192265Y387490D01*
X192157Y387404D01*
X192052Y387316D01*
X191950Y387224D01*
X191850Y387130D01*
X191752Y387032D01*
X191658Y386932D01*
X191567Y386829D01*
X191478Y386724D01*
X191393Y386616D01*
X191310Y386506D01*
X191231Y386394D01*
X191155Y386279D01*
X191082Y386162D01*
X191013Y386043D01*
X190947Y385923D01*
X190885Y385800D01*
X190826Y385676D01*
X190771Y385550D01*
X190719Y385422D01*
X190671Y385293D01*
X190627Y385163D01*
X197703Y381833D02*
X197793Y381921D01*
X197879Y382012D01*
X197963Y382105D01*
X198044Y382201D01*
X198122Y382299D01*
X198196Y382399D01*
X198268Y382502D01*
X198336Y382607D01*
X198401Y382715D01*
X198463Y382824D01*
X198521Y382935D01*
X198576Y383048D01*
X198627Y383162D01*
X198674Y383278D01*
X198718Y383395D01*
X198758Y383514D01*
X198795Y383634D01*
X198828Y383755D01*
X198857Y383877D01*
X198882Y383999D01*
X198903Y384123D01*
X198921Y384247D01*
X198934Y384372D01*
X198944Y384497D01*
X198950Y384622D01*
X198952Y384747D01*
X197704Y381833D02*
X190627Y373507D01*
X198953Y373507D01*
X555886Y388494D02*
X556006Y388492D01*
X556126Y388486D01*
X556246Y388477D01*
X556365Y388463D01*
X556484Y388446D01*
X556602Y388425D01*
X556720Y388400D01*
X556836Y388371D01*
X556952Y388339D01*
X557067Y388303D01*
X557180Y388263D01*
X557292Y388220D01*
X557403Y388173D01*
X557512Y388123D01*
X557619Y388069D01*
X557725Y388012D01*
X557828Y387951D01*
X557930Y387887D01*
X558030Y387820D01*
X558127Y387750D01*
X558222Y387677D01*
X558315Y387600D01*
X558405Y387521D01*
X558493Y387439D01*
X558578Y387354D01*
X558660Y387266D01*
X558739Y387176D01*
X558816Y387083D01*
X558889Y386988D01*
X558959Y386891D01*
X559026Y386791D01*
X559090Y386689D01*
X559151Y386586D01*
X559208Y386480D01*
X559262Y386373D01*
X559312Y386264D01*
X559359Y386153D01*
X559402Y386041D01*
X559442Y385928D01*
X559478Y385813D01*
X559510Y385697D01*
X559539Y385581D01*
X559564Y385463D01*
X559585Y385345D01*
X559602Y385226D01*
X559616Y385107D01*
X559625Y384987D01*
X559631Y384867D01*
X559633Y384747D01*
X555886Y388493D02*
X555748Y388491D01*
X555611Y388485D01*
X555474Y388475D01*
X555337Y388462D01*
X555201Y388444D01*
X555065Y388422D01*
X554929Y388397D01*
X554795Y388368D01*
X554662Y388335D01*
X554529Y388298D01*
X554398Y388257D01*
X554267Y388213D01*
X554139Y388165D01*
X554011Y388113D01*
X553885Y388057D01*
X553761Y387998D01*
X553638Y387936D01*
X553518Y387870D01*
X553399Y387801D01*
X553282Y387728D01*
X553168Y387652D01*
X553055Y387572D01*
X552945Y387490D01*
X552837Y387404D01*
X552732Y387316D01*
X552630Y387224D01*
X552530Y387130D01*
X552432Y387032D01*
X552338Y386932D01*
X552247Y386829D01*
X552158Y386724D01*
X552073Y386616D01*
X551990Y386506D01*
X551911Y386394D01*
X551835Y386279D01*
X551762Y386162D01*
X551693Y386043D01*
X551627Y385923D01*
X551565Y385800D01*
X551506Y385676D01*
X551451Y385550D01*
X551399Y385422D01*
X551351Y385293D01*
X551307Y385163D01*
X558383Y381833D02*
X558473Y381921D01*
X558559Y382012D01*
X558643Y382105D01*
X558724Y382201D01*
X558802Y382299D01*
X558876Y382399D01*
X558948Y382502D01*
X559016Y382607D01*
X559081Y382715D01*
X559143Y382824D01*
X559201Y382935D01*
X559256Y383048D01*
X559307Y383162D01*
X559354Y383278D01*
X559398Y383395D01*
X559438Y383514D01*
X559475Y383634D01*
X559508Y383755D01*
X559537Y383877D01*
X559562Y383999D01*
X559583Y384123D01*
X559601Y384247D01*
X559614Y384372D01*
X559624Y384497D01*
X559630Y384622D01*
X559632Y384747D01*
X558384Y381833D02*
X551307Y373507D01*
X559633Y373507D01*
X916566Y388494D02*
X916686Y388492D01*
X916806Y388486D01*
X916926Y388477D01*
X917045Y388463D01*
X917164Y388446D01*
X917282Y388425D01*
X917400Y388400D01*
X917516Y388371D01*
X917632Y388339D01*
X917747Y388303D01*
X917860Y388263D01*
X917972Y388220D01*
X918083Y388173D01*
X918192Y388123D01*
X918299Y388069D01*
X918405Y388012D01*
X918508Y387951D01*
X918610Y387887D01*
X918710Y387820D01*
X918807Y387750D01*
X918902Y387677D01*
X918995Y387600D01*
X919085Y387521D01*
X919173Y387439D01*
X919258Y387354D01*
X919340Y387266D01*
X919419Y387176D01*
X919496Y387083D01*
X919569Y386988D01*
X919639Y386891D01*
X919706Y386791D01*
X919770Y386689D01*
X919831Y386586D01*
X919888Y386480D01*
X919942Y386373D01*
X919992Y386264D01*
X920039Y386153D01*
X920082Y386041D01*
X920122Y385928D01*
X920158Y385813D01*
X920190Y385697D01*
X920219Y385581D01*
X920244Y385463D01*
X920265Y385345D01*
X920282Y385226D01*
X920296Y385107D01*
X920305Y384987D01*
X920311Y384867D01*
X920313Y384747D01*
X916566Y388493D02*
X916428Y388491D01*
X916291Y388485D01*
X916154Y388475D01*
X916017Y388462D01*
X915881Y388444D01*
X915745Y388422D01*
X915609Y388397D01*
X915475Y388368D01*
X915342Y388335D01*
X915209Y388298D01*
X915078Y388257D01*
X914947Y388213D01*
X914819Y388165D01*
X914691Y388113D01*
X914565Y388057D01*
X914441Y387998D01*
X914318Y387936D01*
X914198Y387870D01*
X914079Y387801D01*
X913962Y387728D01*
X913848Y387652D01*
X913735Y387572D01*
X913625Y387490D01*
X913517Y387404D01*
X913412Y387316D01*
X913310Y387224D01*
X913210Y387130D01*
X913112Y387032D01*
X913018Y386932D01*
X912927Y386829D01*
X912838Y386724D01*
X912753Y386616D01*
X912670Y386506D01*
X912591Y386394D01*
X912515Y386279D01*
X912442Y386162D01*
X912373Y386043D01*
X912307Y385923D01*
X912245Y385800D01*
X912186Y385676D01*
X912131Y385550D01*
X912079Y385422D01*
X912031Y385293D01*
X911987Y385163D01*
X919063Y381833D02*
X919153Y381921D01*
X919239Y382012D01*
X919323Y382105D01*
X919404Y382201D01*
X919482Y382299D01*
X919556Y382399D01*
X919628Y382502D01*
X919696Y382607D01*
X919761Y382715D01*
X919823Y382824D01*
X919881Y382935D01*
X919936Y383048D01*
X919987Y383162D01*
X920034Y383278D01*
X920078Y383395D01*
X920118Y383514D01*
X920155Y383634D01*
X920188Y383755D01*
X920217Y383877D01*
X920242Y383999D01*
X920263Y384123D01*
X920281Y384247D01*
X920294Y384372D01*
X920304Y384497D01*
X920310Y384622D01*
X920312Y384747D01*
X919064Y381833D02*
X911987Y373507D01*
X920313Y373507D01*
X1277246Y388494D02*
X1277366Y388492D01*
X1277486Y388486D01*
X1277606Y388477D01*
X1277725Y388463D01*
X1277844Y388446D01*
X1277962Y388425D01*
X1278080Y388400D01*
X1278196Y388371D01*
X1278312Y388339D01*
X1278427Y388303D01*
X1278540Y388263D01*
X1278652Y388220D01*
X1278763Y388173D01*
X1278872Y388123D01*
X1278979Y388069D01*
X1279085Y388012D01*
X1279188Y387951D01*
X1279290Y387887D01*
X1279390Y387820D01*
X1279487Y387750D01*
X1279582Y387677D01*
X1279675Y387600D01*
X1279765Y387521D01*
X1279853Y387439D01*
X1279938Y387354D01*
X1280020Y387266D01*
X1280099Y387176D01*
X1280176Y387083D01*
X1280249Y386988D01*
X1280319Y386891D01*
X1280386Y386791D01*
X1280450Y386689D01*
X1280511Y386586D01*
X1280568Y386480D01*
X1280622Y386373D01*
X1280672Y386264D01*
X1280719Y386153D01*
X1280762Y386041D01*
X1280802Y385928D01*
X1280838Y385813D01*
X1280870Y385697D01*
X1280899Y385581D01*
X1280924Y385463D01*
X1280945Y385345D01*
X1280962Y385226D01*
X1280976Y385107D01*
X1280985Y384987D01*
X1280991Y384867D01*
X1280993Y384747D01*
X1277246Y388493D02*
X1277108Y388491D01*
X1276971Y388485D01*
X1276834Y388475D01*
X1276697Y388462D01*
X1276561Y388444D01*
X1276425Y388422D01*
X1276289Y388397D01*
X1276155Y388368D01*
X1276022Y388335D01*
X1275889Y388298D01*
X1275758Y388257D01*
X1275627Y388213D01*
X1275499Y388165D01*
X1275371Y388113D01*
X1275245Y388057D01*
X1275121Y387998D01*
X1274998Y387936D01*
X1274878Y387870D01*
X1274759Y387801D01*
X1274642Y387728D01*
X1274528Y387652D01*
X1274415Y387572D01*
X1274305Y387490D01*
X1274197Y387404D01*
X1274092Y387316D01*
X1273990Y387224D01*
X1273890Y387130D01*
X1273792Y387032D01*
X1273698Y386932D01*
X1273607Y386829D01*
X1273518Y386724D01*
X1273433Y386616D01*
X1273350Y386506D01*
X1273271Y386394D01*
X1273195Y386279D01*
X1273122Y386162D01*
X1273053Y386043D01*
X1272987Y385923D01*
X1272925Y385800D01*
X1272866Y385676D01*
X1272811Y385550D01*
X1272759Y385422D01*
X1272711Y385293D01*
X1272667Y385163D01*
X1279743Y381833D02*
X1279833Y381921D01*
X1279919Y382012D01*
X1280003Y382105D01*
X1280084Y382201D01*
X1280162Y382299D01*
X1280236Y382399D01*
X1280308Y382502D01*
X1280376Y382607D01*
X1280441Y382715D01*
X1280503Y382824D01*
X1280561Y382935D01*
X1280616Y383048D01*
X1280667Y383162D01*
X1280714Y383278D01*
X1280758Y383395D01*
X1280798Y383514D01*
X1280835Y383634D01*
X1280868Y383755D01*
X1280897Y383877D01*
X1280922Y383999D01*
X1280943Y384123D01*
X1280961Y384247D01*
X1280974Y384372D01*
X1280984Y384497D01*
X1280990Y384622D01*
X1280992Y384747D01*
X1279744Y381833D02*
X1272667Y373507D01*
X1280993Y373507D01*
D11*
X241300Y406400D03*
X241300Y381000D03*
X241300Y355600D03*
X241300Y330200D03*
X241300Y304800D03*
X241300Y279400D03*
X241300Y254000D03*
X241300Y228600D03*
X241300Y203200D03*
X241300Y177800D03*
X114300Y406400D03*
X114300Y381000D03*
X114300Y355600D03*
X114300Y330200D03*
X114300Y304800D03*
X114300Y279400D03*
X114300Y254000D03*
X114300Y228600D03*
X114300Y203200D03*
X114300Y177800D03*
X114300Y152400D03*
X241300Y152400D03*
X601980Y406400D03*
X601980Y381000D03*
X601980Y355600D03*
X601980Y330200D03*
X601980Y304800D03*
X601980Y279400D03*
X601980Y254000D03*
X601980Y228600D03*
X601980Y203200D03*
X601980Y177800D03*
X474980Y406400D03*
X474980Y381000D03*
X474980Y355600D03*
X474980Y330200D03*
X474980Y304800D03*
X474980Y279400D03*
X474980Y254000D03*
X474980Y228600D03*
X474980Y203200D03*
X474980Y177800D03*
X474980Y152400D03*
X601980Y152400D03*
X962660Y406400D03*
X962660Y381000D03*
X962660Y355600D03*
X962660Y330200D03*
X962660Y304800D03*
X962660Y279400D03*
X962660Y254000D03*
X962660Y228600D03*
X962660Y203200D03*
X962660Y177800D03*
X835660Y406400D03*
X835660Y381000D03*
X835660Y355600D03*
X835660Y330200D03*
X835660Y304800D03*
X835660Y279400D03*
X835660Y254000D03*
X835660Y228600D03*
X835660Y203200D03*
X835660Y177800D03*
X835660Y152400D03*
X962660Y152400D03*
X1323340Y406400D03*
X1323340Y381000D03*
X1323340Y355600D03*
X1323340Y330200D03*
X1323340Y304800D03*
X1323340Y279400D03*
X1323340Y254000D03*
X1323340Y228600D03*
X1323340Y203200D03*
X1323340Y177800D03*
X1196340Y406400D03*
X1196340Y381000D03*
X1196340Y355600D03*
X1196340Y330200D03*
X1196340Y304800D03*
X1196340Y279400D03*
X1196340Y254000D03*
X1196340Y228600D03*
X1196340Y203200D03*
X1196340Y177800D03*
X1196340Y152400D03*
X1323340Y152400D03*
D12*
X270764Y120904D03*
X205740Y246380D03*
X220980Y246380D03*
X182880Y215900D03*
X205740Y233680D03*
X220980Y233680D03*
X6350Y402590D03*
X6350Y387350D03*
X6350Y372110D03*
X6350Y356870D03*
X6350Y341630D03*
X6350Y326390D03*
X335280Y302260D03*
X294640Y292100D03*
X220980Y215900D03*
X168910Y149860D03*
X138430Y81280D03*
X43688Y95758D03*
X52070Y129540D03*
X307340Y128270D03*
X307340Y72390D03*
X251968Y37338D03*
X69850Y392430D03*
X59690Y344170D03*
X62230Y228600D03*
X29210Y264160D03*
X114554Y126492D03*
X69850Y125730D03*
X95250Y111760D03*
X177800Y406400D03*
X342900Y406400D03*
X266700Y12700D03*
X12700Y63500D03*
X132588Y255524D03*
X132080Y290576D03*
X83058Y211074D03*
X130556Y210820D03*
X205232Y96012D03*
X187706Y151384D03*
X133858Y70612D03*
X208026Y6604D03*
X182626Y6350D03*
X152654Y39624D03*
X335280Y100330D03*
X59690Y306070D03*
X292100Y393700D03*
X292100Y368300D03*
X292100Y317500D03*
X292100Y254000D03*
X292100Y190500D03*
X63500Y190500D03*
X25400Y190500D03*
X44450Y392430D03*
X334010Y368300D03*
X234696Y129286D03*
X228600Y368300D03*
X228600Y342900D03*
X228600Y317500D03*
X177800Y317500D03*
X177800Y342900D03*
X127000Y342900D03*
X127000Y368300D03*
X127000Y393700D03*
X228600Y393700D03*
X12700Y304800D03*
X349250Y251460D03*
X349250Y187960D03*
X349250Y340360D03*
X215900Y123190D03*
X66040Y71120D03*
X261112Y115062D03*
X221742Y96012D03*
X205232Y43434D03*
X163068Y84836D03*
X233680Y56642D03*
X278892Y115062D03*
X176530Y290830D03*
X163830Y290830D03*
X190500Y290830D03*
X148590Y189230D03*
X45720Y341630D03*
X180086Y55118D03*
X217170Y161544D03*
X261620Y38862D03*
X203200Y290830D03*
X149860Y290830D03*
X233172Y68072D03*
X265176Y72106D03*
X265684Y65248D03*
X287782Y71882D03*
X69850Y233680D03*
X69850Y383540D03*
X53340Y228600D03*
X53340Y347218D03*
X139700Y88900D03*
X38100Y88900D03*
X36830Y266700D03*
D13*
X36830Y269240D02*
X39370Y271780D01*
X36830Y269240D02*
X36830Y266700D01*
X93980Y279400D02*
X114300Y279400D01*
X86360Y271780D02*
X39370Y271780D01*
X86360Y271780D02*
X93980Y279400D01*
D12*
X219710Y203200D03*
D13*
X114300Y203200D01*
D12*
X179070Y149860D03*
X335280Y293370D03*
X302260Y293370D03*
X335280Y109220D03*
X254508Y109728D03*
X220472Y6350D03*
X195072Y6350D03*
X158750Y142494D03*
X170942Y6350D03*
X120904Y71374D03*
X87884Y82296D03*
X76200Y12700D03*
X127000Y12700D03*
X184150Y180340D03*
X77470Y69850D03*
X106680Y76200D03*
X189738Y185928D03*
X631444Y120904D03*
X566420Y246380D03*
X581660Y246380D03*
X543560Y215900D03*
X566420Y233680D03*
X581660Y233680D03*
X367030Y402590D03*
X367030Y387350D03*
X367030Y372110D03*
X367030Y356870D03*
X367030Y341630D03*
X367030Y326390D03*
X695960Y302260D03*
X655320Y292100D03*
X581660Y215900D03*
X529590Y149860D03*
X499110Y81280D03*
X404368Y95758D03*
X412750Y129540D03*
X668020Y128270D03*
X668020Y72390D03*
X612648Y37338D03*
X430530Y392430D03*
X420370Y344170D03*
X422910Y228600D03*
X389890Y264160D03*
X475234Y126492D03*
X430530Y125730D03*
X455930Y111760D03*
X538480Y406400D03*
X703580Y406400D03*
X627380Y12700D03*
X373380Y63500D03*
X493268Y255524D03*
X492760Y290576D03*
X443738Y211074D03*
X491236Y210820D03*
X565912Y96012D03*
X548386Y151384D03*
X494538Y70612D03*
X568706Y6604D03*
X543306Y6350D03*
X513334Y39624D03*
X695960Y100330D03*
X420370Y306070D03*
X652780Y393700D03*
X652780Y368300D03*
X652780Y317500D03*
X652780Y254000D03*
X652780Y190500D03*
X424180Y190500D03*
X386080Y190500D03*
X405130Y392430D03*
X694690Y368300D03*
X595376Y129286D03*
X589280Y368300D03*
X589280Y342900D03*
X589280Y317500D03*
X538480Y317500D03*
X538480Y342900D03*
X487680Y342900D03*
X487680Y368300D03*
X487680Y393700D03*
X589280Y393700D03*
X373380Y304800D03*
X709930Y251460D03*
X709930Y187960D03*
X709930Y340360D03*
X576580Y123190D03*
X426720Y71120D03*
X621792Y115062D03*
X582422Y96012D03*
X565912Y43434D03*
X523748Y84836D03*
X594360Y56642D03*
X639572Y115062D03*
X537210Y290830D03*
X524510Y290830D03*
X551180Y290830D03*
X509270Y189230D03*
X406400Y341630D03*
X540766Y55118D03*
X577850Y161544D03*
X622300Y38862D03*
X563880Y290830D03*
X510540Y290830D03*
X593852Y68072D03*
X625856Y72106D03*
X626364Y65248D03*
X648462Y71882D03*
X430530Y233680D03*
X430530Y383540D03*
X414020Y228600D03*
X414020Y347218D03*
X500380Y88900D03*
X398780Y88900D03*
X397510Y266700D03*
D13*
X397510Y269240D02*
X400050Y271780D01*
X397510Y269240D02*
X397510Y266700D01*
X454660Y279400D02*
X474980Y279400D01*
X447040Y271780D02*
X400050Y271780D01*
X447040Y271780D02*
X454660Y279400D01*
D12*
X580390Y203200D03*
D13*
X474980Y203200D01*
D12*
X539750Y149860D03*
X695960Y293370D03*
X662940Y293370D03*
X695960Y109220D03*
X615188Y109728D03*
X581152Y6350D03*
X555752Y6350D03*
X519430Y142494D03*
X531622Y6350D03*
X481584Y71374D03*
X448564Y82296D03*
X436880Y12700D03*
X487680Y12700D03*
X544830Y180340D03*
X438150Y69850D03*
X467360Y76200D03*
X550418Y185928D03*
X992124Y120904D03*
X927100Y246380D03*
X942340Y246380D03*
X904240Y215900D03*
X927100Y233680D03*
X942340Y233680D03*
X727710Y402590D03*
X727710Y387350D03*
X727710Y372110D03*
X727710Y356870D03*
X727710Y341630D03*
X727710Y326390D03*
X1056640Y302260D03*
X1016000Y292100D03*
X942340Y215900D03*
X890270Y149860D03*
X859790Y81280D03*
X765048Y95758D03*
X773430Y129540D03*
X1028700Y128270D03*
X1028700Y72390D03*
X973328Y37338D03*
X791210Y392430D03*
X781050Y344170D03*
X783590Y228600D03*
X750570Y264160D03*
X835914Y126492D03*
X791210Y125730D03*
X816610Y111760D03*
X899160Y406400D03*
X1064260Y406400D03*
X988060Y12700D03*
X734060Y63500D03*
X853948Y255524D03*
X853440Y290576D03*
X804418Y211074D03*
X851916Y210820D03*
X926592Y96012D03*
X909066Y151384D03*
X855218Y70612D03*
X929386Y6604D03*
X903986Y6350D03*
X874014Y39624D03*
X1056640Y100330D03*
X781050Y306070D03*
X1013460Y393700D03*
X1013460Y368300D03*
X1013460Y317500D03*
X1013460Y254000D03*
X1013460Y190500D03*
X784860Y190500D03*
X746760Y190500D03*
X765810Y392430D03*
X1055370Y368300D03*
X956056Y129286D03*
X949960Y368300D03*
X949960Y342900D03*
X949960Y317500D03*
X899160Y317500D03*
X899160Y342900D03*
X848360Y342900D03*
X848360Y368300D03*
X848360Y393700D03*
X949960Y393700D03*
X734060Y304800D03*
X1070610Y251460D03*
X1070610Y187960D03*
X1070610Y340360D03*
X937260Y123190D03*
X787400Y71120D03*
X982472Y115062D03*
X943102Y96012D03*
X926592Y43434D03*
X884428Y84836D03*
X955040Y56642D03*
X1000252Y115062D03*
X897890Y290830D03*
X885190Y290830D03*
X911860Y290830D03*
X869950Y189230D03*
X767080Y341630D03*
X901446Y55118D03*
X938530Y161544D03*
X982980Y38862D03*
X924560Y290830D03*
X871220Y290830D03*
X954532Y68072D03*
X986536Y72106D03*
X987044Y65248D03*
X1009142Y71882D03*
X791210Y233680D03*
X791210Y383540D03*
X774700Y228600D03*
X774700Y347218D03*
X861060Y88900D03*
X759460Y88900D03*
X758190Y266700D03*
D13*
X758190Y269240D02*
X760730Y271780D01*
X758190Y269240D02*
X758190Y266700D01*
X815340Y279400D02*
X835660Y279400D01*
X807720Y271780D02*
X760730Y271780D01*
X807720Y271780D02*
X815340Y279400D01*
D12*
X941070Y203200D03*
D13*
X835660Y203200D01*
D12*
X900430Y149860D03*
X1056640Y293370D03*
X1023620Y293370D03*
X1056640Y109220D03*
X975868Y109728D03*
X941832Y6350D03*
X916432Y6350D03*
X880110Y142494D03*
X892302Y6350D03*
X842264Y71374D03*
X809244Y82296D03*
X797560Y12700D03*
X848360Y12700D03*
X905510Y180340D03*
X798830Y69850D03*
X828040Y76200D03*
X911098Y185928D03*
X1352804Y120904D03*
X1287780Y246380D03*
X1303020Y246380D03*
X1264920Y215900D03*
X1287780Y233680D03*
X1303020Y233680D03*
X1088390Y402590D03*
X1088390Y387350D03*
X1088390Y372110D03*
X1088390Y356870D03*
X1088390Y341630D03*
X1088390Y326390D03*
X1417320Y302260D03*
X1376680Y292100D03*
X1303020Y215900D03*
X1250950Y149860D03*
X1220470Y81280D03*
X1125728Y95758D03*
X1134110Y129540D03*
X1389380Y128270D03*
X1389380Y72390D03*
X1334008Y37338D03*
X1151890Y392430D03*
X1141730Y344170D03*
X1144270Y228600D03*
X1111250Y264160D03*
X1196594Y126492D03*
X1151890Y125730D03*
X1177290Y111760D03*
X1259840Y406400D03*
X1424940Y406400D03*
X1348740Y12700D03*
X1094740Y63500D03*
X1214628Y255524D03*
X1214120Y290576D03*
X1165098Y211074D03*
X1212596Y210820D03*
X1287272Y96012D03*
X1269746Y151384D03*
X1215898Y70612D03*
X1290066Y6604D03*
X1264666Y6350D03*
X1234694Y39624D03*
X1417320Y100330D03*
X1141730Y306070D03*
X1374140Y393700D03*
X1374140Y368300D03*
X1374140Y317500D03*
X1374140Y254000D03*
X1374140Y190500D03*
X1145540Y190500D03*
X1107440Y190500D03*
X1126490Y392430D03*
X1416050Y368300D03*
X1316736Y129286D03*
X1310640Y368300D03*
X1310640Y342900D03*
X1310640Y317500D03*
X1259840Y317500D03*
X1259840Y342900D03*
X1209040Y342900D03*
X1209040Y368300D03*
X1209040Y393700D03*
X1310640Y393700D03*
X1094740Y304800D03*
X1431290Y251460D03*
X1431290Y187960D03*
X1431290Y340360D03*
X1297940Y123190D03*
X1148080Y71120D03*
X1343152Y115062D03*
X1303782Y96012D03*
X1287272Y43434D03*
X1245108Y84836D03*
X1315720Y56642D03*
X1360932Y115062D03*
X1258570Y290830D03*
X1245870Y290830D03*
X1272540Y290830D03*
X1230630Y189230D03*
X1127760Y341630D03*
X1262126Y55118D03*
X1299210Y161544D03*
X1343660Y38862D03*
X1285240Y290830D03*
X1231900Y290830D03*
X1315212Y68072D03*
X1347216Y72106D03*
X1347724Y65248D03*
X1369822Y71882D03*
X1151890Y233680D03*
X1151890Y383540D03*
X1135380Y228600D03*
X1135380Y347218D03*
X1221740Y88900D03*
X1120140Y88900D03*
X1118870Y266700D03*
D13*
X1118870Y269240D02*
X1121410Y271780D01*
X1118870Y269240D02*
X1118870Y266700D01*
X1176020Y279400D02*
X1196340Y279400D01*
X1168400Y271780D02*
X1121410Y271780D01*
X1168400Y271780D02*
X1176020Y279400D01*
D12*
X1301750Y203200D03*
D13*
X1196340Y203200D01*
D12*
X1261110Y149860D03*
X1417320Y293370D03*
X1384300Y293370D03*
X1417320Y109220D03*
X1336548Y109728D03*
X1302512Y6350D03*
X1277112Y6350D03*
X1240790Y142494D03*
X1252982Y6350D03*
X1202944Y71374D03*
X1169924Y82296D03*
X1158240Y12700D03*
X1209040Y12700D03*
X1266190Y180340D03*
X1159510Y69850D03*
X1188720Y76200D03*
X1271778Y185928D03*
M02*
